%TF.GenerationSoftware,KiCad,Pcbnew,(6.0.2)*%
%TF.CreationDate,2022-04-13T00:32:55+08:00*%
%TF.ProjectId,wave_generator,77617665-5f67-4656-9e65-7261746f722e,rev?*%
%TF.SameCoordinates,Original*%
%TF.FileFunction,Copper,L3,Inr*%
%TF.FilePolarity,Positive*%
%FSLAX46Y46*%
G04 Gerber Fmt 4.6, Leading zero omitted, Abs format (unit mm)*
G04 Created by KiCad (PCBNEW (6.0.2)) date 2022-04-13 00:32:55*
%MOMM*%
%LPD*%
G01*
G04 APERTURE LIST*
%TA.AperFunction,ComponentPad*%
%ADD10C,5.000000*%
%TD*%
%TA.AperFunction,ComponentPad*%
%ADD11R,1.524000X1.524000*%
%TD*%
%TA.AperFunction,ComponentPad*%
%ADD12C,1.524000*%
%TD*%
%TA.AperFunction,ComponentPad*%
%ADD13C,1.540000*%
%TD*%
%TA.AperFunction,ComponentPad*%
%ADD14R,2.500000X2.500000*%
%TD*%
%TA.AperFunction,ComponentPad*%
%ADD15C,2.500000*%
%TD*%
%TA.AperFunction,ComponentPad*%
%ADD16C,1.400000*%
%TD*%
%TA.AperFunction,ComponentPad*%
%ADD17R,1.700000X1.700000*%
%TD*%
%TA.AperFunction,ComponentPad*%
%ADD18O,1.700000X1.700000*%
%TD*%
%TA.AperFunction,ViaPad*%
%ADD19C,0.500000*%
%TD*%
%TA.AperFunction,Conductor*%
%ADD20C,0.200000*%
%TD*%
%TA.AperFunction,Conductor*%
%ADD21C,0.508000*%
%TD*%
%TA.AperFunction,Conductor*%
%ADD22C,0.254000*%
%TD*%
%TA.AperFunction,Conductor*%
%ADD23C,0.762000*%
%TD*%
G04 APERTURE END LIST*
D10*
%TO.N,GND*%
%TO.C,W1*%
X104000000Y-69000000D03*
%TD*%
%TO.N,GND*%
%TO.C,W2*%
X196000000Y-69000000D03*
%TD*%
%TO.N,GND*%
%TO.C,W3*%
X104000000Y-126000000D03*
%TD*%
%TO.N,GND*%
%TO.C,W4*%
X196000000Y-126000000D03*
%TD*%
D11*
%TO.N,Net-(RV3-Pad1)*%
%TO.C,RV3*%
X164900000Y-96700000D03*
D12*
%TO.N,+9V*%
X167400000Y-96700000D03*
D13*
%TO.N,Net-(RV3-Pad3)*%
X169900000Y-96700000D03*
%TD*%
D11*
%TO.N,Net-(RV2-Pad1)*%
%TO.C,RV2*%
X121000000Y-113000000D03*
D12*
%TO.N,+9V*%
X123500000Y-113000000D03*
D13*
%TO.N,Net-(RV2-Pad3)*%
X126000000Y-113000000D03*
%TD*%
D14*
%TO.N,GND*%
%TO.C,J2*%
X103200000Y-102500000D03*
D15*
%TO.N,/Frequency*%
X103200000Y-97365851D03*
%TD*%
D16*
%TO.N,+9V*%
%TO.C,TP5*%
X152000000Y-67000000D03*
%TD*%
D17*
%TO.N,+3V3*%
%TO.C,J6*%
X152200000Y-128000000D03*
D18*
%TO.N,/SWDIO*%
X154740000Y-128000000D03*
%TO.N,/SWCLK*%
X157280000Y-128000000D03*
%TO.N,GND*%
X159820000Y-128000000D03*
%TD*%
D16*
%TO.N,Net-(C26-Pad2)*%
%TO.C,TP3*%
X168550000Y-115250000D03*
%TD*%
D14*
%TO.N,GND*%
%TO.C,J3*%
X103200000Y-115000000D03*
D15*
%TO.N,/Amplitude*%
X103200000Y-109865851D03*
%TD*%
D11*
%TO.N,Net-(RV4-Pad1)*%
%TO.C,RV4*%
X181900000Y-96700000D03*
D12*
%TO.N,+9V*%
X184400000Y-96700000D03*
D13*
%TO.N,Net-(RV4-Pad3)*%
X186900000Y-96700000D03*
%TD*%
D16*
%TO.N,Net-(C19-Pad1)*%
%TO.C,TP1*%
X134500000Y-107400000D03*
%TD*%
%TO.N,Net-(C20-Pad1)*%
%TO.C,TP2*%
X134900000Y-122800000D03*
%TD*%
%TO.N,/OUT_TEMP*%
%TO.C,TP4*%
X173200000Y-115250000D03*
%TD*%
D11*
%TO.N,Net-(RV1-Pad1)*%
%TO.C,RV1*%
X121000000Y-97500000D03*
D12*
%TO.N,+9V*%
X123500000Y-97500000D03*
D13*
%TO.N,Net-(RV1-Pad3)*%
X126000000Y-97500000D03*
%TD*%
D16*
%TO.N,-9V*%
%TO.C,TP7*%
X167150000Y-83700000D03*
%TD*%
D14*
%TO.N,Net-(J4-Pad1)*%
%TO.C,J4*%
X196800000Y-94850000D03*
D15*
%TO.N,GND*%
X196800000Y-99984149D03*
%TD*%
D17*
%TO.N,+3V3*%
%TO.C,J5*%
X164950000Y-128000000D03*
D18*
%TO.N,/USART_TX*%
X167490000Y-128000000D03*
%TO.N,/USART_RX*%
X170030000Y-128000000D03*
%TO.N,GND*%
X172570000Y-128000000D03*
%TD*%
D17*
%TO.N,/DAC_OUT2*%
%TO.C,J7*%
X177750000Y-128000000D03*
D18*
%TO.N,/PA6*%
X180290000Y-128000000D03*
%TO.N,/PA7*%
X182830000Y-128000000D03*
%TO.N,/PA8*%
X185370000Y-128000000D03*
%TD*%
D16*
%TO.N,+3V3*%
%TO.C,TP6*%
X173250000Y-67000000D03*
%TD*%
D14*
%TO.N,/-15V*%
%TO.C,J1*%
X103200000Y-90000000D03*
D15*
%TO.N,GND*%
X103200000Y-85000000D03*
%TO.N,/+15V*%
X103200000Y-80000000D03*
%TD*%
D19*
%TO.N,GND*%
X193900000Y-107700000D03*
X194300000Y-113100000D03*
X190100000Y-116000000D03*
X185000000Y-116000000D03*
X179500000Y-115500000D03*
X175500000Y-112800000D03*
X174700000Y-108700000D03*
X178600000Y-99600000D03*
X173800000Y-99200000D03*
X171300000Y-92000000D03*
X155500000Y-104700000D03*
X150300000Y-104400000D03*
X153100000Y-100500000D03*
X140300000Y-111000000D03*
X131900000Y-114000000D03*
X126900000Y-108700000D03*
X114600000Y-112900000D03*
X113900000Y-107000000D03*
X108400000Y-106400000D03*
X111600000Y-104000000D03*
X109200000Y-100900000D03*
X112600000Y-99900000D03*
X120400000Y-86700000D03*
X120400000Y-71900000D03*
X142500000Y-104200000D03*
X138400000Y-105700000D03*
X134300000Y-111400000D03*
X130000000Y-111200000D03*
X129100000Y-106900000D03*
X142500000Y-125800000D03*
X140300000Y-122700000D03*
X130700000Y-124600000D03*
X123900000Y-124700000D03*
X117800000Y-124600000D03*
X113100000Y-122900000D03*
X110500000Y-119400000D03*
X110100000Y-114200000D03*
X111700000Y-92500000D03*
X116100000Y-92300000D03*
X120900000Y-92000000D03*
X127800000Y-86600000D03*
X127900000Y-82600000D03*
X126200000Y-79900000D03*
X107800000Y-75300000D03*
X111200000Y-79900000D03*
X116500000Y-79000000D03*
X120500000Y-79000000D03*
X136400000Y-96100000D03*
X133400000Y-97100000D03*
X129700000Y-98300000D03*
X130000000Y-94300000D03*
X134400000Y-93000000D03*
X127300000Y-92200000D03*
X156800000Y-96800000D03*
X150400000Y-97000000D03*
X154000000Y-93200000D03*
X149100000Y-92600000D03*
X158400000Y-92800000D03*
X188200000Y-92500000D03*
X184700000Y-90500000D03*
X181000000Y-86800000D03*
X172700000Y-83700000D03*
X180400000Y-78500000D03*
X194300000Y-76100000D03*
X190400000Y-73600000D03*
X194700000Y-79600000D03*
X194300000Y-86700000D03*
X189200000Y-88500000D03*
X190900000Y-82600000D03*
X180600000Y-82100000D03*
X184600000Y-85700000D03*
X177600000Y-88600000D03*
X175800000Y-94700000D03*
X172700000Y-87700000D03*
X175900000Y-83300000D03*
X185900000Y-80200000D03*
X191400000Y-78000000D03*
X142800000Y-81100000D03*
X147400000Y-81000000D03*
X147400000Y-77900000D03*
X147500000Y-74400000D03*
X145500000Y-71600000D03*
X141900000Y-71600000D03*
X101200000Y-118800000D03*
X101300000Y-112500000D03*
X101700000Y-106300000D03*
X106300000Y-102200000D03*
X106000000Y-93700000D03*
X106300000Y-87200000D03*
X106400000Y-81600000D03*
X105800000Y-77400000D03*
X103200000Y-77400000D03*
X148500000Y-128500000D03*
X144500000Y-128500000D03*
X140300000Y-128600000D03*
X136700000Y-128600000D03*
X133200000Y-128600000D03*
X129200000Y-128600000D03*
X125300000Y-128700000D03*
X121800000Y-128700000D03*
X118000000Y-128700000D03*
X114200000Y-128700000D03*
X110600000Y-128700000D03*
X198100000Y-120700000D03*
X198200000Y-118600000D03*
X198200000Y-116100000D03*
X198200000Y-113500000D03*
X198200000Y-111100000D03*
X198200000Y-108500000D03*
X198200000Y-105800000D03*
X198200000Y-103500000D03*
X198200000Y-91300000D03*
X198200000Y-88500000D03*
X198300000Y-85700000D03*
X198300000Y-82900000D03*
X198400000Y-80200000D03*
X198400000Y-77600000D03*
X198500000Y-75000000D03*
X187500000Y-66800000D03*
X183600000Y-66800000D03*
X180300000Y-66800000D03*
X176700000Y-66500000D03*
X170600000Y-66500000D03*
X168500000Y-66500000D03*
X166100000Y-66500000D03*
X163900000Y-66500000D03*
X161700000Y-66500000D03*
X159400000Y-66500000D03*
X126600000Y-66400000D03*
X122900000Y-66400000D03*
X119400000Y-66400000D03*
X115900000Y-66300000D03*
X112400000Y-66200000D03*
X109800000Y-66200000D03*
X188000000Y-112400000D03*
X190200000Y-112400000D03*
X191000000Y-110100000D03*
X191100000Y-107700000D03*
X191100000Y-104800000D03*
X191100000Y-101500000D03*
X191200000Y-98600000D03*
X192200000Y-96700000D03*
X194000000Y-95700000D03*
X194000000Y-102500000D03*
X194000000Y-100000000D03*
X194000000Y-97800000D03*
X192700000Y-128800000D03*
X191600000Y-127100000D03*
X191700000Y-124300000D03*
X193300000Y-122400000D03*
X196000000Y-121800000D03*
X198500000Y-122600000D03*
X198600000Y-72500000D03*
X195900000Y-73300000D03*
X192900000Y-72400000D03*
X191500000Y-70500000D03*
X191200000Y-67900000D03*
X192200000Y-66100000D03*
X106600000Y-129000000D03*
X108100000Y-127500000D03*
X108300000Y-124900000D03*
X106800000Y-122700000D03*
X104200000Y-121800000D03*
X101600000Y-122600000D03*
X101700000Y-73000000D03*
X103800000Y-73100000D03*
X107900000Y-70800000D03*
X108500000Y-68400000D03*
X107500000Y-66300000D03*
X194000000Y-104900000D03*
X188900000Y-102900000D03*
X185600000Y-101900000D03*
X183300000Y-102700000D03*
X178400000Y-106200000D03*
X167600000Y-109000000D03*
X167700000Y-104200000D03*
X138700000Y-117600000D03*
X147200000Y-114900000D03*
X146400000Y-111500000D03*
X152900000Y-110100000D03*
X151400000Y-108900000D03*
%TO.N,/USART_RX*%
X166100000Y-121200000D03*
%TO.N,/USART_TX*%
X164300000Y-121700000D03*
X158400000Y-117900000D03*
%TO.N,/USART_RX*%
X159400000Y-117800000D03*
%TO.N,GND*%
X161825000Y-112575000D03*
X175550000Y-69920710D03*
X156200000Y-89200000D03*
X156200000Y-77800000D03*
X118500000Y-109200000D03*
X129000000Y-103500000D03*
X143300000Y-95200000D03*
X141225000Y-100675000D03*
%TO.N,+3V3*%
X162900000Y-118600000D03*
X144500000Y-105900000D03*
X142400000Y-108000000D03*
X141300000Y-109100000D03*
X154300000Y-108600000D03*
X154350000Y-115050000D03*
%TO.N,GND*%
X169600000Y-75500000D03*
%TO.N,+3V3*%
X158500000Y-80800000D03*
%TO.N,GND*%
X184318934Y-111125000D03*
%TO.N,+3V3*%
X157400000Y-102900000D03*
X146200000Y-102900000D03*
%TO.N,/Freq_LED*%
X179000000Y-122000000D03*
%TO.N,/Amp_LED*%
X179000000Y-119100000D03*
%TO.N,/Freq_LED*%
X158279290Y-111550000D03*
%TO.N,/Amp_LED*%
X158000000Y-110700000D03*
%TO.N,-9V*%
X128100000Y-115900000D03*
X124684497Y-102965000D03*
%TO.N,/PA8*%
X152100000Y-112300000D03*
%TO.N,/SWDIO*%
X150300000Y-114900000D03*
%TO.N,/DAC_OUT2*%
X175400000Y-123900000D03*
%TO.N,/SWCLK*%
X137900000Y-115300000D03*
%TO.N,/DAC_OUT2*%
X153000000Y-114500000D03*
%TO.N,/PA6*%
X152400000Y-114000000D03*
%TO.N,/PA7*%
X151800000Y-113500000D03*
%TO.N,+3V3*%
X162900000Y-113750000D03*
%TO.N,Net-(C20-Pad1)*%
X151000000Y-113850000D03*
%TO.N,Net-(C19-Pad1)*%
X147800000Y-109950000D03*
%TD*%
D20*
%TO.N,/USART_RX*%
X162400000Y-119800000D02*
X162720102Y-119800000D01*
X166100000Y-121200000D02*
G75*
G03*
X162720102Y-119800000I-3379899J-3379898D01*
G01*
X162400000Y-119800000D02*
G75*
G02*
X160692893Y-119092893I-1J2414211D01*
G01*
X159400000Y-117800000D02*
X160692893Y-119092893D01*
%TO.N,/USART_TX*%
X163807107Y-121207107D02*
G75*
G03*
X162100000Y-120500000I-1707106J-1707104D01*
G01*
X163807107Y-121207107D02*
X164300000Y-121700000D01*
X162100000Y-120500000D02*
G75*
G02*
X160222182Y-119722182I3J2655642D01*
G01*
X158400000Y-117900000D02*
X160222182Y-119722182D01*
D21*
%TO.N,+3V3*%
X162900000Y-118600000D02*
X162900000Y-113750000D01*
D20*
X144500000Y-105900000D02*
X145280761Y-105119239D01*
X146200000Y-102900000D02*
G75*
G02*
X145280761Y-105119239I-3138475J-1D01*
G01*
X141300000Y-109100000D02*
X142400000Y-108000000D01*
D22*
%TO.N,Net-(C19-Pad1)*%
X147800000Y-109950000D02*
X146633577Y-108783576D01*
D20*
%TO.N,+3V3*%
X154300000Y-114929290D02*
X154300000Y-108600000D01*
X154300001Y-114929290D02*
G75*
G03*
X154350001Y-115049999I170701J-3D01*
G01*
%TO.N,/PA8*%
X185370000Y-127017562D02*
X185370000Y-128000000D01*
X183653242Y-124353243D02*
X184700000Y-125400000D01*
X157782842Y-123200000D02*
X180869067Y-123200000D01*
X154500000Y-121800000D02*
X154568629Y-121868629D01*
X153800000Y-115000000D02*
X153800000Y-120110051D01*
X185370000Y-127017562D02*
G75*
G03*
X184700000Y-125400000I-2287624J-3D01*
G01*
X183653242Y-124353243D02*
G75*
G03*
X180869067Y-123200000I-2784174J-2784172D01*
G01*
X157782842Y-123200000D02*
G75*
G02*
X154568629Y-121868629I-1J4545580D01*
G01*
X154500000Y-121800000D02*
G75*
G02*
X153800000Y-120110051I1689951J1689950D01*
G01*
X152100000Y-112300000D02*
X153092893Y-113292893D01*
X153800000Y-115000000D02*
G75*
G03*
X153092893Y-113292893I-2414211J1D01*
G01*
D23*
%TO.N,+3V3*%
X146200001Y-90842640D02*
G75*
G02*
X149200001Y-83600001I10242641J-1D01*
G01*
X146200000Y-90842640D02*
X146200000Y-102900000D01*
X149200000Y-83600000D02*
G75*
G02*
X155959797Y-80800000I6759795J-6759792D01*
G01*
X158500000Y-80800000D02*
X155959797Y-80800000D01*
D20*
X146200000Y-102900000D02*
X157400000Y-102900000D01*
D22*
%TO.N,/Freq_LED*%
X173959797Y-122000000D02*
X179000000Y-122000000D01*
X173959797Y-121999999D02*
G75*
G02*
X167200001Y-119199999I3J9559802D01*
G01*
X165400000Y-115455634D02*
X165400000Y-115500000D01*
X166743503Y-118743503D02*
G75*
G02*
X165400000Y-115500000I3243503J3243503D01*
G01*
X164300000Y-112800000D02*
G75*
G03*
X161282234Y-111550000I-3017769J-3017772D01*
G01*
X166743503Y-118743503D02*
X167200000Y-119200000D01*
X165400000Y-115455634D02*
G75*
G03*
X164300000Y-112800000I-3755635J-1D01*
G01*
X158279290Y-111550000D02*
X161282234Y-111550000D01*
%TO.N,/Amp_LED*%
X169604193Y-119100000D02*
X179000000Y-119100000D01*
X166700000Y-115579898D02*
X166700000Y-116200000D01*
X166700000Y-115579898D02*
G75*
G03*
X165300000Y-112200000I-4779893J1D01*
G01*
X167548528Y-118248528D02*
G75*
G02*
X166700000Y-116200000I2048527J2048528D01*
G01*
X165300000Y-112200000D02*
G75*
G03*
X161678680Y-110700000I-3621324J-3621329D01*
G01*
X169604193Y-119099999D02*
G75*
G02*
X167548529Y-118248527I1J2907181D01*
G01*
X158000000Y-110700000D02*
X161678680Y-110700000D01*
D23*
%TO.N,+9V*%
X167400000Y-91166864D02*
G75*
G03*
X165584924Y-86784924I-6196948J4D01*
G01*
X167400000Y-91166864D02*
X167400000Y-96700000D01*
X165584924Y-86784924D02*
G75*
G02*
X164100000Y-83200000I3584922J3584923D01*
G01*
X164099999Y-78598275D02*
G75*
G03*
X159999999Y-68700001I-13998269J2D01*
G01*
X164100000Y-78598275D02*
X164100000Y-83200000D01*
X160000000Y-68700000D02*
G75*
G03*
X155895837Y-67000000I-4104165J-4104167D01*
G01*
X152000000Y-67000000D02*
X155895837Y-67000000D01*
D22*
X184400000Y-97161523D02*
X184400000Y-96700000D01*
D23*
X184400011Y-97161528D02*
G75*
G02*
X183099988Y-100300002I-4438519J43D01*
G01*
X168531362Y-99431373D02*
X169199992Y-100100003D01*
X171855638Y-101200001D02*
X180927197Y-101200001D01*
X183099989Y-100300003D02*
G75*
G02*
X180927197Y-101200001I-2172779J2172768D01*
G01*
X168531362Y-99431373D02*
G75*
G02*
X167399995Y-96700010I2731463J2731404D01*
G01*
X171855638Y-101200001D02*
G75*
G02*
X169199992Y-100100003I11J3755693D01*
G01*
X123500007Y-113000003D02*
X123500007Y-97500008D01*
X123500000Y-79249747D02*
X123500000Y-97500000D01*
X127000000Y-70800000D02*
G75*
G02*
X136174011Y-67000000I9174012J-9174012D01*
G01*
X123500000Y-79249747D02*
G75*
G02*
X127000000Y-70800000I11949738J3D01*
G01*
X152000000Y-67000000D02*
X136174011Y-67000000D01*
%TO.N,-9V*%
X128100000Y-113884315D02*
X128100000Y-115900000D01*
X126900683Y-111500683D02*
X127262564Y-111862564D01*
X126900683Y-111500683D02*
G75*
G02*
X124684497Y-106150337I5350348J5350347D01*
G01*
X128100000Y-113884315D02*
G75*
G03*
X127262564Y-111862564I-2859182J3D01*
G01*
X124684497Y-102965000D02*
X124684497Y-106150337D01*
D20*
%TO.N,/PA8*%
X185370000Y-126651825D02*
X185370000Y-128000000D01*
%TO.N,/PA6*%
X180290000Y-128934460D02*
X180290000Y-128000000D01*
X180290000Y-128934460D02*
G75*
G03*
X180400000Y-129200000I375511J2D01*
G01*
X180400000Y-129200000D02*
G75*
G03*
X181124301Y-129500000I724303J724357D01*
G01*
X181700000Y-129500000D02*
X181124301Y-129500000D01*
X152400000Y-121203363D02*
X152400000Y-114000000D01*
X181899979Y-125000000D02*
X157821740Y-125000000D01*
X183098901Y-125498902D02*
X183094974Y-125494975D01*
X183616155Y-126016154D02*
X183098901Y-125498902D01*
X184100000Y-128861654D02*
X184100000Y-127184256D01*
X183817157Y-129382842D02*
X183931462Y-129268538D01*
X181701283Y-129498717D02*
X183586803Y-129498717D01*
X181700000Y-129500000D02*
X181701283Y-129498717D01*
X183616155Y-126016154D02*
G75*
G02*
X184100000Y-127184256I-1168092J-1168100D01*
G01*
X181899979Y-125000001D02*
G75*
G02*
X183094973Y-125494976I1J-1689995D01*
G01*
X152400000Y-121203363D02*
G75*
G03*
X153175473Y-123075473I2647512J-1D01*
G01*
X184099999Y-128861654D02*
G75*
G02*
X183931462Y-129268538I-575423J2D01*
G01*
X153175473Y-123075473D02*
G75*
G03*
X157821740Y-125000000I4646267J4646335D01*
G01*
X183817157Y-129382842D02*
G75*
G02*
X183586803Y-129498716I-295451J300440D01*
G01*
%TO.N,/PA7*%
X182400000Y-126700000D02*
X181651199Y-125951212D01*
X182830000Y-127738111D02*
X182830000Y-128000000D01*
X182829999Y-127738111D02*
G75*
G03*
X182400000Y-126700000I-1468115J-2D01*
G01*
X181651199Y-125951212D02*
G75*
G03*
X180803288Y-125600000I-847912J-847928D01*
G01*
%TO.N,/DAC_OUT2*%
X157386739Y-123900000D02*
X175400000Y-123900000D01*
X153000000Y-114500000D02*
X153000000Y-120775522D01*
X157386739Y-123899999D02*
G75*
G02*
X153653705Y-122353703I-1J5279252D01*
G01*
X153653704Y-122353704D02*
G75*
G02*
X153000000Y-120775522I1578181J1578181D01*
G01*
%TO.N,/PA7*%
X157021308Y-125600000D02*
X180803288Y-125600000D01*
X151800000Y-113500000D02*
X151800000Y-121064848D01*
X152885516Y-123685516D02*
X153229298Y-124029298D01*
X157021308Y-125599999D02*
G75*
G02*
X153229299Y-124029297I-1J5362709D01*
G01*
X152885516Y-123685516D02*
G75*
G02*
X151800000Y-121064848I2620665J2620667D01*
G01*
%TO.N,/SWDIO*%
X153300000Y-125600000D02*
X154061177Y-126361177D01*
X153300000Y-125600000D02*
G75*
G02*
X150300000Y-118357360I7242646J7242643D01*
G01*
X150300000Y-114900000D02*
X150300000Y-118357360D01*
X154739999Y-128000000D02*
G75*
G03*
X154061177Y-126361177I-2317650J-2D01*
G01*
D22*
%TO.N,Net-(C20-Pad1)*%
X150752513Y-113252512D02*
X150500000Y-113000000D01*
X134900001Y-118421320D02*
G75*
G02*
X136400001Y-114800001I5121312J3D01*
G01*
X134900000Y-118421320D02*
X134900000Y-122800000D01*
X136400000Y-114800000D02*
G75*
G02*
X141228427Y-112800000I4828428J-4828430D01*
G01*
X150017158Y-112800001D02*
G75*
G02*
X150499999Y-113000001I3J-682833D01*
G01*
X150752513Y-113252512D02*
G75*
G02*
X151000000Y-113850000I-597493J-597489D01*
G01*
X150017158Y-112800000D02*
X141228427Y-112800000D01*
D20*
%TO.N,/SWCLK*%
X156290122Y-128989878D02*
X157280000Y-128000000D01*
X156290122Y-128989878D02*
G75*
G02*
X155300000Y-129400000I-990121J990120D01*
G01*
X145894112Y-129400000D02*
X155300000Y-129400000D01*
X145894112Y-129399999D02*
G75*
G02*
X140100001Y-126999999I1J8194113D01*
G01*
X137900000Y-115300000D02*
X137900000Y-121688731D01*
X140100000Y-127000000D02*
G75*
G02*
X137900000Y-121688731I5311275J5311272D01*
G01*
D22*
%TO.N,Net-(C19-Pad1)*%
X143293331Y-107400000D02*
X134500000Y-107400000D01*
X143293331Y-107400000D02*
G75*
G02*
X146633577Y-108783576I-2J-4723824D01*
G01*
%TD*%
%TA.AperFunction,Conductor*%
%TO.N,GND*%
G36*
X196970057Y-65509500D02*
G01*
X196984858Y-65511805D01*
X196984861Y-65511805D01*
X196993730Y-65513186D01*
X197010899Y-65510941D01*
X197034839Y-65510108D01*
X197292770Y-65525710D01*
X197307874Y-65527544D01*
X197378648Y-65540514D01*
X197588879Y-65579040D01*
X197603641Y-65582678D01*
X197876408Y-65667675D01*
X197890627Y-65673069D01*
X198151140Y-65790316D01*
X198164609Y-65797385D01*
X198409095Y-65945182D01*
X198421617Y-65953825D01*
X198646507Y-66130016D01*
X198657895Y-66140106D01*
X198859894Y-66342105D01*
X198869984Y-66353493D01*
X199046175Y-66578383D01*
X199054818Y-66590905D01*
X199202615Y-66835391D01*
X199209684Y-66848860D01*
X199326930Y-67109370D01*
X199332325Y-67123592D01*
X199406644Y-67362089D01*
X199417321Y-67396353D01*
X199420960Y-67411121D01*
X199426421Y-67440918D01*
X199472456Y-67692126D01*
X199474290Y-67707230D01*
X199489455Y-67957929D01*
X199488198Y-67984639D01*
X199488195Y-67984859D01*
X199486814Y-67993730D01*
X199487978Y-68002632D01*
X199487978Y-68002635D01*
X199490936Y-68025251D01*
X199492000Y-68041589D01*
X199492000Y-126950672D01*
X199490500Y-126970057D01*
X199488213Y-126984748D01*
X199486814Y-126993730D01*
X199488581Y-127007240D01*
X199489059Y-127010897D01*
X199489892Y-127034839D01*
X199474290Y-127292770D01*
X199472456Y-127307874D01*
X199425546Y-127563860D01*
X199420962Y-127588873D01*
X199417322Y-127603641D01*
X199356458Y-127798962D01*
X199332326Y-127876404D01*
X199326931Y-127890627D01*
X199215454Y-128138321D01*
X199209686Y-128151136D01*
X199202615Y-128164609D01*
X199054818Y-128409095D01*
X199046175Y-128421617D01*
X198869984Y-128646507D01*
X198859894Y-128657895D01*
X198657895Y-128859894D01*
X198646507Y-128869984D01*
X198421617Y-129046175D01*
X198409095Y-129054818D01*
X198164609Y-129202615D01*
X198151140Y-129209684D01*
X197890630Y-129326930D01*
X197876408Y-129332325D01*
X197603641Y-129417322D01*
X197588879Y-129420960D01*
X197402339Y-129455145D01*
X197307874Y-129472456D01*
X197292770Y-129474290D01*
X197042071Y-129489455D01*
X197015361Y-129488198D01*
X197015141Y-129488195D01*
X197006270Y-129486814D01*
X196997368Y-129487978D01*
X196997365Y-129487978D01*
X196974749Y-129490936D01*
X196958411Y-129492000D01*
X185956139Y-129492000D01*
X185888018Y-129471998D01*
X185841525Y-129418342D01*
X185831421Y-129348068D01*
X185860915Y-129283488D01*
X185900707Y-129252849D01*
X185907358Y-129249591D01*
X186067994Y-129170896D01*
X186249860Y-129041173D01*
X186278371Y-129012762D01*
X186393616Y-128897918D01*
X186408096Y-128883489D01*
X186474197Y-128791500D01*
X186535435Y-128706277D01*
X186538453Y-128702077D01*
X186551995Y-128674678D01*
X186635136Y-128506453D01*
X186635137Y-128506451D01*
X186637430Y-128501811D01*
X186698234Y-128301681D01*
X194063860Y-128301681D01*
X194063878Y-128301933D01*
X194069793Y-128310677D01*
X194101111Y-128339174D01*
X194106748Y-128343738D01*
X194382544Y-128541918D01*
X194388682Y-128545813D01*
X194685435Y-128710984D01*
X194691955Y-128714136D01*
X195005738Y-128844109D01*
X195012589Y-128846495D01*
X195339212Y-128939536D01*
X195346301Y-128941120D01*
X195681465Y-128996006D01*
X195688671Y-128996763D01*
X196027926Y-129012762D01*
X196035176Y-129012686D01*
X196374010Y-128989587D01*
X196381219Y-128988676D01*
X196715160Y-128926784D01*
X196722190Y-128925057D01*
X197046819Y-128825187D01*
X197053597Y-128822667D01*
X197364603Y-128686145D01*
X197371043Y-128682864D01*
X197664293Y-128511502D01*
X197670326Y-128507493D01*
X197928828Y-128313405D01*
X197937282Y-128302078D01*
X197930537Y-128289748D01*
X196012810Y-126372020D01*
X195998869Y-126364408D01*
X195997034Y-126364539D01*
X195990420Y-126368790D01*
X194071474Y-128287737D01*
X194063860Y-128301681D01*
X186698234Y-128301681D01*
X186702370Y-128288069D01*
X186731529Y-128066590D01*
X186731611Y-128063240D01*
X186733074Y-128003365D01*
X186733074Y-128003361D01*
X186733156Y-128000000D01*
X186714852Y-127777361D01*
X186660431Y-127560702D01*
X186571354Y-127355840D01*
X186450014Y-127168277D01*
X186299670Y-127003051D01*
X186295619Y-126999852D01*
X186295615Y-126999848D01*
X186128414Y-126867800D01*
X186128410Y-126867798D01*
X186124359Y-126864598D01*
X186043607Y-126820021D01*
X185993636Y-126769588D01*
X185978500Y-126709712D01*
X185978500Y-126611940D01*
X185972454Y-126566012D01*
X185963916Y-126501163D01*
X185962838Y-126492975D01*
X185901524Y-126344950D01*
X185902363Y-126344603D01*
X185894606Y-126325436D01*
X185857895Y-126178872D01*
X185857893Y-126178866D01*
X185857142Y-126175867D01*
X185775508Y-125947711D01*
X185762321Y-125910855D01*
X185762319Y-125910850D01*
X185761652Y-125908987D01*
X192988484Y-125908987D01*
X192997374Y-126248505D01*
X192997980Y-126255721D01*
X193045835Y-126591963D01*
X193047269Y-126599074D01*
X193133455Y-126927595D01*
X193135692Y-126934478D01*
X193259064Y-127250914D01*
X193262081Y-127257503D01*
X193421002Y-127557652D01*
X193424761Y-127563860D01*
X193617129Y-127843757D01*
X193621574Y-127849486D01*
X193688743Y-127926484D01*
X193701917Y-127934888D01*
X193711769Y-127929020D01*
X195627980Y-126012810D01*
X195634357Y-126001131D01*
X196364408Y-126001131D01*
X196364539Y-126002966D01*
X196368790Y-126009580D01*
X198286268Y-127927057D01*
X198299622Y-127934349D01*
X198309594Y-127927295D01*
X198416641Y-127799267D01*
X198420957Y-127793456D01*
X198607432Y-127509575D01*
X198611046Y-127503313D01*
X198763658Y-127199882D01*
X198766530Y-127193244D01*
X198883249Y-126874293D01*
X198885345Y-126867351D01*
X198964631Y-126537103D01*
X198965915Y-126529964D01*
X199006816Y-126191973D01*
X199007240Y-126186403D01*
X199013010Y-126002797D01*
X199012937Y-125997204D01*
X198993338Y-125657303D01*
X198992506Y-125650113D01*
X198934113Y-125315529D01*
X198932458Y-125308474D01*
X198835998Y-124982834D01*
X198833540Y-124976006D01*
X198700290Y-124663608D01*
X198697073Y-124657125D01*
X198528788Y-124362089D01*
X198524856Y-124356034D01*
X198323774Y-124082295D01*
X198319166Y-124076726D01*
X198313830Y-124070984D01*
X198300178Y-124062866D01*
X198299570Y-124062887D01*
X198291092Y-124068119D01*
X196372020Y-125987190D01*
X196364408Y-126001131D01*
X195634357Y-126001131D01*
X195635592Y-125998869D01*
X195635461Y-125997034D01*
X195631210Y-125990420D01*
X193712374Y-124071585D01*
X193699581Y-124064599D01*
X193688827Y-124072464D01*
X193528037Y-124277527D01*
X193523902Y-124283476D01*
X193346440Y-124573068D01*
X193343019Y-124579447D01*
X193200016Y-124887522D01*
X193197356Y-124894241D01*
X193090711Y-125216707D01*
X193088834Y-125223711D01*
X193019961Y-125556288D01*
X193018904Y-125563449D01*
X192988712Y-125901735D01*
X192988484Y-125908987D01*
X185761652Y-125908987D01*
X185761282Y-125907952D01*
X185758799Y-125902700D01*
X185640948Y-125653521D01*
X185639625Y-125650723D01*
X185493341Y-125406656D01*
X185487656Y-125398990D01*
X185325684Y-125180590D01*
X185325678Y-125180583D01*
X185323839Y-125178103D01*
X185150532Y-124986882D01*
X185143943Y-124978985D01*
X185133995Y-124966020D01*
X185108617Y-124946546D01*
X185096228Y-124935680D01*
X184117565Y-123957017D01*
X184106697Y-123944626D01*
X184092258Y-123925808D01*
X184092256Y-123925806D01*
X184087230Y-123919256D01*
X184080678Y-123914229D01*
X184079538Y-123913089D01*
X184074809Y-123909121D01*
X183847738Y-123701048D01*
X194065132Y-123701048D01*
X194071527Y-123712316D01*
X195987190Y-125627980D01*
X196001131Y-125635592D01*
X196002966Y-125635461D01*
X196009580Y-125631210D01*
X197927074Y-123713716D01*
X197934466Y-123700179D01*
X197927679Y-123690479D01*
X197824476Y-123602335D01*
X197818704Y-123597953D01*
X197536796Y-123408519D01*
X197530575Y-123404839D01*
X197228757Y-123249060D01*
X197222146Y-123246116D01*
X196904439Y-123126065D01*
X196897513Y-123123894D01*
X196568112Y-123041155D01*
X196561005Y-123039799D01*
X196224278Y-122995468D01*
X196217036Y-122994937D01*
X195877467Y-122989602D01*
X195870205Y-122989906D01*
X195532256Y-123023638D01*
X195525108Y-123024770D01*
X195193263Y-123097124D01*
X195186285Y-123099072D01*
X194864960Y-123209086D01*
X194858253Y-123211823D01*
X194551707Y-123358039D01*
X194545349Y-123361534D01*
X194257654Y-123542005D01*
X194251731Y-123546214D01*
X194073601Y-123688923D01*
X194065132Y-123701048D01*
X183847738Y-123701048D01*
X183795947Y-123653590D01*
X183795939Y-123653583D01*
X183793911Y-123651725D01*
X183764432Y-123629105D01*
X183481163Y-123411744D01*
X183481151Y-123411736D01*
X183478983Y-123410072D01*
X183144192Y-123196787D01*
X182792085Y-123013492D01*
X182425344Y-122861582D01*
X182184150Y-122785534D01*
X182049382Y-122743042D01*
X182049375Y-122743040D01*
X182046758Y-122742215D01*
X181745936Y-122675524D01*
X181661907Y-122656895D01*
X181661904Y-122656894D01*
X181659209Y-122656297D01*
X181656479Y-122655938D01*
X181656470Y-122655936D01*
X181462428Y-122630390D01*
X181265647Y-122604484D01*
X181262898Y-122604364D01*
X181262887Y-122604363D01*
X180918916Y-122589345D01*
X180885016Y-122587865D01*
X180878855Y-122587326D01*
X180877252Y-122587326D01*
X180869067Y-122586249D01*
X180845551Y-122589345D01*
X180837370Y-122590422D01*
X180820924Y-122591500D01*
X179752698Y-122591500D01*
X179684577Y-122571498D01*
X179638084Y-122517842D01*
X179627980Y-122447568D01*
X179647750Y-122395773D01*
X179671472Y-122360068D01*
X179678891Y-122348902D01*
X179739319Y-122189825D01*
X179740536Y-122181169D01*
X179756640Y-122066573D01*
X179763001Y-122021313D01*
X179763299Y-122000000D01*
X179744331Y-121830892D01*
X179727676Y-121783064D01*
X179702116Y-121709669D01*
X179688368Y-121670189D01*
X179682351Y-121660559D01*
X179616247Y-121554773D01*
X179598192Y-121525879D01*
X179478286Y-121405132D01*
X179443168Y-121382845D01*
X179411145Y-121362523D01*
X179334608Y-121313951D01*
X179174300Y-121256868D01*
X179005329Y-121236720D01*
X178998326Y-121237456D01*
X178998325Y-121237456D01*
X178843101Y-121253770D01*
X178843097Y-121253771D01*
X178836093Y-121254507D01*
X178829422Y-121256778D01*
X178681673Y-121307075D01*
X178681670Y-121307076D01*
X178675003Y-121309346D01*
X178615721Y-121345817D01*
X178549698Y-121364500D01*
X174009950Y-121364500D01*
X173993504Y-121363422D01*
X173974032Y-121360858D01*
X173974028Y-121360858D01*
X173966501Y-121359867D01*
X173940915Y-121362692D01*
X173923282Y-121363396D01*
X173424752Y-121348332D01*
X173417170Y-121347872D01*
X173152527Y-121323824D01*
X172887891Y-121299776D01*
X172880335Y-121298859D01*
X172354910Y-121218890D01*
X172347424Y-121217518D01*
X171827787Y-121105972D01*
X171820397Y-121104150D01*
X171626496Y-121050096D01*
X171308451Y-120961434D01*
X171301216Y-120959180D01*
X170798780Y-120785800D01*
X170791690Y-120783111D01*
X170374074Y-120610129D01*
X170300668Y-120579723D01*
X170293727Y-120576599D01*
X169815892Y-120343940D01*
X169809153Y-120340403D01*
X169346249Y-120079324D01*
X169339736Y-120075387D01*
X169145007Y-119949486D01*
X169098661Y-119895703D01*
X169088750Y-119825401D01*
X169118420Y-119760902D01*
X169178252Y-119722682D01*
X169231902Y-119719038D01*
X169256535Y-119722692D01*
X169259621Y-119722844D01*
X169259625Y-119722844D01*
X169405841Y-119730027D01*
X169575149Y-119738344D01*
X169586636Y-119739442D01*
X169586704Y-119739447D01*
X169590786Y-119740028D01*
X169598939Y-119740113D01*
X169600072Y-119740125D01*
X169600073Y-119740125D01*
X169604193Y-119740168D01*
X169608282Y-119739673D01*
X169608285Y-119739673D01*
X169622388Y-119737966D01*
X169635224Y-119736413D01*
X169650359Y-119735500D01*
X178548279Y-119735500D01*
X178617272Y-119756068D01*
X178646352Y-119775097D01*
X178655846Y-119781310D01*
X178662450Y-119783766D01*
X178662452Y-119783767D01*
X178698844Y-119797301D01*
X178815341Y-119840626D01*
X178984015Y-119863132D01*
X178991026Y-119862494D01*
X178991030Y-119862494D01*
X179146462Y-119848348D01*
X179153483Y-119847709D01*
X179160185Y-119845531D01*
X179160187Y-119845531D01*
X179308623Y-119797301D01*
X179308626Y-119797300D01*
X179315322Y-119795124D01*
X179461490Y-119707990D01*
X179466584Y-119703139D01*
X179466588Y-119703136D01*
X179549143Y-119624519D01*
X179584721Y-119590639D01*
X179678891Y-119448902D01*
X179739319Y-119289825D01*
X179763001Y-119121313D01*
X179763299Y-119100000D01*
X179744331Y-118930892D01*
X179688368Y-118770189D01*
X179598192Y-118625879D01*
X179561911Y-118589343D01*
X179483248Y-118510129D01*
X179478286Y-118505132D01*
X179451499Y-118488132D01*
X179423406Y-118470304D01*
X179334608Y-118413951D01*
X179174300Y-118356868D01*
X179005329Y-118336720D01*
X178998326Y-118337456D01*
X178998325Y-118337456D01*
X178843101Y-118353770D01*
X178843097Y-118353771D01*
X178836093Y-118354507D01*
X178829422Y-118356778D01*
X178681673Y-118407075D01*
X178681670Y-118407076D01*
X178675003Y-118409346D01*
X178615721Y-118445817D01*
X178549698Y-118464500D01*
X169654346Y-118464500D01*
X169637900Y-118463422D01*
X169618428Y-118460858D01*
X169618424Y-118460858D01*
X169610897Y-118459867D01*
X169596169Y-118461493D01*
X169591250Y-118462036D01*
X169570358Y-118462599D01*
X169521711Y-118459867D01*
X169356908Y-118450611D01*
X169342877Y-118449030D01*
X169105675Y-118408729D01*
X169091914Y-118405589D01*
X168912046Y-118353770D01*
X168860709Y-118338980D01*
X168847373Y-118334313D01*
X168625097Y-118242245D01*
X168612377Y-118236120D01*
X168401780Y-118119729D01*
X168389833Y-118112221D01*
X168193609Y-117972996D01*
X168182575Y-117964198D01*
X168028630Y-117826626D01*
X168012632Y-117809384D01*
X168012222Y-117808850D01*
X168012220Y-117808848D01*
X168005911Y-117800626D01*
X168005908Y-117800624D01*
X168005906Y-117800621D01*
X167998336Y-117794556D01*
X167990477Y-117788259D01*
X167975310Y-117773887D01*
X167833614Y-117615331D01*
X167824803Y-117604283D01*
X167686237Y-117408991D01*
X167678720Y-117397028D01*
X167586204Y-117229634D01*
X167562885Y-117187441D01*
X167556756Y-117174715D01*
X167549327Y-117156778D01*
X167507943Y-117056868D01*
X167465120Y-116953483D01*
X167460453Y-116940146D01*
X167394161Y-116710042D01*
X167391017Y-116696267D01*
X167358289Y-116503649D01*
X167350904Y-116460185D01*
X167349323Y-116446149D01*
X167346168Y-116389956D01*
X167341279Y-116302912D01*
X167338021Y-116244888D01*
X167339080Y-116220072D01*
X167339447Y-116217495D01*
X167339448Y-116217483D01*
X167340028Y-116213407D01*
X167340168Y-116200000D01*
X167336413Y-116168969D01*
X167335500Y-116153834D01*
X167335500Y-116022089D01*
X167355502Y-115953968D01*
X167409158Y-115907475D01*
X167479432Y-115897371D01*
X167544012Y-115926865D01*
X167564712Y-115949818D01*
X167620699Y-116029776D01*
X167770224Y-116179301D01*
X167943442Y-116300589D01*
X167948420Y-116302910D01*
X167948423Y-116302912D01*
X168054448Y-116352352D01*
X168135090Y-116389956D01*
X168140398Y-116391378D01*
X168140400Y-116391379D01*
X168334030Y-116443262D01*
X168334032Y-116443262D01*
X168339345Y-116444686D01*
X168550000Y-116463116D01*
X168760655Y-116444686D01*
X168765968Y-116443262D01*
X168765970Y-116443262D01*
X168959600Y-116391379D01*
X168959602Y-116391378D01*
X168964910Y-116389956D01*
X169045552Y-116352352D01*
X169151577Y-116302912D01*
X169151580Y-116302910D01*
X169156558Y-116300589D01*
X169329776Y-116179301D01*
X169479301Y-116029776D01*
X169600589Y-115856558D01*
X169603160Y-115851046D01*
X169687633Y-115669892D01*
X169687634Y-115669891D01*
X169689956Y-115664910D01*
X169694246Y-115648902D01*
X169743262Y-115465970D01*
X169743262Y-115465968D01*
X169744686Y-115460655D01*
X169763116Y-115250000D01*
X171986884Y-115250000D01*
X172005314Y-115460655D01*
X172006738Y-115465968D01*
X172006738Y-115465970D01*
X172055755Y-115648902D01*
X172060044Y-115664910D01*
X172062366Y-115669891D01*
X172062367Y-115669892D01*
X172146841Y-115851046D01*
X172149411Y-115856558D01*
X172270699Y-116029776D01*
X172420224Y-116179301D01*
X172593442Y-116300589D01*
X172598420Y-116302910D01*
X172598423Y-116302912D01*
X172704448Y-116352352D01*
X172785090Y-116389956D01*
X172790398Y-116391378D01*
X172790400Y-116391379D01*
X172984030Y-116443262D01*
X172984032Y-116443262D01*
X172989345Y-116444686D01*
X173200000Y-116463116D01*
X173410655Y-116444686D01*
X173415968Y-116443262D01*
X173415970Y-116443262D01*
X173609600Y-116391379D01*
X173609602Y-116391378D01*
X173614910Y-116389956D01*
X173695552Y-116352352D01*
X173801577Y-116302912D01*
X173801580Y-116302910D01*
X173806558Y-116300589D01*
X173979776Y-116179301D01*
X174129301Y-116029776D01*
X174250589Y-115856558D01*
X174253160Y-115851046D01*
X174337633Y-115669892D01*
X174337634Y-115669891D01*
X174339956Y-115664910D01*
X174344246Y-115648902D01*
X174393262Y-115465970D01*
X174393262Y-115465968D01*
X174394686Y-115460655D01*
X174413116Y-115250000D01*
X174394686Y-115039345D01*
X174393262Y-115034030D01*
X174341379Y-114840400D01*
X174341378Y-114840398D01*
X174339956Y-114835090D01*
X174298413Y-114746000D01*
X174252912Y-114648423D01*
X174252910Y-114648420D01*
X174250589Y-114643442D01*
X174129301Y-114470224D01*
X173979776Y-114320699D01*
X173806558Y-114199411D01*
X173801580Y-114197090D01*
X173801577Y-114197088D01*
X173619892Y-114112367D01*
X173619891Y-114112366D01*
X173614910Y-114110044D01*
X173609602Y-114108622D01*
X173609600Y-114108621D01*
X173415970Y-114056738D01*
X173415968Y-114056738D01*
X173410655Y-114055314D01*
X173200000Y-114036884D01*
X172989345Y-114055314D01*
X172984032Y-114056738D01*
X172984030Y-114056738D01*
X172790400Y-114108621D01*
X172790398Y-114108622D01*
X172785090Y-114110044D01*
X172780109Y-114112366D01*
X172780108Y-114112367D01*
X172598423Y-114197088D01*
X172598420Y-114197090D01*
X172593442Y-114199411D01*
X172420224Y-114320699D01*
X172270699Y-114470224D01*
X172149411Y-114643442D01*
X172147090Y-114648420D01*
X172147088Y-114648423D01*
X172101587Y-114746000D01*
X172060044Y-114835090D01*
X172058622Y-114840398D01*
X172058621Y-114840400D01*
X172006738Y-115034030D01*
X172005314Y-115039345D01*
X171986884Y-115250000D01*
X169763116Y-115250000D01*
X169744686Y-115039345D01*
X169743262Y-115034030D01*
X169691379Y-114840400D01*
X169691378Y-114840398D01*
X169689956Y-114835090D01*
X169648413Y-114746000D01*
X169602912Y-114648423D01*
X169602910Y-114648420D01*
X169600589Y-114643442D01*
X169479301Y-114470224D01*
X169329776Y-114320699D01*
X169156558Y-114199411D01*
X169151580Y-114197090D01*
X169151577Y-114197088D01*
X168969892Y-114112367D01*
X168969891Y-114112366D01*
X168964910Y-114110044D01*
X168959602Y-114108622D01*
X168959600Y-114108621D01*
X168765970Y-114056738D01*
X168765968Y-114056738D01*
X168760655Y-114055314D01*
X168550000Y-114036884D01*
X168339345Y-114055314D01*
X168334032Y-114056738D01*
X168334030Y-114056738D01*
X168140400Y-114108621D01*
X168140398Y-114108622D01*
X168135090Y-114110044D01*
X168130109Y-114112366D01*
X168130108Y-114112367D01*
X167948423Y-114197088D01*
X167948420Y-114197090D01*
X167943442Y-114199411D01*
X167770224Y-114320699D01*
X167620699Y-114470224D01*
X167499411Y-114643442D01*
X167497090Y-114648419D01*
X167497085Y-114648428D01*
X167490985Y-114661510D01*
X167444068Y-114714795D01*
X167375790Y-114734255D01*
X167307830Y-114713713D01*
X167261765Y-114659689D01*
X167253212Y-114632840D01*
X167250207Y-114617730D01*
X167223601Y-114483975D01*
X167190419Y-114317154D01*
X167190416Y-114317143D01*
X167189935Y-114314723D01*
X167186754Y-114303441D01*
X167075099Y-113907546D01*
X167075097Y-113907541D01*
X167074425Y-113905157D01*
X166927137Y-113505916D01*
X166922728Y-113496351D01*
X166808191Y-113247902D01*
X166748979Y-113119462D01*
X166732175Y-113089455D01*
X166613444Y-112877447D01*
X166541050Y-112748177D01*
X166459538Y-112626186D01*
X166306011Y-112396416D01*
X166306008Y-112396412D01*
X166304631Y-112394351D01*
X166142857Y-112189142D01*
X166042715Y-112062113D01*
X166042711Y-112062108D01*
X166041179Y-112060165D01*
X166023056Y-112040559D01*
X165869773Y-111874739D01*
X165771571Y-111768505D01*
X165767245Y-111763316D01*
X165767214Y-111763343D01*
X165764526Y-111760213D01*
X165762048Y-111756912D01*
X165752667Y-111747333D01*
X165751556Y-111746462D01*
X165750808Y-111745254D01*
X165750475Y-111745614D01*
X165422140Y-111442104D01*
X165422134Y-111442099D01*
X165420320Y-111440422D01*
X165409480Y-111431876D01*
X165211951Y-111276158D01*
X165065064Y-111160362D01*
X165010075Y-111123619D01*
X164690986Y-110910410D01*
X164690984Y-110910409D01*
X164688931Y-110909037D01*
X164453421Y-110777146D01*
X164296387Y-110689202D01*
X164296377Y-110689197D01*
X164294238Y-110687999D01*
X164140503Y-110617126D01*
X163885658Y-110499641D01*
X163885654Y-110499639D01*
X163883419Y-110498609D01*
X163459008Y-110342035D01*
X163023620Y-110219243D01*
X163015225Y-110217573D01*
X162980724Y-110210710D01*
X162579940Y-110130989D01*
X162439544Y-110114372D01*
X162133157Y-110078108D01*
X162133149Y-110078107D01*
X162130704Y-110077818D01*
X162023162Y-110073593D01*
X161703694Y-110061040D01*
X161699093Y-110060775D01*
X161696171Y-110060553D01*
X161692087Y-110059972D01*
X161684081Y-110059888D01*
X161682802Y-110059875D01*
X161682801Y-110059875D01*
X161678681Y-110059832D01*
X161674592Y-110060327D01*
X161674589Y-110060327D01*
X161660486Y-110062034D01*
X161647650Y-110063587D01*
X161632515Y-110064500D01*
X158450866Y-110064500D01*
X158383352Y-110044885D01*
X158340562Y-110017729D01*
X158340558Y-110017727D01*
X158334608Y-110013951D01*
X158174300Y-109956868D01*
X158005329Y-109936720D01*
X157998326Y-109937456D01*
X157998325Y-109937456D01*
X157843101Y-109953770D01*
X157843097Y-109953771D01*
X157836093Y-109954507D01*
X157829422Y-109956778D01*
X157681673Y-110007075D01*
X157681670Y-110007076D01*
X157675003Y-110009346D01*
X157669005Y-110013036D01*
X157669003Y-110013037D01*
X157536065Y-110094821D01*
X157536063Y-110094823D01*
X157530066Y-110098512D01*
X157408486Y-110217573D01*
X157404675Y-110223487D01*
X157404673Y-110223489D01*
X157320121Y-110354687D01*
X157316304Y-110360610D01*
X157258103Y-110520516D01*
X157236775Y-110689343D01*
X157253381Y-110858699D01*
X157307094Y-111020167D01*
X157310741Y-111026189D01*
X157310742Y-111026191D01*
X157367621Y-111120108D01*
X157395246Y-111165723D01*
X157462398Y-111235261D01*
X157501892Y-111276158D01*
X157534824Y-111339055D01*
X157536261Y-111379477D01*
X157516065Y-111539343D01*
X157532671Y-111708699D01*
X157534895Y-111715384D01*
X157534895Y-111715385D01*
X157540458Y-111732108D01*
X157586384Y-111870167D01*
X157590031Y-111876189D01*
X157590032Y-111876191D01*
X157646960Y-111970189D01*
X157674536Y-112015723D01*
X157792745Y-112138132D01*
X157856066Y-112179568D01*
X157924563Y-112224391D01*
X157935136Y-112231310D01*
X157941740Y-112233766D01*
X157941742Y-112233767D01*
X157978134Y-112247301D01*
X158094631Y-112290626D01*
X158263305Y-112313132D01*
X158270316Y-112312494D01*
X158270320Y-112312494D01*
X158425752Y-112298348D01*
X158432773Y-112297709D01*
X158439475Y-112295531D01*
X158439477Y-112295531D01*
X158587913Y-112247301D01*
X158587916Y-112247300D01*
X158594612Y-112245124D01*
X158660439Y-112205883D01*
X158664821Y-112203271D01*
X158729338Y-112185500D01*
X161232081Y-112185500D01*
X161248527Y-112186578D01*
X161267999Y-112189142D01*
X161268003Y-112189142D01*
X161275530Y-112190133D01*
X161289152Y-112188629D01*
X161296657Y-112187801D01*
X161316664Y-112187192D01*
X161501986Y-112196296D01*
X161632080Y-112202687D01*
X161644376Y-112203899D01*
X161984730Y-112254385D01*
X161996851Y-112256795D01*
X162052609Y-112270762D01*
X162330619Y-112340401D01*
X162342451Y-112343990D01*
X162666414Y-112459905D01*
X162677838Y-112464637D01*
X162988877Y-112611748D01*
X162999782Y-112617577D01*
X163294907Y-112794468D01*
X163305188Y-112801338D01*
X163377788Y-112855182D01*
X163420588Y-112911827D01*
X163425969Y-112982620D01*
X163392222Y-113045083D01*
X163330062Y-113079386D01*
X163259225Y-113074637D01*
X163239443Y-113065339D01*
X163212443Y-113049656D01*
X163206116Y-113045981D01*
X163035946Y-112994442D01*
X162858484Y-112983432D01*
X162851268Y-112984672D01*
X162851266Y-112984672D01*
X162690465Y-113012303D01*
X162683249Y-113013543D01*
X162641794Y-113031182D01*
X162583355Y-113056048D01*
X162583354Y-113056049D01*
X162578014Y-113058321D01*
X162575717Y-113059103D01*
X162573351Y-113059471D01*
X162573652Y-113060177D01*
X162519641Y-113083159D01*
X162470310Y-113119462D01*
X162438960Y-113142533D01*
X162438723Y-113142692D01*
X162438075Y-113143184D01*
X162434761Y-113145623D01*
X162430066Y-113148512D01*
X162428880Y-113149674D01*
X162427358Y-113150278D01*
X162427737Y-113150793D01*
X162376436Y-113188546D01*
X162318375Y-113256889D01*
X162317057Y-113258440D01*
X162316176Y-113259385D01*
X162315124Y-113260675D01*
X162314945Y-113260891D01*
X162314937Y-113260906D01*
X162314346Y-113261631D01*
X162313316Y-113262843D01*
X162308486Y-113267573D01*
X162306581Y-113270529D01*
X162305572Y-113271221D01*
X162305936Y-113271530D01*
X162266055Y-113318472D01*
X162266052Y-113318476D01*
X162261316Y-113324051D01*
X162257987Y-113330571D01*
X162257986Y-113330572D01*
X162223097Y-113398898D01*
X162222352Y-113400192D01*
X162220119Y-113404690D01*
X162216304Y-113410610D01*
X162214535Y-113415472D01*
X162214028Y-113416020D01*
X162214287Y-113416152D01*
X162184596Y-113474299D01*
X162180457Y-113482404D01*
X162178718Y-113489509D01*
X162178717Y-113489513D01*
X162162160Y-113557179D01*
X162162051Y-113557539D01*
X162160512Y-113563898D01*
X162158103Y-113570516D01*
X162157276Y-113577064D01*
X162157195Y-113577203D01*
X162157256Y-113577218D01*
X162138196Y-113655112D01*
X162137500Y-113666330D01*
X162137500Y-113733604D01*
X162137246Y-113733604D01*
X162137405Y-113734359D01*
X162136775Y-113739343D01*
X162137463Y-113746356D01*
X162137400Y-113750851D01*
X162137500Y-113752904D01*
X162137500Y-118583604D01*
X162137246Y-118583604D01*
X162137405Y-118584359D01*
X162136775Y-118589343D01*
X162137463Y-118596356D01*
X162137400Y-118600851D01*
X162137500Y-118602904D01*
X162137500Y-118644525D01*
X162152899Y-118776607D01*
X162155395Y-118783484D01*
X162155396Y-118783487D01*
X162196303Y-118896183D01*
X162213566Y-118943741D01*
X162217578Y-118949860D01*
X162231357Y-118970877D01*
X162251979Y-119038813D01*
X162232598Y-119107113D01*
X162179368Y-119154093D01*
X162109189Y-119164837D01*
X162101420Y-119163543D01*
X161980624Y-119139515D01*
X161940747Y-119131583D01*
X161924828Y-119127317D01*
X161716803Y-119056702D01*
X161701576Y-119050395D01*
X161504551Y-118953233D01*
X161490277Y-118944992D01*
X161307616Y-118822942D01*
X161294541Y-118812909D01*
X161152562Y-118688397D01*
X161135676Y-118670368D01*
X161131907Y-118665456D01*
X161126881Y-118658906D01*
X161108697Y-118644953D01*
X161101514Y-118639441D01*
X161089123Y-118628574D01*
X160182215Y-117721666D01*
X160148189Y-117659354D01*
X160146095Y-117646618D01*
X160145116Y-117637890D01*
X160144331Y-117630892D01*
X160137076Y-117610057D01*
X160090686Y-117476846D01*
X160088368Y-117470189D01*
X159998192Y-117325879D01*
X159878286Y-117205132D01*
X159862039Y-117194821D01*
X159798514Y-117154507D01*
X159734608Y-117113951D01*
X159574300Y-117056868D01*
X159405329Y-117036720D01*
X159398326Y-117037456D01*
X159398325Y-117037456D01*
X159243101Y-117053770D01*
X159243097Y-117053771D01*
X159236093Y-117054507D01*
X159229422Y-117056778D01*
X159081673Y-117107075D01*
X159081670Y-117107076D01*
X159075003Y-117109346D01*
X159069005Y-117113036D01*
X159069003Y-117113037D01*
X158936065Y-117194821D01*
X158936063Y-117194823D01*
X158930066Y-117198512D01*
X158925032Y-117203442D01*
X158914991Y-117213274D01*
X158852325Y-117246644D01*
X158781566Y-117240836D01*
X158759320Y-117229634D01*
X158734608Y-117213951D01*
X158574300Y-117156868D01*
X158405329Y-117136720D01*
X158398326Y-117137456D01*
X158398325Y-117137456D01*
X158243101Y-117153770D01*
X158243097Y-117153771D01*
X158236093Y-117154507D01*
X158229422Y-117156778D01*
X158081673Y-117207075D01*
X158081670Y-117207076D01*
X158075003Y-117209346D01*
X158069005Y-117213036D01*
X158069003Y-117213037D01*
X157936065Y-117294821D01*
X157936063Y-117294823D01*
X157930066Y-117298512D01*
X157925033Y-117303441D01*
X157817250Y-117408991D01*
X157808486Y-117417573D01*
X157804675Y-117423487D01*
X157804673Y-117423489D01*
X157720121Y-117554687D01*
X157716304Y-117560610D01*
X157658103Y-117720516D01*
X157636775Y-117889343D01*
X157653381Y-118058699D01*
X157707094Y-118220167D01*
X157710741Y-118226189D01*
X157710742Y-118226191D01*
X157791316Y-118359233D01*
X157795246Y-118365723D01*
X157913455Y-118488132D01*
X158055846Y-118581310D01*
X158062450Y-118583766D01*
X158062452Y-118583767D01*
X158208731Y-118638168D01*
X158208733Y-118638169D01*
X158215341Y-118640626D01*
X158222326Y-118641558D01*
X158222330Y-118641559D01*
X158242710Y-118644278D01*
X158247770Y-118644953D01*
X158312648Y-118673788D01*
X158320202Y-118680751D01*
X159757860Y-120118409D01*
X159768727Y-120130799D01*
X159788195Y-120156170D01*
X159796851Y-120162812D01*
X159804749Y-120169402D01*
X160026757Y-120370618D01*
X160029243Y-120372462D01*
X160029247Y-120372465D01*
X160098177Y-120423587D01*
X160284356Y-120561667D01*
X160286996Y-120563250D01*
X160287006Y-120563256D01*
X160471601Y-120673897D01*
X160559441Y-120726546D01*
X160562220Y-120727860D01*
X160562223Y-120727862D01*
X160846571Y-120862349D01*
X160846580Y-120862353D01*
X160849363Y-120863669D01*
X161012057Y-120921882D01*
X161148423Y-120970675D01*
X161148431Y-120970677D01*
X161151328Y-120971714D01*
X161237772Y-120993367D01*
X161459427Y-121048889D01*
X161459431Y-121048890D01*
X161462430Y-121049641D01*
X161465492Y-121050095D01*
X161465496Y-121050096D01*
X161634901Y-121075225D01*
X161779672Y-121096700D01*
X161782758Y-121096852D01*
X161782762Y-121096852D01*
X161952178Y-121105175D01*
X162078932Y-121111402D01*
X162089181Y-121112327D01*
X162099999Y-121113751D01*
X162100000Y-121113751D01*
X162104083Y-121113214D01*
X162104091Y-121113213D01*
X162109815Y-121112459D01*
X162109821Y-121112459D01*
X162114330Y-121111865D01*
X162123409Y-121111568D01*
X162126259Y-121111381D01*
X162126264Y-121111381D01*
X162126264Y-121111474D01*
X162139017Y-121111057D01*
X162327451Y-121123408D01*
X162343791Y-121125559D01*
X162559252Y-121168417D01*
X162575172Y-121172683D01*
X162783197Y-121243298D01*
X162798424Y-121249605D01*
X162995449Y-121346767D01*
X163009723Y-121355008D01*
X163192384Y-121477058D01*
X163205459Y-121487091D01*
X163347438Y-121611603D01*
X163364324Y-121629632D01*
X163373119Y-121641094D01*
X163379669Y-121646120D01*
X163398486Y-121660559D01*
X163410877Y-121671426D01*
X163516612Y-121777161D01*
X163550638Y-121839473D01*
X163552177Y-121849259D01*
X163552694Y-121851690D01*
X163553381Y-121858699D01*
X163607094Y-122020167D01*
X163610741Y-122026189D01*
X163610742Y-122026191D01*
X163635199Y-122066573D01*
X163695246Y-122165723D01*
X163813455Y-122288132D01*
X163910998Y-122351962D01*
X163923385Y-122360068D01*
X163969434Y-122414105D01*
X163978957Y-122484460D01*
X163948933Y-122548795D01*
X163888892Y-122586685D01*
X163854392Y-122591500D01*
X157830985Y-122591500D01*
X157814539Y-122590422D01*
X157791030Y-122587327D01*
X157782842Y-122586249D01*
X157774653Y-122587327D01*
X157774651Y-122587327D01*
X157763818Y-122588753D01*
X157741878Y-122589711D01*
X157493848Y-122578882D01*
X157445197Y-122576758D01*
X157434248Y-122575800D01*
X157104628Y-122532405D01*
X157093802Y-122530496D01*
X156769219Y-122458537D01*
X156758602Y-122455692D01*
X156534679Y-122385090D01*
X156441523Y-122355718D01*
X156431210Y-122351965D01*
X156124026Y-122224725D01*
X156114082Y-122220087D01*
X155819182Y-122066572D01*
X155809663Y-122061077D01*
X155752620Y-122024736D01*
X155622057Y-121941558D01*
X155529269Y-121882445D01*
X155520265Y-121876141D01*
X155381517Y-121769676D01*
X155256490Y-121673739D01*
X155248073Y-121666676D01*
X155246883Y-121665585D01*
X155029135Y-121466057D01*
X155014297Y-121449864D01*
X155007642Y-121441191D01*
X155002617Y-121434642D01*
X154977250Y-121415177D01*
X154964859Y-121404310D01*
X154964323Y-121403774D01*
X154953455Y-121391383D01*
X154939015Y-121372564D01*
X154939014Y-121372563D01*
X154933988Y-121366013D01*
X154922526Y-121357218D01*
X154904497Y-121340332D01*
X154782077Y-121200738D01*
X154772044Y-121187663D01*
X154651757Y-121007641D01*
X154643516Y-120993367D01*
X154547757Y-120799187D01*
X154541450Y-120783960D01*
X154471857Y-120578946D01*
X154467591Y-120563026D01*
X154457830Y-120513951D01*
X154425352Y-120350675D01*
X154423201Y-120334335D01*
X154411057Y-120149065D01*
X154411865Y-120124377D01*
X154412673Y-120118240D01*
X154412673Y-120118238D01*
X154413751Y-120110051D01*
X154409578Y-120078354D01*
X154408500Y-120061908D01*
X154408500Y-115919167D01*
X154428502Y-115851046D01*
X154482158Y-115804553D01*
X154502999Y-115797753D01*
X154503483Y-115797709D01*
X154510185Y-115795531D01*
X154510187Y-115795531D01*
X154658623Y-115747301D01*
X154658626Y-115747300D01*
X154665322Y-115745124D01*
X154811490Y-115657990D01*
X154816584Y-115653139D01*
X154816588Y-115653136D01*
X154926532Y-115548437D01*
X154934721Y-115540639D01*
X154938730Y-115534606D01*
X155024990Y-115404773D01*
X155028891Y-115398902D01*
X155089319Y-115239825D01*
X155113001Y-115071313D01*
X155113118Y-115062964D01*
X155113244Y-115053961D01*
X155113244Y-115053955D01*
X155113299Y-115050000D01*
X155094331Y-114880892D01*
X155038368Y-114720189D01*
X155034437Y-114713897D01*
X154993523Y-114648423D01*
X154948192Y-114575879D01*
X154943227Y-114570879D01*
X154938852Y-114565359D01*
X154940415Y-114564120D01*
X154911286Y-114510322D01*
X154908500Y-114483975D01*
X154908500Y-109092890D01*
X154929552Y-109023163D01*
X154974990Y-108954773D01*
X154978891Y-108948902D01*
X155039319Y-108789825D01*
X155040951Y-108778216D01*
X155052628Y-108695124D01*
X155063001Y-108621313D01*
X155063299Y-108600000D01*
X155044331Y-108430892D01*
X154988368Y-108270189D01*
X154982383Y-108260610D01*
X154954541Y-108216055D01*
X154898192Y-108125879D01*
X154882307Y-108109882D01*
X154817778Y-108044901D01*
X154778286Y-108005132D01*
X154762039Y-107994821D01*
X154723406Y-107970304D01*
X154634608Y-107913951D01*
X154474300Y-107856868D01*
X154305329Y-107836720D01*
X154298326Y-107837456D01*
X154298325Y-107837456D01*
X154143101Y-107853770D01*
X154143097Y-107853771D01*
X154136093Y-107854507D01*
X154129422Y-107856778D01*
X153981673Y-107907075D01*
X153981670Y-107907076D01*
X153975003Y-107909346D01*
X153969005Y-107913036D01*
X153969003Y-107913037D01*
X153836065Y-107994821D01*
X153836063Y-107994823D01*
X153830066Y-107998512D01*
X153786428Y-108041246D01*
X153717108Y-108109130D01*
X153708486Y-108117573D01*
X153704675Y-108123487D01*
X153704673Y-108123489D01*
X153634168Y-108232891D01*
X153616304Y-108260610D01*
X153588305Y-108337537D01*
X153562169Y-108409346D01*
X153558103Y-108420516D01*
X153536775Y-108589343D01*
X153553381Y-108758699D01*
X153555605Y-108765384D01*
X153555605Y-108765385D01*
X153563735Y-108789825D01*
X153607094Y-108920167D01*
X153610741Y-108926189D01*
X153610742Y-108926191D01*
X153673276Y-109029447D01*
X153691500Y-109094718D01*
X153691500Y-112726761D01*
X153671498Y-112794882D01*
X153617842Y-112841375D01*
X153547568Y-112851479D01*
X153482988Y-112821985D01*
X153476405Y-112815856D01*
X152882215Y-112221666D01*
X152848189Y-112159354D01*
X152846095Y-112146618D01*
X152845116Y-112137890D01*
X152844331Y-112130892D01*
X152820380Y-112062113D01*
X152805988Y-112020787D01*
X152788368Y-111970189D01*
X152782383Y-111960610D01*
X152737358Y-111888557D01*
X152698192Y-111825879D01*
X152578286Y-111705132D01*
X152562039Y-111694821D01*
X152457073Y-111628208D01*
X152434608Y-111613951D01*
X152274300Y-111556868D01*
X152105329Y-111536720D01*
X152098326Y-111537456D01*
X152098325Y-111537456D01*
X151943101Y-111553770D01*
X151943097Y-111553771D01*
X151936093Y-111554507D01*
X151929422Y-111556778D01*
X151781673Y-111607075D01*
X151781670Y-111607076D01*
X151775003Y-111609346D01*
X151769005Y-111613036D01*
X151769003Y-111613037D01*
X151636065Y-111694821D01*
X151636063Y-111694823D01*
X151630066Y-111698512D01*
X151580912Y-111746648D01*
X151533998Y-111792590D01*
X151508486Y-111817573D01*
X151504675Y-111823487D01*
X151504673Y-111823489D01*
X151470709Y-111876191D01*
X151416304Y-111960610D01*
X151358103Y-112120516D01*
X151336775Y-112289343D01*
X151353381Y-112458699D01*
X151407094Y-112620167D01*
X151444183Y-112681408D01*
X151462361Y-112750035D01*
X151440551Y-112817598D01*
X151402424Y-112853997D01*
X151400498Y-112855182D01*
X151394628Y-112858793D01*
X151326126Y-112877447D01*
X151258413Y-112856106D01*
X151227848Y-112827121D01*
X151220699Y-112817598D01*
X151214563Y-112809426D01*
X151205182Y-112799846D01*
X151180572Y-112780549D01*
X151169234Y-112770500D01*
X150987654Y-112588922D01*
X150975995Y-112575486D01*
X150962051Y-112556914D01*
X150952669Y-112547335D01*
X150949430Y-112544795D01*
X150949423Y-112544789D01*
X150929104Y-112528856D01*
X150923775Y-112524436D01*
X150824544Y-112437413D01*
X150824537Y-112437408D01*
X150821437Y-112434689D01*
X150713137Y-112362324D01*
X150681164Y-112340960D01*
X150681162Y-112340959D01*
X150677744Y-112338675D01*
X150590256Y-112295531D01*
X150526443Y-112264062D01*
X150526441Y-112264061D01*
X150522748Y-112262240D01*
X150502283Y-112255293D01*
X150363011Y-112208016D01*
X150363007Y-112208015D01*
X150359101Y-112206689D01*
X150355057Y-112205885D01*
X150355051Y-112205883D01*
X150222754Y-112179568D01*
X150189604Y-112172974D01*
X150185496Y-112172705D01*
X150185490Y-112172704D01*
X150127522Y-112168905D01*
X150121886Y-112168536D01*
X150113025Y-112167120D01*
X150112981Y-112167465D01*
X150105119Y-112166472D01*
X150097440Y-112164500D01*
X150071299Y-112164500D01*
X150053545Y-112163243D01*
X150053257Y-112163202D01*
X150030562Y-112159972D01*
X150022792Y-112159891D01*
X150021275Y-112159875D01*
X150017155Y-112159832D01*
X150013066Y-112160327D01*
X150013063Y-112160327D01*
X149986127Y-112163587D01*
X149970989Y-112164500D01*
X141282571Y-112164500D01*
X141264817Y-112163243D01*
X141264529Y-112163202D01*
X141241834Y-112159972D01*
X141236263Y-112159914D01*
X141232558Y-112159875D01*
X141232556Y-112159875D01*
X141228427Y-112159832D01*
X141224328Y-112160328D01*
X141220252Y-112160552D01*
X141215326Y-112160930D01*
X140742040Y-112176424D01*
X140742032Y-112176424D01*
X140740001Y-112176491D01*
X140737963Y-112176692D01*
X140737959Y-112176692D01*
X140255737Y-112224187D01*
X140255733Y-112224187D01*
X140253667Y-112224391D01*
X140251627Y-112224728D01*
X140251618Y-112224729D01*
X140024419Y-112262240D01*
X139771507Y-112303996D01*
X139295586Y-112414966D01*
X139293634Y-112415558D01*
X139293627Y-112415560D01*
X139103274Y-112473303D01*
X138827941Y-112556824D01*
X138677399Y-112613484D01*
X138372496Y-112728241D01*
X138372486Y-112728245D01*
X138370576Y-112728964D01*
X138368718Y-112729806D01*
X138368708Y-112729810D01*
X138060175Y-112869605D01*
X137925448Y-112930649D01*
X137686590Y-113058321D01*
X137514551Y-113150278D01*
X137494465Y-113161014D01*
X137311297Y-113274915D01*
X137089016Y-113413138D01*
X137079470Y-113419074D01*
X137077808Y-113420265D01*
X137077799Y-113420271D01*
X136684879Y-113701834D01*
X136682242Y-113703724D01*
X136304482Y-114013744D01*
X136000439Y-114298512D01*
X135969054Y-114327907D01*
X135963302Y-114332734D01*
X135963345Y-114332784D01*
X135960215Y-114335471D01*
X135956912Y-114337951D01*
X135947333Y-114347333D01*
X135946465Y-114348440D01*
X135945250Y-114349193D01*
X135945612Y-114349528D01*
X135669317Y-114648423D01*
X135640423Y-114679680D01*
X135638891Y-114681623D01*
X135638887Y-114681628D01*
X135589458Y-114744329D01*
X135360362Y-115034935D01*
X135358985Y-115036996D01*
X135358982Y-115037000D01*
X135291569Y-115137891D01*
X135109037Y-115411069D01*
X134887998Y-115805762D01*
X134698608Y-116216581D01*
X134542035Y-116640992D01*
X134419243Y-117076380D01*
X134330989Y-117520060D01*
X134330700Y-117522503D01*
X134278424Y-117964186D01*
X134277819Y-117969297D01*
X134261433Y-118386373D01*
X134261043Y-118396290D01*
X134260777Y-118400905D01*
X134260556Y-118403812D01*
X134259972Y-118407913D01*
X134259832Y-118421320D01*
X134262797Y-118445817D01*
X134263587Y-118452348D01*
X134264500Y-118467486D01*
X134264500Y-121704084D01*
X134244498Y-121772205D01*
X134210771Y-121807297D01*
X134124735Y-121867540D01*
X134124732Y-121867542D01*
X134120224Y-121870699D01*
X133970699Y-122020224D01*
X133849411Y-122193442D01*
X133847090Y-122198420D01*
X133847088Y-122198423D01*
X133776919Y-122348902D01*
X133760044Y-122385090D01*
X133758622Y-122390398D01*
X133758621Y-122390400D01*
X133720763Y-122531687D01*
X133705314Y-122589345D01*
X133686884Y-122800000D01*
X133705314Y-123010655D01*
X133706738Y-123015968D01*
X133706738Y-123015970D01*
X133754847Y-123195513D01*
X133760044Y-123214910D01*
X133762366Y-123219891D01*
X133762367Y-123219892D01*
X133774596Y-123246116D01*
X133849411Y-123406558D01*
X133970699Y-123579776D01*
X134120224Y-123729301D01*
X134293442Y-123850589D01*
X134298420Y-123852910D01*
X134298423Y-123852912D01*
X134480108Y-123937633D01*
X134485090Y-123939956D01*
X134490398Y-123941378D01*
X134490400Y-123941379D01*
X134684030Y-123993262D01*
X134684032Y-123993262D01*
X134689345Y-123994686D01*
X134900000Y-124013116D01*
X135110655Y-123994686D01*
X135115968Y-123993262D01*
X135115970Y-123993262D01*
X135309600Y-123941379D01*
X135309602Y-123941378D01*
X135314910Y-123939956D01*
X135319892Y-123937633D01*
X135501577Y-123852912D01*
X135501580Y-123852910D01*
X135506558Y-123850589D01*
X135679776Y-123729301D01*
X135829301Y-123579776D01*
X135950589Y-123406558D01*
X136025405Y-123246116D01*
X136037633Y-123219892D01*
X136037634Y-123219891D01*
X136039956Y-123214910D01*
X136045154Y-123195513D01*
X136093262Y-123015970D01*
X136093262Y-123015968D01*
X136094686Y-123010655D01*
X136113116Y-122800000D01*
X136094686Y-122589345D01*
X136079237Y-122531687D01*
X136041379Y-122390400D01*
X136041378Y-122390398D01*
X136039956Y-122385090D01*
X136023081Y-122348902D01*
X135952912Y-122198423D01*
X135952910Y-122198420D01*
X135950589Y-122193442D01*
X135829301Y-122020224D01*
X135679776Y-121870699D01*
X135675268Y-121867542D01*
X135675265Y-121867540D01*
X135589229Y-121807297D01*
X135544901Y-121751840D01*
X135535500Y-121704084D01*
X135535500Y-118471473D01*
X135536578Y-118455027D01*
X135539142Y-118435555D01*
X135539142Y-118435551D01*
X135540133Y-118428024D01*
X135537668Y-118405695D01*
X135537027Y-118386373D01*
X135552331Y-118035851D01*
X135553289Y-118024901D01*
X135572056Y-117882349D01*
X135602933Y-117647808D01*
X135604839Y-117637003D01*
X135687162Y-117265669D01*
X135690005Y-117255058D01*
X135720964Y-117156868D01*
X135804375Y-116892322D01*
X135808131Y-116882001D01*
X135953688Y-116530599D01*
X135958330Y-116520645D01*
X135993433Y-116453214D01*
X136133945Y-116183292D01*
X136139440Y-116173773D01*
X136343793Y-115853005D01*
X136350097Y-115844001D01*
X136525693Y-115615159D01*
X136581641Y-115542247D01*
X136588704Y-115533830D01*
X136615314Y-115504791D01*
X136820646Y-115280710D01*
X136836840Y-115265871D01*
X136837464Y-115265392D01*
X136847902Y-115257383D01*
X136863132Y-115238373D01*
X136875607Y-115224935D01*
X136926373Y-115177670D01*
X136989860Y-115145891D01*
X137060450Y-115153480D01*
X137115731Y-115198028D01*
X137138152Y-115265392D01*
X137137705Y-115275313D01*
X137137757Y-115275314D01*
X137137659Y-115282348D01*
X137136775Y-115289343D01*
X137153381Y-115458699D01*
X137155605Y-115465384D01*
X137155605Y-115465385D01*
X137159857Y-115478168D01*
X137207094Y-115620167D01*
X137210741Y-115626189D01*
X137210742Y-115626191D01*
X137273276Y-115729447D01*
X137291500Y-115794718D01*
X137291500Y-121640588D01*
X137290422Y-121657034D01*
X137286249Y-121688731D01*
X137287327Y-121696921D01*
X137287327Y-121700077D01*
X137287650Y-121704015D01*
X137303555Y-122189825D01*
X137304545Y-122220074D01*
X137304746Y-122222112D01*
X137304746Y-122222116D01*
X137339581Y-122575800D01*
X137356653Y-122749141D01*
X137356990Y-122751181D01*
X137356991Y-122751190D01*
X137399829Y-123010655D01*
X137443253Y-123273668D01*
X137563973Y-123791408D01*
X137718297Y-124300143D01*
X137719028Y-124302086D01*
X137719030Y-124302091D01*
X137766049Y-124427018D01*
X137905562Y-124797696D01*
X138124969Y-125281937D01*
X138197043Y-125416778D01*
X138344702Y-125693028D01*
X138375576Y-125750790D01*
X138376652Y-125752521D01*
X138376657Y-125752529D01*
X138528700Y-125997034D01*
X138656311Y-126202249D01*
X138801357Y-126404661D01*
X138960742Y-126627082D01*
X138965972Y-126634381D01*
X139303233Y-127045334D01*
X139656193Y-127422186D01*
X139658752Y-127425203D01*
X139660987Y-127427438D01*
X139666013Y-127433988D01*
X139672566Y-127439017D01*
X139673602Y-127440052D01*
X139680367Y-127445806D01*
X140054237Y-127797744D01*
X140055690Y-127798955D01*
X140055698Y-127798962D01*
X140300963Y-128003365D01*
X140462898Y-128138321D01*
X140464437Y-128139453D01*
X140464439Y-128139455D01*
X140889842Y-128452472D01*
X140889852Y-128452479D01*
X140891377Y-128453601D01*
X140892965Y-128454628D01*
X140892977Y-128454636D01*
X141336521Y-128741409D01*
X141336530Y-128741414D01*
X141338110Y-128742436D01*
X141801468Y-129003771D01*
X141878285Y-129041173D01*
X142278035Y-129235812D01*
X142278046Y-129235817D01*
X142279759Y-129236651D01*
X142307858Y-129248290D01*
X142310999Y-129249591D01*
X142366280Y-129294139D01*
X142388701Y-129361503D01*
X142371143Y-129430294D01*
X142319181Y-129478672D01*
X142262781Y-129492000D01*
X103049328Y-129492000D01*
X103029943Y-129490500D01*
X103015142Y-129488195D01*
X103015139Y-129488195D01*
X103006270Y-129486814D01*
X102989101Y-129489059D01*
X102965161Y-129489892D01*
X102707230Y-129474290D01*
X102692126Y-129472456D01*
X102597661Y-129455145D01*
X102411121Y-129420960D01*
X102396359Y-129417322D01*
X102123592Y-129332325D01*
X102109370Y-129326930D01*
X101848860Y-129209684D01*
X101835391Y-129202615D01*
X101590905Y-129054818D01*
X101578383Y-129046175D01*
X101353493Y-128869984D01*
X101342105Y-128859894D01*
X101140106Y-128657895D01*
X101130016Y-128646507D01*
X100953825Y-128421617D01*
X100945182Y-128409095D01*
X100880248Y-128301681D01*
X102063860Y-128301681D01*
X102063878Y-128301933D01*
X102069793Y-128310677D01*
X102101111Y-128339174D01*
X102106748Y-128343738D01*
X102382544Y-128541918D01*
X102388682Y-128545813D01*
X102685435Y-128710984D01*
X102691955Y-128714136D01*
X103005738Y-128844109D01*
X103012589Y-128846495D01*
X103339212Y-128939536D01*
X103346301Y-128941120D01*
X103681465Y-128996006D01*
X103688671Y-128996763D01*
X104027926Y-129012762D01*
X104035176Y-129012686D01*
X104374010Y-128989587D01*
X104381219Y-128988676D01*
X104715160Y-128926784D01*
X104722190Y-128925057D01*
X105046819Y-128825187D01*
X105053597Y-128822667D01*
X105364603Y-128686145D01*
X105371043Y-128682864D01*
X105664293Y-128511502D01*
X105670326Y-128507493D01*
X105928828Y-128313405D01*
X105937282Y-128302078D01*
X105930537Y-128289748D01*
X104012810Y-126372020D01*
X103998869Y-126364408D01*
X103997034Y-126364539D01*
X103990420Y-126368790D01*
X102071474Y-128287737D01*
X102063860Y-128301681D01*
X100880248Y-128301681D01*
X100797385Y-128164609D01*
X100790314Y-128151136D01*
X100784547Y-128138321D01*
X100673069Y-127890627D01*
X100667674Y-127876404D01*
X100643542Y-127798962D01*
X100582678Y-127603641D01*
X100579038Y-127588873D01*
X100574455Y-127563860D01*
X100527544Y-127307874D01*
X100525710Y-127292770D01*
X100510545Y-127042071D01*
X100511802Y-127015361D01*
X100511805Y-127015141D01*
X100513186Y-127006270D01*
X100511547Y-126993730D01*
X100509064Y-126974749D01*
X100508000Y-126958411D01*
X100508000Y-125908987D01*
X100988484Y-125908987D01*
X100997374Y-126248505D01*
X100997980Y-126255721D01*
X101045835Y-126591963D01*
X101047269Y-126599074D01*
X101133455Y-126927595D01*
X101135692Y-126934478D01*
X101259064Y-127250914D01*
X101262081Y-127257503D01*
X101421002Y-127557652D01*
X101424761Y-127563860D01*
X101617129Y-127843757D01*
X101621574Y-127849486D01*
X101688743Y-127926484D01*
X101701917Y-127934888D01*
X101711769Y-127929020D01*
X103627980Y-126012810D01*
X103634357Y-126001131D01*
X104364408Y-126001131D01*
X104364539Y-126002966D01*
X104368790Y-126009580D01*
X106286268Y-127927057D01*
X106299622Y-127934349D01*
X106309594Y-127927295D01*
X106416641Y-127799267D01*
X106420957Y-127793456D01*
X106607432Y-127509575D01*
X106611046Y-127503313D01*
X106763658Y-127199882D01*
X106766530Y-127193244D01*
X106883249Y-126874293D01*
X106885345Y-126867351D01*
X106964631Y-126537103D01*
X106965915Y-126529964D01*
X107006816Y-126191973D01*
X107007240Y-126186403D01*
X107013010Y-126002797D01*
X107012937Y-125997204D01*
X106993338Y-125657303D01*
X106992506Y-125650113D01*
X106934113Y-125315529D01*
X106932458Y-125308474D01*
X106835998Y-124982834D01*
X106833540Y-124976006D01*
X106700290Y-124663608D01*
X106697073Y-124657125D01*
X106528788Y-124362089D01*
X106524856Y-124356034D01*
X106323774Y-124082295D01*
X106319166Y-124076726D01*
X106313830Y-124070984D01*
X106300178Y-124062866D01*
X106299570Y-124062887D01*
X106291092Y-124068119D01*
X104372020Y-125987190D01*
X104364408Y-126001131D01*
X103634357Y-126001131D01*
X103635592Y-125998869D01*
X103635461Y-125997034D01*
X103631210Y-125990420D01*
X101712374Y-124071585D01*
X101699581Y-124064599D01*
X101688827Y-124072464D01*
X101528037Y-124277527D01*
X101523902Y-124283476D01*
X101346440Y-124573068D01*
X101343019Y-124579447D01*
X101200016Y-124887522D01*
X101197356Y-124894241D01*
X101090711Y-125216707D01*
X101088834Y-125223711D01*
X101019961Y-125556288D01*
X101018904Y-125563449D01*
X100988712Y-125901735D01*
X100988484Y-125908987D01*
X100508000Y-125908987D01*
X100508000Y-123701048D01*
X102065132Y-123701048D01*
X102071527Y-123712316D01*
X103987190Y-125627980D01*
X104001131Y-125635592D01*
X104002966Y-125635461D01*
X104009580Y-125631210D01*
X105927074Y-123713716D01*
X105934466Y-123700179D01*
X105927679Y-123690479D01*
X105824476Y-123602335D01*
X105818704Y-123597953D01*
X105536796Y-123408519D01*
X105530575Y-123404839D01*
X105228757Y-123249060D01*
X105222146Y-123246116D01*
X104904439Y-123126065D01*
X104897513Y-123123894D01*
X104568112Y-123041155D01*
X104561005Y-123039799D01*
X104224278Y-122995468D01*
X104217036Y-122994937D01*
X103877467Y-122989602D01*
X103870205Y-122989906D01*
X103532256Y-123023638D01*
X103525108Y-123024770D01*
X103193263Y-123097124D01*
X103186285Y-123099072D01*
X102864960Y-123209086D01*
X102858253Y-123211823D01*
X102551707Y-123358039D01*
X102545349Y-123361534D01*
X102257654Y-123542005D01*
X102251731Y-123546214D01*
X102073601Y-123688923D01*
X102065132Y-123701048D01*
X100508000Y-123701048D01*
X100508000Y-116294669D01*
X101442001Y-116294669D01*
X101442371Y-116301490D01*
X101447895Y-116352352D01*
X101451521Y-116367604D01*
X101496676Y-116488054D01*
X101505214Y-116503649D01*
X101581715Y-116605724D01*
X101594276Y-116618285D01*
X101696351Y-116694786D01*
X101711946Y-116703324D01*
X101832394Y-116748478D01*
X101847649Y-116752105D01*
X101898514Y-116757631D01*
X101905328Y-116758000D01*
X102927885Y-116758000D01*
X102943124Y-116753525D01*
X102944329Y-116752135D01*
X102946000Y-116744452D01*
X102946000Y-116739884D01*
X103454000Y-116739884D01*
X103458475Y-116755123D01*
X103459865Y-116756328D01*
X103467548Y-116757999D01*
X104494669Y-116757999D01*
X104501490Y-116757629D01*
X104552352Y-116752105D01*
X104567604Y-116748479D01*
X104688054Y-116703324D01*
X104703649Y-116694786D01*
X104805724Y-116618285D01*
X104818285Y-116605724D01*
X104894786Y-116503649D01*
X104903324Y-116488054D01*
X104948478Y-116367606D01*
X104952105Y-116352351D01*
X104957631Y-116301486D01*
X104958000Y-116294672D01*
X104958000Y-115272115D01*
X104953525Y-115256876D01*
X104952135Y-115255671D01*
X104944452Y-115254000D01*
X103472115Y-115254000D01*
X103456876Y-115258475D01*
X103455671Y-115259865D01*
X103454000Y-115267548D01*
X103454000Y-116739884D01*
X102946000Y-116739884D01*
X102946000Y-115272115D01*
X102941525Y-115256876D01*
X102940135Y-115255671D01*
X102932452Y-115254000D01*
X101460116Y-115254000D01*
X101444877Y-115258475D01*
X101443672Y-115259865D01*
X101442001Y-115267548D01*
X101442001Y-116294669D01*
X100508000Y-116294669D01*
X100508000Y-114727885D01*
X101442000Y-114727885D01*
X101446475Y-114743124D01*
X101447865Y-114744329D01*
X101455548Y-114746000D01*
X102927885Y-114746000D01*
X102943124Y-114741525D01*
X102944329Y-114740135D01*
X102946000Y-114732452D01*
X102946000Y-114727885D01*
X103454000Y-114727885D01*
X103458475Y-114743124D01*
X103459865Y-114744329D01*
X103467548Y-114746000D01*
X104939884Y-114746000D01*
X104955123Y-114741525D01*
X104956328Y-114740135D01*
X104957999Y-114732452D01*
X104957999Y-113810134D01*
X119729500Y-113810134D01*
X119736255Y-113872316D01*
X119787385Y-114008705D01*
X119874739Y-114125261D01*
X119991295Y-114212615D01*
X120127684Y-114263745D01*
X120189866Y-114270500D01*
X121810134Y-114270500D01*
X121872316Y-114263745D01*
X122008705Y-114212615D01*
X122125261Y-114125261D01*
X122212615Y-114008705D01*
X122263745Y-113872316D01*
X122267306Y-113839538D01*
X122294549Y-113773976D01*
X122352912Y-113733550D01*
X122423866Y-113731096D01*
X122484884Y-113767392D01*
X122495777Y-113780869D01*
X122523023Y-113819781D01*
X122680219Y-113976977D01*
X122684727Y-113980134D01*
X122684730Y-113980136D01*
X122734734Y-114015149D01*
X122862323Y-114104488D01*
X122867305Y-114106811D01*
X122867310Y-114106814D01*
X122962261Y-114151090D01*
X123063804Y-114198440D01*
X123069112Y-114199862D01*
X123069114Y-114199863D01*
X123097276Y-114207409D01*
X123278537Y-114255978D01*
X123500000Y-114275353D01*
X123721463Y-114255978D01*
X123902724Y-114207409D01*
X123930886Y-114199863D01*
X123930888Y-114199862D01*
X123936196Y-114198440D01*
X124037739Y-114151090D01*
X124132690Y-114106814D01*
X124132695Y-114106811D01*
X124137677Y-114104488D01*
X124265266Y-114015149D01*
X124315270Y-113980136D01*
X124315273Y-113980134D01*
X124319781Y-113976977D01*
X124476977Y-113819781D01*
X124481354Y-113813531D01*
X124601331Y-113642185D01*
X124601332Y-113642183D01*
X124604488Y-113637676D01*
X124606811Y-113632694D01*
X124606814Y-113632689D01*
X124631391Y-113579982D01*
X124678308Y-113526697D01*
X124746585Y-113507236D01*
X124814545Y-113527778D01*
X124859781Y-113579982D01*
X124886231Y-113636705D01*
X124886234Y-113636710D01*
X124888557Y-113641692D01*
X124952877Y-113733550D01*
X125013257Y-113819781D01*
X125016871Y-113824943D01*
X125175057Y-113983129D01*
X125179565Y-113986286D01*
X125179568Y-113986288D01*
X125220786Y-114015149D01*
X125358308Y-114111443D01*
X125363290Y-114113766D01*
X125363295Y-114113769D01*
X125445836Y-114152258D01*
X125561057Y-114205986D01*
X125777143Y-114263887D01*
X126000000Y-114283384D01*
X126222857Y-114263887D01*
X126438943Y-114205986D01*
X126554164Y-114152258D01*
X126636705Y-114113769D01*
X126636710Y-114113766D01*
X126641692Y-114111443D01*
X126779214Y-114015149D01*
X126820432Y-113986288D01*
X126820435Y-113986286D01*
X126824943Y-113983129D01*
X126983129Y-113824943D01*
X126984997Y-113822276D01*
X127043526Y-113783335D01*
X127114513Y-113782209D01*
X127174841Y-113819640D01*
X127206248Y-113890481D01*
X127209810Y-113924368D01*
X127210500Y-113937540D01*
X127210500Y-115946620D01*
X127225145Y-116085956D01*
X127282925Y-116263785D01*
X127286228Y-116269507D01*
X127286229Y-116269508D01*
X127304694Y-116301490D01*
X127376415Y-116425715D01*
X127380833Y-116430622D01*
X127380834Y-116430623D01*
X127461891Y-116520645D01*
X127501530Y-116564669D01*
X127652800Y-116674573D01*
X127658828Y-116677257D01*
X127658830Y-116677258D01*
X127799490Y-116739884D01*
X127823615Y-116750625D01*
X127915063Y-116770063D01*
X128000053Y-116788128D01*
X128000057Y-116788128D01*
X128006510Y-116789500D01*
X128193490Y-116789500D01*
X128199943Y-116788128D01*
X128199947Y-116788128D01*
X128284937Y-116770063D01*
X128376385Y-116750625D01*
X128400510Y-116739884D01*
X128541170Y-116677258D01*
X128541172Y-116677257D01*
X128547200Y-116674573D01*
X128698470Y-116564669D01*
X128738110Y-116520645D01*
X128819166Y-116430623D01*
X128819167Y-116430622D01*
X128823585Y-116425715D01*
X128895306Y-116301490D01*
X128913771Y-116269508D01*
X128913772Y-116269507D01*
X128917075Y-116263785D01*
X128974855Y-116085956D01*
X128989500Y-115946620D01*
X128989500Y-113937540D01*
X128990190Y-113924371D01*
X128993710Y-113890881D01*
X128994400Y-113884316D01*
X128992529Y-113866512D01*
X128991959Y-113858839D01*
X128990254Y-113819781D01*
X128978793Y-113557285D01*
X128947590Y-113320279D01*
X128936425Y-113235468D01*
X128936424Y-113235463D01*
X128936066Y-113232743D01*
X128865217Y-112913159D01*
X128853957Y-112877447D01*
X128767612Y-112603595D01*
X128767609Y-112603587D01*
X128766783Y-112600967D01*
X128641514Y-112298542D01*
X128490364Y-112008186D01*
X128314483Y-111732108D01*
X128226216Y-111617075D01*
X128116880Y-111474585D01*
X128116876Y-111474581D01*
X128115210Y-111472409D01*
X127972465Y-111316631D01*
X127911289Y-111249869D01*
X127906266Y-111244039D01*
X127899157Y-111235261D01*
X127895000Y-111230127D01*
X127863699Y-111204780D01*
X127853898Y-111195955D01*
X127567292Y-110909349D01*
X127558467Y-110899549D01*
X127537270Y-110873373D01*
X127533119Y-110868247D01*
X127527993Y-110864096D01*
X127527988Y-110864091D01*
X127512820Y-110851808D01*
X127499896Y-110839748D01*
X127315337Y-110641518D01*
X127207927Y-110526151D01*
X127202038Y-110519355D01*
X127184633Y-110497756D01*
X127113673Y-110409700D01*
X126908615Y-110155238D01*
X126903225Y-110148038D01*
X126636519Y-109763910D01*
X126631656Y-109756343D01*
X126512253Y-109555099D01*
X126393030Y-109354159D01*
X126388722Y-109346269D01*
X126388548Y-109345920D01*
X126263624Y-109096355D01*
X126179404Y-108928105D01*
X126175667Y-108919923D01*
X125996708Y-108487876D01*
X125993565Y-108479449D01*
X125875885Y-108125879D01*
X125845884Y-108035739D01*
X125843351Y-108027114D01*
X125838105Y-108006558D01*
X125727701Y-107574001D01*
X125725789Y-107565214D01*
X125695981Y-107400000D01*
X133286884Y-107400000D01*
X133305314Y-107610655D01*
X133360044Y-107814910D01*
X133362366Y-107819891D01*
X133362367Y-107819892D01*
X133446986Y-108001357D01*
X133449411Y-108006558D01*
X133570699Y-108179776D01*
X133720224Y-108329301D01*
X133893442Y-108450589D01*
X133898420Y-108452910D01*
X133898423Y-108452912D01*
X134006783Y-108503441D01*
X134085090Y-108539956D01*
X134090398Y-108541378D01*
X134090400Y-108541379D01*
X134284030Y-108593262D01*
X134284032Y-108593262D01*
X134289345Y-108594686D01*
X134500000Y-108613116D01*
X134710655Y-108594686D01*
X134715968Y-108593262D01*
X134715970Y-108593262D01*
X134909600Y-108541379D01*
X134909602Y-108541378D01*
X134914910Y-108539956D01*
X134993217Y-108503441D01*
X135101577Y-108452912D01*
X135101580Y-108452910D01*
X135106558Y-108450589D01*
X135279776Y-108329301D01*
X135429301Y-108179776D01*
X135432460Y-108175265D01*
X135492703Y-108089229D01*
X135548160Y-108044901D01*
X135595916Y-108035500D01*
X141199762Y-108035500D01*
X141267883Y-108055502D01*
X141314376Y-108109158D01*
X141324480Y-108179432D01*
X141294986Y-108244012D01*
X141288857Y-108250595D01*
X141222233Y-108317219D01*
X141159921Y-108351245D01*
X141146302Y-108353434D01*
X141143102Y-108353770D01*
X141143099Y-108353771D01*
X141136093Y-108354507D01*
X141055548Y-108381927D01*
X140981673Y-108407075D01*
X140981670Y-108407076D01*
X140975003Y-108409346D01*
X140969005Y-108413036D01*
X140969003Y-108413037D01*
X140836065Y-108494821D01*
X140836063Y-108494823D01*
X140830066Y-108498512D01*
X140825033Y-108503441D01*
X140743554Y-108583232D01*
X140708486Y-108617573D01*
X140704675Y-108623487D01*
X140704673Y-108623489D01*
X140621996Y-108751778D01*
X140616304Y-108760610D01*
X140588055Y-108838224D01*
X140571463Y-108883811D01*
X140558103Y-108920516D01*
X140536775Y-109089343D01*
X140553381Y-109258699D01*
X140607094Y-109420167D01*
X140610741Y-109426189D01*
X140610742Y-109426191D01*
X140624497Y-109448902D01*
X140695246Y-109565723D01*
X140813455Y-109688132D01*
X140955846Y-109781310D01*
X140962450Y-109783766D01*
X140962452Y-109783767D01*
X141035593Y-109810968D01*
X141115341Y-109840626D01*
X141284015Y-109863132D01*
X141291026Y-109862494D01*
X141291030Y-109862494D01*
X141446462Y-109848348D01*
X141453483Y-109847709D01*
X141460185Y-109845531D01*
X141460187Y-109845531D01*
X141608623Y-109797301D01*
X141608626Y-109797300D01*
X141615322Y-109795124D01*
X141761490Y-109707990D01*
X141766584Y-109703139D01*
X141766588Y-109703136D01*
X141853690Y-109620189D01*
X141884721Y-109590639D01*
X141978891Y-109448902D01*
X142039319Y-109289825D01*
X142044668Y-109251762D01*
X142073955Y-109187087D01*
X142080347Y-109180201D01*
X142476620Y-108783928D01*
X142540382Y-108749596D01*
X142546465Y-108748348D01*
X142553483Y-108747709D01*
X142560180Y-108745533D01*
X142560185Y-108745532D01*
X142708623Y-108697301D01*
X142708626Y-108697300D01*
X142715322Y-108695124D01*
X142861490Y-108607990D01*
X142866584Y-108603139D01*
X142866588Y-108603136D01*
X142935372Y-108537633D01*
X142984721Y-108490639D01*
X143013427Y-108447434D01*
X143074990Y-108354773D01*
X143078891Y-108348902D01*
X143139319Y-108189825D01*
X143141597Y-108173617D01*
X143145267Y-108147502D01*
X143174555Y-108082827D01*
X143234159Y-108044254D01*
X143271477Y-108041246D01*
X143271500Y-108039062D01*
X143279095Y-108039141D01*
X143286627Y-108040133D01*
X143308962Y-108037667D01*
X143328286Y-108037026D01*
X143424941Y-108041246D01*
X143644156Y-108050817D01*
X143655105Y-108051775D01*
X143997806Y-108096893D01*
X144008632Y-108098802D01*
X144346097Y-108173617D01*
X144356713Y-108176462D01*
X144686367Y-108280400D01*
X144696689Y-108284156D01*
X145016056Y-108416442D01*
X145026004Y-108421081D01*
X145174746Y-108498512D01*
X145332613Y-108580693D01*
X145342131Y-108586188D01*
X145623416Y-108765385D01*
X145633658Y-108771910D01*
X145642663Y-108778216D01*
X145916887Y-108988636D01*
X145925307Y-108995701D01*
X146152861Y-109204215D01*
X146167701Y-109220410D01*
X146171569Y-109225452D01*
X146171574Y-109225457D01*
X146176194Y-109231478D01*
X146182123Y-109236228D01*
X146203732Y-109253540D01*
X146214048Y-109262779D01*
X147029038Y-110077770D01*
X147059500Y-110127094D01*
X147088006Y-110212785D01*
X147107094Y-110270167D01*
X147110741Y-110276189D01*
X147110742Y-110276191D01*
X147173986Y-110380618D01*
X147195246Y-110415723D01*
X147313455Y-110538132D01*
X147455846Y-110631310D01*
X147462450Y-110633766D01*
X147462452Y-110633767D01*
X147498844Y-110647301D01*
X147615341Y-110690626D01*
X147784015Y-110713132D01*
X147791026Y-110712494D01*
X147791030Y-110712494D01*
X147946462Y-110698348D01*
X147953483Y-110697709D01*
X147960185Y-110695531D01*
X147960187Y-110695531D01*
X148108623Y-110647301D01*
X148108626Y-110647300D01*
X148115322Y-110645124D01*
X148261490Y-110557990D01*
X148266584Y-110553139D01*
X148266588Y-110553136D01*
X148354960Y-110468980D01*
X148384721Y-110440639D01*
X148478891Y-110298902D01*
X148539319Y-110139825D01*
X148563001Y-109971313D01*
X148563215Y-109956034D01*
X148563244Y-109953961D01*
X148563244Y-109953955D01*
X148563299Y-109950000D01*
X148544331Y-109780892D01*
X148488368Y-109620189D01*
X148476156Y-109600645D01*
X148450570Y-109559700D01*
X148398192Y-109475879D01*
X148278286Y-109355132D01*
X148264321Y-109346269D01*
X148208479Y-109310831D01*
X148134608Y-109263951D01*
X147974300Y-109206868D01*
X147975167Y-109204433D01*
X147925545Y-109176812D01*
X147121232Y-108372499D01*
X147109567Y-108359057D01*
X147105345Y-108353434D01*
X147095625Y-108340488D01*
X147086244Y-108330909D01*
X147083003Y-108328367D01*
X147079930Y-108325615D01*
X147079933Y-108325611D01*
X147077324Y-108323388D01*
X146778437Y-108047100D01*
X146778431Y-108047095D01*
X146776617Y-108045418D01*
X146768555Y-108039062D01*
X146604010Y-107909346D01*
X146445891Y-107784695D01*
X146095729Y-107550724D01*
X145728289Y-107344947D01*
X145726054Y-107343917D01*
X145726041Y-107343910D01*
X145348076Y-107169666D01*
X145348072Y-107169664D01*
X145345837Y-107168634D01*
X144950730Y-107022872D01*
X144948346Y-107022200D01*
X144948341Y-107022198D01*
X144799101Y-106980108D01*
X144545405Y-106908558D01*
X144542991Y-106908078D01*
X144542975Y-106908074D01*
X144534535Y-106906395D01*
X144471626Y-106873487D01*
X144436496Y-106811791D01*
X144440297Y-106740896D01*
X144481824Y-106683311D01*
X144547698Y-106657336D01*
X144653483Y-106647709D01*
X144660185Y-106645531D01*
X144660187Y-106645531D01*
X144808623Y-106597301D01*
X144808626Y-106597300D01*
X144815322Y-106595124D01*
X144961490Y-106507990D01*
X144966584Y-106503139D01*
X144966588Y-106503136D01*
X145033833Y-106439099D01*
X145084721Y-106390639D01*
X145178891Y-106248902D01*
X145239319Y-106089825D01*
X145244668Y-106051762D01*
X145273955Y-105987088D01*
X145280347Y-105980202D01*
X145676987Y-105583562D01*
X145689378Y-105572694D01*
X145708197Y-105558254D01*
X145708198Y-105558253D01*
X145714748Y-105553227D01*
X145719777Y-105546673D01*
X145719780Y-105546670D01*
X145723132Y-105542302D01*
X145730196Y-105533883D01*
X145932743Y-105312842D01*
X145932750Y-105312834D01*
X145934608Y-105310806D01*
X146055107Y-105153769D01*
X146132119Y-105053406D01*
X146132127Y-105053394D01*
X146133791Y-105051226D01*
X146309592Y-104775274D01*
X146460673Y-104485050D01*
X146585884Y-104182763D01*
X146610175Y-104105724D01*
X146683446Y-103873337D01*
X146683448Y-103873330D01*
X146684273Y-103870713D01*
X146730434Y-103662494D01*
X146732891Y-103651413D01*
X146767163Y-103589237D01*
X146781841Y-103576751D01*
X146798470Y-103564669D01*
X146811508Y-103550189D01*
X146871955Y-103512950D01*
X146905144Y-103508500D01*
X156907019Y-103508500D01*
X156976012Y-103529068D01*
X157048875Y-103576748D01*
X157055846Y-103581310D01*
X157062450Y-103583766D01*
X157062452Y-103583767D01*
X157098844Y-103597301D01*
X157215341Y-103640626D01*
X157384015Y-103663132D01*
X157391026Y-103662494D01*
X157391030Y-103662494D01*
X157546462Y-103648348D01*
X157553483Y-103647709D01*
X157560185Y-103645531D01*
X157560187Y-103645531D01*
X157708623Y-103597301D01*
X157708626Y-103597300D01*
X157715322Y-103595124D01*
X157861490Y-103507990D01*
X157866584Y-103503139D01*
X157866588Y-103503136D01*
X157953892Y-103419997D01*
X157984721Y-103390639D01*
X158078891Y-103248902D01*
X158139319Y-103089825D01*
X158163001Y-102921313D01*
X158163299Y-102900000D01*
X158144331Y-102730892D01*
X158088368Y-102570189D01*
X157998192Y-102425879D01*
X157878286Y-102305132D01*
X157856806Y-102291500D01*
X157780577Y-102243124D01*
X157734608Y-102213951D01*
X157574300Y-102156868D01*
X157405329Y-102136720D01*
X157398326Y-102137456D01*
X157398325Y-102137456D01*
X157243101Y-102153770D01*
X157243097Y-102153771D01*
X157236093Y-102154507D01*
X157229422Y-102156778D01*
X157081673Y-102207075D01*
X157081670Y-102207076D01*
X157075003Y-102209346D01*
X157069005Y-102213036D01*
X157069003Y-102213037D01*
X156971831Y-102272818D01*
X156905809Y-102291500D01*
X147215500Y-102291500D01*
X147147379Y-102271498D01*
X147100886Y-102217842D01*
X147089500Y-102165500D01*
X147089500Y-90895866D01*
X147090190Y-90882695D01*
X147093710Y-90849205D01*
X147094400Y-90842640D01*
X147091485Y-90814904D01*
X147090852Y-90797931D01*
X147094990Y-90660996D01*
X147106450Y-90281704D01*
X147106910Y-90274113D01*
X147111829Y-90219988D01*
X147157351Y-89719041D01*
X147158268Y-89711486D01*
X147242133Y-89160455D01*
X147243505Y-89152968D01*
X147360489Y-88608001D01*
X147362311Y-88600611D01*
X147511980Y-88063723D01*
X147514244Y-88056457D01*
X147552367Y-87945981D01*
X147696064Y-87529561D01*
X147698759Y-87522455D01*
X147735764Y-87433119D01*
X147912058Y-87007508D01*
X147915182Y-87000567D01*
X148159181Y-86499442D01*
X148162718Y-86492703D01*
X148436530Y-86007223D01*
X148440467Y-86000709D01*
X148472627Y-85950968D01*
X148743105Y-85532627D01*
X148747414Y-85526386D01*
X149077744Y-85077454D01*
X149082438Y-85071462D01*
X149134011Y-85009580D01*
X149243803Y-84877839D01*
X149439277Y-84643288D01*
X149444324Y-84637591D01*
X149798316Y-84261539D01*
X149810766Y-84249984D01*
X149827304Y-84236592D01*
X149827305Y-84236591D01*
X149832436Y-84232436D01*
X149836594Y-84227302D01*
X149849994Y-84210755D01*
X149861548Y-84198306D01*
X150207556Y-83872595D01*
X150213253Y-83867548D01*
X150501107Y-83627651D01*
X150609747Y-83537110D01*
X150615732Y-83532422D01*
X150674276Y-83489345D01*
X151031441Y-83226538D01*
X151037697Y-83222219D01*
X151420693Y-82974594D01*
X151471126Y-82941987D01*
X151477639Y-82938050D01*
X151927192Y-82684501D01*
X151933931Y-82680964D01*
X152397971Y-82455022D01*
X152404912Y-82451898D01*
X152622712Y-82361682D01*
X152881759Y-82254381D01*
X152888863Y-82251687D01*
X153376766Y-82083323D01*
X153384032Y-82081059D01*
X153881183Y-81942468D01*
X153888573Y-81940646D01*
X154393208Y-81832320D01*
X154400694Y-81830948D01*
X154910951Y-81753288D01*
X154918507Y-81752371D01*
X155175502Y-81729017D01*
X155432505Y-81705663D01*
X155440089Y-81705203D01*
X155915080Y-81690851D01*
X155932054Y-81691484D01*
X155959797Y-81694400D01*
X155999852Y-81690190D01*
X156013023Y-81689500D01*
X158546620Y-81689500D01*
X158656803Y-81677919D01*
X158679392Y-81675545D01*
X158679393Y-81675545D01*
X158685956Y-81674855D01*
X158692234Y-81672815D01*
X158692235Y-81672815D01*
X158857500Y-81619117D01*
X158857499Y-81619117D01*
X158863785Y-81617075D01*
X159025715Y-81523585D01*
X159054513Y-81497655D01*
X159159766Y-81402885D01*
X159159767Y-81402883D01*
X159164669Y-81398470D01*
X159208868Y-81337635D01*
X159270692Y-81252542D01*
X159270693Y-81252541D01*
X159274573Y-81247200D01*
X159290812Y-81210728D01*
X159347940Y-81082416D01*
X159347940Y-81082414D01*
X159350625Y-81076385D01*
X159389500Y-80893490D01*
X159389500Y-80706510D01*
X159350625Y-80523615D01*
X159337275Y-80493630D01*
X159277258Y-80358830D01*
X159277257Y-80358828D01*
X159274573Y-80352800D01*
X159247063Y-80314935D01*
X159168548Y-80206869D01*
X159164669Y-80201530D01*
X159025715Y-80076415D01*
X158863785Y-79982925D01*
X158759944Y-79949185D01*
X158692235Y-79927185D01*
X158692234Y-79927185D01*
X158685956Y-79925145D01*
X158679393Y-79924455D01*
X158679392Y-79924455D01*
X158656803Y-79922081D01*
X158546620Y-79910500D01*
X156013023Y-79910500D01*
X155999852Y-79909810D01*
X155966362Y-79906290D01*
X155959797Y-79905600D01*
X155953233Y-79906290D01*
X155952564Y-79906290D01*
X155944732Y-79906811D01*
X155623835Y-79915814D01*
X155375448Y-79922783D01*
X155375444Y-79922783D01*
X155373670Y-79922833D01*
X155371905Y-79922982D01*
X155371903Y-79922982D01*
X155354440Y-79924455D01*
X154789387Y-79972117D01*
X154787643Y-79972363D01*
X154787627Y-79972365D01*
X154210528Y-80053838D01*
X154210526Y-80053838D01*
X154208786Y-80054084D01*
X154207060Y-80054427D01*
X154207056Y-80054428D01*
X154113125Y-80073112D01*
X153633695Y-80168476D01*
X153065922Y-80314935D01*
X152507255Y-80492998D01*
X152505603Y-80493629D01*
X152505599Y-80493630D01*
X151961115Y-80701470D01*
X151961101Y-80701476D01*
X151959450Y-80702106D01*
X151957855Y-80702820D01*
X151957835Y-80702828D01*
X151546506Y-80886887D01*
X151424233Y-80941601D01*
X150903285Y-81210728D01*
X150901773Y-81211620D01*
X150901771Y-81211621D01*
X150416874Y-81497655D01*
X150398248Y-81508642D01*
X150396789Y-81509617D01*
X150396784Y-81509620D01*
X149912182Y-81833421D01*
X149912164Y-81833434D01*
X149910709Y-81834406D01*
X149909290Y-81835474D01*
X149582965Y-82081059D01*
X149442203Y-82186993D01*
X148994204Y-82565295D01*
X148992930Y-82566499D01*
X148992907Y-82566520D01*
X148579063Y-82957774D01*
X148573153Y-82962949D01*
X148572687Y-82963415D01*
X148567564Y-82967564D01*
X148563416Y-82972686D01*
X148561508Y-82974594D01*
X148559979Y-82976340D01*
X148140006Y-83420561D01*
X148139985Y-83420584D01*
X148138781Y-83421858D01*
X147735758Y-83899133D01*
X147734695Y-83900545D01*
X147734689Y-83900553D01*
X147506350Y-84203963D01*
X147360130Y-84398256D01*
X147359158Y-84399710D01*
X147359145Y-84399729D01*
X147126816Y-84747434D01*
X147013079Y-84917654D01*
X147012178Y-84919181D01*
X147012177Y-84919183D01*
X146984152Y-84966692D01*
X146695697Y-85455695D01*
X146694883Y-85457271D01*
X146409794Y-86009112D01*
X146409785Y-86009130D01*
X146408982Y-86010685D01*
X146408263Y-86012292D01*
X146408261Y-86012296D01*
X146154559Y-86579263D01*
X146154551Y-86579283D01*
X146153837Y-86580878D01*
X146153207Y-86582529D01*
X146153201Y-86582543D01*
X145990984Y-87007508D01*
X145931065Y-87164481D01*
X145741365Y-87759656D01*
X145585336Y-88364531D01*
X145463468Y-88977204D01*
X145463222Y-88978944D01*
X145463222Y-88978946D01*
X145385211Y-89531523D01*
X145376144Y-89595745D01*
X145375994Y-89597524D01*
X145328744Y-90157705D01*
X145323640Y-90218210D01*
X145323590Y-90219984D01*
X145323590Y-90219988D01*
X145306444Y-90831064D01*
X145306290Y-90833386D01*
X145306290Y-90836072D01*
X145305600Y-90842640D01*
X145306290Y-90849205D01*
X145309810Y-90882695D01*
X145310500Y-90895866D01*
X145310500Y-102946620D01*
X145325145Y-103085956D01*
X145382925Y-103263785D01*
X145476415Y-103425715D01*
X145480835Y-103430623D01*
X145484714Y-103435963D01*
X145482367Y-103437668D01*
X145507594Y-103490235D01*
X145504316Y-103545418D01*
X145451484Y-103728801D01*
X145446817Y-103742138D01*
X145343662Y-103991179D01*
X145337533Y-104003906D01*
X145207136Y-104239841D01*
X145199623Y-104251797D01*
X145043631Y-104471646D01*
X145034822Y-104482693D01*
X144877019Y-104659275D01*
X144859772Y-104675277D01*
X144853325Y-104680224D01*
X144846774Y-104685251D01*
X144841748Y-104691801D01*
X144827309Y-104710618D01*
X144816442Y-104723009D01*
X144422233Y-105117218D01*
X144359921Y-105151244D01*
X144346313Y-105153432D01*
X144343107Y-105153769D01*
X144343100Y-105153771D01*
X144336093Y-105154507D01*
X144329422Y-105156778D01*
X144181673Y-105207075D01*
X144181670Y-105207076D01*
X144175003Y-105209346D01*
X144169005Y-105213036D01*
X144169003Y-105213037D01*
X144036065Y-105294821D01*
X144036063Y-105294823D01*
X144030066Y-105298512D01*
X143908486Y-105417573D01*
X143904675Y-105423487D01*
X143904673Y-105423489D01*
X143830913Y-105537941D01*
X143816304Y-105560610D01*
X143758103Y-105720516D01*
X143736775Y-105889343D01*
X143753381Y-106058699D01*
X143807094Y-106220167D01*
X143810741Y-106226189D01*
X143810742Y-106226191D01*
X143887278Y-106352566D01*
X143895246Y-106365723D01*
X144013455Y-106488132D01*
X144155846Y-106581310D01*
X144162455Y-106583768D01*
X144162768Y-106583926D01*
X144214554Y-106632492D01*
X144231863Y-106701346D01*
X144209198Y-106768628D01*
X144153756Y-106812976D01*
X144091151Y-106821520D01*
X143815852Y-106788937D01*
X143714143Y-106776899D01*
X143322095Y-106761496D01*
X143314942Y-106760847D01*
X143314940Y-106760867D01*
X143310826Y-106760554D01*
X143306738Y-106759972D01*
X143298585Y-106759887D01*
X143297452Y-106759875D01*
X143297451Y-106759875D01*
X143293331Y-106759832D01*
X143289242Y-106760327D01*
X143289239Y-106760327D01*
X143275136Y-106762034D01*
X143262300Y-106763587D01*
X143247165Y-106764500D01*
X135595916Y-106764500D01*
X135527795Y-106744498D01*
X135492703Y-106710771D01*
X135432460Y-106624735D01*
X135432458Y-106624732D01*
X135429301Y-106620224D01*
X135279776Y-106470699D01*
X135106558Y-106349411D01*
X135101580Y-106347090D01*
X135101577Y-106347088D01*
X134919892Y-106262367D01*
X134919891Y-106262366D01*
X134914910Y-106260044D01*
X134909602Y-106258622D01*
X134909600Y-106258621D01*
X134715970Y-106206738D01*
X134715968Y-106206738D01*
X134710655Y-106205314D01*
X134500000Y-106186884D01*
X134289345Y-106205314D01*
X134284032Y-106206738D01*
X134284030Y-106206738D01*
X134090400Y-106258621D01*
X134090398Y-106258622D01*
X134085090Y-106260044D01*
X134080109Y-106262366D01*
X134080108Y-106262367D01*
X133898423Y-106347088D01*
X133898420Y-106347090D01*
X133893442Y-106349411D01*
X133720224Y-106470699D01*
X133570699Y-106620224D01*
X133449411Y-106793442D01*
X133447090Y-106798420D01*
X133447088Y-106798423D01*
X133440302Y-106812976D01*
X133360044Y-106985090D01*
X133358622Y-106990398D01*
X133358621Y-106990400D01*
X133311092Y-107167781D01*
X133305314Y-107189345D01*
X133286884Y-107400000D01*
X125695981Y-107400000D01*
X125642759Y-107105006D01*
X125641479Y-107096103D01*
X125591491Y-106631150D01*
X125590849Y-106622178D01*
X125577915Y-106260044D01*
X125575556Y-106193984D01*
X125576166Y-106176319D01*
X125578207Y-106156901D01*
X125578897Y-106150337D01*
X125574687Y-106110282D01*
X125573997Y-106097111D01*
X125573997Y-102918380D01*
X125559352Y-102779044D01*
X125553121Y-102759865D01*
X125503614Y-102607500D01*
X125501572Y-102601215D01*
X125408082Y-102439285D01*
X125282967Y-102300331D01*
X125204228Y-102243124D01*
X125137039Y-102194308D01*
X125137038Y-102194307D01*
X125131697Y-102190427D01*
X125125669Y-102187743D01*
X125125667Y-102187742D01*
X124966913Y-102117060D01*
X124966911Y-102117060D01*
X124960882Y-102114375D01*
X124863664Y-102093711D01*
X124784444Y-102076872D01*
X124784440Y-102076872D01*
X124777987Y-102075500D01*
X124591007Y-102075500D01*
X124584552Y-102076872D01*
X124584543Y-102076873D01*
X124541705Y-102085979D01*
X124470914Y-102080578D01*
X124414281Y-102037762D01*
X124389787Y-101971124D01*
X124389507Y-101962733D01*
X124389507Y-98459441D01*
X124409509Y-98391320D01*
X124426412Y-98370346D01*
X124476977Y-98319781D01*
X124481354Y-98313531D01*
X124601331Y-98142185D01*
X124601332Y-98142183D01*
X124604488Y-98137676D01*
X124606811Y-98132694D01*
X124606814Y-98132689D01*
X124631391Y-98079982D01*
X124678308Y-98026697D01*
X124746585Y-98007236D01*
X124814545Y-98027778D01*
X124859781Y-98079982D01*
X124886231Y-98136705D01*
X124886234Y-98136710D01*
X124888557Y-98141692D01*
X124952877Y-98233550D01*
X125013257Y-98319781D01*
X125016871Y-98324943D01*
X125175057Y-98483129D01*
X125179565Y-98486286D01*
X125179568Y-98486288D01*
X125226326Y-98519028D01*
X125358308Y-98611443D01*
X125363290Y-98613766D01*
X125363295Y-98613769D01*
X125466177Y-98661743D01*
X125561057Y-98705986D01*
X125777143Y-98763887D01*
X126000000Y-98783384D01*
X126222857Y-98763887D01*
X126438943Y-98705986D01*
X126533823Y-98661743D01*
X126636705Y-98613769D01*
X126636710Y-98613766D01*
X126641692Y-98611443D01*
X126773674Y-98519028D01*
X126820432Y-98486288D01*
X126820435Y-98486286D01*
X126824943Y-98483129D01*
X126983129Y-98324943D01*
X126986744Y-98319781D01*
X127047123Y-98233550D01*
X127111443Y-98141692D01*
X127113766Y-98136710D01*
X127113769Y-98136705D01*
X127165066Y-98026697D01*
X127205986Y-97938943D01*
X127263887Y-97722857D01*
X127283384Y-97500000D01*
X127263887Y-97277143D01*
X127205986Y-97061057D01*
X127138989Y-96917380D01*
X127113769Y-96863295D01*
X127113766Y-96863290D01*
X127111443Y-96858308D01*
X127027714Y-96738731D01*
X126986288Y-96679568D01*
X126986286Y-96679565D01*
X126983129Y-96675057D01*
X126824943Y-96516871D01*
X126820435Y-96513714D01*
X126820432Y-96513712D01*
X126738126Y-96456081D01*
X126641692Y-96388557D01*
X126636710Y-96386234D01*
X126636705Y-96386231D01*
X126533752Y-96338224D01*
X126438943Y-96294014D01*
X126222857Y-96236113D01*
X126000000Y-96216616D01*
X125777143Y-96236113D01*
X125561057Y-96294014D01*
X125466248Y-96338224D01*
X125363295Y-96386231D01*
X125363290Y-96386234D01*
X125358308Y-96388557D01*
X125261874Y-96456081D01*
X125179568Y-96513712D01*
X125179565Y-96513714D01*
X125175057Y-96516871D01*
X125016871Y-96675057D01*
X125013714Y-96679565D01*
X125013712Y-96679568D01*
X124972286Y-96738731D01*
X124888557Y-96858308D01*
X124886234Y-96863290D01*
X124886231Y-96863295D01*
X124859781Y-96920018D01*
X124812863Y-96973303D01*
X124744586Y-96992764D01*
X124676626Y-96972222D01*
X124631391Y-96920018D01*
X124606814Y-96867311D01*
X124606811Y-96867306D01*
X124604488Y-96862324D01*
X124601331Y-96857815D01*
X124480136Y-96684730D01*
X124480134Y-96684727D01*
X124476977Y-96680219D01*
X124426405Y-96629647D01*
X124392379Y-96567335D01*
X124389500Y-96540552D01*
X124389500Y-79302973D01*
X124390190Y-79289802D01*
X124393710Y-79256312D01*
X124394400Y-79249747D01*
X124391407Y-79221273D01*
X124390767Y-79204569D01*
X124390791Y-79203733D01*
X124402907Y-78771903D01*
X124406801Y-78633132D01*
X124407197Y-78626076D01*
X124458746Y-78014922D01*
X124459537Y-78007898D01*
X124472579Y-77915519D01*
X124545279Y-77400568D01*
X124546460Y-77393616D01*
X124577230Y-77238928D01*
X124666114Y-76792075D01*
X124667687Y-76785184D01*
X124763660Y-76413127D01*
X124820881Y-76191301D01*
X124822835Y-76184517D01*
X125009094Y-75600136D01*
X125011429Y-75593465D01*
X125230153Y-75020471D01*
X125232841Y-75013977D01*
X125483370Y-74454101D01*
X125486433Y-74447740D01*
X125576285Y-74273815D01*
X125767942Y-73902826D01*
X125771356Y-73896650D01*
X126082972Y-73368386D01*
X126086732Y-73362402D01*
X126427480Y-72852437D01*
X126431570Y-72846673D01*
X126800365Y-72356630D01*
X126804771Y-72351104D01*
X127200483Y-71882487D01*
X127205193Y-71877217D01*
X127597925Y-71461811D01*
X127610188Y-71450454D01*
X127627308Y-71436590D01*
X127627310Y-71436588D01*
X127632436Y-71432437D01*
X127650852Y-71409695D01*
X127662034Y-71397597D01*
X127906363Y-71165737D01*
X128085509Y-70995734D01*
X128090411Y-70991320D01*
X128149534Y-70940824D01*
X128566482Y-70584717D01*
X128571587Y-70580583D01*
X128664127Y-70509575D01*
X129068315Y-70199431D01*
X129073628Y-70195572D01*
X129463537Y-69927595D01*
X129589590Y-69840961D01*
X129595122Y-69837368D01*
X129777259Y-69725754D01*
X130128969Y-69510226D01*
X130134640Y-69506952D01*
X130516249Y-69299755D01*
X130684858Y-69208208D01*
X130690736Y-69205213D01*
X131255819Y-68935682D01*
X131261845Y-68932999D01*
X131840259Y-68693412D01*
X131846417Y-68691048D01*
X132436591Y-68482056D01*
X132442865Y-68480018D01*
X132566317Y-68443450D01*
X133043152Y-68302205D01*
X133049490Y-68300506D01*
X133658309Y-68154342D01*
X133664742Y-68152975D01*
X134280342Y-68038881D01*
X134286840Y-68037851D01*
X134838973Y-67965161D01*
X134907555Y-67956132D01*
X134914115Y-67955442D01*
X134990564Y-67949425D01*
X135538290Y-67906318D01*
X135544843Y-67905975D01*
X136128435Y-67890693D01*
X136144898Y-67891340D01*
X136174011Y-67894400D01*
X136214066Y-67890190D01*
X136227237Y-67889500D01*
X151128233Y-67889500D01*
X151196354Y-67909502D01*
X151211954Y-67922074D01*
X151212121Y-67921875D01*
X151216328Y-67925405D01*
X151220224Y-67929301D01*
X151393442Y-68050589D01*
X151398420Y-68052910D01*
X151398423Y-68052912D01*
X151580108Y-68137633D01*
X151585090Y-68139956D01*
X151590398Y-68141378D01*
X151590400Y-68141379D01*
X151784030Y-68193262D01*
X151784032Y-68193262D01*
X151789345Y-68194686D01*
X152000000Y-68213116D01*
X152210655Y-68194686D01*
X152215968Y-68193262D01*
X152215970Y-68193262D01*
X152409600Y-68141379D01*
X152409602Y-68141378D01*
X152414910Y-68139956D01*
X152419892Y-68137633D01*
X152601577Y-68052912D01*
X152601580Y-68052910D01*
X152606558Y-68050589D01*
X152779776Y-67929301D01*
X152783672Y-67925405D01*
X152787879Y-67921875D01*
X152788850Y-67923032D01*
X152844984Y-67892379D01*
X152871767Y-67889500D01*
X155842611Y-67889500D01*
X155855782Y-67890190D01*
X155895837Y-67894400D01*
X155902401Y-67893710D01*
X155902403Y-67893710D01*
X155920736Y-67891783D01*
X155938854Y-67891190D01*
X156276487Y-67904456D01*
X156286350Y-67905232D01*
X156659748Y-67949427D01*
X156669519Y-67950975D01*
X156829686Y-67982834D01*
X157038299Y-68024330D01*
X157047900Y-68026635D01*
X157289894Y-68094884D01*
X157409781Y-68128696D01*
X157419190Y-68131753D01*
X157771954Y-68261894D01*
X157781091Y-68265679D01*
X158122557Y-68423097D01*
X158131352Y-68427578D01*
X158361181Y-68556288D01*
X158459425Y-68611307D01*
X158467861Y-68616477D01*
X158496273Y-68635461D01*
X158780492Y-68825371D01*
X158788482Y-68831176D01*
X159018885Y-69012810D01*
X159083766Y-69063958D01*
X159091286Y-69070380D01*
X159291182Y-69255162D01*
X159339422Y-69299755D01*
X159351809Y-69312981D01*
X159367564Y-69332436D01*
X159372690Y-69336587D01*
X159372691Y-69336588D01*
X159390305Y-69350852D01*
X159402406Y-69362038D01*
X159841178Y-69824407D01*
X159845589Y-69829306D01*
X160287021Y-70346156D01*
X160291153Y-70351258D01*
X160673457Y-70849486D01*
X160704943Y-70890520D01*
X160708811Y-70895845D01*
X160993917Y-71310677D01*
X161093795Y-71456000D01*
X161097388Y-71461532D01*
X161382496Y-71926784D01*
X161452537Y-72041081D01*
X161455835Y-72046794D01*
X161780154Y-72644116D01*
X161783149Y-72649994D01*
X162075765Y-73263477D01*
X162078448Y-73269503D01*
X162338556Y-73897459D01*
X162340920Y-73903617D01*
X162567812Y-74544340D01*
X162569849Y-74550610D01*
X162707100Y-75013959D01*
X162762889Y-75202299D01*
X162764592Y-75208654D01*
X162881222Y-75694450D01*
X162923273Y-75869606D01*
X162924640Y-75876041D01*
X163048507Y-76544367D01*
X163049538Y-76550874D01*
X163123552Y-77113065D01*
X163138256Y-77224754D01*
X163138946Y-77231314D01*
X163192271Y-77908862D01*
X163192276Y-77908931D01*
X163192620Y-77915501D01*
X163207363Y-78478508D01*
X163209306Y-78552705D01*
X163208659Y-78569170D01*
X163205600Y-78598275D01*
X163206290Y-78604840D01*
X163209810Y-78638330D01*
X163210500Y-78651501D01*
X163210500Y-83146774D01*
X163209810Y-83159945D01*
X163205600Y-83200000D01*
X163206290Y-83206565D01*
X163206290Y-83206570D01*
X163206811Y-83211528D01*
X163207421Y-83220198D01*
X163207876Y-83232938D01*
X163221893Y-83625406D01*
X163222133Y-83627641D01*
X163222134Y-83627651D01*
X163264127Y-84018240D01*
X163267396Y-84048644D01*
X163267796Y-84050861D01*
X163267797Y-84050868D01*
X163330473Y-84398256D01*
X163342976Y-84467558D01*
X163448249Y-84880013D01*
X163582678Y-85283907D01*
X163583531Y-85285967D01*
X163583535Y-85285977D01*
X163716600Y-85607222D01*
X163745578Y-85677181D01*
X163746574Y-85679172D01*
X163746581Y-85679186D01*
X163852676Y-85891137D01*
X163936118Y-86057833D01*
X163937259Y-86059756D01*
X163937265Y-86059767D01*
X164118311Y-86364902D01*
X164153329Y-86423921D01*
X164396102Y-86773582D01*
X164397509Y-86775328D01*
X164397515Y-86775336D01*
X164584611Y-87007508D01*
X164663201Y-87105032D01*
X164939513Y-87401812D01*
X164945195Y-87408355D01*
X164952492Y-87417365D01*
X164957617Y-87421515D01*
X164957620Y-87421518D01*
X164971947Y-87433119D01*
X164985180Y-87445513D01*
X165235492Y-87716296D01*
X165241917Y-87723819D01*
X165493781Y-88043303D01*
X165499596Y-88051306D01*
X165665360Y-88299385D01*
X165725632Y-88389588D01*
X165730801Y-88398023D01*
X165929591Y-88752986D01*
X165934083Y-88761801D01*
X166104417Y-89131279D01*
X166108203Y-89140420D01*
X166249018Y-89522114D01*
X166252075Y-89531523D01*
X166362508Y-89923082D01*
X166364816Y-89932695D01*
X166444192Y-90331741D01*
X166445738Y-90341501D01*
X166493557Y-90745530D01*
X166494333Y-90755392D01*
X166508810Y-91123846D01*
X166508217Y-91141964D01*
X166505600Y-91166863D01*
X166506290Y-91173428D01*
X166509810Y-91206918D01*
X166510500Y-91220089D01*
X166510500Y-95740552D01*
X166490498Y-95808673D01*
X166473595Y-95829647D01*
X166423023Y-95880219D01*
X166395781Y-95919124D01*
X166340326Y-95963452D01*
X166269707Y-95970762D01*
X166206346Y-95938731D01*
X166170361Y-95877530D01*
X166167306Y-95860462D01*
X166164598Y-95835540D01*
X166163745Y-95827684D01*
X166112615Y-95691295D01*
X166025261Y-95574739D01*
X165908705Y-95487385D01*
X165772316Y-95436255D01*
X165710134Y-95429500D01*
X164089866Y-95429500D01*
X164027684Y-95436255D01*
X163891295Y-95487385D01*
X163774739Y-95574739D01*
X163687385Y-95691295D01*
X163636255Y-95827684D01*
X163629500Y-95889866D01*
X163629500Y-97510134D01*
X163636255Y-97572316D01*
X163687385Y-97708705D01*
X163774739Y-97825261D01*
X163891295Y-97912615D01*
X164027684Y-97963745D01*
X164089866Y-97970500D01*
X165710134Y-97970500D01*
X165772316Y-97963745D01*
X165908705Y-97912615D01*
X166025261Y-97825261D01*
X166112615Y-97708705D01*
X166163745Y-97572316D01*
X166167306Y-97539538D01*
X166194549Y-97473976D01*
X166252912Y-97433550D01*
X166323866Y-97431096D01*
X166384884Y-97467392D01*
X166395777Y-97480869D01*
X166423023Y-97519781D01*
X166580219Y-97676977D01*
X166584089Y-97679687D01*
X166623279Y-97738600D01*
X166626538Y-97751421D01*
X166638241Y-97810254D01*
X166638907Y-97812615D01*
X166638910Y-97812628D01*
X166686934Y-97982905D01*
X166739606Y-98169662D01*
X166740460Y-98171978D01*
X166740464Y-98171989D01*
X166853813Y-98479232D01*
X166868857Y-98520010D01*
X166869887Y-98522245D01*
X166869889Y-98522249D01*
X166871275Y-98525255D01*
X167025196Y-98859137D01*
X167026394Y-98861276D01*
X167026399Y-98861286D01*
X167141969Y-99067653D01*
X167207660Y-99184953D01*
X167209031Y-99187005D01*
X167209036Y-99187013D01*
X167237452Y-99229541D01*
X167415124Y-99495449D01*
X167646310Y-99788711D01*
X167884268Y-100046138D01*
X167889648Y-100052353D01*
X167898919Y-100063802D01*
X167904045Y-100067953D01*
X167930223Y-100089152D01*
X167940023Y-100097977D01*
X168533382Y-100691336D01*
X168542207Y-100701136D01*
X168567560Y-100732444D01*
X168572694Y-100736601D01*
X168573476Y-100737383D01*
X168576439Y-100739936D01*
X168585092Y-100747865D01*
X168866954Y-101006140D01*
X169188756Y-101253065D01*
X169530855Y-101471004D01*
X169890647Y-101658298D01*
X170265393Y-101813522D01*
X170268013Y-101814348D01*
X170268021Y-101814351D01*
X170649611Y-101934666D01*
X170649616Y-101934667D01*
X170652241Y-101935495D01*
X170654934Y-101936092D01*
X171045554Y-102022690D01*
X171045559Y-102022691D01*
X171048248Y-102023287D01*
X171387590Y-102067963D01*
X171447665Y-102075872D01*
X171447667Y-102075872D01*
X171450400Y-102076232D01*
X171673636Y-102085979D01*
X171844051Y-102093420D01*
X171847958Y-102093710D01*
X171849066Y-102093710D01*
X171855635Y-102094401D01*
X171862200Y-102093711D01*
X171862203Y-102093711D01*
X171895692Y-102090191D01*
X171908862Y-102089501D01*
X180873968Y-102089501D01*
X180887139Y-102090191D01*
X180920627Y-102093711D01*
X180920629Y-102093711D01*
X180927193Y-102094401D01*
X180941690Y-102092878D01*
X180949339Y-102092310D01*
X181272860Y-102078185D01*
X181483723Y-102050425D01*
X181613170Y-102033384D01*
X181613176Y-102033383D01*
X181615895Y-102033025D01*
X181953689Y-101958138D01*
X181956314Y-101957310D01*
X181956319Y-101957309D01*
X182046094Y-101929003D01*
X182283671Y-101854096D01*
X182603330Y-101721690D01*
X182605770Y-101720420D01*
X182605776Y-101720417D01*
X182747401Y-101646691D01*
X182910231Y-101561927D01*
X183156867Y-101404802D01*
X183174950Y-101393282D01*
X195755612Y-101393282D01*
X195764325Y-101404802D01*
X195862018Y-101476433D01*
X195869928Y-101481376D01*
X196092890Y-101598682D01*
X196101453Y-101602405D01*
X196339304Y-101685467D01*
X196348313Y-101687881D01*
X196595842Y-101734876D01*
X196605098Y-101735930D01*
X196856857Y-101745822D01*
X196866171Y-101745496D01*
X197116615Y-101718069D01*
X197125792Y-101716368D01*
X197369431Y-101652223D01*
X197378251Y-101649186D01*
X197609736Y-101549732D01*
X197618008Y-101545425D01*
X197832249Y-101412849D01*
X197839188Y-101407807D01*
X197847518Y-101395168D01*
X197841456Y-101384815D01*
X196812812Y-100356171D01*
X196798868Y-100348557D01*
X196797035Y-100348688D01*
X196790420Y-100352939D01*
X195762270Y-101381089D01*
X195755612Y-101393282D01*
X183174950Y-101393282D01*
X183199726Y-101377498D01*
X183199729Y-101377496D01*
X183202041Y-101376023D01*
X183204209Y-101374359D01*
X183204221Y-101374351D01*
X183474345Y-101167076D01*
X183476537Y-101165394D01*
X183478565Y-101163536D01*
X183478573Y-101163529D01*
X183661015Y-100996351D01*
X183715289Y-100946618D01*
X183721095Y-100941615D01*
X183732427Y-100932438D01*
X183737427Y-100926263D01*
X183742827Y-100920023D01*
X183826714Y-100829276D01*
X184016062Y-100624443D01*
X184153043Y-100450684D01*
X184273736Y-100297587D01*
X184273741Y-100297580D01*
X184275261Y-100295652D01*
X184481292Y-99987309D01*
X184506499Y-99949585D01*
X184506500Y-99949583D01*
X184507866Y-99947539D01*
X184510592Y-99942672D01*
X195037898Y-99942672D01*
X195049987Y-100194324D01*
X195051124Y-100203584D01*
X195100274Y-100450684D01*
X195102768Y-100459677D01*
X195187900Y-100696788D01*
X195191700Y-100705323D01*
X195310946Y-100927250D01*
X195315957Y-100935117D01*
X195379446Y-101020139D01*
X195390704Y-101028588D01*
X195403123Y-101021816D01*
X196427978Y-99996961D01*
X196434356Y-99985281D01*
X197164408Y-99985281D01*
X197164539Y-99987114D01*
X197168790Y-99993729D01*
X198199913Y-101024852D01*
X198212293Y-101031612D01*
X198220634Y-101025368D01*
X198346765Y-100829276D01*
X198351212Y-100821085D01*
X198454691Y-100591371D01*
X198457882Y-100582604D01*
X198526269Y-100340125D01*
X198528129Y-100330983D01*
X198560116Y-100079545D01*
X198560597Y-100073257D01*
X198562847Y-99987309D01*
X198562696Y-99981000D01*
X198543912Y-99728223D01*
X198542536Y-99719017D01*
X198486929Y-99473275D01*
X198484205Y-99464364D01*
X198392888Y-99229541D01*
X198388877Y-99221132D01*
X198263854Y-99002389D01*
X198258643Y-98994663D01*
X198221391Y-98947410D01*
X198209466Y-98938939D01*
X198197934Y-98945425D01*
X197172022Y-99971337D01*
X197164408Y-99985281D01*
X196434356Y-99985281D01*
X196435592Y-99983017D01*
X196435461Y-99981184D01*
X196431210Y-99974569D01*
X195401321Y-98944680D01*
X195388013Y-98937413D01*
X195377974Y-98944535D01*
X195367761Y-98956815D01*
X195362346Y-98964407D01*
X195231646Y-99179795D01*
X195227408Y-99188112D01*
X195129981Y-99420448D01*
X195127020Y-99429298D01*
X195065006Y-99673480D01*
X195063384Y-99682677D01*
X195038143Y-99933347D01*
X195037898Y-99942672D01*
X184510592Y-99942672D01*
X184569059Y-99838273D01*
X184711233Y-99584404D01*
X184712440Y-99582249D01*
X184765313Y-99467562D01*
X184886696Y-99204265D01*
X184886697Y-99204264D01*
X184887724Y-99202035D01*
X184894824Y-99182792D01*
X184981662Y-98947410D01*
X185032637Y-98809240D01*
X185099279Y-98572952D01*
X195753216Y-98572952D01*
X195757789Y-98582728D01*
X196787188Y-99612127D01*
X196801132Y-99619741D01*
X196802965Y-99619610D01*
X196809580Y-99615359D01*
X197838419Y-98586520D01*
X197844803Y-98574830D01*
X197835391Y-98562719D01*
X197698593Y-98467819D01*
X197690565Y-98463091D01*
X197464593Y-98351654D01*
X197455960Y-98348166D01*
X197215998Y-98271354D01*
X197206938Y-98269178D01*
X196958260Y-98228678D01*
X196948973Y-98227866D01*
X196697053Y-98224568D01*
X196687742Y-98225138D01*
X196438097Y-98259113D01*
X196428978Y-98261051D01*
X196187098Y-98331553D01*
X196178367Y-98334816D01*
X195949558Y-98440300D01*
X195941406Y-98444819D01*
X195762353Y-98562211D01*
X195753216Y-98572952D01*
X185099279Y-98572952D01*
X185146285Y-98406286D01*
X185227968Y-97995658D01*
X185266716Y-97668294D01*
X185294587Y-97602997D01*
X185302748Y-97594010D01*
X185376977Y-97519781D01*
X185381354Y-97513531D01*
X185501331Y-97342185D01*
X185501332Y-97342183D01*
X185504488Y-97337676D01*
X185506811Y-97332694D01*
X185506814Y-97332689D01*
X185531391Y-97279982D01*
X185578308Y-97226697D01*
X185646585Y-97207236D01*
X185714545Y-97227778D01*
X185759781Y-97279982D01*
X185786231Y-97336705D01*
X185786234Y-97336710D01*
X185788557Y-97341692D01*
X185852877Y-97433550D01*
X185913257Y-97519781D01*
X185916871Y-97524943D01*
X186075057Y-97683129D01*
X186079565Y-97686286D01*
X186079568Y-97686288D01*
X186111583Y-97708705D01*
X186258308Y-97811443D01*
X186263290Y-97813766D01*
X186263295Y-97813769D01*
X186362212Y-97859894D01*
X186461057Y-97905986D01*
X186677143Y-97963887D01*
X186900000Y-97983384D01*
X187122857Y-97963887D01*
X187338943Y-97905986D01*
X187437788Y-97859894D01*
X187536705Y-97813769D01*
X187536710Y-97813766D01*
X187541692Y-97811443D01*
X187688417Y-97708705D01*
X187720432Y-97686288D01*
X187720435Y-97686286D01*
X187724943Y-97683129D01*
X187883129Y-97524943D01*
X187886744Y-97519781D01*
X187947123Y-97433550D01*
X188011443Y-97341692D01*
X188013766Y-97336710D01*
X188013769Y-97336705D01*
X188065066Y-97226697D01*
X188105986Y-97138943D01*
X188163887Y-96922857D01*
X188183384Y-96700000D01*
X188163887Y-96477143D01*
X188105986Y-96261057D01*
X188053330Y-96148134D01*
X195041500Y-96148134D01*
X195048255Y-96210316D01*
X195099385Y-96346705D01*
X195186739Y-96463261D01*
X195303295Y-96550615D01*
X195439684Y-96601745D01*
X195501866Y-96608500D01*
X198098134Y-96608500D01*
X198160316Y-96601745D01*
X198296705Y-96550615D01*
X198413261Y-96463261D01*
X198500615Y-96346705D01*
X198551745Y-96210316D01*
X198558500Y-96148134D01*
X198558500Y-93551866D01*
X198551745Y-93489684D01*
X198500615Y-93353295D01*
X198413261Y-93236739D01*
X198296705Y-93149385D01*
X198160316Y-93098255D01*
X198098134Y-93091500D01*
X195501866Y-93091500D01*
X195439684Y-93098255D01*
X195303295Y-93149385D01*
X195186739Y-93236739D01*
X195099385Y-93353295D01*
X195048255Y-93489684D01*
X195041500Y-93551866D01*
X195041500Y-96148134D01*
X188053330Y-96148134D01*
X188040219Y-96120018D01*
X188013769Y-96063295D01*
X188013766Y-96063290D01*
X188011443Y-96058308D01*
X187927714Y-95938731D01*
X187886288Y-95879568D01*
X187886286Y-95879565D01*
X187883129Y-95875057D01*
X187724943Y-95716871D01*
X187720435Y-95713714D01*
X187720432Y-95713712D01*
X187570986Y-95609069D01*
X187541692Y-95588557D01*
X187536710Y-95586234D01*
X187536705Y-95586231D01*
X187433823Y-95538257D01*
X187338943Y-95494014D01*
X187122857Y-95436113D01*
X186900000Y-95416616D01*
X186677143Y-95436113D01*
X186461057Y-95494014D01*
X186366177Y-95538257D01*
X186263295Y-95586231D01*
X186263290Y-95586234D01*
X186258308Y-95588557D01*
X186229014Y-95609069D01*
X186079568Y-95713712D01*
X186079565Y-95713714D01*
X186075057Y-95716871D01*
X185916871Y-95875057D01*
X185913714Y-95879565D01*
X185913712Y-95879568D01*
X185872286Y-95938731D01*
X185788557Y-96058308D01*
X185786234Y-96063290D01*
X185786231Y-96063295D01*
X185759781Y-96120018D01*
X185712863Y-96173303D01*
X185644586Y-96192764D01*
X185576626Y-96172222D01*
X185531391Y-96120018D01*
X185506814Y-96067311D01*
X185506811Y-96067306D01*
X185504488Y-96062324D01*
X185501331Y-96057815D01*
X185380136Y-95884730D01*
X185380134Y-95884727D01*
X185376977Y-95880219D01*
X185219781Y-95723023D01*
X185215273Y-95719866D01*
X185215270Y-95719864D01*
X185057038Y-95609069D01*
X185037677Y-95595512D01*
X185032695Y-95593189D01*
X185032690Y-95593186D01*
X184841178Y-95503883D01*
X184841177Y-95503882D01*
X184836196Y-95501560D01*
X184830888Y-95500138D01*
X184830886Y-95500137D01*
X184765051Y-95482497D01*
X184621463Y-95444022D01*
X184400000Y-95424647D01*
X184178537Y-95444022D01*
X184034949Y-95482497D01*
X183969114Y-95500137D01*
X183969112Y-95500138D01*
X183963804Y-95501560D01*
X183958823Y-95503882D01*
X183958822Y-95503883D01*
X183767311Y-95593186D01*
X183767306Y-95593189D01*
X183762324Y-95595512D01*
X183757817Y-95598668D01*
X183757815Y-95598669D01*
X183584730Y-95719864D01*
X183584727Y-95719866D01*
X183580219Y-95723023D01*
X183423023Y-95880219D01*
X183395781Y-95919124D01*
X183340326Y-95963452D01*
X183269707Y-95970762D01*
X183206346Y-95938731D01*
X183170361Y-95877530D01*
X183167306Y-95860462D01*
X183164598Y-95835540D01*
X183163745Y-95827684D01*
X183112615Y-95691295D01*
X183025261Y-95574739D01*
X182908705Y-95487385D01*
X182772316Y-95436255D01*
X182710134Y-95429500D01*
X181089866Y-95429500D01*
X181027684Y-95436255D01*
X180891295Y-95487385D01*
X180774739Y-95574739D01*
X180687385Y-95691295D01*
X180636255Y-95827684D01*
X180629500Y-95889866D01*
X180629500Y-97510134D01*
X180636255Y-97572316D01*
X180687385Y-97708705D01*
X180774739Y-97825261D01*
X180891295Y-97912615D01*
X181027684Y-97963745D01*
X181089866Y-97970500D01*
X182710134Y-97970500D01*
X182772316Y-97963745D01*
X182908705Y-97912615D01*
X183025261Y-97825261D01*
X183112615Y-97708705D01*
X183163745Y-97572316D01*
X183167306Y-97539538D01*
X183194549Y-97473976D01*
X183252912Y-97433550D01*
X183323866Y-97431096D01*
X183384884Y-97467392D01*
X183395777Y-97480869D01*
X183423023Y-97519781D01*
X183438133Y-97534891D01*
X183472159Y-97597203D01*
X183473674Y-97642475D01*
X183459415Y-97738600D01*
X183445482Y-97832527D01*
X183443221Y-97847766D01*
X183440811Y-97859885D01*
X183398755Y-98027778D01*
X183359187Y-98185736D01*
X183355597Y-98197568D01*
X183242433Y-98513832D01*
X183237701Y-98525255D01*
X183198430Y-98608286D01*
X183102291Y-98811554D01*
X183094087Y-98828899D01*
X183088261Y-98839800D01*
X183025484Y-98944535D01*
X182915569Y-99127915D01*
X182908700Y-99138196D01*
X182708599Y-99407998D01*
X182700754Y-99417556D01*
X182498893Y-99640273D01*
X182484830Y-99653575D01*
X182472679Y-99663415D01*
X182472677Y-99663417D01*
X182467551Y-99667568D01*
X182463401Y-99672693D01*
X182463397Y-99672697D01*
X182454713Y-99683421D01*
X182440752Y-99698078D01*
X182293735Y-99829462D01*
X182282696Y-99838267D01*
X182094539Y-99971771D01*
X182082591Y-99979278D01*
X181880683Y-100090869D01*
X181867955Y-100096998D01*
X181654832Y-100185275D01*
X181641496Y-100189942D01*
X181419826Y-100253804D01*
X181406051Y-100256948D01*
X181292339Y-100276269D01*
X181178622Y-100295590D01*
X181164591Y-100297170D01*
X180967721Y-100308226D01*
X180947486Y-100307733D01*
X180933770Y-100306291D01*
X180933765Y-100306291D01*
X180927201Y-100305601D01*
X180920636Y-100306291D01*
X180887144Y-100309811D01*
X180873974Y-100310501D01*
X171908866Y-100310501D01*
X171895695Y-100309811D01*
X171862207Y-100306291D01*
X171862205Y-100306291D01*
X171855641Y-100305601D01*
X171849076Y-100306291D01*
X171849071Y-100306291D01*
X171833520Y-100307925D01*
X171814171Y-100308463D01*
X171655893Y-100300688D01*
X171580886Y-100297003D01*
X171568590Y-100295792D01*
X171302605Y-100256336D01*
X171290484Y-100253926D01*
X171212744Y-100234453D01*
X171029645Y-100188588D01*
X171017813Y-100184999D01*
X170828930Y-100117416D01*
X170764631Y-100094410D01*
X170753220Y-100089683D01*
X170510135Y-99974714D01*
X170499237Y-99968888D01*
X170268597Y-99830649D01*
X170258315Y-99823779D01*
X170042338Y-99663601D01*
X170032780Y-99655758D01*
X169859718Y-99498906D01*
X169846420Y-99484845D01*
X169836584Y-99472698D01*
X169836579Y-99472693D01*
X169832424Y-99467562D01*
X169827293Y-99463407D01*
X169827290Y-99463404D01*
X169801126Y-99442218D01*
X169791324Y-99433392D01*
X169197971Y-98840039D01*
X169189145Y-98830237D01*
X169167963Y-98804078D01*
X169167960Y-98804075D01*
X169163805Y-98798944D01*
X169158674Y-98794789D01*
X169158669Y-98794784D01*
X169146527Y-98784952D01*
X169132459Y-98771646D01*
X168968556Y-98590802D01*
X168960712Y-98581244D01*
X168794264Y-98356812D01*
X168787395Y-98346532D01*
X168773697Y-98323678D01*
X168643753Y-98106877D01*
X168637934Y-98095990D01*
X168633790Y-98087227D01*
X168619887Y-98057833D01*
X168518473Y-97843408D01*
X168513741Y-97831985D01*
X168419613Y-97568914D01*
X168416026Y-97557089D01*
X168412828Y-97544325D01*
X168415674Y-97473385D01*
X168431833Y-97441438D01*
X168504488Y-97337676D01*
X168506814Y-97332689D01*
X168531391Y-97279982D01*
X168578308Y-97226697D01*
X168646585Y-97207236D01*
X168714545Y-97227778D01*
X168759781Y-97279982D01*
X168786231Y-97336705D01*
X168786234Y-97336710D01*
X168788557Y-97341692D01*
X168852877Y-97433550D01*
X168913257Y-97519781D01*
X168916871Y-97524943D01*
X169075057Y-97683129D01*
X169079565Y-97686286D01*
X169079568Y-97686288D01*
X169111583Y-97708705D01*
X169258308Y-97811443D01*
X169263290Y-97813766D01*
X169263295Y-97813769D01*
X169362212Y-97859894D01*
X169461057Y-97905986D01*
X169677143Y-97963887D01*
X169900000Y-97983384D01*
X170122857Y-97963887D01*
X170338943Y-97905986D01*
X170437788Y-97859894D01*
X170536705Y-97813769D01*
X170536710Y-97813766D01*
X170541692Y-97811443D01*
X170688417Y-97708705D01*
X170720432Y-97686288D01*
X170720435Y-97686286D01*
X170724943Y-97683129D01*
X170883129Y-97524943D01*
X170886744Y-97519781D01*
X170947123Y-97433550D01*
X171011443Y-97341692D01*
X171013766Y-97336710D01*
X171013769Y-97336705D01*
X171065066Y-97226697D01*
X171105986Y-97138943D01*
X171163887Y-96922857D01*
X171183384Y-96700000D01*
X171163887Y-96477143D01*
X171105986Y-96261057D01*
X171040219Y-96120018D01*
X171013769Y-96063295D01*
X171013766Y-96063290D01*
X171011443Y-96058308D01*
X170927714Y-95938731D01*
X170886288Y-95879568D01*
X170886286Y-95879565D01*
X170883129Y-95875057D01*
X170724943Y-95716871D01*
X170720435Y-95713714D01*
X170720432Y-95713712D01*
X170570986Y-95609069D01*
X170541692Y-95588557D01*
X170536710Y-95586234D01*
X170536705Y-95586231D01*
X170433823Y-95538257D01*
X170338943Y-95494014D01*
X170122857Y-95436113D01*
X169900000Y-95416616D01*
X169677143Y-95436113D01*
X169461057Y-95494014D01*
X169366177Y-95538257D01*
X169263295Y-95586231D01*
X169263290Y-95586234D01*
X169258308Y-95588557D01*
X169229014Y-95609069D01*
X169079568Y-95713712D01*
X169079565Y-95713714D01*
X169075057Y-95716871D01*
X168916871Y-95875057D01*
X168913714Y-95879565D01*
X168913712Y-95879568D01*
X168872286Y-95938731D01*
X168788557Y-96058308D01*
X168786234Y-96063290D01*
X168786231Y-96063295D01*
X168759781Y-96120018D01*
X168712863Y-96173303D01*
X168644586Y-96192764D01*
X168576626Y-96172222D01*
X168531391Y-96120018D01*
X168506814Y-96067311D01*
X168506811Y-96067306D01*
X168504488Y-96062324D01*
X168501331Y-96057815D01*
X168380136Y-95884730D01*
X168380134Y-95884727D01*
X168376977Y-95880219D01*
X168326405Y-95829647D01*
X168292379Y-95767335D01*
X168289500Y-95740552D01*
X168289500Y-91220091D01*
X168290190Y-91206920D01*
X168293710Y-91173433D01*
X168293710Y-91173428D01*
X168294400Y-91166865D01*
X168293821Y-91161360D01*
X168293709Y-91158225D01*
X168293709Y-91157622D01*
X168293666Y-91157009D01*
X168276031Y-90663248D01*
X168275951Y-90660996D01*
X168241602Y-90341501D01*
X168222083Y-90159953D01*
X168222082Y-90159944D01*
X168221841Y-90157705D01*
X168180371Y-89927852D01*
X168132363Y-89661760D01*
X168132361Y-89661750D01*
X168131965Y-89659556D01*
X168006780Y-89169089D01*
X168006077Y-89166975D01*
X168006072Y-89166960D01*
X167851271Y-88701866D01*
X167846923Y-88688802D01*
X167687852Y-88304771D01*
X167654067Y-88223208D01*
X167654065Y-88223203D01*
X167653211Y-88221142D01*
X167426629Y-87768494D01*
X167280646Y-87522455D01*
X167169478Y-87335093D01*
X167169472Y-87335084D01*
X167168333Y-87333164D01*
X167167057Y-87331326D01*
X166880930Y-86919229D01*
X166880922Y-86919219D01*
X166879638Y-86917369D01*
X166562016Y-86523230D01*
X166223802Y-86159966D01*
X166223398Y-86159501D01*
X166222971Y-86159074D01*
X166220838Y-86156783D01*
X166217356Y-86152483D01*
X166198891Y-86137531D01*
X166185292Y-86124738D01*
X166114483Y-86047463D01*
X165971234Y-85891134D01*
X165964170Y-85882717D01*
X165748852Y-85602108D01*
X165742548Y-85593104D01*
X165596852Y-85364408D01*
X165552513Y-85294809D01*
X165547018Y-85285291D01*
X165545190Y-85281780D01*
X165383705Y-84971569D01*
X165379063Y-84961616D01*
X165373920Y-84949198D01*
X165243706Y-84634834D01*
X165239950Y-84624512D01*
X165194454Y-84480215D01*
X165133596Y-84287199D01*
X165130751Y-84276582D01*
X165119826Y-84227302D01*
X165054198Y-83931275D01*
X165052291Y-83920459D01*
X165051001Y-83910655D01*
X165023267Y-83700000D01*
X165936884Y-83700000D01*
X165955314Y-83910655D01*
X165956738Y-83915968D01*
X165956738Y-83915970D01*
X165960842Y-83931284D01*
X166010044Y-84114910D01*
X166012366Y-84119891D01*
X166012367Y-84119892D01*
X166075530Y-84255344D01*
X166099411Y-84306558D01*
X166220699Y-84479776D01*
X166370224Y-84629301D01*
X166543442Y-84750589D01*
X166548420Y-84752910D01*
X166548423Y-84752912D01*
X166730108Y-84837633D01*
X166735090Y-84839956D01*
X166740398Y-84841378D01*
X166740400Y-84841379D01*
X166934030Y-84893262D01*
X166934032Y-84893262D01*
X166939345Y-84894686D01*
X167150000Y-84913116D01*
X167360655Y-84894686D01*
X167365968Y-84893262D01*
X167365970Y-84893262D01*
X167559600Y-84841379D01*
X167559602Y-84841378D01*
X167564910Y-84839956D01*
X167569892Y-84837633D01*
X167751577Y-84752912D01*
X167751580Y-84752910D01*
X167756558Y-84750589D01*
X167929776Y-84629301D01*
X168079301Y-84479776D01*
X168200589Y-84306558D01*
X168224471Y-84255344D01*
X168287633Y-84119892D01*
X168287634Y-84119891D01*
X168289956Y-84114910D01*
X168339159Y-83931284D01*
X168343262Y-83915970D01*
X168343262Y-83915968D01*
X168344686Y-83910655D01*
X168363116Y-83700000D01*
X168344686Y-83489345D01*
X168343262Y-83484030D01*
X168291379Y-83290400D01*
X168291378Y-83290398D01*
X168289956Y-83285090D01*
X168271042Y-83244529D01*
X168202912Y-83098423D01*
X168202910Y-83098420D01*
X168200589Y-83093442D01*
X168079301Y-82920224D01*
X167929776Y-82770699D01*
X167756558Y-82649411D01*
X167751580Y-82647090D01*
X167751577Y-82647088D01*
X167569892Y-82562367D01*
X167569891Y-82562366D01*
X167564910Y-82560044D01*
X167559602Y-82558622D01*
X167559600Y-82558621D01*
X167365970Y-82506738D01*
X167365968Y-82506738D01*
X167360655Y-82505314D01*
X167150000Y-82486884D01*
X166939345Y-82505314D01*
X166934032Y-82506738D01*
X166934030Y-82506738D01*
X166740400Y-82558621D01*
X166740398Y-82558622D01*
X166735090Y-82560044D01*
X166730109Y-82562366D01*
X166730108Y-82562367D01*
X166548423Y-82647088D01*
X166548420Y-82647090D01*
X166543442Y-82649411D01*
X166370224Y-82770699D01*
X166220699Y-82920224D01*
X166099411Y-83093442D01*
X166097090Y-83098420D01*
X166097088Y-83098423D01*
X166028958Y-83244529D01*
X166010044Y-83285090D01*
X166008622Y-83290398D01*
X166008621Y-83290400D01*
X165956738Y-83484030D01*
X165955314Y-83489345D01*
X165936884Y-83700000D01*
X165023267Y-83700000D01*
X165006125Y-83569794D01*
X165005167Y-83558845D01*
X164991347Y-83242295D01*
X164991917Y-83223631D01*
X164993710Y-83206569D01*
X164993710Y-83206565D01*
X164994400Y-83200000D01*
X164990190Y-83159945D01*
X164989500Y-83146774D01*
X164989500Y-78651501D01*
X164990190Y-78638330D01*
X164993710Y-78604843D01*
X164993710Y-78604840D01*
X164994400Y-78598275D01*
X164993857Y-78593111D01*
X164993747Y-78588628D01*
X164993742Y-78588190D01*
X164993733Y-78588057D01*
X164979491Y-78007898D01*
X164976046Y-77867547D01*
X164922274Y-77138578D01*
X164832798Y-76413127D01*
X164707834Y-75692939D01*
X164547682Y-74979751D01*
X164352729Y-74275280D01*
X164123443Y-73581224D01*
X163860379Y-72899254D01*
X163828137Y-72826517D01*
X163564796Y-72232430D01*
X163564791Y-72232419D01*
X163564168Y-72231014D01*
X163235525Y-71578113D01*
X163217228Y-71545813D01*
X163078929Y-71301681D01*
X194063860Y-71301681D01*
X194063878Y-71301933D01*
X194069793Y-71310677D01*
X194101111Y-71339174D01*
X194106748Y-71343738D01*
X194382544Y-71541918D01*
X194388682Y-71545813D01*
X194685435Y-71710984D01*
X194691955Y-71714136D01*
X195005738Y-71844109D01*
X195012589Y-71846495D01*
X195339212Y-71939536D01*
X195346301Y-71941120D01*
X195681465Y-71996006D01*
X195688671Y-71996763D01*
X196027926Y-72012762D01*
X196035176Y-72012686D01*
X196374010Y-71989587D01*
X196381219Y-71988676D01*
X196715160Y-71926784D01*
X196722190Y-71925057D01*
X197046819Y-71825187D01*
X197053597Y-71822667D01*
X197364603Y-71686145D01*
X197371043Y-71682864D01*
X197664293Y-71511502D01*
X197670326Y-71507493D01*
X197928828Y-71313405D01*
X197937282Y-71302078D01*
X197930537Y-71289748D01*
X196012810Y-69372020D01*
X195998869Y-69364408D01*
X195997034Y-69364539D01*
X195990420Y-69368790D01*
X194071474Y-71287737D01*
X194063860Y-71301681D01*
X163078929Y-71301681D01*
X163003351Y-71168268D01*
X162875242Y-70942124D01*
X162484186Y-70324579D01*
X162063300Y-69726966D01*
X161909558Y-69529964D01*
X161614553Y-69151950D01*
X161614537Y-69151931D01*
X161613597Y-69150726D01*
X161405072Y-68908987D01*
X192988484Y-68908987D01*
X192997374Y-69248505D01*
X192997980Y-69255721D01*
X193045835Y-69591963D01*
X193047269Y-69599074D01*
X193133455Y-69927595D01*
X193135692Y-69934478D01*
X193259064Y-70250914D01*
X193262081Y-70257503D01*
X193421002Y-70557652D01*
X193424761Y-70563860D01*
X193617129Y-70843757D01*
X193621574Y-70849486D01*
X193688743Y-70926484D01*
X193701917Y-70934888D01*
X193711769Y-70929020D01*
X195627980Y-69012810D01*
X195634357Y-69001131D01*
X196364408Y-69001131D01*
X196364539Y-69002966D01*
X196368790Y-69009580D01*
X198286268Y-70927057D01*
X198299622Y-70934349D01*
X198309594Y-70927295D01*
X198416641Y-70799267D01*
X198420957Y-70793456D01*
X198607432Y-70509575D01*
X198611046Y-70503313D01*
X198763658Y-70199882D01*
X198766530Y-70193244D01*
X198883249Y-69874293D01*
X198885345Y-69867351D01*
X198964631Y-69537103D01*
X198965915Y-69529964D01*
X199006816Y-69191973D01*
X199007240Y-69186403D01*
X199013010Y-69002797D01*
X199012937Y-68997204D01*
X198993338Y-68657303D01*
X198992506Y-68650113D01*
X198934113Y-68315529D01*
X198932458Y-68308474D01*
X198835998Y-67982834D01*
X198833540Y-67976006D01*
X198700290Y-67663608D01*
X198697073Y-67657125D01*
X198528788Y-67362089D01*
X198524856Y-67356034D01*
X198323774Y-67082295D01*
X198319166Y-67076726D01*
X198313830Y-67070984D01*
X198300178Y-67062866D01*
X198299570Y-67062887D01*
X198291092Y-67068119D01*
X196372020Y-68987190D01*
X196364408Y-69001131D01*
X195634357Y-69001131D01*
X195635592Y-68998869D01*
X195635461Y-68997034D01*
X195631210Y-68990420D01*
X193712374Y-67071585D01*
X193699581Y-67064599D01*
X193688827Y-67072464D01*
X193528037Y-67277527D01*
X193523902Y-67283476D01*
X193346440Y-67573068D01*
X193343019Y-67579447D01*
X193200016Y-67887522D01*
X193197356Y-67894241D01*
X193090711Y-68216707D01*
X193088834Y-68223711D01*
X193019961Y-68556288D01*
X193018904Y-68563449D01*
X192988712Y-68901735D01*
X192988484Y-68908987D01*
X161405072Y-68908987D01*
X161136161Y-68597245D01*
X160773858Y-68216707D01*
X160639187Y-68075257D01*
X160639097Y-68075155D01*
X160638782Y-68074832D01*
X160638045Y-68074058D01*
X160635702Y-68071597D01*
X160632436Y-68067564D01*
X160627310Y-68063413D01*
X160626690Y-68062793D01*
X160622139Y-68058840D01*
X160528325Y-67971496D01*
X160282049Y-67742205D01*
X160176472Y-67657125D01*
X159911498Y-67443596D01*
X159909757Y-67442193D01*
X159904387Y-67438464D01*
X159518860Y-67170788D01*
X159518858Y-67170787D01*
X159517012Y-67169505D01*
X159231326Y-67000000D01*
X172036884Y-67000000D01*
X172055314Y-67210655D01*
X172056738Y-67215968D01*
X172056738Y-67215970D01*
X172105072Y-67396353D01*
X172110044Y-67414910D01*
X172112366Y-67419891D01*
X172112367Y-67419892D01*
X172123421Y-67443596D01*
X172199411Y-67606558D01*
X172320699Y-67779776D01*
X172470224Y-67929301D01*
X172643442Y-68050589D01*
X172648420Y-68052910D01*
X172648423Y-68052912D01*
X172830108Y-68137633D01*
X172835090Y-68139956D01*
X172840398Y-68141378D01*
X172840400Y-68141379D01*
X173034030Y-68193262D01*
X173034032Y-68193262D01*
X173039345Y-68194686D01*
X173250000Y-68213116D01*
X173460655Y-68194686D01*
X173465968Y-68193262D01*
X173465970Y-68193262D01*
X173659600Y-68141379D01*
X173659602Y-68141378D01*
X173664910Y-68139956D01*
X173669892Y-68137633D01*
X173851577Y-68052912D01*
X173851580Y-68052910D01*
X173856558Y-68050589D01*
X174029776Y-67929301D01*
X174179301Y-67779776D01*
X174300589Y-67606558D01*
X174376580Y-67443596D01*
X174387633Y-67419892D01*
X174387634Y-67419891D01*
X174389956Y-67414910D01*
X174394929Y-67396353D01*
X174443262Y-67215970D01*
X174443262Y-67215968D01*
X174444686Y-67210655D01*
X174463116Y-67000000D01*
X174444686Y-66789345D01*
X174424046Y-66712316D01*
X174421027Y-66701048D01*
X194065132Y-66701048D01*
X194071527Y-66712316D01*
X195987190Y-68627980D01*
X196001131Y-68635592D01*
X196002966Y-68635461D01*
X196009580Y-68631210D01*
X197927074Y-66713716D01*
X197934466Y-66700179D01*
X197927679Y-66690479D01*
X197824476Y-66602335D01*
X197818704Y-66597953D01*
X197536796Y-66408519D01*
X197530575Y-66404839D01*
X197228757Y-66249060D01*
X197222146Y-66246116D01*
X196904439Y-66126065D01*
X196897513Y-66123894D01*
X196568112Y-66041155D01*
X196561005Y-66039799D01*
X196224278Y-65995468D01*
X196217036Y-65994937D01*
X195877467Y-65989602D01*
X195870205Y-65989906D01*
X195532256Y-66023638D01*
X195525108Y-66024770D01*
X195193263Y-66097124D01*
X195186285Y-66099072D01*
X194864960Y-66209086D01*
X194858253Y-66211823D01*
X194551707Y-66358039D01*
X194545349Y-66361534D01*
X194257654Y-66542005D01*
X194251731Y-66546214D01*
X194073601Y-66688923D01*
X194065132Y-66701048D01*
X174421027Y-66701048D01*
X174391379Y-66590400D01*
X174391378Y-66590398D01*
X174389956Y-66585090D01*
X174387633Y-66580108D01*
X174302912Y-66398423D01*
X174302910Y-66398420D01*
X174300589Y-66393442D01*
X174179301Y-66220224D01*
X174029776Y-66070699D01*
X173856558Y-65949411D01*
X173851580Y-65947090D01*
X173851577Y-65947088D01*
X173669892Y-65862367D01*
X173669891Y-65862366D01*
X173664910Y-65860044D01*
X173659602Y-65858622D01*
X173659600Y-65858621D01*
X173465970Y-65806738D01*
X173465968Y-65806738D01*
X173460655Y-65805314D01*
X173250000Y-65786884D01*
X173039345Y-65805314D01*
X173034032Y-65806738D01*
X173034030Y-65806738D01*
X172840400Y-65858621D01*
X172840398Y-65858622D01*
X172835090Y-65860044D01*
X172830109Y-65862366D01*
X172830108Y-65862367D01*
X172648423Y-65947088D01*
X172648420Y-65947090D01*
X172643442Y-65949411D01*
X172470224Y-66070699D01*
X172320699Y-66220224D01*
X172199411Y-66393442D01*
X172197090Y-66398420D01*
X172197088Y-66398423D01*
X172112367Y-66580108D01*
X172110044Y-66585090D01*
X172108622Y-66590398D01*
X172108621Y-66590400D01*
X172075954Y-66712316D01*
X172055314Y-66789345D01*
X172036884Y-67000000D01*
X159231326Y-67000000D01*
X159105813Y-66925530D01*
X158678258Y-66711511D01*
X158676198Y-66710658D01*
X158676192Y-66710655D01*
X158238594Y-66529396D01*
X158238584Y-66529392D01*
X158236524Y-66528539D01*
X157782862Y-66377546D01*
X157652787Y-66344346D01*
X157570104Y-66323243D01*
X157319585Y-66259301D01*
X157317391Y-66258905D01*
X157317381Y-66258903D01*
X156851276Y-66174809D01*
X156851269Y-66174808D01*
X156849052Y-66174408D01*
X156846813Y-66174167D01*
X156846804Y-66174166D01*
X156375907Y-66123539D01*
X156375897Y-66123538D01*
X156373662Y-66123298D01*
X155909285Y-66106712D01*
X155903288Y-66106290D01*
X155902404Y-66106290D01*
X155895837Y-66105600D01*
X155889272Y-66106290D01*
X155855782Y-66109810D01*
X155842611Y-66110500D01*
X152871767Y-66110500D01*
X152803646Y-66090498D01*
X152788046Y-66077926D01*
X152787879Y-66078125D01*
X152783671Y-66074594D01*
X152779776Y-66070699D01*
X152606558Y-65949411D01*
X152601580Y-65947090D01*
X152601577Y-65947088D01*
X152419892Y-65862367D01*
X152419891Y-65862366D01*
X152414910Y-65860044D01*
X152409602Y-65858622D01*
X152409600Y-65858621D01*
X152215970Y-65806738D01*
X152215968Y-65806738D01*
X152210655Y-65805314D01*
X152000000Y-65786884D01*
X151789345Y-65805314D01*
X151784032Y-65806738D01*
X151784030Y-65806738D01*
X151590400Y-65858621D01*
X151590398Y-65858622D01*
X151585090Y-65860044D01*
X151580109Y-65862366D01*
X151580108Y-65862367D01*
X151398423Y-65947088D01*
X151398420Y-65947090D01*
X151393442Y-65949411D01*
X151220224Y-66070699D01*
X151216329Y-66074594D01*
X151212121Y-66078125D01*
X151211150Y-66076968D01*
X151155016Y-66107621D01*
X151128233Y-66110500D01*
X136227237Y-66110500D01*
X136214066Y-66109810D01*
X136180576Y-66106290D01*
X136174011Y-66105600D01*
X136167444Y-66106290D01*
X136165815Y-66106290D01*
X136159990Y-66106667D01*
X135493556Y-66123027D01*
X134814740Y-66173100D01*
X134139199Y-66256420D01*
X134137685Y-66256683D01*
X134137683Y-66256683D01*
X133992799Y-66281823D01*
X133468559Y-66372787D01*
X132804438Y-66521920D01*
X132513856Y-66602335D01*
X132149925Y-66703048D01*
X132149911Y-66703052D01*
X132148434Y-66703461D01*
X131502128Y-66916972D01*
X131123912Y-67062866D01*
X131003355Y-67109370D01*
X130867077Y-67161938D01*
X130865626Y-67162581D01*
X130865624Y-67162582D01*
X130246227Y-67437142D01*
X130246216Y-67437147D01*
X130244811Y-67437770D01*
X129636828Y-67743802D01*
X129635493Y-67744558D01*
X129635486Y-67744562D01*
X129351865Y-67905232D01*
X129044595Y-68079299D01*
X129043301Y-68080118D01*
X129043295Y-68080122D01*
X128961761Y-68131753D01*
X128469537Y-68443450D01*
X127913039Y-68835380D01*
X127911827Y-68836326D01*
X127377667Y-69253188D01*
X127377648Y-69253204D01*
X127376443Y-69254144D01*
X127375263Y-69255162D01*
X126976573Y-69599074D01*
X126861041Y-69698732D01*
X126378231Y-70158405D01*
X126373851Y-70162253D01*
X126372701Y-70163403D01*
X126367564Y-70167563D01*
X126363556Y-70172513D01*
X126362905Y-70173199D01*
X126361205Y-70174899D01*
X126360152Y-70176101D01*
X125905057Y-70655669D01*
X125903995Y-70656913D01*
X125903990Y-70656918D01*
X125469417Y-71165737D01*
X125468358Y-71166977D01*
X125467374Y-71168259D01*
X125467367Y-71168268D01*
X125060011Y-71699145D01*
X125059999Y-71699162D01*
X125059018Y-71700440D01*
X125058089Y-71701792D01*
X124693391Y-72232430D01*
X124678157Y-72254595D01*
X124326821Y-72827923D01*
X124005973Y-73418853D01*
X124005267Y-73420333D01*
X124005264Y-73420339D01*
X123776234Y-73900510D01*
X123716490Y-74025765D01*
X123459168Y-74646995D01*
X123234711Y-75280841D01*
X123234243Y-75282421D01*
X123234242Y-75282424D01*
X123112195Y-75694450D01*
X123043735Y-75925566D01*
X123043350Y-75927171D01*
X122887143Y-76577817D01*
X122887139Y-76577836D01*
X122886763Y-76579402D01*
X122764225Y-77240558D01*
X122676458Y-77907220D01*
X122623701Y-78577563D01*
X122606395Y-79238471D01*
X122606291Y-79240056D01*
X122606291Y-79242437D01*
X122606265Y-79243424D01*
X122605600Y-79249747D01*
X122606290Y-79256312D01*
X122606290Y-79256314D01*
X122609810Y-79289802D01*
X122610500Y-79302973D01*
X122610500Y-96540552D01*
X122590498Y-96608673D01*
X122573595Y-96629647D01*
X122523023Y-96680219D01*
X122495781Y-96719124D01*
X122440326Y-96763452D01*
X122369707Y-96770762D01*
X122306346Y-96738731D01*
X122270361Y-96677530D01*
X122267306Y-96660462D01*
X122264598Y-96635540D01*
X122263745Y-96627684D01*
X122212615Y-96491295D01*
X122125261Y-96374739D01*
X122008705Y-96287385D01*
X121872316Y-96236255D01*
X121810134Y-96229500D01*
X120189866Y-96229500D01*
X120127684Y-96236255D01*
X119991295Y-96287385D01*
X119874739Y-96374739D01*
X119787385Y-96491295D01*
X119736255Y-96627684D01*
X119729500Y-96689866D01*
X119729500Y-98310134D01*
X119736255Y-98372316D01*
X119787385Y-98508705D01*
X119874739Y-98625261D01*
X119991295Y-98712615D01*
X120127684Y-98763745D01*
X120189866Y-98770500D01*
X121810134Y-98770500D01*
X121872316Y-98763745D01*
X122008705Y-98712615D01*
X122125261Y-98625261D01*
X122212615Y-98508705D01*
X122263745Y-98372316D01*
X122267306Y-98339538D01*
X122294549Y-98273976D01*
X122352912Y-98233550D01*
X122423866Y-98231096D01*
X122484884Y-98267392D01*
X122495777Y-98280869D01*
X122523023Y-98319781D01*
X122573602Y-98370360D01*
X122607628Y-98432672D01*
X122610507Y-98459455D01*
X122610507Y-112040545D01*
X122590505Y-112108666D01*
X122573602Y-112129640D01*
X122523023Y-112180219D01*
X122495781Y-112219124D01*
X122440326Y-112263452D01*
X122369707Y-112270762D01*
X122306346Y-112238731D01*
X122270361Y-112177530D01*
X122267306Y-112160462D01*
X122264880Y-112138132D01*
X122263745Y-112127684D01*
X122212615Y-111991295D01*
X122125261Y-111874739D01*
X122008705Y-111787385D01*
X121872316Y-111736255D01*
X121810134Y-111729500D01*
X120189866Y-111729500D01*
X120127684Y-111736255D01*
X119991295Y-111787385D01*
X119874739Y-111874739D01*
X119787385Y-111991295D01*
X119736255Y-112127684D01*
X119729500Y-112189866D01*
X119729500Y-113810134D01*
X104957999Y-113810134D01*
X104957999Y-113705331D01*
X104957629Y-113698510D01*
X104952105Y-113647648D01*
X104948479Y-113632396D01*
X104903324Y-113511946D01*
X104894786Y-113496351D01*
X104818285Y-113394276D01*
X104805724Y-113381715D01*
X104703649Y-113305214D01*
X104688054Y-113296676D01*
X104567606Y-113251522D01*
X104552351Y-113247895D01*
X104501486Y-113242369D01*
X104494672Y-113242000D01*
X103472115Y-113242000D01*
X103456876Y-113246475D01*
X103455671Y-113247865D01*
X103454000Y-113255548D01*
X103454000Y-114727885D01*
X102946000Y-114727885D01*
X102946000Y-113260116D01*
X102941525Y-113244877D01*
X102940135Y-113243672D01*
X102932452Y-113242001D01*
X101905331Y-113242001D01*
X101898510Y-113242371D01*
X101847648Y-113247895D01*
X101832396Y-113251521D01*
X101711946Y-113296676D01*
X101696351Y-113305214D01*
X101594276Y-113381715D01*
X101581715Y-113394276D01*
X101505214Y-113496351D01*
X101496676Y-113511946D01*
X101451522Y-113632394D01*
X101447895Y-113647649D01*
X101442369Y-113698514D01*
X101442000Y-113705328D01*
X101442000Y-114727885D01*
X100508000Y-114727885D01*
X100508000Y-109819690D01*
X101437173Y-109819690D01*
X101437397Y-109824356D01*
X101437397Y-109824362D01*
X101440663Y-109892348D01*
X101449713Y-110080759D01*
X101500704Y-110337107D01*
X101589026Y-110583103D01*
X101591242Y-110587227D01*
X101655753Y-110707288D01*
X101712737Y-110813342D01*
X101715532Y-110817085D01*
X101715534Y-110817088D01*
X101866330Y-111019028D01*
X101866335Y-111019034D01*
X101869122Y-111022766D01*
X101872431Y-111026046D01*
X101872436Y-111026052D01*
X102043829Y-111195955D01*
X102054743Y-111206774D01*
X102058505Y-111209532D01*
X102058508Y-111209535D01*
X102261750Y-111358558D01*
X102265524Y-111361325D01*
X102269667Y-111363505D01*
X102269669Y-111363506D01*
X102492684Y-111480840D01*
X102492689Y-111480842D01*
X102496834Y-111483023D01*
X102640540Y-111533208D01*
X102715064Y-111559233D01*
X102743590Y-111569195D01*
X102748183Y-111570067D01*
X102995785Y-111617075D01*
X102995788Y-111617075D01*
X103000374Y-111617946D01*
X103130958Y-111623077D01*
X103256875Y-111628025D01*
X103256881Y-111628025D01*
X103261543Y-111628208D01*
X103340977Y-111619508D01*
X103516707Y-111600263D01*
X103516712Y-111600262D01*
X103521360Y-111599753D01*
X103634116Y-111570067D01*
X103769594Y-111534399D01*
X103769596Y-111534398D01*
X103774117Y-111533208D01*
X104014262Y-111430033D01*
X104236519Y-111292497D01*
X104240082Y-111289480D01*
X104240087Y-111289477D01*
X104432439Y-111126638D01*
X104432440Y-111126637D01*
X104436005Y-111123619D01*
X104532591Y-111013484D01*
X104605257Y-110930625D01*
X104605261Y-110930620D01*
X104608339Y-110927110D01*
X104749733Y-110707288D01*
X104857083Y-110468980D01*
X104892644Y-110342892D01*
X104926760Y-110221927D01*
X104926761Y-110221924D01*
X104928030Y-110217423D01*
X104944832Y-110085347D01*
X104960616Y-109961272D01*
X104960616Y-109961268D01*
X104961014Y-109958142D01*
X104961110Y-109954507D01*
X104962786Y-109890464D01*
X104963431Y-109865851D01*
X104957331Y-109783767D01*
X104944407Y-109609851D01*
X104944406Y-109609847D01*
X104944061Y-109605199D01*
X104940767Y-109590639D01*
X104887408Y-109354831D01*
X104886377Y-109350274D01*
X104852808Y-109263951D01*
X104793340Y-109111027D01*
X104793339Y-109111024D01*
X104791647Y-109106674D01*
X104661951Y-108879753D01*
X104500138Y-108674494D01*
X104309763Y-108495408D01*
X104157437Y-108389735D01*
X104098851Y-108349092D01*
X104098848Y-108349090D01*
X104095009Y-108346427D01*
X104076982Y-108337537D01*
X103864781Y-108232891D01*
X103864778Y-108232890D01*
X103860593Y-108230826D01*
X103814449Y-108216055D01*
X103616123Y-108152571D01*
X103611665Y-108151144D01*
X103353693Y-108109130D01*
X103239942Y-108107641D01*
X103097022Y-108105770D01*
X103097019Y-108105770D01*
X103092345Y-108105709D01*
X102833362Y-108140955D01*
X102582433Y-108214094D01*
X102578180Y-108216054D01*
X102578179Y-108216055D01*
X102541659Y-108232891D01*
X102345072Y-108323519D01*
X102306067Y-108349092D01*
X102130404Y-108464261D01*
X102130399Y-108464265D01*
X102126491Y-108466827D01*
X101931494Y-108640869D01*
X101764363Y-108841821D01*
X101761934Y-108845824D01*
X101635095Y-109054849D01*
X101628771Y-109065270D01*
X101527697Y-109306306D01*
X101463359Y-109559634D01*
X101437173Y-109819690D01*
X100508000Y-109819690D01*
X100508000Y-103794669D01*
X101442001Y-103794669D01*
X101442371Y-103801490D01*
X101447895Y-103852352D01*
X101451521Y-103867604D01*
X101496676Y-103988054D01*
X101505214Y-104003649D01*
X101581715Y-104105724D01*
X101594276Y-104118285D01*
X101696351Y-104194786D01*
X101711946Y-104203324D01*
X101832394Y-104248478D01*
X101847649Y-104252105D01*
X101898514Y-104257631D01*
X101905328Y-104258000D01*
X102927885Y-104258000D01*
X102943124Y-104253525D01*
X102944329Y-104252135D01*
X102946000Y-104244452D01*
X102946000Y-104239884D01*
X103454000Y-104239884D01*
X103458475Y-104255123D01*
X103459865Y-104256328D01*
X103467548Y-104257999D01*
X104494669Y-104257999D01*
X104501490Y-104257629D01*
X104552352Y-104252105D01*
X104567604Y-104248479D01*
X104688054Y-104203324D01*
X104703649Y-104194786D01*
X104805724Y-104118285D01*
X104818285Y-104105724D01*
X104894786Y-104003649D01*
X104903324Y-103988054D01*
X104948478Y-103867606D01*
X104952105Y-103852351D01*
X104957631Y-103801486D01*
X104958000Y-103794672D01*
X104958000Y-102772115D01*
X104953525Y-102756876D01*
X104952135Y-102755671D01*
X104944452Y-102754000D01*
X103472115Y-102754000D01*
X103456876Y-102758475D01*
X103455671Y-102759865D01*
X103454000Y-102767548D01*
X103454000Y-104239884D01*
X102946000Y-104239884D01*
X102946000Y-102772115D01*
X102941525Y-102756876D01*
X102940135Y-102755671D01*
X102932452Y-102754000D01*
X101460116Y-102754000D01*
X101444877Y-102758475D01*
X101443672Y-102759865D01*
X101442001Y-102767548D01*
X101442001Y-103794669D01*
X100508000Y-103794669D01*
X100508000Y-102227885D01*
X101442000Y-102227885D01*
X101446475Y-102243124D01*
X101447865Y-102244329D01*
X101455548Y-102246000D01*
X102927885Y-102246000D01*
X102943124Y-102241525D01*
X102944329Y-102240135D01*
X102946000Y-102232452D01*
X102946000Y-102227885D01*
X103454000Y-102227885D01*
X103458475Y-102243124D01*
X103459865Y-102244329D01*
X103467548Y-102246000D01*
X104939884Y-102246000D01*
X104955123Y-102241525D01*
X104956328Y-102240135D01*
X104957999Y-102232452D01*
X104957999Y-101205331D01*
X104957629Y-101198510D01*
X104952105Y-101147648D01*
X104948479Y-101132396D01*
X104903324Y-101011946D01*
X104894786Y-100996351D01*
X104818285Y-100894276D01*
X104805724Y-100881715D01*
X104703649Y-100805214D01*
X104688054Y-100796676D01*
X104567606Y-100751522D01*
X104552351Y-100747895D01*
X104501486Y-100742369D01*
X104494672Y-100742000D01*
X103472115Y-100742000D01*
X103456876Y-100746475D01*
X103455671Y-100747865D01*
X103454000Y-100755548D01*
X103454000Y-102227885D01*
X102946000Y-102227885D01*
X102946000Y-100760116D01*
X102941525Y-100744877D01*
X102940135Y-100743672D01*
X102932452Y-100742001D01*
X101905331Y-100742001D01*
X101898510Y-100742371D01*
X101847648Y-100747895D01*
X101832396Y-100751521D01*
X101711946Y-100796676D01*
X101696351Y-100805214D01*
X101594276Y-100881715D01*
X101581715Y-100894276D01*
X101505214Y-100996351D01*
X101496676Y-101011946D01*
X101451522Y-101132394D01*
X101447895Y-101147649D01*
X101442369Y-101198514D01*
X101442000Y-101205328D01*
X101442000Y-102227885D01*
X100508000Y-102227885D01*
X100508000Y-97319690D01*
X101437173Y-97319690D01*
X101437397Y-97324356D01*
X101437397Y-97324362D01*
X101438446Y-97346200D01*
X101449713Y-97580759D01*
X101500704Y-97837107D01*
X101589026Y-98083103D01*
X101591242Y-98087227D01*
X101669864Y-98233550D01*
X101712737Y-98313342D01*
X101715532Y-98317085D01*
X101715534Y-98317088D01*
X101866330Y-98519028D01*
X101866335Y-98519034D01*
X101869122Y-98522766D01*
X101872431Y-98526046D01*
X101872436Y-98526052D01*
X102051426Y-98703486D01*
X102054743Y-98706774D01*
X102058505Y-98709532D01*
X102058508Y-98709535D01*
X102261750Y-98858558D01*
X102265524Y-98861325D01*
X102269668Y-98863505D01*
X102492684Y-98980840D01*
X102492689Y-98980842D01*
X102496834Y-98983023D01*
X102743590Y-99069195D01*
X102748183Y-99070067D01*
X102995785Y-99117075D01*
X102995788Y-99117075D01*
X103000374Y-99117946D01*
X103130959Y-99123077D01*
X103256875Y-99128025D01*
X103256881Y-99128025D01*
X103261543Y-99128208D01*
X103340977Y-99119508D01*
X103516707Y-99100263D01*
X103516712Y-99100262D01*
X103521360Y-99099753D01*
X103634116Y-99070067D01*
X103769594Y-99034399D01*
X103769596Y-99034398D01*
X103774117Y-99033208D01*
X103863833Y-98994663D01*
X103934255Y-98964407D01*
X104014262Y-98930033D01*
X104175532Y-98830237D01*
X104232547Y-98794955D01*
X104232548Y-98794955D01*
X104236519Y-98792497D01*
X104240082Y-98789480D01*
X104240087Y-98789477D01*
X104432439Y-98626638D01*
X104432440Y-98626637D01*
X104436005Y-98623619D01*
X104468811Y-98586211D01*
X104605257Y-98430625D01*
X104605261Y-98430620D01*
X104608339Y-98427110D01*
X104621734Y-98406286D01*
X104711073Y-98267392D01*
X104749733Y-98207288D01*
X104857083Y-97968980D01*
X104887849Y-97859894D01*
X104926760Y-97721927D01*
X104926761Y-97721924D01*
X104928030Y-97717423D01*
X104944832Y-97585347D01*
X104960616Y-97461272D01*
X104960616Y-97461268D01*
X104961014Y-97458142D01*
X104963431Y-97365851D01*
X104944061Y-97105199D01*
X104935275Y-97066368D01*
X104887408Y-96854831D01*
X104886377Y-96850274D01*
X104825327Y-96693283D01*
X104793340Y-96611027D01*
X104793339Y-96611024D01*
X104791647Y-96606674D01*
X104789318Y-96602598D01*
X104664270Y-96383811D01*
X104661951Y-96379753D01*
X104500138Y-96174494D01*
X104309763Y-95995408D01*
X104130661Y-95871160D01*
X104098851Y-95849092D01*
X104098848Y-95849090D01*
X104095009Y-95846427D01*
X104090816Y-95844359D01*
X103864781Y-95732891D01*
X103864778Y-95732890D01*
X103860593Y-95730826D01*
X103836217Y-95723023D01*
X103616123Y-95652571D01*
X103611665Y-95651144D01*
X103353693Y-95609130D01*
X103239942Y-95607641D01*
X103097022Y-95605770D01*
X103097019Y-95605770D01*
X103092345Y-95605709D01*
X102833362Y-95640955D01*
X102582433Y-95714094D01*
X102578180Y-95716054D01*
X102578179Y-95716055D01*
X102541659Y-95732891D01*
X102345072Y-95823519D01*
X102306067Y-95849092D01*
X102130404Y-95964261D01*
X102130399Y-95964265D01*
X102126491Y-95966827D01*
X102097458Y-95992740D01*
X101954856Y-96120018D01*
X101931494Y-96140869D01*
X101764363Y-96341821D01*
X101761934Y-96345824D01*
X101637664Y-96550615D01*
X101628771Y-96565270D01*
X101527697Y-96806306D01*
X101463359Y-97059634D01*
X101437173Y-97319690D01*
X100508000Y-97319690D01*
X100508000Y-91298134D01*
X101441500Y-91298134D01*
X101448255Y-91360316D01*
X101499385Y-91496705D01*
X101586739Y-91613261D01*
X101703295Y-91700615D01*
X101839684Y-91751745D01*
X101901866Y-91758500D01*
X104498134Y-91758500D01*
X104560316Y-91751745D01*
X104696705Y-91700615D01*
X104813261Y-91613261D01*
X104900615Y-91496705D01*
X104951745Y-91360316D01*
X104958500Y-91298134D01*
X104958500Y-88701866D01*
X104951745Y-88639684D01*
X104900615Y-88503295D01*
X104813261Y-88386739D01*
X104696705Y-88299385D01*
X104560316Y-88248255D01*
X104498134Y-88241500D01*
X101901866Y-88241500D01*
X101839684Y-88248255D01*
X101703295Y-88299385D01*
X101586739Y-88386739D01*
X101499385Y-88503295D01*
X101448255Y-88639684D01*
X101441500Y-88701866D01*
X101441500Y-91298134D01*
X100508000Y-91298134D01*
X100508000Y-86409133D01*
X102155612Y-86409133D01*
X102164325Y-86420653D01*
X102262018Y-86492284D01*
X102269928Y-86497227D01*
X102492890Y-86614533D01*
X102501453Y-86618256D01*
X102739304Y-86701318D01*
X102748313Y-86703732D01*
X102995842Y-86750727D01*
X103005098Y-86751781D01*
X103256857Y-86761673D01*
X103266171Y-86761347D01*
X103516615Y-86733920D01*
X103525792Y-86732219D01*
X103769431Y-86668074D01*
X103778251Y-86665037D01*
X104009736Y-86565583D01*
X104018008Y-86561276D01*
X104232249Y-86428700D01*
X104239188Y-86423658D01*
X104247518Y-86411019D01*
X104241456Y-86400666D01*
X103212812Y-85372022D01*
X103198868Y-85364408D01*
X103197035Y-85364539D01*
X103190420Y-85368790D01*
X102162270Y-86396940D01*
X102155612Y-86409133D01*
X100508000Y-86409133D01*
X100508000Y-84958523D01*
X101437898Y-84958523D01*
X101449987Y-85210175D01*
X101451124Y-85219435D01*
X101500274Y-85466535D01*
X101502768Y-85475528D01*
X101587900Y-85712639D01*
X101591700Y-85721174D01*
X101710946Y-85943101D01*
X101715957Y-85950968D01*
X101779446Y-86035990D01*
X101790704Y-86044439D01*
X101803123Y-86037667D01*
X102827978Y-85012812D01*
X102834356Y-85001132D01*
X103564408Y-85001132D01*
X103564539Y-85002965D01*
X103568790Y-85009580D01*
X104599913Y-86040703D01*
X104612293Y-86047463D01*
X104620634Y-86041219D01*
X104746765Y-85845127D01*
X104751212Y-85836936D01*
X104854691Y-85607222D01*
X104857882Y-85598455D01*
X104926269Y-85355976D01*
X104928129Y-85346834D01*
X104960116Y-85095396D01*
X104960597Y-85089108D01*
X104962847Y-85003160D01*
X104962696Y-84996851D01*
X104943912Y-84744074D01*
X104942536Y-84734868D01*
X104886929Y-84489126D01*
X104884205Y-84480215D01*
X104792888Y-84245392D01*
X104788877Y-84236983D01*
X104663854Y-84018240D01*
X104658643Y-84010514D01*
X104621391Y-83963261D01*
X104609466Y-83954790D01*
X104597934Y-83961276D01*
X103572022Y-84987188D01*
X103564408Y-85001132D01*
X102834356Y-85001132D01*
X102835592Y-84998868D01*
X102835461Y-84997035D01*
X102831210Y-84990420D01*
X101801321Y-83960531D01*
X101788013Y-83953264D01*
X101777974Y-83960386D01*
X101767761Y-83972666D01*
X101762346Y-83980258D01*
X101631646Y-84195646D01*
X101627408Y-84203963D01*
X101529981Y-84436299D01*
X101527020Y-84445149D01*
X101465006Y-84689331D01*
X101463384Y-84698528D01*
X101438143Y-84949198D01*
X101437898Y-84958523D01*
X100508000Y-84958523D01*
X100508000Y-83588803D01*
X102153216Y-83588803D01*
X102157789Y-83598579D01*
X103187188Y-84627978D01*
X103201132Y-84635592D01*
X103202965Y-84635461D01*
X103209580Y-84631210D01*
X104238419Y-83602371D01*
X104244803Y-83590681D01*
X104235391Y-83578570D01*
X104098593Y-83483670D01*
X104090565Y-83478942D01*
X103864593Y-83367505D01*
X103855960Y-83364017D01*
X103615998Y-83287205D01*
X103606938Y-83285029D01*
X103358260Y-83244529D01*
X103348973Y-83243717D01*
X103097053Y-83240419D01*
X103087742Y-83240989D01*
X102838097Y-83274964D01*
X102828978Y-83276902D01*
X102587098Y-83347404D01*
X102578367Y-83350667D01*
X102349558Y-83456151D01*
X102341406Y-83460670D01*
X102162353Y-83578062D01*
X102153216Y-83588803D01*
X100508000Y-83588803D01*
X100508000Y-79953839D01*
X101437173Y-79953839D01*
X101437397Y-79958505D01*
X101437397Y-79958511D01*
X101439239Y-79996851D01*
X101449713Y-80214908D01*
X101500704Y-80471256D01*
X101589026Y-80717252D01*
X101591242Y-80721376D01*
X101680174Y-80886887D01*
X101712737Y-80947491D01*
X101715532Y-80951234D01*
X101715534Y-80951237D01*
X101866330Y-81153177D01*
X101866335Y-81153183D01*
X101869122Y-81156915D01*
X101872431Y-81160195D01*
X101872436Y-81160201D01*
X102051426Y-81337635D01*
X102054743Y-81340923D01*
X102058505Y-81343681D01*
X102058508Y-81343684D01*
X102261750Y-81492707D01*
X102265524Y-81495474D01*
X102269667Y-81497654D01*
X102269669Y-81497655D01*
X102492684Y-81614989D01*
X102492689Y-81614991D01*
X102496834Y-81617172D01*
X102502404Y-81619117D01*
X102717979Y-81694400D01*
X102743590Y-81703344D01*
X102748183Y-81704216D01*
X102995785Y-81751224D01*
X102995788Y-81751224D01*
X103000374Y-81752095D01*
X103130959Y-81757226D01*
X103256875Y-81762174D01*
X103256881Y-81762174D01*
X103261543Y-81762357D01*
X103352723Y-81752371D01*
X103516707Y-81734412D01*
X103516712Y-81734411D01*
X103521360Y-81733902D01*
X103628620Y-81705663D01*
X103769594Y-81668548D01*
X103769596Y-81668547D01*
X103774117Y-81667357D01*
X104014262Y-81564182D01*
X104079867Y-81523585D01*
X104232547Y-81429104D01*
X104232548Y-81429104D01*
X104236519Y-81426646D01*
X104240082Y-81423629D01*
X104240087Y-81423626D01*
X104432439Y-81260787D01*
X104432440Y-81260786D01*
X104436005Y-81257768D01*
X104595074Y-81076385D01*
X104605257Y-81064774D01*
X104605261Y-81064769D01*
X104608339Y-81061259D01*
X104749733Y-80841437D01*
X104857083Y-80603129D01*
X104877687Y-80530072D01*
X104926760Y-80356076D01*
X104926761Y-80356073D01*
X104928030Y-80351572D01*
X104944832Y-80219496D01*
X104960616Y-80095421D01*
X104960616Y-80095417D01*
X104961014Y-80092291D01*
X104961517Y-80073112D01*
X104963348Y-80003160D01*
X104963431Y-80000000D01*
X104957708Y-79922982D01*
X104944407Y-79744000D01*
X104944406Y-79743996D01*
X104944061Y-79739348D01*
X104932725Y-79689248D01*
X104887408Y-79488980D01*
X104886377Y-79484423D01*
X104797671Y-79256314D01*
X104793340Y-79245176D01*
X104793339Y-79245173D01*
X104791647Y-79240823D01*
X104661951Y-79013902D01*
X104500138Y-78808643D01*
X104309763Y-78629557D01*
X104095009Y-78480576D01*
X104090816Y-78478508D01*
X103864781Y-78367040D01*
X103864778Y-78367039D01*
X103860593Y-78364975D01*
X103814449Y-78350204D01*
X103616123Y-78286720D01*
X103611665Y-78285293D01*
X103353693Y-78243279D01*
X103239942Y-78241790D01*
X103097022Y-78239919D01*
X103097019Y-78239919D01*
X103092345Y-78239858D01*
X102833362Y-78275104D01*
X102582433Y-78348243D01*
X102578180Y-78350203D01*
X102578179Y-78350204D01*
X102541659Y-78367040D01*
X102345072Y-78457668D01*
X102306067Y-78483241D01*
X102130404Y-78598410D01*
X102130399Y-78598414D01*
X102126491Y-78600976D01*
X101931494Y-78775018D01*
X101764363Y-78975970D01*
X101628771Y-79199419D01*
X101527697Y-79440455D01*
X101463359Y-79693783D01*
X101437173Y-79953839D01*
X100508000Y-79953839D01*
X100508000Y-71301681D01*
X102063860Y-71301681D01*
X102063878Y-71301933D01*
X102069793Y-71310677D01*
X102101111Y-71339174D01*
X102106748Y-71343738D01*
X102382544Y-71541918D01*
X102388682Y-71545813D01*
X102685435Y-71710984D01*
X102691955Y-71714136D01*
X103005738Y-71844109D01*
X103012589Y-71846495D01*
X103339212Y-71939536D01*
X103346301Y-71941120D01*
X103681465Y-71996006D01*
X103688671Y-71996763D01*
X104027926Y-72012762D01*
X104035176Y-72012686D01*
X104374010Y-71989587D01*
X104381219Y-71988676D01*
X104715160Y-71926784D01*
X104722190Y-71925057D01*
X105046819Y-71825187D01*
X105053597Y-71822667D01*
X105364603Y-71686145D01*
X105371043Y-71682864D01*
X105664293Y-71511502D01*
X105670326Y-71507493D01*
X105928828Y-71313405D01*
X105937282Y-71302078D01*
X105930537Y-71289748D01*
X104012810Y-69372020D01*
X103998869Y-69364408D01*
X103997034Y-69364539D01*
X103990420Y-69368790D01*
X102071474Y-71287737D01*
X102063860Y-71301681D01*
X100508000Y-71301681D01*
X100508000Y-68908987D01*
X100988484Y-68908987D01*
X100997374Y-69248505D01*
X100997980Y-69255721D01*
X101045835Y-69591963D01*
X101047269Y-69599074D01*
X101133455Y-69927595D01*
X101135692Y-69934478D01*
X101259064Y-70250914D01*
X101262081Y-70257503D01*
X101421002Y-70557652D01*
X101424761Y-70563860D01*
X101617129Y-70843757D01*
X101621574Y-70849486D01*
X101688743Y-70926484D01*
X101701917Y-70934888D01*
X101711769Y-70929020D01*
X103627980Y-69012810D01*
X103634357Y-69001131D01*
X104364408Y-69001131D01*
X104364539Y-69002966D01*
X104368790Y-69009580D01*
X106286268Y-70927057D01*
X106299622Y-70934349D01*
X106309594Y-70927295D01*
X106416641Y-70799267D01*
X106420957Y-70793456D01*
X106607432Y-70509575D01*
X106611046Y-70503313D01*
X106763658Y-70199882D01*
X106766530Y-70193244D01*
X106883249Y-69874293D01*
X106885345Y-69867351D01*
X106964631Y-69537103D01*
X106965915Y-69529964D01*
X107006816Y-69191973D01*
X107007240Y-69186403D01*
X107013010Y-69002797D01*
X107012937Y-68997204D01*
X106993338Y-68657303D01*
X106992506Y-68650113D01*
X106934113Y-68315529D01*
X106932458Y-68308474D01*
X106835998Y-67982834D01*
X106833540Y-67976006D01*
X106700290Y-67663608D01*
X106697073Y-67657125D01*
X106528788Y-67362089D01*
X106524856Y-67356034D01*
X106323774Y-67082295D01*
X106319166Y-67076726D01*
X106313830Y-67070984D01*
X106300178Y-67062866D01*
X106299570Y-67062887D01*
X106291092Y-67068119D01*
X104372020Y-68987190D01*
X104364408Y-69001131D01*
X103634357Y-69001131D01*
X103635592Y-68998869D01*
X103635461Y-68997034D01*
X103631210Y-68990420D01*
X101712374Y-67071585D01*
X101699581Y-67064599D01*
X101688827Y-67072464D01*
X101528037Y-67277527D01*
X101523902Y-67283476D01*
X101346440Y-67573068D01*
X101343019Y-67579447D01*
X101200016Y-67887522D01*
X101197356Y-67894241D01*
X101090711Y-68216707D01*
X101088834Y-68223711D01*
X101019961Y-68556288D01*
X101018904Y-68563449D01*
X100988712Y-68901735D01*
X100988484Y-68908987D01*
X100508000Y-68908987D01*
X100508000Y-68049328D01*
X100509500Y-68029943D01*
X100511805Y-68015142D01*
X100511805Y-68015139D01*
X100513186Y-68006270D01*
X100510941Y-67989101D01*
X100510108Y-67965161D01*
X100525710Y-67707230D01*
X100527544Y-67692126D01*
X100573579Y-67440918D01*
X100579040Y-67411121D01*
X100582679Y-67396353D01*
X100593357Y-67362089D01*
X100667675Y-67123592D01*
X100673070Y-67109370D01*
X100790316Y-66848860D01*
X100797385Y-66835391D01*
X100878598Y-66701048D01*
X102065132Y-66701048D01*
X102071527Y-66712316D01*
X103987190Y-68627980D01*
X104001131Y-68635592D01*
X104002966Y-68635461D01*
X104009580Y-68631210D01*
X105927074Y-66713716D01*
X105934466Y-66700179D01*
X105927679Y-66690479D01*
X105824476Y-66602335D01*
X105818704Y-66597953D01*
X105536796Y-66408519D01*
X105530575Y-66404839D01*
X105228757Y-66249060D01*
X105222146Y-66246116D01*
X104904439Y-66126065D01*
X104897513Y-66123894D01*
X104568112Y-66041155D01*
X104561005Y-66039799D01*
X104224278Y-65995468D01*
X104217036Y-65994937D01*
X103877467Y-65989602D01*
X103870205Y-65989906D01*
X103532256Y-66023638D01*
X103525108Y-66024770D01*
X103193263Y-66097124D01*
X103186285Y-66099072D01*
X102864960Y-66209086D01*
X102858253Y-66211823D01*
X102551707Y-66358039D01*
X102545349Y-66361534D01*
X102257654Y-66542005D01*
X102251731Y-66546214D01*
X102073601Y-66688923D01*
X102065132Y-66701048D01*
X100878598Y-66701048D01*
X100945182Y-66590905D01*
X100953825Y-66578383D01*
X101130016Y-66353493D01*
X101140106Y-66342105D01*
X101342105Y-66140106D01*
X101353493Y-66130016D01*
X101578383Y-65953825D01*
X101590905Y-65945182D01*
X101835391Y-65797385D01*
X101848860Y-65790316D01*
X102109373Y-65673069D01*
X102123592Y-65667675D01*
X102396359Y-65582678D01*
X102411121Y-65579040D01*
X102621352Y-65540514D01*
X102692126Y-65527544D01*
X102707230Y-65525710D01*
X102957929Y-65510545D01*
X102984639Y-65511802D01*
X102984859Y-65511805D01*
X102993730Y-65513186D01*
X103002632Y-65512022D01*
X103002635Y-65512022D01*
X103025251Y-65509064D01*
X103041589Y-65508000D01*
X196950672Y-65508000D01*
X196970057Y-65509500D01*
G37*
%TD.AperFunction*%
%TA.AperFunction,Conductor*%
G36*
X154606052Y-125700049D02*
G01*
X154931183Y-125834723D01*
X154931193Y-125834727D01*
X154933253Y-125835580D01*
X155337951Y-125970276D01*
X155340122Y-125970830D01*
X155340125Y-125970831D01*
X155683524Y-126058478D01*
X155751227Y-126075758D01*
X155753422Y-126076154D01*
X155753431Y-126076156D01*
X156168750Y-126151088D01*
X156168757Y-126151089D01*
X156170974Y-126151489D01*
X156173213Y-126151730D01*
X156173222Y-126151731D01*
X156592810Y-126196841D01*
X156592820Y-126196842D01*
X156595055Y-126197082D01*
X156895504Y-126207813D01*
X157000250Y-126211554D01*
X157012198Y-126212552D01*
X157013117Y-126212673D01*
X157013120Y-126212673D01*
X157021308Y-126213751D01*
X157029496Y-126212673D01*
X157053005Y-126209578D01*
X157069451Y-126208500D01*
X180755144Y-126208500D01*
X180771590Y-126209578D01*
X180783345Y-126211126D01*
X180803287Y-126213751D01*
X180811733Y-126212639D01*
X180840530Y-126212168D01*
X180906166Y-126218633D01*
X180930388Y-126223451D01*
X181017439Y-126249858D01*
X181040258Y-126259310D01*
X181120480Y-126302189D01*
X181141018Y-126315911D01*
X181192003Y-126357753D01*
X181212027Y-126378442D01*
X181217216Y-126385204D01*
X181242587Y-126404671D01*
X181254962Y-126415524D01*
X181535676Y-126696233D01*
X181786616Y-126947170D01*
X181820641Y-127009482D01*
X181815577Y-127080298D01*
X181788614Y-127123317D01*
X181770629Y-127142138D01*
X181663201Y-127299621D01*
X181608293Y-127344621D01*
X181537768Y-127352792D01*
X181474021Y-127321538D01*
X181453324Y-127297054D01*
X181372822Y-127172617D01*
X181372820Y-127172614D01*
X181370014Y-127168277D01*
X181219670Y-127003051D01*
X181215619Y-126999852D01*
X181215615Y-126999848D01*
X181048414Y-126867800D01*
X181048410Y-126867798D01*
X181044359Y-126864598D01*
X181008028Y-126844542D01*
X180977016Y-126827423D01*
X180848789Y-126756638D01*
X180843920Y-126754914D01*
X180843916Y-126754912D01*
X180643087Y-126683795D01*
X180643083Y-126683794D01*
X180638212Y-126682069D01*
X180633119Y-126681162D01*
X180633116Y-126681161D01*
X180423373Y-126643800D01*
X180423367Y-126643799D01*
X180418284Y-126642894D01*
X180344452Y-126641992D01*
X180200081Y-126640228D01*
X180200079Y-126640228D01*
X180194911Y-126640165D01*
X179974091Y-126673955D01*
X179761756Y-126743357D01*
X179563607Y-126846507D01*
X179559474Y-126849610D01*
X179559471Y-126849612D01*
X179392804Y-126974749D01*
X179384965Y-126980635D01*
X179324659Y-127043742D01*
X179304283Y-127065064D01*
X179242759Y-127100494D01*
X179171846Y-127097037D01*
X179114060Y-127055791D01*
X179095207Y-127022243D01*
X179053767Y-126911703D01*
X179050615Y-126903295D01*
X178963261Y-126786739D01*
X178846705Y-126699385D01*
X178710316Y-126648255D01*
X178648134Y-126641500D01*
X176851866Y-126641500D01*
X176789684Y-126648255D01*
X176653295Y-126699385D01*
X176536739Y-126786739D01*
X176449385Y-126903295D01*
X176398255Y-127039684D01*
X176391500Y-127101866D01*
X176391500Y-128898134D01*
X176398255Y-128960316D01*
X176449385Y-129096705D01*
X176536739Y-129213261D01*
X176543919Y-129218642D01*
X176543920Y-129218643D01*
X176606006Y-129265174D01*
X176648521Y-129322033D01*
X176653547Y-129392852D01*
X176619487Y-129455145D01*
X176557155Y-129489135D01*
X176530441Y-129492000D01*
X173155004Y-129492000D01*
X173086883Y-129471998D01*
X173040390Y-129418342D01*
X173030286Y-129348068D01*
X173059780Y-129283488D01*
X173099571Y-129252849D01*
X173263095Y-129172739D01*
X173271945Y-129167464D01*
X173445328Y-129043792D01*
X173453200Y-129037139D01*
X173604052Y-128886812D01*
X173610730Y-128878965D01*
X173735003Y-128706020D01*
X173740313Y-128697183D01*
X173834670Y-128506267D01*
X173838469Y-128496672D01*
X173900377Y-128292910D01*
X173902555Y-128282837D01*
X173903986Y-128271962D01*
X173901775Y-128257778D01*
X173888617Y-128254000D01*
X172442000Y-128254000D01*
X172373879Y-128233998D01*
X172327386Y-128180342D01*
X172316000Y-128128000D01*
X172316000Y-127727885D01*
X172824000Y-127727885D01*
X172828475Y-127743124D01*
X172829865Y-127744329D01*
X172837548Y-127746000D01*
X173888344Y-127746000D01*
X173901875Y-127742027D01*
X173903180Y-127732947D01*
X173861214Y-127565875D01*
X173857894Y-127556124D01*
X173772972Y-127360814D01*
X173768105Y-127351739D01*
X173652426Y-127172926D01*
X173646136Y-127164757D01*
X173502806Y-127007240D01*
X173495273Y-127000215D01*
X173328139Y-126868222D01*
X173319552Y-126862517D01*
X173133117Y-126759599D01*
X173123705Y-126755369D01*
X172922959Y-126684280D01*
X172912988Y-126681646D01*
X172841837Y-126668972D01*
X172828540Y-126670432D01*
X172824000Y-126684989D01*
X172824000Y-127727885D01*
X172316000Y-127727885D01*
X172316000Y-126683102D01*
X172312082Y-126669758D01*
X172297806Y-126667771D01*
X172259324Y-126673660D01*
X172249288Y-126676051D01*
X172046868Y-126742212D01*
X172037359Y-126746209D01*
X171848463Y-126844542D01*
X171839738Y-126850036D01*
X171669433Y-126977905D01*
X171661726Y-126984748D01*
X171514590Y-127138717D01*
X171508109Y-127146722D01*
X171403498Y-127300074D01*
X171348587Y-127345076D01*
X171278062Y-127353247D01*
X171214315Y-127321993D01*
X171193618Y-127297509D01*
X171112822Y-127172617D01*
X171112820Y-127172614D01*
X171110014Y-127168277D01*
X170959670Y-127003051D01*
X170955619Y-126999852D01*
X170955615Y-126999848D01*
X170788414Y-126867800D01*
X170788410Y-126867798D01*
X170784359Y-126864598D01*
X170748028Y-126844542D01*
X170717016Y-126827423D01*
X170588789Y-126756638D01*
X170583920Y-126754914D01*
X170583916Y-126754912D01*
X170383087Y-126683795D01*
X170383083Y-126683794D01*
X170378212Y-126682069D01*
X170373119Y-126681162D01*
X170373116Y-126681161D01*
X170163373Y-126643800D01*
X170163367Y-126643799D01*
X170158284Y-126642894D01*
X170084452Y-126641992D01*
X169940081Y-126640228D01*
X169940079Y-126640228D01*
X169934911Y-126640165D01*
X169714091Y-126673955D01*
X169501756Y-126743357D01*
X169303607Y-126846507D01*
X169299474Y-126849610D01*
X169299471Y-126849612D01*
X169132804Y-126974749D01*
X169124965Y-126980635D01*
X169063137Y-127045334D01*
X169013729Y-127097037D01*
X168970629Y-127142138D01*
X168863201Y-127299621D01*
X168808293Y-127344621D01*
X168737768Y-127352792D01*
X168674021Y-127321538D01*
X168653324Y-127297054D01*
X168572822Y-127172617D01*
X168572820Y-127172614D01*
X168570014Y-127168277D01*
X168419670Y-127003051D01*
X168415619Y-126999852D01*
X168415615Y-126999848D01*
X168248414Y-126867800D01*
X168248410Y-126867798D01*
X168244359Y-126864598D01*
X168208028Y-126844542D01*
X168177016Y-126827423D01*
X168048789Y-126756638D01*
X168043920Y-126754914D01*
X168043916Y-126754912D01*
X167843087Y-126683795D01*
X167843083Y-126683794D01*
X167838212Y-126682069D01*
X167833119Y-126681162D01*
X167833116Y-126681161D01*
X167623373Y-126643800D01*
X167623367Y-126643799D01*
X167618284Y-126642894D01*
X167544452Y-126641992D01*
X167400081Y-126640228D01*
X167400079Y-126640228D01*
X167394911Y-126640165D01*
X167174091Y-126673955D01*
X166961756Y-126743357D01*
X166763607Y-126846507D01*
X166759474Y-126849610D01*
X166759471Y-126849612D01*
X166592804Y-126974749D01*
X166584965Y-126980635D01*
X166524659Y-127043742D01*
X166504283Y-127065064D01*
X166442759Y-127100494D01*
X166371846Y-127097037D01*
X166314060Y-127055791D01*
X166295207Y-127022243D01*
X166253767Y-126911703D01*
X166250615Y-126903295D01*
X166163261Y-126786739D01*
X166046705Y-126699385D01*
X165910316Y-126648255D01*
X165848134Y-126641500D01*
X164051866Y-126641500D01*
X163989684Y-126648255D01*
X163853295Y-126699385D01*
X163736739Y-126786739D01*
X163649385Y-126903295D01*
X163598255Y-127039684D01*
X163591500Y-127101866D01*
X163591500Y-128898134D01*
X163598255Y-128960316D01*
X163649385Y-129096705D01*
X163736739Y-129213261D01*
X163743919Y-129218642D01*
X163743920Y-129218643D01*
X163806006Y-129265174D01*
X163848521Y-129322033D01*
X163853547Y-129392852D01*
X163819487Y-129455145D01*
X163757155Y-129489135D01*
X163730441Y-129492000D01*
X160405004Y-129492000D01*
X160336883Y-129471998D01*
X160290390Y-129418342D01*
X160280286Y-129348068D01*
X160309780Y-129283488D01*
X160349571Y-129252849D01*
X160513095Y-129172739D01*
X160521945Y-129167464D01*
X160695328Y-129043792D01*
X160703200Y-129037139D01*
X160854052Y-128886812D01*
X160860730Y-128878965D01*
X160985003Y-128706020D01*
X160990313Y-128697183D01*
X161084670Y-128506267D01*
X161088469Y-128496672D01*
X161150377Y-128292910D01*
X161152555Y-128282837D01*
X161153986Y-128271962D01*
X161151775Y-128257778D01*
X161138617Y-128254000D01*
X159692000Y-128254000D01*
X159623879Y-128233998D01*
X159577386Y-128180342D01*
X159566000Y-128128000D01*
X159566000Y-127727885D01*
X160074000Y-127727885D01*
X160078475Y-127743124D01*
X160079865Y-127744329D01*
X160087548Y-127746000D01*
X161138344Y-127746000D01*
X161151875Y-127742027D01*
X161153180Y-127732947D01*
X161111214Y-127565875D01*
X161107894Y-127556124D01*
X161022972Y-127360814D01*
X161018105Y-127351739D01*
X160902426Y-127172926D01*
X160896136Y-127164757D01*
X160752806Y-127007240D01*
X160745273Y-127000215D01*
X160578139Y-126868222D01*
X160569552Y-126862517D01*
X160383117Y-126759599D01*
X160373705Y-126755369D01*
X160172959Y-126684280D01*
X160162988Y-126681646D01*
X160091837Y-126668972D01*
X160078540Y-126670432D01*
X160074000Y-126684989D01*
X160074000Y-127727885D01*
X159566000Y-127727885D01*
X159566000Y-126683102D01*
X159562082Y-126669758D01*
X159547806Y-126667771D01*
X159509324Y-126673660D01*
X159499288Y-126676051D01*
X159296868Y-126742212D01*
X159287359Y-126746209D01*
X159098463Y-126844542D01*
X159089738Y-126850036D01*
X158919433Y-126977905D01*
X158911726Y-126984748D01*
X158764590Y-127138717D01*
X158758109Y-127146722D01*
X158653498Y-127300074D01*
X158598587Y-127345076D01*
X158528062Y-127353247D01*
X158464315Y-127321993D01*
X158443618Y-127297509D01*
X158362822Y-127172617D01*
X158362820Y-127172614D01*
X158360014Y-127168277D01*
X158209670Y-127003051D01*
X158205619Y-126999852D01*
X158205615Y-126999848D01*
X158038414Y-126867800D01*
X158038410Y-126867798D01*
X158034359Y-126864598D01*
X157998028Y-126844542D01*
X157967016Y-126827423D01*
X157838789Y-126756638D01*
X157833920Y-126754914D01*
X157833916Y-126754912D01*
X157633087Y-126683795D01*
X157633083Y-126683794D01*
X157628212Y-126682069D01*
X157623119Y-126681162D01*
X157623116Y-126681161D01*
X157413373Y-126643800D01*
X157413367Y-126643799D01*
X157408284Y-126642894D01*
X157334452Y-126641992D01*
X157190081Y-126640228D01*
X157190079Y-126640228D01*
X157184911Y-126640165D01*
X156964091Y-126673955D01*
X156751756Y-126743357D01*
X156553607Y-126846507D01*
X156549474Y-126849610D01*
X156549471Y-126849612D01*
X156382804Y-126974749D01*
X156374965Y-126980635D01*
X156313137Y-127045334D01*
X156263729Y-127097037D01*
X156220629Y-127142138D01*
X156113201Y-127299621D01*
X156058293Y-127344621D01*
X155987768Y-127352792D01*
X155924021Y-127321538D01*
X155903324Y-127297054D01*
X155822822Y-127172617D01*
X155822820Y-127172614D01*
X155820014Y-127168277D01*
X155669670Y-127003051D01*
X155665619Y-126999852D01*
X155665615Y-126999848D01*
X155498414Y-126867800D01*
X155498410Y-126867798D01*
X155494359Y-126864598D01*
X155458028Y-126844542D01*
X155427016Y-126827423D01*
X155298789Y-126756638D01*
X155293920Y-126754914D01*
X155293916Y-126754912D01*
X155193500Y-126719353D01*
X155088212Y-126682069D01*
X155084630Y-126681431D01*
X155024259Y-126644925D01*
X155006538Y-126619896D01*
X155006096Y-126618962D01*
X154966649Y-126553148D01*
X154859878Y-126375011D01*
X154859872Y-126375002D01*
X154858289Y-126372361D01*
X154837702Y-126344603D01*
X154688870Y-126143925D01*
X154688867Y-126143921D01*
X154687023Y-126141435D01*
X154511438Y-125947706D01*
X154504846Y-125939806D01*
X154495165Y-125927190D01*
X154488615Y-125922164D01*
X154488613Y-125922162D01*
X154481132Y-125916422D01*
X154439264Y-125859085D01*
X154435040Y-125788214D01*
X154469803Y-125726310D01*
X154532515Y-125693028D01*
X154606052Y-125700049D01*
G37*
%TD.AperFunction*%
%TA.AperFunction,Conductor*%
G36*
X149983450Y-113436578D02*
G01*
X150002459Y-113439080D01*
X150064795Y-113465670D01*
X150070157Y-113469966D01*
X150080469Y-113479202D01*
X150167781Y-113566513D01*
X150215990Y-113614722D01*
X150250015Y-113677034D01*
X150251901Y-113719610D01*
X150236775Y-113839343D01*
X150253381Y-114008699D01*
X150252327Y-114008802D01*
X150247423Y-114073089D01*
X150204607Y-114129723D01*
X150149723Y-114151090D01*
X150149980Y-114152258D01*
X150143101Y-114153770D01*
X150136093Y-114154507D01*
X150129422Y-114156778D01*
X149981673Y-114207075D01*
X149981670Y-114207076D01*
X149975003Y-114209346D01*
X149969005Y-114213036D01*
X149969003Y-114213037D01*
X149836065Y-114294821D01*
X149836063Y-114294823D01*
X149830066Y-114298512D01*
X149783160Y-114344446D01*
X149738196Y-114388479D01*
X149708486Y-114417573D01*
X149704675Y-114423487D01*
X149704673Y-114423489D01*
X149665692Y-114483975D01*
X149616304Y-114560610D01*
X149587795Y-114638937D01*
X149561884Y-114710129D01*
X149558103Y-114720516D01*
X149536775Y-114889343D01*
X149553381Y-115058699D01*
X149607094Y-115220167D01*
X149610741Y-115226189D01*
X149610742Y-115226191D01*
X149673276Y-115329447D01*
X149691500Y-115394718D01*
X149691500Y-118309217D01*
X149690422Y-118325663D01*
X149686249Y-118357360D01*
X149687327Y-118365546D01*
X149687327Y-118368912D01*
X149687678Y-118373323D01*
X149703854Y-118949860D01*
X149704308Y-118966028D01*
X149704457Y-118967793D01*
X149704457Y-118967795D01*
X149745311Y-119452133D01*
X149755487Y-119572780D01*
X149755732Y-119574513D01*
X149755732Y-119574516D01*
X149786877Y-119795124D01*
X149840606Y-120175709D01*
X149959398Y-120772916D01*
X150111489Y-121362523D01*
X150296400Y-121942674D01*
X150339191Y-122054773D01*
X150505570Y-122490639D01*
X150513550Y-122511545D01*
X150555299Y-122604845D01*
X150749928Y-123039799D01*
X150762254Y-123067346D01*
X150763057Y-123068901D01*
X150763066Y-123068919D01*
X150936608Y-123404839D01*
X151041732Y-123608326D01*
X151113093Y-123729301D01*
X151350200Y-124131258D01*
X151350211Y-124131275D01*
X151351102Y-124132786D01*
X151352083Y-124134254D01*
X151688408Y-124637601D01*
X151688421Y-124637620D01*
X151689393Y-124639074D01*
X151690461Y-124640493D01*
X151958667Y-124996876D01*
X152055539Y-125125597D01*
X152448389Y-125590825D01*
X152678272Y-125833980D01*
X152855743Y-126021698D01*
X152858608Y-126025059D01*
X152860987Y-126027438D01*
X152866012Y-126033987D01*
X152872562Y-126039013D01*
X152891379Y-126053452D01*
X152903770Y-126064319D01*
X153276570Y-126437119D01*
X153310596Y-126499431D01*
X153305531Y-126570246D01*
X153262984Y-126627082D01*
X153196464Y-126651893D01*
X153162711Y-126649153D01*
X153160316Y-126648255D01*
X153098134Y-126641500D01*
X151301866Y-126641500D01*
X151239684Y-126648255D01*
X151103295Y-126699385D01*
X150986739Y-126786739D01*
X150899385Y-126903295D01*
X150848255Y-127039684D01*
X150841500Y-127101866D01*
X150841500Y-128665500D01*
X150821498Y-128733621D01*
X150767842Y-128780114D01*
X150715500Y-128791500D01*
X145942255Y-128791500D01*
X145925809Y-128790422D01*
X145902300Y-128787327D01*
X145894112Y-128786249D01*
X145885925Y-128787327D01*
X145872421Y-128789105D01*
X145851850Y-128790116D01*
X145402087Y-128775392D01*
X145393885Y-128774854D01*
X144908091Y-128727007D01*
X144899934Y-128725933D01*
X144418296Y-128646414D01*
X144410210Y-128644805D01*
X143934828Y-128533961D01*
X143926881Y-128531833D01*
X143459707Y-128390117D01*
X143451949Y-128387483D01*
X143173911Y-128282837D01*
X142995091Y-128215534D01*
X142987473Y-128212379D01*
X142542837Y-128010917D01*
X142535442Y-128007270D01*
X142104948Y-127777166D01*
X142097808Y-127773044D01*
X141956546Y-127685202D01*
X141683260Y-127515262D01*
X141676434Y-127510701D01*
X141279637Y-127226360D01*
X141273095Y-127221340D01*
X140895763Y-126911671D01*
X140889564Y-126906235D01*
X140561137Y-126598630D01*
X140547308Y-126583372D01*
X140539010Y-126572558D01*
X140533987Y-126566012D01*
X140527441Y-126560989D01*
X140527438Y-126560986D01*
X140517223Y-126553148D01*
X140501707Y-126539043D01*
X140458817Y-126492975D01*
X140286636Y-126308039D01*
X140197574Y-126212379D01*
X140191684Y-126205582D01*
X139888143Y-125828911D01*
X139882753Y-125821710D01*
X139606858Y-125424344D01*
X139601995Y-125416778D01*
X139355147Y-125000741D01*
X139350837Y-124992847D01*
X139345944Y-124983071D01*
X139134307Y-124560274D01*
X139130570Y-124552092D01*
X139025383Y-124298149D01*
X138945439Y-124105146D01*
X138942300Y-124096730D01*
X138935643Y-124076726D01*
X138789531Y-123637730D01*
X138786998Y-123629105D01*
X138781695Y-123608326D01*
X138667363Y-123160379D01*
X138665451Y-123151591D01*
X138579560Y-122675524D01*
X138578280Y-122666622D01*
X138526570Y-122185648D01*
X138525928Y-122176676D01*
X138514729Y-121863134D01*
X138509996Y-121730609D01*
X138510994Y-121709678D01*
X138513751Y-121688731D01*
X138509578Y-121657034D01*
X138508500Y-121640588D01*
X138508500Y-115792890D01*
X138529552Y-115723163D01*
X138574990Y-115654773D01*
X138578891Y-115648902D01*
X138639319Y-115489825D01*
X138663001Y-115321313D01*
X138663299Y-115300000D01*
X138644331Y-115130892D01*
X138624017Y-115072557D01*
X138590686Y-114976846D01*
X138588368Y-114970189D01*
X138582383Y-114960610D01*
X138560420Y-114925464D01*
X138498192Y-114825879D01*
X138378286Y-114705132D01*
X138234608Y-114613951D01*
X138144469Y-114581854D01*
X138080937Y-114559231D01*
X138080934Y-114559230D01*
X138074300Y-114556868D01*
X138070635Y-114556431D01*
X138010036Y-114522058D01*
X137977023Y-114459203D01*
X137983233Y-114388479D01*
X138026693Y-114332339D01*
X138036267Y-114326053D01*
X138222143Y-114215767D01*
X138256612Y-114195316D01*
X138264475Y-114191022D01*
X138651780Y-113997151D01*
X138659945Y-113993423D01*
X138810806Y-113930934D01*
X139060076Y-113827683D01*
X139068480Y-113824548D01*
X139479413Y-113687777D01*
X139488033Y-113685245D01*
X139907667Y-113578141D01*
X139916451Y-113576230D01*
X140129554Y-113537781D01*
X140342654Y-113499334D01*
X140351557Y-113498054D01*
X140782150Y-113451761D01*
X140791121Y-113451119D01*
X140986501Y-113444141D01*
X141184965Y-113437052D01*
X141205898Y-113438050D01*
X141221723Y-113440133D01*
X141256795Y-113436261D01*
X141270622Y-113435500D01*
X149967008Y-113435500D01*
X149983450Y-113436578D01*
G37*
%TD.AperFunction*%
%TD*%
M02*
