%TF.GenerationSoftware,KiCad,Pcbnew,(6.0.2)*%
%TF.CreationDate,2022-04-24T18:21:00+08:00*%
%TF.ProjectId,wave_generator,77617665-5f67-4656-9e65-7261746f722e,rev?*%
%TF.SameCoordinates,Original*%
%TF.FileFunction,Copper,L4,Bot*%
%TF.FilePolarity,Positive*%
%FSLAX46Y46*%
G04 Gerber Fmt 4.6, Leading zero omitted, Abs format (unit mm)*
G04 Created by KiCad (PCBNEW (6.0.2)) date 2022-04-24 18:21:00*
%MOMM*%
%LPD*%
G01*
G04 APERTURE LIST*
%TA.AperFunction,ComponentPad*%
%ADD10R,1.524000X1.524000*%
%TD*%
%TA.AperFunction,ComponentPad*%
%ADD11C,1.524000*%
%TD*%
%TA.AperFunction,ComponentPad*%
%ADD12C,1.540000*%
%TD*%
%TA.AperFunction,ComponentPad*%
%ADD13R,2.500000X2.500000*%
%TD*%
%TA.AperFunction,ComponentPad*%
%ADD14C,2.500000*%
%TD*%
%TA.AperFunction,ComponentPad*%
%ADD15C,5.000000*%
%TD*%
%TA.AperFunction,ComponentPad*%
%ADD16C,1.400000*%
%TD*%
%TA.AperFunction,ComponentPad*%
%ADD17R,1.700000X1.700000*%
%TD*%
%TA.AperFunction,ComponentPad*%
%ADD18O,1.700000X1.700000*%
%TD*%
%TA.AperFunction,ViaPad*%
%ADD19C,0.500000*%
%TD*%
%TA.AperFunction,Conductor*%
%ADD20C,0.762000*%
%TD*%
%TA.AperFunction,Conductor*%
%ADD21C,0.254000*%
%TD*%
%TA.AperFunction,Conductor*%
%ADD22C,0.200000*%
%TD*%
G04 APERTURE END LIST*
D10*
%TO.P,RV3,1,1*%
%TO.N,Net-(RV3-Pad1)*%
X164900000Y-96700000D03*
D11*
%TO.P,RV3,2,2*%
%TO.N,+9V*%
X167400000Y-96700000D03*
D12*
%TO.P,RV3,3,3*%
%TO.N,Net-(RV3-Pad3)*%
X169900000Y-96700000D03*
%TD*%
D10*
%TO.P,RV2,1,1*%
%TO.N,Net-(RV2-Pad1)*%
X121000000Y-113000000D03*
D11*
%TO.P,RV2,2,2*%
%TO.N,+9V*%
X123500000Y-113000000D03*
D12*
%TO.P,RV2,3,3*%
%TO.N,Net-(RV2-Pad3)*%
X126000000Y-113000000D03*
%TD*%
D13*
%TO.P,J2,1,1*%
%TO.N,GND*%
X103200000Y-102500000D03*
D14*
%TO.P,J2,2,2*%
%TO.N,/Frequency*%
X103200000Y-97365851D03*
%TD*%
D15*
%TO.P,W3,1,1*%
%TO.N,GND*%
X104000000Y-126000000D03*
%TD*%
D16*
%TO.P,TP5,1,1*%
%TO.N,+9V*%
X152000000Y-67000000D03*
%TD*%
D17*
%TO.P,J6,1,Pin_1*%
%TO.N,+3V3*%
X152200000Y-128000000D03*
D18*
%TO.P,J6,2,Pin_2*%
%TO.N,/SWDIO*%
X154740000Y-128000000D03*
%TO.P,J6,3,Pin_3*%
%TO.N,/SWCLK*%
X157280000Y-128000000D03*
%TO.P,J6,4,Pin_4*%
%TO.N,GND*%
X159820000Y-128000000D03*
%TD*%
D16*
%TO.P,TP3,1,1*%
%TO.N,Net-(C26-Pad2)*%
X168550000Y-115250000D03*
%TD*%
D13*
%TO.P,J3,1,1*%
%TO.N,GND*%
X103200000Y-115000000D03*
D14*
%TO.P,J3,2,2*%
%TO.N,/Amplitude*%
X103200000Y-109865851D03*
%TD*%
D15*
%TO.P,W2,1,1*%
%TO.N,GND*%
X196000000Y-69000000D03*
%TD*%
D10*
%TO.P,RV4,1,1*%
%TO.N,Net-(RV4-Pad1)*%
X181900000Y-96700000D03*
D11*
%TO.P,RV4,2,2*%
%TO.N,+9V*%
X184400000Y-96700000D03*
D12*
%TO.P,RV4,3,3*%
%TO.N,Net-(RV4-Pad3)*%
X186900000Y-96700000D03*
%TD*%
D16*
%TO.P,TP1,1,1*%
%TO.N,Net-(C19-Pad1)*%
X134500000Y-107400000D03*
%TD*%
%TO.P,TP2,1,1*%
%TO.N,Net-(C20-Pad1)*%
X134900000Y-122800000D03*
%TD*%
%TO.P,TP4,1,1*%
%TO.N,/OUT_TEMP*%
X173200000Y-115250000D03*
%TD*%
D10*
%TO.P,RV1,1,1*%
%TO.N,Net-(RV1-Pad1)*%
X121000000Y-97500000D03*
D11*
%TO.P,RV1,2,2*%
%TO.N,+9V*%
X123500000Y-97500000D03*
D12*
%TO.P,RV1,3,3*%
%TO.N,Net-(RV1-Pad3)*%
X126000000Y-97500000D03*
%TD*%
D16*
%TO.P,TP7,1,1*%
%TO.N,-9V*%
X167150000Y-83700000D03*
%TD*%
D15*
%TO.P,W1,1,1*%
%TO.N,GND*%
X104000000Y-69000000D03*
%TD*%
D13*
%TO.P,J4,1,1*%
%TO.N,Net-(J4-Pad1)*%
X196800000Y-94850000D03*
D14*
%TO.P,J4,2,2*%
%TO.N,GND*%
X196800000Y-99984149D03*
%TD*%
D15*
%TO.P,W4,1,1*%
%TO.N,GND*%
X196000000Y-126000000D03*
%TD*%
D17*
%TO.P,J5,1,Pin_1*%
%TO.N,+3V3*%
X164950000Y-128000000D03*
D18*
%TO.P,J5,2,Pin_2*%
%TO.N,/USART_TX*%
X167490000Y-128000000D03*
%TO.P,J5,3,Pin_3*%
%TO.N,/USART_RX*%
X170030000Y-128000000D03*
%TO.P,J5,4,Pin_4*%
%TO.N,GND*%
X172570000Y-128000000D03*
%TD*%
D17*
%TO.P,J7,1,Pin_1*%
%TO.N,/DAC_OUT2*%
X177750000Y-128000000D03*
D18*
%TO.P,J7,2,Pin_2*%
%TO.N,/PA6*%
X180290000Y-128000000D03*
%TO.P,J7,3,Pin_3*%
%TO.N,/PA7*%
X182830000Y-128000000D03*
%TO.P,J7,4,Pin_4*%
%TO.N,/PA8*%
X185370000Y-128000000D03*
%TD*%
D16*
%TO.P,TP6,1,1*%
%TO.N,+3V3*%
X173250000Y-67000000D03*
%TD*%
D13*
%TO.P,J1,1,1*%
%TO.N,/-15V*%
X103200000Y-90000000D03*
D14*
%TO.P,J1,2,2*%
%TO.N,GND*%
X103200000Y-85000000D03*
%TO.P,J1,3,3*%
%TO.N,/+15V*%
X103200000Y-80000000D03*
%TD*%
D19*
%TO.N,GND*%
X178400000Y-106200000D03*
X140300000Y-111000000D03*
X178600000Y-99600000D03*
X198200000Y-88500000D03*
X191700000Y-124300000D03*
X194000000Y-104900000D03*
X110500000Y-119400000D03*
X107500000Y-66300000D03*
X104200000Y-121800000D03*
X156200000Y-77800000D03*
X174700000Y-108700000D03*
X156200000Y-89200000D03*
X127787400Y-91414600D03*
X190900000Y-82600000D03*
X177600000Y-88600000D03*
X191100000Y-104800000D03*
X126600000Y-66400000D03*
X198200000Y-113500000D03*
X134300000Y-111400000D03*
X180400000Y-78500000D03*
X148500000Y-128500000D03*
X101700000Y-106300000D03*
X133223000Y-98221800D03*
X192200000Y-96700000D03*
X175900000Y-83300000D03*
X198500000Y-75000000D03*
X198200000Y-118600000D03*
X142697200Y-85547200D03*
X184318934Y-111125000D03*
X120500000Y-79000000D03*
X170600000Y-66500000D03*
X109200000Y-100900000D03*
X130962400Y-94665800D03*
X129200000Y-128600000D03*
X110100000Y-114200000D03*
X133200000Y-128600000D03*
X175500000Y-112800000D03*
X111600000Y-104000000D03*
X196000000Y-121800000D03*
X191200000Y-67900000D03*
X158400000Y-92800000D03*
X155500000Y-104700000D03*
X109800000Y-66200000D03*
X198500000Y-122600000D03*
X168500000Y-66500000D03*
X198200000Y-116100000D03*
X147200000Y-114900000D03*
X175800000Y-94700000D03*
X198200000Y-91300000D03*
X114200000Y-128700000D03*
X161700000Y-66500000D03*
X127228600Y-94716600D03*
X129700000Y-98300000D03*
X189200000Y-88500000D03*
X130000000Y-111200000D03*
X111200000Y-79900000D03*
X113512600Y-77393800D03*
X185900000Y-80200000D03*
X105800000Y-77400000D03*
X193900000Y-107700000D03*
X107800000Y-75300000D03*
X198400000Y-77600000D03*
X134543800Y-94665800D03*
X101200000Y-118800000D03*
X127900000Y-82600000D03*
X198100000Y-120700000D03*
X128092200Y-75895200D03*
X179500000Y-115500000D03*
X103200000Y-77400000D03*
X198300000Y-82900000D03*
X194300000Y-86700000D03*
X101700000Y-73000000D03*
X113900000Y-107000000D03*
X141225000Y-100675000D03*
X150300000Y-104400000D03*
X110600000Y-128700000D03*
X176700000Y-66500000D03*
X194300000Y-76100000D03*
X151400000Y-108900000D03*
X101300000Y-112500000D03*
X120400000Y-71900000D03*
X191500000Y-70500000D03*
X156800000Y-96800000D03*
X126200000Y-79900000D03*
X172700000Y-83700000D03*
X169600000Y-75500000D03*
X120400000Y-86700000D03*
X180300000Y-66800000D03*
X179806600Y-91973400D03*
X194000000Y-100000000D03*
X114600000Y-112900000D03*
X130700000Y-124600000D03*
X154000000Y-93200000D03*
X159400000Y-66500000D03*
X184600000Y-85700000D03*
X125300000Y-128700000D03*
X198200000Y-111100000D03*
X166100000Y-66500000D03*
X136700000Y-128600000D03*
X149100000Y-92600000D03*
X147400000Y-81000000D03*
X188000000Y-112400000D03*
X137109200Y-97180400D03*
X198200000Y-103500000D03*
X140300000Y-128600000D03*
X194000000Y-102500000D03*
X120900000Y-92000000D03*
X161825000Y-112575000D03*
X175550000Y-69920710D03*
X123900000Y-124700000D03*
X145500000Y-71600000D03*
X131900000Y-114000000D03*
X195900000Y-73300000D03*
X147500000Y-74400000D03*
X138400000Y-105700000D03*
X146400000Y-111500000D03*
X191200000Y-98600000D03*
X126900000Y-108700000D03*
X108400000Y-106400000D03*
X181000000Y-86800000D03*
X192900000Y-72400000D03*
X173800000Y-99200000D03*
X106300000Y-102200000D03*
X122072400Y-108559600D03*
X112600000Y-99900000D03*
X140300000Y-122700000D03*
X107900000Y-70800000D03*
X112400000Y-66200000D03*
X121800000Y-128700000D03*
X122900000Y-66400000D03*
X108100000Y-127500000D03*
X147400000Y-77900000D03*
X142500000Y-125800000D03*
X143300000Y-95200000D03*
X103800000Y-73100000D03*
X163900000Y-66500000D03*
X108300000Y-124900000D03*
X192200000Y-66100000D03*
X116100000Y-92300000D03*
X190100000Y-116000000D03*
X115900000Y-66300000D03*
X150400000Y-97000000D03*
X191000000Y-110100000D03*
X127800000Y-86600000D03*
X188900000Y-102900000D03*
X172700000Y-87700000D03*
X142500000Y-104200000D03*
X106800000Y-122700000D03*
X188200000Y-92500000D03*
X116500000Y-79000000D03*
X194700000Y-79600000D03*
X191400000Y-78000000D03*
X198600000Y-72500000D03*
X193300000Y-122400000D03*
X194000000Y-97800000D03*
X194000000Y-95700000D03*
X113100000Y-122900000D03*
X141900000Y-71600000D03*
X191100000Y-107700000D03*
X198200000Y-105800000D03*
X142800000Y-81100000D03*
X185000000Y-116000000D03*
X129000000Y-103500000D03*
X106300000Y-87200000D03*
X194300000Y-113100000D03*
X190400000Y-73600000D03*
X191100000Y-101500000D03*
X144500000Y-128500000D03*
X191600000Y-127100000D03*
X111700000Y-92500000D03*
X118500000Y-109200000D03*
X138700000Y-117600000D03*
X183600000Y-66800000D03*
X108500000Y-68400000D03*
X117800000Y-124600000D03*
X192700000Y-128800000D03*
X152900000Y-110100000D03*
X198200000Y-108500000D03*
X180600000Y-82100000D03*
X153100000Y-100500000D03*
X184700000Y-90500000D03*
X190200000Y-112400000D03*
X129100000Y-106900000D03*
X119400000Y-66400000D03*
X101600000Y-122600000D03*
X106400000Y-81600000D03*
X156184600Y-69469000D03*
X106000000Y-93700000D03*
X106600000Y-129000000D03*
X198400000Y-80200000D03*
X187500000Y-66800000D03*
X171300000Y-92000000D03*
X118000000Y-128700000D03*
X198300000Y-85700000D03*
%TO.N,Net-(C19-Pad1)*%
X147800000Y-109950000D03*
%TO.N,Net-(C20-Pad1)*%
X151000000Y-113850000D03*
%TO.N,/Freq_LED*%
X179000000Y-122000000D03*
X158279290Y-111550000D03*
%TO.N,/Amp_LED*%
X179000000Y-119100000D03*
X158000000Y-110700000D03*
%TO.N,+3V3*%
X144500000Y-105900000D03*
X162900000Y-118600000D03*
X157400000Y-102900000D03*
X154350000Y-115050000D03*
X146200000Y-102900000D03*
X141300000Y-109100000D03*
X158500000Y-80800000D03*
X162900000Y-113750000D03*
X142400000Y-108000000D03*
X154300000Y-108600000D03*
%TO.N,-9V*%
X118948200Y-105486200D03*
X180086000Y-107442000D03*
X167482713Y-108808713D03*
X118948200Y-101879400D03*
X118618000Y-120878600D03*
%TO.N,/SWDIO*%
X150300000Y-114900000D03*
%TO.N,/SWCLK*%
X137900000Y-115300000D03*
%TO.N,/DAC_OUT2*%
X153000000Y-114500000D03*
X175400000Y-123900000D03*
%TO.N,/PA6*%
X152400000Y-114000000D03*
%TO.N,/PA7*%
X151800000Y-113500000D03*
%TO.N,/PA8*%
X152100000Y-112300000D03*
%TO.N,/USART_TX*%
X158400000Y-117900000D03*
X164300000Y-121700000D03*
%TO.N,/USART_RX*%
X159400000Y-117800000D03*
X166100000Y-121200000D03*
%TD*%
D20*
%TO.N,GND*%
X103200000Y-85000000D02*
X101989950Y-86210050D01*
X175550000Y-72830762D02*
X175550000Y-69920710D01*
D21*
X157927208Y-89200000D02*
X156200000Y-89200000D01*
X143300000Y-99034315D02*
X143300000Y-95200000D01*
X103200000Y-115000000D02*
X103200000Y-124068630D01*
X141225000Y-100675000D02*
X141270406Y-100675000D01*
D20*
X103200000Y-102500000D02*
X101976756Y-101276755D01*
X180300000Y-66800000D02*
X183600000Y-66800000D01*
D22*
X177398427Y-126000000D02*
X196000000Y-126000000D01*
X172570000Y-128000000D02*
X172118699Y-128451301D01*
D20*
X100900000Y-80400000D02*
X100900000Y-76484062D01*
X183600000Y-66800000D02*
X187500000Y-66800000D01*
X169600000Y-75500000D02*
X172244366Y-75500000D01*
D21*
X103200000Y-102500000D02*
X104073654Y-103373654D01*
D20*
X105699992Y-107299989D02*
X105699992Y-108964476D01*
D22*
X162514328Y-129400000D02*
X169828336Y-129400000D01*
D20*
X178714213Y-66800000D02*
X180300000Y-66800000D01*
X103200000Y-85000000D02*
X102526346Y-84326346D01*
D21*
X129000000Y-103500000D02*
X126814213Y-103500000D01*
D20*
X195497057Y-68497056D02*
X196000000Y-69000000D01*
X101000000Y-88600000D02*
X101000000Y-98918657D01*
D22*
X159820000Y-128000000D02*
X160304771Y-128484771D01*
D21*
X121500000Y-107400000D02*
X120053554Y-108846446D01*
X124400000Y-104500000D02*
X121500000Y-107400000D01*
D20*
X156200000Y-77800000D02*
X156200000Y-89200000D01*
X175550000Y-69920710D02*
X175550000Y-69610660D01*
X187500000Y-66800000D02*
X191400000Y-66800000D01*
D21*
X184318934Y-111125000D02*
X188655583Y-111125000D01*
X196800000Y-106551472D02*
X196800000Y-99984149D01*
X119200000Y-109200000D02*
X118500000Y-109200000D01*
X161825000Y-112575000D02*
X161825000Y-94264518D01*
X196800000Y-106551472D02*
G75*
G02*
X196200000Y-108000000I-2048527J0D01*
G01*
D20*
X103199997Y-114999999D02*
G75*
G03*
X105699992Y-108964476I-6035467J6035499D01*
G01*
X104000000Y-69000000D02*
G75*
G03*
X100900000Y-76484062I7484066J-7484063D01*
G01*
X195497057Y-68497056D02*
G75*
G03*
X191400000Y-66800000I-4097060J-4097066D01*
G01*
D21*
X119200000Y-109200000D02*
G75*
G03*
X120053554Y-108846446I-2J1207111D01*
G01*
D20*
X101976756Y-101276755D02*
G75*
G02*
X101000000Y-98918657I2358105J2358101D01*
G01*
D21*
X142900000Y-100000000D02*
G75*
G02*
X141270406Y-100675000I-1629595J1629596D01*
G01*
X160100000Y-90100000D02*
G75*
G02*
X161825000Y-94264518I-4164518J-4164518D01*
G01*
D22*
X177398427Y-126000001D02*
G75*
G03*
X172570001Y-128000001I-1J-6828424D01*
G01*
D21*
X124400000Y-104500000D02*
G75*
G02*
X126814213Y-103500000I2414210J-2414205D01*
G01*
D20*
X178714213Y-66800000D02*
G75*
G03*
X176300000Y-67800000I2J-3414216D01*
G01*
D22*
X172118699Y-128451301D02*
G75*
G02*
X169828336Y-129400000I-2290365J2290368D01*
G01*
D20*
X175550000Y-72830762D02*
G75*
G02*
X174900000Y-74400000I-2219234J-1D01*
G01*
D21*
X157927208Y-89200001D02*
G75*
G02*
X160099999Y-90100001I3J-3072784D01*
G01*
X104000000Y-126000000D02*
G75*
G02*
X103200000Y-124068630I1931366J1931369D01*
G01*
X196200000Y-108000000D02*
G75*
G02*
X188655583Y-111125000I-7544417J7544416D01*
G01*
D20*
X176300000Y-67800000D02*
G75*
G03*
X175550000Y-69610660I1810664J-1810662D01*
G01*
X101000001Y-88600000D02*
G75*
G02*
X101989951Y-86210051I3379901J-1D01*
G01*
D21*
X143300000Y-99034315D02*
G75*
G02*
X142900000Y-100000000I-1365677J-3D01*
G01*
D20*
X100900000Y-80400000D02*
G75*
G03*
X102526346Y-84326346I5552686J-2D01*
G01*
D22*
X162514328Y-129399999D02*
G75*
G02*
X160304772Y-128484770I-2J3124779D01*
G01*
D20*
X174900000Y-74400000D02*
G75*
G02*
X172244366Y-75500000I-2655635J2655635D01*
G01*
X105699992Y-107299989D02*
G75*
G03*
X104073655Y-103373657I-5552635J18D01*
G01*
%TD*%
%TA.AperFunction,Conductor*%
%TO.N,GND*%
G36*
X196970057Y-65509500D02*
G01*
X196984858Y-65511805D01*
X196984861Y-65511805D01*
X196993730Y-65513186D01*
X197010899Y-65510941D01*
X197034839Y-65510108D01*
X197292770Y-65525710D01*
X197307874Y-65527544D01*
X197378648Y-65540514D01*
X197588879Y-65579040D01*
X197603641Y-65582678D01*
X197876408Y-65667675D01*
X197890627Y-65673069D01*
X198151140Y-65790316D01*
X198164609Y-65797385D01*
X198409095Y-65945182D01*
X198421617Y-65953825D01*
X198646507Y-66130016D01*
X198657895Y-66140106D01*
X198859894Y-66342105D01*
X198869984Y-66353493D01*
X199046175Y-66578383D01*
X199054818Y-66590905D01*
X199202615Y-66835391D01*
X199209684Y-66848860D01*
X199326930Y-67109370D01*
X199332325Y-67123592D01*
X199406644Y-67362089D01*
X199417321Y-67396353D01*
X199420962Y-67411127D01*
X199472456Y-67692126D01*
X199474290Y-67707230D01*
X199489455Y-67957929D01*
X199488198Y-67984639D01*
X199488195Y-67984859D01*
X199486814Y-67993730D01*
X199487978Y-68002632D01*
X199487978Y-68002635D01*
X199490936Y-68025251D01*
X199492000Y-68041589D01*
X199492000Y-126950672D01*
X199490500Y-126970057D01*
X199488213Y-126984748D01*
X199486814Y-126993730D01*
X199488581Y-127007240D01*
X199489059Y-127010897D01*
X199489892Y-127034839D01*
X199474290Y-127292770D01*
X199472456Y-127307874D01*
X199425546Y-127563860D01*
X199420962Y-127588873D01*
X199417322Y-127603641D01*
X199356363Y-127799267D01*
X199332326Y-127876404D01*
X199326931Y-127890627D01*
X199220099Y-128128000D01*
X199209686Y-128151136D01*
X199202615Y-128164609D01*
X199054818Y-128409095D01*
X199046175Y-128421617D01*
X198869984Y-128646507D01*
X198859894Y-128657895D01*
X198657895Y-128859894D01*
X198646507Y-128869984D01*
X198421617Y-129046175D01*
X198409095Y-129054818D01*
X198164609Y-129202615D01*
X198151140Y-129209684D01*
X197890630Y-129326930D01*
X197876408Y-129332325D01*
X197603641Y-129417322D01*
X197588879Y-129420960D01*
X197402339Y-129455145D01*
X197307874Y-129472456D01*
X197292770Y-129474290D01*
X197042071Y-129489455D01*
X197015361Y-129488198D01*
X197015141Y-129488195D01*
X197006270Y-129486814D01*
X196997368Y-129487978D01*
X196997365Y-129487978D01*
X196974749Y-129490936D01*
X196958411Y-129492000D01*
X185956139Y-129492000D01*
X185888018Y-129471998D01*
X185841525Y-129418342D01*
X185831421Y-129348068D01*
X185860915Y-129283488D01*
X185900707Y-129252849D01*
X185954021Y-129226731D01*
X186067994Y-129170896D01*
X186249860Y-129041173D01*
X186278371Y-129012762D01*
X186393616Y-128897918D01*
X186408096Y-128883489D01*
X186538453Y-128702077D01*
X186551995Y-128674678D01*
X186635136Y-128506453D01*
X186635137Y-128506451D01*
X186637430Y-128501811D01*
X186698234Y-128301681D01*
X194063860Y-128301681D01*
X194063878Y-128301933D01*
X194069793Y-128310677D01*
X194101111Y-128339174D01*
X194106748Y-128343738D01*
X194382544Y-128541918D01*
X194388682Y-128545813D01*
X194685435Y-128710984D01*
X194691955Y-128714136D01*
X195005738Y-128844109D01*
X195012589Y-128846495D01*
X195339212Y-128939536D01*
X195346301Y-128941120D01*
X195681465Y-128996006D01*
X195688671Y-128996763D01*
X196027926Y-129012762D01*
X196035176Y-129012686D01*
X196374010Y-128989587D01*
X196381219Y-128988676D01*
X196715160Y-128926784D01*
X196722190Y-128925057D01*
X197046819Y-128825187D01*
X197053597Y-128822667D01*
X197364603Y-128686145D01*
X197371043Y-128682864D01*
X197664293Y-128511502D01*
X197670326Y-128507493D01*
X197928828Y-128313405D01*
X197937282Y-128302078D01*
X197930537Y-128289748D01*
X196012810Y-126372020D01*
X195998869Y-126364408D01*
X195997034Y-126364539D01*
X195990420Y-126368790D01*
X194071474Y-128287737D01*
X194063860Y-128301681D01*
X186698234Y-128301681D01*
X186702370Y-128288069D01*
X186731529Y-128066590D01*
X186731611Y-128063240D01*
X186733074Y-128003365D01*
X186733074Y-128003361D01*
X186733156Y-128000000D01*
X186714852Y-127777361D01*
X186660431Y-127560702D01*
X186571354Y-127355840D01*
X186450014Y-127168277D01*
X186299670Y-127003051D01*
X186295619Y-126999852D01*
X186295615Y-126999848D01*
X186128414Y-126867800D01*
X186128410Y-126867798D01*
X186124359Y-126864598D01*
X186088028Y-126844542D01*
X186072136Y-126835769D01*
X185928789Y-126756638D01*
X185923920Y-126754914D01*
X185923916Y-126754912D01*
X185723087Y-126683795D01*
X185723083Y-126683794D01*
X185718212Y-126682069D01*
X185713119Y-126681162D01*
X185713116Y-126681161D01*
X185503373Y-126643800D01*
X185503367Y-126643799D01*
X185498284Y-126642894D01*
X185424452Y-126641992D01*
X185280081Y-126640228D01*
X185280079Y-126640228D01*
X185274911Y-126640165D01*
X185054091Y-126673955D01*
X184841756Y-126743357D01*
X184643607Y-126846507D01*
X184639474Y-126849610D01*
X184639471Y-126849612D01*
X184472804Y-126974749D01*
X184464965Y-126980635D01*
X184446605Y-126999848D01*
X184353729Y-127097037D01*
X184310629Y-127142138D01*
X184203201Y-127299621D01*
X184148293Y-127344621D01*
X184077768Y-127352792D01*
X184014021Y-127321538D01*
X183993324Y-127297054D01*
X183912822Y-127172617D01*
X183912820Y-127172614D01*
X183910014Y-127168277D01*
X183759670Y-127003051D01*
X183755619Y-126999852D01*
X183755615Y-126999848D01*
X183588414Y-126867800D01*
X183588410Y-126867798D01*
X183584359Y-126864598D01*
X183548028Y-126844542D01*
X183532136Y-126835769D01*
X183388789Y-126756638D01*
X183383920Y-126754914D01*
X183383916Y-126754912D01*
X183183087Y-126683795D01*
X183183083Y-126683794D01*
X183178212Y-126682069D01*
X183173119Y-126681162D01*
X183173116Y-126681161D01*
X182963373Y-126643800D01*
X182963367Y-126643799D01*
X182958284Y-126642894D01*
X182884452Y-126641992D01*
X182740081Y-126640228D01*
X182740079Y-126640228D01*
X182734911Y-126640165D01*
X182514091Y-126673955D01*
X182301756Y-126743357D01*
X182103607Y-126846507D01*
X182099474Y-126849610D01*
X182099471Y-126849612D01*
X181932804Y-126974749D01*
X181924965Y-126980635D01*
X181906605Y-126999848D01*
X181813729Y-127097037D01*
X181770629Y-127142138D01*
X181663201Y-127299621D01*
X181608293Y-127344621D01*
X181537768Y-127352792D01*
X181474021Y-127321538D01*
X181453324Y-127297054D01*
X181372822Y-127172617D01*
X181372820Y-127172614D01*
X181370014Y-127168277D01*
X181219670Y-127003051D01*
X181215619Y-126999852D01*
X181215615Y-126999848D01*
X181048414Y-126867800D01*
X181048410Y-126867798D01*
X181044359Y-126864598D01*
X181008028Y-126844542D01*
X180992136Y-126835769D01*
X180848789Y-126756638D01*
X180843920Y-126754914D01*
X180843916Y-126754912D01*
X180643087Y-126683795D01*
X180643083Y-126683794D01*
X180638212Y-126682069D01*
X180633119Y-126681162D01*
X180633116Y-126681161D01*
X180423373Y-126643800D01*
X180423367Y-126643799D01*
X180418284Y-126642894D01*
X180344452Y-126641992D01*
X180200081Y-126640228D01*
X180200079Y-126640228D01*
X180194911Y-126640165D01*
X179974091Y-126673955D01*
X179761756Y-126743357D01*
X179563607Y-126846507D01*
X179559474Y-126849610D01*
X179559471Y-126849612D01*
X179392804Y-126974749D01*
X179384965Y-126980635D01*
X179326256Y-127042071D01*
X179304283Y-127065064D01*
X179242759Y-127100494D01*
X179171846Y-127097037D01*
X179114060Y-127055791D01*
X179095207Y-127022243D01*
X179053767Y-126911703D01*
X179050615Y-126903295D01*
X178963261Y-126786739D01*
X178846705Y-126699385D01*
X178710316Y-126648255D01*
X178648134Y-126641500D01*
X176851866Y-126641500D01*
X176789684Y-126648255D01*
X176653295Y-126699385D01*
X176536739Y-126786739D01*
X176449385Y-126903295D01*
X176398255Y-127039684D01*
X176391500Y-127101866D01*
X176391500Y-128898134D01*
X176398255Y-128960316D01*
X176449385Y-129096705D01*
X176536739Y-129213261D01*
X176543919Y-129218642D01*
X176543920Y-129218643D01*
X176606006Y-129265174D01*
X176648521Y-129322033D01*
X176653547Y-129392852D01*
X176619487Y-129455145D01*
X176557155Y-129489135D01*
X176530441Y-129492000D01*
X173155004Y-129492000D01*
X173086883Y-129471998D01*
X173040390Y-129418342D01*
X173030286Y-129348068D01*
X173059780Y-129283488D01*
X173099571Y-129252849D01*
X173263095Y-129172739D01*
X173271945Y-129167464D01*
X173445328Y-129043792D01*
X173453200Y-129037139D01*
X173604052Y-128886812D01*
X173610730Y-128878965D01*
X173735003Y-128706020D01*
X173740313Y-128697183D01*
X173834670Y-128506267D01*
X173838469Y-128496672D01*
X173900377Y-128292910D01*
X173902555Y-128282837D01*
X173903986Y-128271962D01*
X173901775Y-128257778D01*
X173888617Y-128254000D01*
X172442000Y-128254000D01*
X172373879Y-128233998D01*
X172327386Y-128180342D01*
X172316000Y-128128000D01*
X172316000Y-127727885D01*
X172824000Y-127727885D01*
X172828475Y-127743124D01*
X172829865Y-127744329D01*
X172837548Y-127746000D01*
X173888344Y-127746000D01*
X173901875Y-127742027D01*
X173903180Y-127732947D01*
X173861214Y-127565875D01*
X173857894Y-127556124D01*
X173772972Y-127360814D01*
X173768105Y-127351739D01*
X173652426Y-127172926D01*
X173646136Y-127164757D01*
X173502806Y-127007240D01*
X173495273Y-127000215D01*
X173328139Y-126868222D01*
X173319552Y-126862517D01*
X173133117Y-126759599D01*
X173123705Y-126755369D01*
X172922959Y-126684280D01*
X172912988Y-126681646D01*
X172841837Y-126668972D01*
X172828540Y-126670432D01*
X172824000Y-126684989D01*
X172824000Y-127727885D01*
X172316000Y-127727885D01*
X172316000Y-126683102D01*
X172312082Y-126669758D01*
X172297806Y-126667771D01*
X172259324Y-126673660D01*
X172249288Y-126676051D01*
X172046868Y-126742212D01*
X172037359Y-126746209D01*
X171848463Y-126844542D01*
X171839738Y-126850036D01*
X171669433Y-126977905D01*
X171661726Y-126984748D01*
X171514590Y-127138717D01*
X171508109Y-127146722D01*
X171403498Y-127300074D01*
X171348587Y-127345076D01*
X171278062Y-127353247D01*
X171214315Y-127321993D01*
X171193618Y-127297509D01*
X171112822Y-127172617D01*
X171112820Y-127172614D01*
X171110014Y-127168277D01*
X170959670Y-127003051D01*
X170955619Y-126999852D01*
X170955615Y-126999848D01*
X170788414Y-126867800D01*
X170788410Y-126867798D01*
X170784359Y-126864598D01*
X170748028Y-126844542D01*
X170732136Y-126835769D01*
X170588789Y-126756638D01*
X170583920Y-126754914D01*
X170583916Y-126754912D01*
X170383087Y-126683795D01*
X170383083Y-126683794D01*
X170378212Y-126682069D01*
X170373119Y-126681162D01*
X170373116Y-126681161D01*
X170163373Y-126643800D01*
X170163367Y-126643799D01*
X170158284Y-126642894D01*
X170084452Y-126641992D01*
X169940081Y-126640228D01*
X169940079Y-126640228D01*
X169934911Y-126640165D01*
X169714091Y-126673955D01*
X169501756Y-126743357D01*
X169303607Y-126846507D01*
X169299474Y-126849610D01*
X169299471Y-126849612D01*
X169132804Y-126974749D01*
X169124965Y-126980635D01*
X169106605Y-126999848D01*
X169013729Y-127097037D01*
X168970629Y-127142138D01*
X168863201Y-127299621D01*
X168808293Y-127344621D01*
X168737768Y-127352792D01*
X168674021Y-127321538D01*
X168653324Y-127297054D01*
X168572822Y-127172617D01*
X168572820Y-127172614D01*
X168570014Y-127168277D01*
X168419670Y-127003051D01*
X168415619Y-126999852D01*
X168415615Y-126999848D01*
X168248414Y-126867800D01*
X168248410Y-126867798D01*
X168244359Y-126864598D01*
X168208028Y-126844542D01*
X168192136Y-126835769D01*
X168048789Y-126756638D01*
X168043920Y-126754914D01*
X168043916Y-126754912D01*
X167843087Y-126683795D01*
X167843083Y-126683794D01*
X167838212Y-126682069D01*
X167833119Y-126681162D01*
X167833116Y-126681161D01*
X167623373Y-126643800D01*
X167623367Y-126643799D01*
X167618284Y-126642894D01*
X167544452Y-126641992D01*
X167400081Y-126640228D01*
X167400079Y-126640228D01*
X167394911Y-126640165D01*
X167174091Y-126673955D01*
X166961756Y-126743357D01*
X166763607Y-126846507D01*
X166759474Y-126849610D01*
X166759471Y-126849612D01*
X166592804Y-126974749D01*
X166584965Y-126980635D01*
X166526256Y-127042071D01*
X166504283Y-127065064D01*
X166442759Y-127100494D01*
X166371846Y-127097037D01*
X166314060Y-127055791D01*
X166295207Y-127022243D01*
X166253767Y-126911703D01*
X166250615Y-126903295D01*
X166163261Y-126786739D01*
X166046705Y-126699385D01*
X165910316Y-126648255D01*
X165848134Y-126641500D01*
X164051866Y-126641500D01*
X163989684Y-126648255D01*
X163853295Y-126699385D01*
X163736739Y-126786739D01*
X163649385Y-126903295D01*
X163598255Y-127039684D01*
X163591500Y-127101866D01*
X163591500Y-128898134D01*
X163598255Y-128960316D01*
X163649385Y-129096705D01*
X163736739Y-129213261D01*
X163743919Y-129218642D01*
X163743920Y-129218643D01*
X163806006Y-129265174D01*
X163848521Y-129322033D01*
X163853547Y-129392852D01*
X163819487Y-129455145D01*
X163757155Y-129489135D01*
X163730441Y-129492000D01*
X160405004Y-129492000D01*
X160336883Y-129471998D01*
X160290390Y-129418342D01*
X160280286Y-129348068D01*
X160309780Y-129283488D01*
X160349571Y-129252849D01*
X160513095Y-129172739D01*
X160521945Y-129167464D01*
X160695328Y-129043792D01*
X160703200Y-129037139D01*
X160854052Y-128886812D01*
X160860730Y-128878965D01*
X160985003Y-128706020D01*
X160990313Y-128697183D01*
X161084670Y-128506267D01*
X161088469Y-128496672D01*
X161150377Y-128292910D01*
X161152555Y-128282837D01*
X161153986Y-128271962D01*
X161151775Y-128257778D01*
X161138617Y-128254000D01*
X159692000Y-128254000D01*
X159623879Y-128233998D01*
X159577386Y-128180342D01*
X159566000Y-128128000D01*
X159566000Y-127727885D01*
X160074000Y-127727885D01*
X160078475Y-127743124D01*
X160079865Y-127744329D01*
X160087548Y-127746000D01*
X161138344Y-127746000D01*
X161151875Y-127742027D01*
X161153180Y-127732947D01*
X161111214Y-127565875D01*
X161107894Y-127556124D01*
X161022972Y-127360814D01*
X161018105Y-127351739D01*
X160902426Y-127172926D01*
X160896136Y-127164757D01*
X160752806Y-127007240D01*
X160745273Y-127000215D01*
X160578139Y-126868222D01*
X160569552Y-126862517D01*
X160383117Y-126759599D01*
X160373705Y-126755369D01*
X160172959Y-126684280D01*
X160162988Y-126681646D01*
X160091837Y-126668972D01*
X160078540Y-126670432D01*
X160074000Y-126684989D01*
X160074000Y-127727885D01*
X159566000Y-127727885D01*
X159566000Y-126683102D01*
X159562082Y-126669758D01*
X159547806Y-126667771D01*
X159509324Y-126673660D01*
X159499288Y-126676051D01*
X159296868Y-126742212D01*
X159287359Y-126746209D01*
X159098463Y-126844542D01*
X159089738Y-126850036D01*
X158919433Y-126977905D01*
X158911726Y-126984748D01*
X158764590Y-127138717D01*
X158758109Y-127146722D01*
X158653498Y-127300074D01*
X158598587Y-127345076D01*
X158528062Y-127353247D01*
X158464315Y-127321993D01*
X158443618Y-127297509D01*
X158362822Y-127172617D01*
X158362820Y-127172614D01*
X158360014Y-127168277D01*
X158209670Y-127003051D01*
X158205619Y-126999852D01*
X158205615Y-126999848D01*
X158038414Y-126867800D01*
X158038410Y-126867798D01*
X158034359Y-126864598D01*
X157998028Y-126844542D01*
X157982136Y-126835769D01*
X157838789Y-126756638D01*
X157833920Y-126754914D01*
X157833916Y-126754912D01*
X157633087Y-126683795D01*
X157633083Y-126683794D01*
X157628212Y-126682069D01*
X157623119Y-126681162D01*
X157623116Y-126681161D01*
X157413373Y-126643800D01*
X157413367Y-126643799D01*
X157408284Y-126642894D01*
X157334452Y-126641992D01*
X157190081Y-126640228D01*
X157190079Y-126640228D01*
X157184911Y-126640165D01*
X156964091Y-126673955D01*
X156751756Y-126743357D01*
X156553607Y-126846507D01*
X156549474Y-126849610D01*
X156549471Y-126849612D01*
X156382804Y-126974749D01*
X156374965Y-126980635D01*
X156356605Y-126999848D01*
X156263729Y-127097037D01*
X156220629Y-127142138D01*
X156113201Y-127299621D01*
X156058293Y-127344621D01*
X155987768Y-127352792D01*
X155924021Y-127321538D01*
X155903324Y-127297054D01*
X155822822Y-127172617D01*
X155822820Y-127172614D01*
X155820014Y-127168277D01*
X155669670Y-127003051D01*
X155665619Y-126999852D01*
X155665615Y-126999848D01*
X155498414Y-126867800D01*
X155498410Y-126867798D01*
X155494359Y-126864598D01*
X155458028Y-126844542D01*
X155442136Y-126835769D01*
X155298789Y-126756638D01*
X155293920Y-126754914D01*
X155293916Y-126754912D01*
X155093087Y-126683795D01*
X155093083Y-126683794D01*
X155088212Y-126682069D01*
X155083119Y-126681162D01*
X155083116Y-126681161D01*
X154873373Y-126643800D01*
X154873367Y-126643799D01*
X154868284Y-126642894D01*
X154794452Y-126641992D01*
X154650081Y-126640228D01*
X154650079Y-126640228D01*
X154644911Y-126640165D01*
X154424091Y-126673955D01*
X154211756Y-126743357D01*
X154013607Y-126846507D01*
X154009474Y-126849610D01*
X154009471Y-126849612D01*
X153842804Y-126974749D01*
X153834965Y-126980635D01*
X153776256Y-127042071D01*
X153754283Y-127065064D01*
X153692759Y-127100494D01*
X153621846Y-127097037D01*
X153564060Y-127055791D01*
X153545207Y-127022243D01*
X153503767Y-126911703D01*
X153500615Y-126903295D01*
X153413261Y-126786739D01*
X153296705Y-126699385D01*
X153160316Y-126648255D01*
X153098134Y-126641500D01*
X151301866Y-126641500D01*
X151239684Y-126648255D01*
X151103295Y-126699385D01*
X150986739Y-126786739D01*
X150899385Y-126903295D01*
X150848255Y-127039684D01*
X150841500Y-127101866D01*
X150841500Y-128898134D01*
X150848255Y-128960316D01*
X150899385Y-129096705D01*
X150986739Y-129213261D01*
X150993919Y-129218642D01*
X150993920Y-129218643D01*
X151056006Y-129265174D01*
X151098521Y-129322033D01*
X151103547Y-129392852D01*
X151069487Y-129455145D01*
X151007155Y-129489135D01*
X150980441Y-129492000D01*
X103049328Y-129492000D01*
X103029943Y-129490500D01*
X103015142Y-129488195D01*
X103015139Y-129488195D01*
X103006270Y-129486814D01*
X102989101Y-129489059D01*
X102965161Y-129489892D01*
X102707230Y-129474290D01*
X102692126Y-129472456D01*
X102597661Y-129455145D01*
X102411121Y-129420960D01*
X102396359Y-129417322D01*
X102123592Y-129332325D01*
X102109370Y-129326930D01*
X101848860Y-129209684D01*
X101835391Y-129202615D01*
X101590905Y-129054818D01*
X101578383Y-129046175D01*
X101353493Y-128869984D01*
X101342105Y-128859894D01*
X101140106Y-128657895D01*
X101130016Y-128646507D01*
X100953825Y-128421617D01*
X100945182Y-128409095D01*
X100880248Y-128301681D01*
X102063860Y-128301681D01*
X102063878Y-128301933D01*
X102069793Y-128310677D01*
X102101111Y-128339174D01*
X102106748Y-128343738D01*
X102382544Y-128541918D01*
X102388682Y-128545813D01*
X102685435Y-128710984D01*
X102691955Y-128714136D01*
X103005738Y-128844109D01*
X103012589Y-128846495D01*
X103339212Y-128939536D01*
X103346301Y-128941120D01*
X103681465Y-128996006D01*
X103688671Y-128996763D01*
X104027926Y-129012762D01*
X104035176Y-129012686D01*
X104374010Y-128989587D01*
X104381219Y-128988676D01*
X104715160Y-128926784D01*
X104722190Y-128925057D01*
X105046819Y-128825187D01*
X105053597Y-128822667D01*
X105364603Y-128686145D01*
X105371043Y-128682864D01*
X105664293Y-128511502D01*
X105670326Y-128507493D01*
X105928828Y-128313405D01*
X105937282Y-128302078D01*
X105930537Y-128289748D01*
X104012810Y-126372020D01*
X103998869Y-126364408D01*
X103997034Y-126364539D01*
X103990420Y-126368790D01*
X102071474Y-128287737D01*
X102063860Y-128301681D01*
X100880248Y-128301681D01*
X100797385Y-128164609D01*
X100790314Y-128151136D01*
X100779902Y-128128000D01*
X100673069Y-127890627D01*
X100667674Y-127876404D01*
X100643637Y-127799267D01*
X100582678Y-127603641D01*
X100579038Y-127588873D01*
X100574455Y-127563860D01*
X100527544Y-127307874D01*
X100525710Y-127292770D01*
X100510545Y-127042071D01*
X100511802Y-127015361D01*
X100511805Y-127015141D01*
X100513186Y-127006270D01*
X100511547Y-126993730D01*
X100509064Y-126974749D01*
X100508000Y-126958411D01*
X100508000Y-125908987D01*
X100988484Y-125908987D01*
X100997374Y-126248505D01*
X100997980Y-126255721D01*
X101045835Y-126591963D01*
X101047269Y-126599074D01*
X101133455Y-126927595D01*
X101135692Y-126934478D01*
X101259064Y-127250914D01*
X101262081Y-127257503D01*
X101421002Y-127557652D01*
X101424761Y-127563860D01*
X101617129Y-127843757D01*
X101621574Y-127849486D01*
X101688743Y-127926484D01*
X101701917Y-127934888D01*
X101711769Y-127929020D01*
X103627980Y-126012810D01*
X103634357Y-126001131D01*
X104364408Y-126001131D01*
X104364539Y-126002966D01*
X104368790Y-126009580D01*
X106286268Y-127927057D01*
X106299622Y-127934349D01*
X106309594Y-127927295D01*
X106416641Y-127799267D01*
X106420957Y-127793456D01*
X106607432Y-127509575D01*
X106611046Y-127503313D01*
X106763658Y-127199882D01*
X106766530Y-127193244D01*
X106883249Y-126874293D01*
X106885345Y-126867351D01*
X106964631Y-126537103D01*
X106965915Y-126529964D01*
X107006816Y-126191973D01*
X107007240Y-126186403D01*
X107013010Y-126002797D01*
X107012937Y-125997204D01*
X107007850Y-125908987D01*
X192988484Y-125908987D01*
X192997374Y-126248505D01*
X192997980Y-126255721D01*
X193045835Y-126591963D01*
X193047269Y-126599074D01*
X193133455Y-126927595D01*
X193135692Y-126934478D01*
X193259064Y-127250914D01*
X193262081Y-127257503D01*
X193421002Y-127557652D01*
X193424761Y-127563860D01*
X193617129Y-127843757D01*
X193621574Y-127849486D01*
X193688743Y-127926484D01*
X193701917Y-127934888D01*
X193711769Y-127929020D01*
X195627980Y-126012810D01*
X195634357Y-126001131D01*
X196364408Y-126001131D01*
X196364539Y-126002966D01*
X196368790Y-126009580D01*
X198286268Y-127927057D01*
X198299622Y-127934349D01*
X198309594Y-127927295D01*
X198416641Y-127799267D01*
X198420957Y-127793456D01*
X198607432Y-127509575D01*
X198611046Y-127503313D01*
X198763658Y-127199882D01*
X198766530Y-127193244D01*
X198883249Y-126874293D01*
X198885345Y-126867351D01*
X198964631Y-126537103D01*
X198965915Y-126529964D01*
X199006816Y-126191973D01*
X199007240Y-126186403D01*
X199013010Y-126002797D01*
X199012937Y-125997204D01*
X198993338Y-125657303D01*
X198992506Y-125650113D01*
X198934113Y-125315529D01*
X198932458Y-125308474D01*
X198835998Y-124982834D01*
X198833540Y-124976006D01*
X198700290Y-124663608D01*
X198697073Y-124657125D01*
X198528788Y-124362089D01*
X198524856Y-124356034D01*
X198323774Y-124082295D01*
X198319166Y-124076726D01*
X198313830Y-124070984D01*
X198300178Y-124062866D01*
X198299570Y-124062887D01*
X198291092Y-124068119D01*
X196372020Y-125987190D01*
X196364408Y-126001131D01*
X195634357Y-126001131D01*
X195635592Y-125998869D01*
X195635461Y-125997034D01*
X195631210Y-125990420D01*
X193712374Y-124071585D01*
X193699581Y-124064599D01*
X193688827Y-124072464D01*
X193528037Y-124277527D01*
X193523902Y-124283476D01*
X193346440Y-124573068D01*
X193343019Y-124579447D01*
X193200016Y-124887522D01*
X193197356Y-124894241D01*
X193090711Y-125216707D01*
X193088834Y-125223711D01*
X193019961Y-125556288D01*
X193018904Y-125563449D01*
X192988712Y-125901735D01*
X192988484Y-125908987D01*
X107007850Y-125908987D01*
X106993338Y-125657303D01*
X106992506Y-125650113D01*
X106934113Y-125315529D01*
X106932458Y-125308474D01*
X106835998Y-124982834D01*
X106833540Y-124976006D01*
X106700290Y-124663608D01*
X106697073Y-124657125D01*
X106528788Y-124362089D01*
X106524856Y-124356034D01*
X106323774Y-124082295D01*
X106319166Y-124076726D01*
X106313830Y-124070984D01*
X106300178Y-124062866D01*
X106299570Y-124062887D01*
X106291092Y-124068119D01*
X104372020Y-125987190D01*
X104364408Y-126001131D01*
X103634357Y-126001131D01*
X103635592Y-125998869D01*
X103635461Y-125997034D01*
X103631210Y-125990420D01*
X101712374Y-124071585D01*
X101699581Y-124064599D01*
X101688827Y-124072464D01*
X101528037Y-124277527D01*
X101523902Y-124283476D01*
X101346440Y-124573068D01*
X101343019Y-124579447D01*
X101200016Y-124887522D01*
X101197356Y-124894241D01*
X101090711Y-125216707D01*
X101088834Y-125223711D01*
X101019961Y-125556288D01*
X101018904Y-125563449D01*
X100988712Y-125901735D01*
X100988484Y-125908987D01*
X100508000Y-125908987D01*
X100508000Y-123701048D01*
X102065132Y-123701048D01*
X102071527Y-123712316D01*
X103987190Y-125627980D01*
X104001131Y-125635592D01*
X104002966Y-125635461D01*
X104009580Y-125631210D01*
X105927074Y-123713716D01*
X105934466Y-123700179D01*
X105927679Y-123690479D01*
X105824476Y-123602335D01*
X105818704Y-123597953D01*
X105536796Y-123408519D01*
X105530575Y-123404839D01*
X105228757Y-123249060D01*
X105222146Y-123246116D01*
X104904439Y-123126065D01*
X104897513Y-123123894D01*
X104568112Y-123041155D01*
X104561005Y-123039799D01*
X104224278Y-122995468D01*
X104217036Y-122994937D01*
X103877467Y-122989602D01*
X103870205Y-122989906D01*
X103532256Y-123023638D01*
X103525108Y-123024770D01*
X103193263Y-123097124D01*
X103186285Y-123099072D01*
X102864960Y-123209086D01*
X102858253Y-123211823D01*
X102551707Y-123358039D01*
X102545349Y-123361534D01*
X102257654Y-123542005D01*
X102251731Y-123546214D01*
X102073601Y-123688923D01*
X102065132Y-123701048D01*
X100508000Y-123701048D01*
X100508000Y-122800000D01*
X133686884Y-122800000D01*
X133705314Y-123010655D01*
X133706738Y-123015968D01*
X133706738Y-123015970D01*
X133757945Y-123207075D01*
X133760044Y-123214910D01*
X133762366Y-123219891D01*
X133762367Y-123219892D01*
X133801327Y-123303441D01*
X133849411Y-123406558D01*
X133970699Y-123579776D01*
X134120224Y-123729301D01*
X134293442Y-123850589D01*
X134298420Y-123852910D01*
X134298423Y-123852912D01*
X134445110Y-123921313D01*
X134485090Y-123939956D01*
X134490398Y-123941378D01*
X134490400Y-123941379D01*
X134684030Y-123993262D01*
X134684032Y-123993262D01*
X134689345Y-123994686D01*
X134900000Y-124013116D01*
X135110655Y-123994686D01*
X135115968Y-123993262D01*
X135115970Y-123993262D01*
X135309600Y-123941379D01*
X135309602Y-123941378D01*
X135314910Y-123939956D01*
X135354890Y-123921313D01*
X135423450Y-123889343D01*
X174636775Y-123889343D01*
X174653381Y-124058699D01*
X174655605Y-124065384D01*
X174655605Y-124065385D01*
X174657960Y-124072464D01*
X174707094Y-124220167D01*
X174710741Y-124226189D01*
X174710742Y-124226191D01*
X174741833Y-124277527D01*
X174795246Y-124365723D01*
X174913455Y-124488132D01*
X175055846Y-124581310D01*
X175062450Y-124583766D01*
X175062452Y-124583767D01*
X175098844Y-124597301D01*
X175215341Y-124640626D01*
X175384015Y-124663132D01*
X175391026Y-124662494D01*
X175391030Y-124662494D01*
X175546462Y-124648348D01*
X175553483Y-124647709D01*
X175560185Y-124645531D01*
X175560187Y-124645531D01*
X175708623Y-124597301D01*
X175708626Y-124597300D01*
X175715322Y-124595124D01*
X175861490Y-124507990D01*
X175866584Y-124503139D01*
X175866588Y-124503136D01*
X175933833Y-124439099D01*
X175984721Y-124390639D01*
X176078891Y-124248902D01*
X176139319Y-124089825D01*
X176163001Y-123921313D01*
X176163299Y-123900000D01*
X176144331Y-123730892D01*
X176133938Y-123701048D01*
X194065132Y-123701048D01*
X194071527Y-123712316D01*
X195987190Y-125627980D01*
X196001131Y-125635592D01*
X196002966Y-125635461D01*
X196009580Y-125631210D01*
X197927074Y-123713716D01*
X197934466Y-123700179D01*
X197927679Y-123690479D01*
X197824476Y-123602335D01*
X197818704Y-123597953D01*
X197536796Y-123408519D01*
X197530575Y-123404839D01*
X197228757Y-123249060D01*
X197222146Y-123246116D01*
X196904439Y-123126065D01*
X196897513Y-123123894D01*
X196568112Y-123041155D01*
X196561005Y-123039799D01*
X196224278Y-122995468D01*
X196217036Y-122994937D01*
X195877467Y-122989602D01*
X195870205Y-122989906D01*
X195532256Y-123023638D01*
X195525108Y-123024770D01*
X195193263Y-123097124D01*
X195186285Y-123099072D01*
X194864960Y-123209086D01*
X194858253Y-123211823D01*
X194551707Y-123358039D01*
X194545349Y-123361534D01*
X194257654Y-123542005D01*
X194251731Y-123546214D01*
X194073601Y-123688923D01*
X194065132Y-123701048D01*
X176133938Y-123701048D01*
X176088368Y-123570189D01*
X176082383Y-123560610D01*
X176060420Y-123525464D01*
X175998192Y-123425879D01*
X175878286Y-123305132D01*
X175862039Y-123294821D01*
X175789931Y-123249060D01*
X175734608Y-123213951D01*
X175574300Y-123156868D01*
X175405329Y-123136720D01*
X175398326Y-123137456D01*
X175398325Y-123137456D01*
X175243101Y-123153770D01*
X175243097Y-123153771D01*
X175236093Y-123154507D01*
X175229422Y-123156778D01*
X175081673Y-123207075D01*
X175081670Y-123207076D01*
X175075003Y-123209346D01*
X175069005Y-123213036D01*
X175069003Y-123213037D01*
X174936065Y-123294821D01*
X174936063Y-123294823D01*
X174930066Y-123298512D01*
X174925033Y-123303441D01*
X174817732Y-123408519D01*
X174808486Y-123417573D01*
X174716304Y-123560610D01*
X174702712Y-123597953D01*
X174661088Y-123712316D01*
X174658103Y-123720516D01*
X174636775Y-123889343D01*
X135423450Y-123889343D01*
X135501577Y-123852912D01*
X135501580Y-123852910D01*
X135506558Y-123850589D01*
X135679776Y-123729301D01*
X135829301Y-123579776D01*
X135950589Y-123406558D01*
X135998674Y-123303441D01*
X136037633Y-123219892D01*
X136037634Y-123219891D01*
X136039956Y-123214910D01*
X136042056Y-123207075D01*
X136093262Y-123015970D01*
X136093262Y-123015968D01*
X136094686Y-123010655D01*
X136113116Y-122800000D01*
X136094686Y-122589345D01*
X136066665Y-122484768D01*
X136041379Y-122390400D01*
X136041378Y-122390398D01*
X136039956Y-122385090D01*
X135994744Y-122288132D01*
X135952912Y-122198423D01*
X135952910Y-122198420D01*
X135950589Y-122193442D01*
X135829301Y-122020224D01*
X135679776Y-121870699D01*
X135506558Y-121749411D01*
X135501580Y-121747090D01*
X135501577Y-121747088D01*
X135377742Y-121689343D01*
X163536775Y-121689343D01*
X163553381Y-121858699D01*
X163555605Y-121865384D01*
X163555605Y-121865385D01*
X163559619Y-121877452D01*
X163607094Y-122020167D01*
X163610741Y-122026189D01*
X163610742Y-122026191D01*
X163624497Y-122048902D01*
X163695246Y-122165723D01*
X163813455Y-122288132D01*
X163955846Y-122381310D01*
X163962450Y-122383766D01*
X163962452Y-122383767D01*
X163998844Y-122397301D01*
X164115341Y-122440626D01*
X164284015Y-122463132D01*
X164291026Y-122462494D01*
X164291030Y-122462494D01*
X164446462Y-122448348D01*
X164453483Y-122447709D01*
X164460185Y-122445531D01*
X164460187Y-122445531D01*
X164608623Y-122397301D01*
X164608626Y-122397300D01*
X164615322Y-122395124D01*
X164761490Y-122307990D01*
X164766584Y-122303139D01*
X164766588Y-122303136D01*
X164833833Y-122239099D01*
X164884721Y-122190639D01*
X164889900Y-122182845D01*
X164974990Y-122054773D01*
X164978891Y-122048902D01*
X165001515Y-121989343D01*
X178236775Y-121989343D01*
X178253381Y-122158699D01*
X178255605Y-122165384D01*
X178255605Y-122165385D01*
X178257402Y-122170787D01*
X178307094Y-122320167D01*
X178310741Y-122326189D01*
X178310742Y-122326191D01*
X178380047Y-122440626D01*
X178395246Y-122465723D01*
X178513455Y-122588132D01*
X178655846Y-122681310D01*
X178662450Y-122683766D01*
X178662452Y-122683767D01*
X178698844Y-122697301D01*
X178815341Y-122740626D01*
X178984015Y-122763132D01*
X178991026Y-122762494D01*
X178991030Y-122762494D01*
X179146462Y-122748348D01*
X179153483Y-122747709D01*
X179160185Y-122745531D01*
X179160187Y-122745531D01*
X179308623Y-122697301D01*
X179308626Y-122697300D01*
X179315322Y-122695124D01*
X179461490Y-122607990D01*
X179466584Y-122603139D01*
X179466588Y-122603136D01*
X179533833Y-122539099D01*
X179584721Y-122490639D01*
X179678891Y-122348902D01*
X179739319Y-122189825D01*
X179763001Y-122021313D01*
X179763299Y-122000000D01*
X179744331Y-121830892D01*
X179727676Y-121783064D01*
X179697378Y-121696062D01*
X179688368Y-121670189D01*
X179682383Y-121660610D01*
X179636612Y-121587363D01*
X179598192Y-121525879D01*
X179592867Y-121520516D01*
X179483248Y-121410129D01*
X179478286Y-121405132D01*
X179462039Y-121394821D01*
X179413808Y-121364213D01*
X179334608Y-121313951D01*
X179174300Y-121256868D01*
X179005329Y-121236720D01*
X178998326Y-121237456D01*
X178998325Y-121237456D01*
X178843101Y-121253770D01*
X178843097Y-121253771D01*
X178836093Y-121254507D01*
X178829422Y-121256778D01*
X178681673Y-121307075D01*
X178681670Y-121307076D01*
X178675003Y-121309346D01*
X178669005Y-121313036D01*
X178669003Y-121313037D01*
X178536065Y-121394821D01*
X178536063Y-121394823D01*
X178530066Y-121398512D01*
X178525033Y-121403441D01*
X178440125Y-121486590D01*
X178408486Y-121517573D01*
X178404675Y-121523487D01*
X178404673Y-121523489D01*
X178363509Y-121587363D01*
X178316304Y-121660610D01*
X178258103Y-121820516D01*
X178236775Y-121989343D01*
X165001515Y-121989343D01*
X165039319Y-121889825D01*
X165063001Y-121721313D01*
X165063299Y-121700000D01*
X165044331Y-121530892D01*
X165040845Y-121520880D01*
X165002277Y-121410129D01*
X164988368Y-121370189D01*
X164982383Y-121360610D01*
X164951748Y-121311586D01*
X164898192Y-121225879D01*
X164861911Y-121189343D01*
X165336775Y-121189343D01*
X165353381Y-121358699D01*
X165355605Y-121365384D01*
X165355605Y-121365385D01*
X165359418Y-121376846D01*
X165407094Y-121520167D01*
X165410741Y-121526189D01*
X165410742Y-121526191D01*
X165480717Y-121641732D01*
X165495246Y-121665723D01*
X165613455Y-121788132D01*
X165619351Y-121791990D01*
X165739631Y-121870699D01*
X165755846Y-121881310D01*
X165762450Y-121883766D01*
X165762452Y-121883767D01*
X165796459Y-121896414D01*
X165915341Y-121940626D01*
X166084015Y-121963132D01*
X166091026Y-121962494D01*
X166091030Y-121962494D01*
X166246462Y-121948348D01*
X166253483Y-121947709D01*
X166260185Y-121945531D01*
X166260187Y-121945531D01*
X166408623Y-121897301D01*
X166408626Y-121897300D01*
X166415322Y-121895124D01*
X166561490Y-121807990D01*
X166566584Y-121803139D01*
X166566588Y-121803136D01*
X166670731Y-121703961D01*
X166684721Y-121690639D01*
X166702279Y-121664213D01*
X166741729Y-121604835D01*
X166778891Y-121548902D01*
X166839319Y-121389825D01*
X166863001Y-121221313D01*
X166863299Y-121200000D01*
X166844331Y-121030892D01*
X166839748Y-121017730D01*
X166798719Y-120899913D01*
X166788368Y-120870189D01*
X166782383Y-120860610D01*
X166760420Y-120825464D01*
X166698192Y-120725879D01*
X166688870Y-120716491D01*
X166583248Y-120610129D01*
X166578286Y-120605132D01*
X166562039Y-120594821D01*
X166523406Y-120570304D01*
X166434608Y-120513951D01*
X166274300Y-120456868D01*
X166105329Y-120436720D01*
X166098326Y-120437456D01*
X166098325Y-120437456D01*
X165943101Y-120453770D01*
X165943097Y-120453771D01*
X165936093Y-120454507D01*
X165929422Y-120456778D01*
X165781673Y-120507075D01*
X165781670Y-120507076D01*
X165775003Y-120509346D01*
X165769005Y-120513036D01*
X165769003Y-120513037D01*
X165636065Y-120594821D01*
X165636063Y-120594823D01*
X165630066Y-120598512D01*
X165625033Y-120603441D01*
X165520196Y-120706106D01*
X165508486Y-120717573D01*
X165416304Y-120860610D01*
X165401999Y-120899913D01*
X165362169Y-121009346D01*
X165358103Y-121020516D01*
X165336775Y-121189343D01*
X164861911Y-121189343D01*
X164783248Y-121110129D01*
X164778286Y-121105132D01*
X164762039Y-121094821D01*
X164671398Y-121037299D01*
X164634608Y-121013951D01*
X164474300Y-120956868D01*
X164305329Y-120936720D01*
X164298326Y-120937456D01*
X164298325Y-120937456D01*
X164143101Y-120953770D01*
X164143097Y-120953771D01*
X164136093Y-120954507D01*
X164129422Y-120956778D01*
X163981673Y-121007075D01*
X163981670Y-121007076D01*
X163975003Y-121009346D01*
X163969005Y-121013036D01*
X163969003Y-121013037D01*
X163836065Y-121094821D01*
X163836063Y-121094823D01*
X163830066Y-121098512D01*
X163708486Y-121217573D01*
X163704675Y-121223487D01*
X163704673Y-121223489D01*
X163620121Y-121354687D01*
X163616304Y-121360610D01*
X163558103Y-121520516D01*
X163536775Y-121689343D01*
X135377742Y-121689343D01*
X135319892Y-121662367D01*
X135319891Y-121662366D01*
X135314910Y-121660044D01*
X135309602Y-121658622D01*
X135309600Y-121658621D01*
X135115970Y-121606738D01*
X135115968Y-121606738D01*
X135110655Y-121605314D01*
X134900000Y-121586884D01*
X134689345Y-121605314D01*
X134684032Y-121606738D01*
X134684030Y-121606738D01*
X134490400Y-121658621D01*
X134490398Y-121658622D01*
X134485090Y-121660044D01*
X134480109Y-121662366D01*
X134480108Y-121662367D01*
X134298423Y-121747088D01*
X134298420Y-121747090D01*
X134293442Y-121749411D01*
X134120224Y-121870699D01*
X133970699Y-122020224D01*
X133849411Y-122193442D01*
X133847090Y-122198420D01*
X133847088Y-122198423D01*
X133805256Y-122288132D01*
X133760044Y-122385090D01*
X133758622Y-122390398D01*
X133758621Y-122390400D01*
X133733335Y-122484768D01*
X133705314Y-122589345D01*
X133686884Y-122800000D01*
X100508000Y-122800000D01*
X100508000Y-120867943D01*
X117854775Y-120867943D01*
X117871381Y-121037299D01*
X117925094Y-121198767D01*
X117928741Y-121204789D01*
X117928742Y-121204791D01*
X117997141Y-121317730D01*
X118013246Y-121344323D01*
X118131455Y-121466732D01*
X118137351Y-121470590D01*
X118265996Y-121554773D01*
X118273846Y-121559910D01*
X118280450Y-121562366D01*
X118280452Y-121562367D01*
X118316844Y-121575901D01*
X118433341Y-121619226D01*
X118602015Y-121641732D01*
X118609026Y-121641094D01*
X118609030Y-121641094D01*
X118764462Y-121626948D01*
X118771483Y-121626309D01*
X118778185Y-121624131D01*
X118778187Y-121624131D01*
X118926623Y-121575901D01*
X118926626Y-121575900D01*
X118933322Y-121573724D01*
X119079490Y-121486590D01*
X119084584Y-121481739D01*
X119084588Y-121481736D01*
X119159782Y-121410129D01*
X119202721Y-121369239D01*
X119212390Y-121354687D01*
X119278949Y-121254507D01*
X119296891Y-121227502D01*
X119357319Y-121068425D01*
X119381001Y-120899913D01*
X119381299Y-120878600D01*
X119362331Y-120709492D01*
X119306368Y-120548789D01*
X119300383Y-120539210D01*
X119278420Y-120504064D01*
X119216192Y-120404479D01*
X119096286Y-120283732D01*
X119080039Y-120273421D01*
X119041406Y-120248904D01*
X118952608Y-120192551D01*
X118792300Y-120135468D01*
X118623329Y-120115320D01*
X118616326Y-120116056D01*
X118616325Y-120116056D01*
X118461101Y-120132370D01*
X118461097Y-120132371D01*
X118454093Y-120133107D01*
X118447422Y-120135378D01*
X118299673Y-120185675D01*
X118299670Y-120185676D01*
X118293003Y-120187946D01*
X118287005Y-120191636D01*
X118287003Y-120191637D01*
X118154065Y-120273421D01*
X118154063Y-120273423D01*
X118148066Y-120277112D01*
X118026486Y-120396173D01*
X118022675Y-120402087D01*
X118022673Y-120402089D01*
X117950582Y-120513951D01*
X117934304Y-120539210D01*
X117876103Y-120699116D01*
X117854775Y-120867943D01*
X100508000Y-120867943D01*
X100508000Y-117889343D01*
X157636775Y-117889343D01*
X157653381Y-118058699D01*
X157707094Y-118220167D01*
X157710741Y-118226189D01*
X157710742Y-118226191D01*
X157791316Y-118359233D01*
X157795246Y-118365723D01*
X157913455Y-118488132D01*
X157936850Y-118503441D01*
X157995099Y-118541558D01*
X158055846Y-118581310D01*
X158062450Y-118583766D01*
X158062452Y-118583767D01*
X158116752Y-118603961D01*
X158215341Y-118640626D01*
X158384015Y-118663132D01*
X158391026Y-118662494D01*
X158391030Y-118662494D01*
X158546462Y-118648348D01*
X158553483Y-118647709D01*
X158560185Y-118645531D01*
X158560187Y-118645531D01*
X158708623Y-118597301D01*
X158708626Y-118597300D01*
X158715322Y-118595124D01*
X158725020Y-118589343D01*
X162136775Y-118589343D01*
X162153381Y-118758699D01*
X162155605Y-118765384D01*
X162155605Y-118765385D01*
X162157203Y-118770189D01*
X162207094Y-118920167D01*
X162210741Y-118926189D01*
X162210742Y-118926191D01*
X162224497Y-118948902D01*
X162295246Y-119065723D01*
X162413455Y-119188132D01*
X162555846Y-119281310D01*
X162562450Y-119283766D01*
X162562452Y-119283767D01*
X162596459Y-119296414D01*
X162715341Y-119340626D01*
X162884015Y-119363132D01*
X162891026Y-119362494D01*
X162891030Y-119362494D01*
X163046462Y-119348348D01*
X163053483Y-119347709D01*
X163060185Y-119345531D01*
X163060187Y-119345531D01*
X163208623Y-119297301D01*
X163208626Y-119297300D01*
X163215322Y-119295124D01*
X163361490Y-119207990D01*
X163366584Y-119203139D01*
X163366588Y-119203136D01*
X163470731Y-119103961D01*
X163484721Y-119090639D01*
X163485582Y-119089343D01*
X178236775Y-119089343D01*
X178253381Y-119258699D01*
X178307094Y-119420167D01*
X178310741Y-119426189D01*
X178310742Y-119426191D01*
X178324497Y-119448902D01*
X178395246Y-119565723D01*
X178513455Y-119688132D01*
X178655846Y-119781310D01*
X178662450Y-119783766D01*
X178662452Y-119783767D01*
X178698844Y-119797301D01*
X178815341Y-119840626D01*
X178984015Y-119863132D01*
X178991026Y-119862494D01*
X178991030Y-119862494D01*
X179146462Y-119848348D01*
X179153483Y-119847709D01*
X179160185Y-119845531D01*
X179160187Y-119845531D01*
X179308623Y-119797301D01*
X179308626Y-119797300D01*
X179315322Y-119795124D01*
X179461490Y-119707990D01*
X179466584Y-119703139D01*
X179466588Y-119703136D01*
X179533833Y-119639099D01*
X179584721Y-119590639D01*
X179678891Y-119448902D01*
X179739319Y-119289825D01*
X179763001Y-119121313D01*
X179763299Y-119100000D01*
X179744331Y-118930892D01*
X179688368Y-118770189D01*
X179682383Y-118760610D01*
X179660420Y-118725464D01*
X179598192Y-118625879D01*
X179561911Y-118589343D01*
X179483248Y-118510129D01*
X179478286Y-118505132D01*
X179465947Y-118497301D01*
X179407113Y-118459964D01*
X179334608Y-118413951D01*
X179174300Y-118356868D01*
X179005329Y-118336720D01*
X178998326Y-118337456D01*
X178998325Y-118337456D01*
X178843101Y-118353770D01*
X178843097Y-118353771D01*
X178836093Y-118354507D01*
X178829422Y-118356778D01*
X178681673Y-118407075D01*
X178681670Y-118407076D01*
X178675003Y-118409346D01*
X178669005Y-118413036D01*
X178669003Y-118413037D01*
X178536065Y-118494821D01*
X178536063Y-118494823D01*
X178530066Y-118498512D01*
X178408486Y-118617573D01*
X178404675Y-118623487D01*
X178404673Y-118623489D01*
X178320121Y-118754687D01*
X178316304Y-118760610D01*
X178258103Y-118920516D01*
X178236775Y-119089343D01*
X163485582Y-119089343D01*
X163578891Y-118948902D01*
X163639319Y-118789825D01*
X163663001Y-118621313D01*
X163663299Y-118600000D01*
X163644331Y-118430892D01*
X163639748Y-118417730D01*
X163611537Y-118336720D01*
X163588368Y-118270189D01*
X163582383Y-118260610D01*
X163516247Y-118154773D01*
X163498192Y-118125879D01*
X163378286Y-118005132D01*
X163362039Y-117994821D01*
X163323406Y-117970304D01*
X163234608Y-117913951D01*
X163074300Y-117856868D01*
X162905329Y-117836720D01*
X162898326Y-117837456D01*
X162898325Y-117837456D01*
X162743101Y-117853770D01*
X162743097Y-117853771D01*
X162736093Y-117854507D01*
X162729422Y-117856778D01*
X162581673Y-117907075D01*
X162581670Y-117907076D01*
X162575003Y-117909346D01*
X162569005Y-117913036D01*
X162569003Y-117913037D01*
X162436065Y-117994821D01*
X162436063Y-117994823D01*
X162430066Y-117998512D01*
X162308486Y-118117573D01*
X162304675Y-118123487D01*
X162304673Y-118123489D01*
X162284512Y-118154773D01*
X162216304Y-118260610D01*
X162213894Y-118267232D01*
X162162169Y-118409346D01*
X162158103Y-118420516D01*
X162136775Y-118589343D01*
X158725020Y-118589343D01*
X158861490Y-118507990D01*
X158866589Y-118503134D01*
X158866592Y-118503132D01*
X158884934Y-118485665D01*
X158948058Y-118453171D01*
X159018729Y-118459964D01*
X159040821Y-118471478D01*
X159049948Y-118477451D01*
X159049952Y-118477453D01*
X159055846Y-118481310D01*
X159062450Y-118483766D01*
X159062452Y-118483767D01*
X159135593Y-118510968D01*
X159215341Y-118540626D01*
X159384015Y-118563132D01*
X159391026Y-118562494D01*
X159391030Y-118562494D01*
X159546462Y-118548348D01*
X159553483Y-118547709D01*
X159560185Y-118545531D01*
X159560187Y-118545531D01*
X159708623Y-118497301D01*
X159708626Y-118497300D01*
X159715322Y-118495124D01*
X159861490Y-118407990D01*
X159866584Y-118403139D01*
X159866588Y-118403136D01*
X159936331Y-118336720D01*
X159984721Y-118290639D01*
X160002279Y-118264213D01*
X160074990Y-118154773D01*
X160078891Y-118148902D01*
X160139319Y-117989825D01*
X160163001Y-117821313D01*
X160163299Y-117800000D01*
X160144331Y-117630892D01*
X160088368Y-117470189D01*
X159998192Y-117325879D01*
X159878286Y-117205132D01*
X159862039Y-117194821D01*
X159798514Y-117154507D01*
X159734608Y-117113951D01*
X159574300Y-117056868D01*
X159405329Y-117036720D01*
X159398326Y-117037456D01*
X159398325Y-117037456D01*
X159243101Y-117053770D01*
X159243097Y-117053771D01*
X159236093Y-117054507D01*
X159229422Y-117056778D01*
X159081673Y-117107075D01*
X159081670Y-117107076D01*
X159075003Y-117109346D01*
X159069005Y-117113036D01*
X159069003Y-117113037D01*
X158936065Y-117194821D01*
X158936063Y-117194823D01*
X158930066Y-117198512D01*
X158925032Y-117203442D01*
X158914991Y-117213274D01*
X158852325Y-117246644D01*
X158781566Y-117240836D01*
X158759320Y-117229634D01*
X158734608Y-117213951D01*
X158574300Y-117156868D01*
X158405329Y-117136720D01*
X158398326Y-117137456D01*
X158398325Y-117137456D01*
X158243101Y-117153770D01*
X158243097Y-117153771D01*
X158236093Y-117154507D01*
X158229422Y-117156778D01*
X158081673Y-117207075D01*
X158081670Y-117207076D01*
X158075003Y-117209346D01*
X158069005Y-117213036D01*
X158069003Y-117213037D01*
X157936065Y-117294821D01*
X157936063Y-117294823D01*
X157930066Y-117298512D01*
X157808486Y-117417573D01*
X157804675Y-117423487D01*
X157804673Y-117423489D01*
X157720121Y-117554687D01*
X157716304Y-117560610D01*
X157658103Y-117720516D01*
X157636775Y-117889343D01*
X100508000Y-117889343D01*
X100508000Y-116294669D01*
X101442001Y-116294669D01*
X101442371Y-116301490D01*
X101447895Y-116352352D01*
X101451521Y-116367604D01*
X101496676Y-116488054D01*
X101505214Y-116503649D01*
X101581715Y-116605724D01*
X101594276Y-116618285D01*
X101696351Y-116694786D01*
X101711946Y-116703324D01*
X101832394Y-116748478D01*
X101847649Y-116752105D01*
X101898514Y-116757631D01*
X101905328Y-116758000D01*
X102927885Y-116758000D01*
X102943124Y-116753525D01*
X102944329Y-116752135D01*
X102946000Y-116744452D01*
X102946000Y-116739884D01*
X103454000Y-116739884D01*
X103458475Y-116755123D01*
X103459865Y-116756328D01*
X103467548Y-116757999D01*
X104494669Y-116757999D01*
X104501490Y-116757629D01*
X104552352Y-116752105D01*
X104567604Y-116748479D01*
X104688054Y-116703324D01*
X104703649Y-116694786D01*
X104805724Y-116618285D01*
X104818285Y-116605724D01*
X104894786Y-116503649D01*
X104903324Y-116488054D01*
X104948478Y-116367606D01*
X104952105Y-116352351D01*
X104957631Y-116301486D01*
X104958000Y-116294672D01*
X104958000Y-115289343D01*
X137136775Y-115289343D01*
X137153381Y-115458699D01*
X137207094Y-115620167D01*
X137210741Y-115626189D01*
X137210742Y-115626191D01*
X137282771Y-115745124D01*
X137295246Y-115765723D01*
X137413455Y-115888132D01*
X137555846Y-115981310D01*
X137562450Y-115983766D01*
X137562452Y-115983767D01*
X137598844Y-115997301D01*
X137715341Y-116040626D01*
X137884015Y-116063132D01*
X137891026Y-116062494D01*
X137891030Y-116062494D01*
X138046462Y-116048348D01*
X138053483Y-116047709D01*
X138060185Y-116045531D01*
X138060187Y-116045531D01*
X138208623Y-115997301D01*
X138208626Y-115997300D01*
X138215322Y-115995124D01*
X138361490Y-115907990D01*
X138366584Y-115903139D01*
X138366588Y-115903136D01*
X138461771Y-115812494D01*
X138484721Y-115790639D01*
X138578891Y-115648902D01*
X138639319Y-115489825D01*
X138663001Y-115321313D01*
X138663299Y-115300000D01*
X138644331Y-115130892D01*
X138632325Y-115096414D01*
X138590686Y-114976846D01*
X138588368Y-114970189D01*
X138582383Y-114960610D01*
X138560270Y-114925223D01*
X138537849Y-114889343D01*
X149536775Y-114889343D01*
X149553381Y-115058699D01*
X149607094Y-115220167D01*
X149610741Y-115226189D01*
X149610742Y-115226191D01*
X149657842Y-115303961D01*
X149695246Y-115365723D01*
X149813455Y-115488132D01*
X149955846Y-115581310D01*
X149962450Y-115583766D01*
X149962452Y-115583767D01*
X149998844Y-115597301D01*
X150115341Y-115640626D01*
X150284015Y-115663132D01*
X150291026Y-115662494D01*
X150291030Y-115662494D01*
X150446462Y-115648348D01*
X150453483Y-115647709D01*
X150460185Y-115645531D01*
X150460187Y-115645531D01*
X150608623Y-115597301D01*
X150608626Y-115597300D01*
X150615322Y-115595124D01*
X150761490Y-115507990D01*
X150766584Y-115503139D01*
X150766588Y-115503136D01*
X150833833Y-115439099D01*
X150884721Y-115390639D01*
X150894321Y-115376191D01*
X150942310Y-115303961D01*
X150978891Y-115248902D01*
X151039319Y-115089825D01*
X151063001Y-114921313D01*
X151063299Y-114900000D01*
X151044922Y-114736161D01*
X151057206Y-114666235D01*
X151105345Y-114614051D01*
X151144800Y-114598690D01*
X151146470Y-114598347D01*
X151153483Y-114597709D01*
X151160178Y-114595534D01*
X151160181Y-114595533D01*
X151308623Y-114547301D01*
X151308626Y-114547300D01*
X151315322Y-114545124D01*
X151461490Y-114457990D01*
X151466584Y-114453139D01*
X151466588Y-114453136D01*
X151537573Y-114385537D01*
X151556711Y-114367312D01*
X151619835Y-114334821D01*
X151690506Y-114341614D01*
X151746285Y-114385537D01*
X151751378Y-114393288D01*
X151790563Y-114457990D01*
X151795246Y-114465723D01*
X151913455Y-114588132D01*
X152055846Y-114681310D01*
X152062450Y-114683766D01*
X152062452Y-114683767D01*
X152208733Y-114738169D01*
X152208737Y-114738170D01*
X152215341Y-114740626D01*
X152220212Y-114741276D01*
X152280741Y-114776738D01*
X152303379Y-114810254D01*
X152304869Y-114813478D01*
X152307094Y-114820167D01*
X152395246Y-114965723D01*
X152513455Y-115088132D01*
X152655846Y-115181310D01*
X152662450Y-115183766D01*
X152662452Y-115183767D01*
X152698844Y-115197301D01*
X152815341Y-115240626D01*
X152984015Y-115263132D01*
X152991026Y-115262494D01*
X152991030Y-115262494D01*
X153146462Y-115248348D01*
X153153483Y-115247709D01*
X153160185Y-115245531D01*
X153160187Y-115245531D01*
X153308623Y-115197301D01*
X153308626Y-115197300D01*
X153315322Y-115195124D01*
X153417966Y-115133936D01*
X153486720Y-115116236D01*
X153554130Y-115138518D01*
X153598792Y-115193706D01*
X153603343Y-115208312D01*
X153603381Y-115208699D01*
X153604684Y-115212616D01*
X153604689Y-115212632D01*
X153632443Y-115296062D01*
X153657094Y-115370167D01*
X153660741Y-115376189D01*
X153660742Y-115376191D01*
X153740563Y-115507990D01*
X153745246Y-115515723D01*
X153863455Y-115638132D01*
X154005846Y-115731310D01*
X154012450Y-115733766D01*
X154012452Y-115733767D01*
X154048844Y-115747301D01*
X154165341Y-115790626D01*
X154334015Y-115813132D01*
X154341026Y-115812494D01*
X154341030Y-115812494D01*
X154496462Y-115798348D01*
X154503483Y-115797709D01*
X154510185Y-115795531D01*
X154510187Y-115795531D01*
X154658623Y-115747301D01*
X154658626Y-115747300D01*
X154665322Y-115745124D01*
X154811490Y-115657990D01*
X154816584Y-115653139D01*
X154816588Y-115653136D01*
X154896063Y-115577452D01*
X154934721Y-115540639D01*
X154954019Y-115511594D01*
X155024990Y-115404773D01*
X155028891Y-115398902D01*
X155085454Y-115250000D01*
X167336884Y-115250000D01*
X167355314Y-115460655D01*
X167356738Y-115465968D01*
X167356738Y-115465970D01*
X167405755Y-115648902D01*
X167410044Y-115664910D01*
X167412366Y-115669891D01*
X167412367Y-115669892D01*
X167478864Y-115812494D01*
X167499411Y-115856558D01*
X167620699Y-116029776D01*
X167770224Y-116179301D01*
X167943442Y-116300589D01*
X167948420Y-116302910D01*
X167948423Y-116302912D01*
X168054448Y-116352352D01*
X168135090Y-116389956D01*
X168140398Y-116391378D01*
X168140400Y-116391379D01*
X168334030Y-116443262D01*
X168334032Y-116443262D01*
X168339345Y-116444686D01*
X168550000Y-116463116D01*
X168760655Y-116444686D01*
X168765968Y-116443262D01*
X168765970Y-116443262D01*
X168959600Y-116391379D01*
X168959602Y-116391378D01*
X168964910Y-116389956D01*
X169045552Y-116352352D01*
X169151577Y-116302912D01*
X169151580Y-116302910D01*
X169156558Y-116300589D01*
X169329776Y-116179301D01*
X169479301Y-116029776D01*
X169600589Y-115856558D01*
X169621137Y-115812494D01*
X169687633Y-115669892D01*
X169687634Y-115669891D01*
X169689956Y-115664910D01*
X169694246Y-115648902D01*
X169743262Y-115465970D01*
X169743262Y-115465968D01*
X169744686Y-115460655D01*
X169763116Y-115250000D01*
X171986884Y-115250000D01*
X172005314Y-115460655D01*
X172006738Y-115465968D01*
X172006738Y-115465970D01*
X172055755Y-115648902D01*
X172060044Y-115664910D01*
X172062366Y-115669891D01*
X172062367Y-115669892D01*
X172128864Y-115812494D01*
X172149411Y-115856558D01*
X172270699Y-116029776D01*
X172420224Y-116179301D01*
X172593442Y-116300589D01*
X172598420Y-116302910D01*
X172598423Y-116302912D01*
X172704448Y-116352352D01*
X172785090Y-116389956D01*
X172790398Y-116391378D01*
X172790400Y-116391379D01*
X172984030Y-116443262D01*
X172984032Y-116443262D01*
X172989345Y-116444686D01*
X173200000Y-116463116D01*
X173410655Y-116444686D01*
X173415968Y-116443262D01*
X173415970Y-116443262D01*
X173609600Y-116391379D01*
X173609602Y-116391378D01*
X173614910Y-116389956D01*
X173695552Y-116352352D01*
X173801577Y-116302912D01*
X173801580Y-116302910D01*
X173806558Y-116300589D01*
X173979776Y-116179301D01*
X174129301Y-116029776D01*
X174250589Y-115856558D01*
X174271137Y-115812494D01*
X174337633Y-115669892D01*
X174337634Y-115669891D01*
X174339956Y-115664910D01*
X174344246Y-115648902D01*
X174393262Y-115465970D01*
X174393262Y-115465968D01*
X174394686Y-115460655D01*
X174413116Y-115250000D01*
X174394686Y-115039345D01*
X174381635Y-114990639D01*
X174341379Y-114840400D01*
X174341378Y-114840398D01*
X174339956Y-114835090D01*
X174335661Y-114825879D01*
X174252912Y-114648423D01*
X174252910Y-114648420D01*
X174250589Y-114643442D01*
X174129301Y-114470224D01*
X173979776Y-114320699D01*
X173806558Y-114199411D01*
X173801580Y-114197090D01*
X173801577Y-114197088D01*
X173619892Y-114112367D01*
X173619891Y-114112366D01*
X173614910Y-114110044D01*
X173609602Y-114108622D01*
X173609600Y-114108621D01*
X173415970Y-114056738D01*
X173415968Y-114056738D01*
X173410655Y-114055314D01*
X173200000Y-114036884D01*
X172989345Y-114055314D01*
X172984032Y-114056738D01*
X172984030Y-114056738D01*
X172790400Y-114108621D01*
X172790398Y-114108622D01*
X172785090Y-114110044D01*
X172780109Y-114112366D01*
X172780108Y-114112367D01*
X172598423Y-114197088D01*
X172598420Y-114197090D01*
X172593442Y-114199411D01*
X172420224Y-114320699D01*
X172270699Y-114470224D01*
X172149411Y-114643442D01*
X172147090Y-114648420D01*
X172147088Y-114648423D01*
X172064339Y-114825879D01*
X172060044Y-114835090D01*
X172058622Y-114840398D01*
X172058621Y-114840400D01*
X172018365Y-114990639D01*
X172005314Y-115039345D01*
X171986884Y-115250000D01*
X169763116Y-115250000D01*
X169744686Y-115039345D01*
X169731635Y-114990639D01*
X169691379Y-114840400D01*
X169691378Y-114840398D01*
X169689956Y-114835090D01*
X169685661Y-114825879D01*
X169602912Y-114648423D01*
X169602910Y-114648420D01*
X169600589Y-114643442D01*
X169479301Y-114470224D01*
X169329776Y-114320699D01*
X169156558Y-114199411D01*
X169151580Y-114197090D01*
X169151577Y-114197088D01*
X168969892Y-114112367D01*
X168969891Y-114112366D01*
X168964910Y-114110044D01*
X168959602Y-114108622D01*
X168959600Y-114108621D01*
X168765970Y-114056738D01*
X168765968Y-114056738D01*
X168760655Y-114055314D01*
X168550000Y-114036884D01*
X168339345Y-114055314D01*
X168334032Y-114056738D01*
X168334030Y-114056738D01*
X168140400Y-114108621D01*
X168140398Y-114108622D01*
X168135090Y-114110044D01*
X168130109Y-114112366D01*
X168130108Y-114112367D01*
X167948423Y-114197088D01*
X167948420Y-114197090D01*
X167943442Y-114199411D01*
X167770224Y-114320699D01*
X167620699Y-114470224D01*
X167499411Y-114643442D01*
X167497090Y-114648420D01*
X167497088Y-114648423D01*
X167414339Y-114825879D01*
X167410044Y-114835090D01*
X167408622Y-114840398D01*
X167408621Y-114840400D01*
X167368365Y-114990639D01*
X167355314Y-115039345D01*
X167336884Y-115250000D01*
X155085454Y-115250000D01*
X155089319Y-115239825D01*
X155113001Y-115071313D01*
X155113118Y-115062964D01*
X155113244Y-115053961D01*
X155113244Y-115053955D01*
X155113299Y-115050000D01*
X155094331Y-114880892D01*
X155038368Y-114720189D01*
X155034437Y-114713897D01*
X154993523Y-114648423D01*
X154948192Y-114575879D01*
X154929314Y-114556868D01*
X154833248Y-114460129D01*
X154828286Y-114455132D01*
X154815947Y-114447301D01*
X154761342Y-114412648D01*
X154684608Y-114363951D01*
X154524300Y-114306868D01*
X154355329Y-114286720D01*
X154348326Y-114287456D01*
X154348325Y-114287456D01*
X154193101Y-114303770D01*
X154193097Y-114303771D01*
X154186093Y-114304507D01*
X154179422Y-114306778D01*
X154031673Y-114357075D01*
X154031670Y-114357076D01*
X154025003Y-114359346D01*
X154019004Y-114363036D01*
X154019001Y-114363038D01*
X153982430Y-114385537D01*
X153937971Y-114412889D01*
X153933616Y-114415568D01*
X153865115Y-114434227D01*
X153797401Y-114412889D01*
X153751972Y-114358329D01*
X153745026Y-114337091D01*
X153744331Y-114330892D01*
X153688368Y-114170189D01*
X153677164Y-114152258D01*
X153650785Y-114110044D01*
X153598192Y-114025879D01*
X153575172Y-114002697D01*
X153505806Y-113932845D01*
X153478286Y-113905132D01*
X153334608Y-113813951D01*
X153174300Y-113756868D01*
X153174755Y-113755590D01*
X153146110Y-113739343D01*
X162136775Y-113739343D01*
X162153381Y-113908699D01*
X162207094Y-114070167D01*
X162210741Y-114076189D01*
X162210742Y-114076191D01*
X162290009Y-114207075D01*
X162295246Y-114215723D01*
X162413455Y-114338132D01*
X162452911Y-114363951D01*
X162534854Y-114417573D01*
X162555846Y-114431310D01*
X162562450Y-114433766D01*
X162562452Y-114433767D01*
X162635594Y-114460968D01*
X162715341Y-114490626D01*
X162884015Y-114513132D01*
X162891026Y-114512494D01*
X162891030Y-114512494D01*
X163046462Y-114498348D01*
X163053483Y-114497709D01*
X163060185Y-114495531D01*
X163060187Y-114495531D01*
X163208623Y-114447301D01*
X163208626Y-114447300D01*
X163215322Y-114445124D01*
X163361490Y-114357990D01*
X163366584Y-114353139D01*
X163366588Y-114353136D01*
X163440337Y-114282905D01*
X163484721Y-114240639D01*
X163507745Y-114205986D01*
X163557803Y-114130642D01*
X163578891Y-114098902D01*
X163639319Y-113939825D01*
X163663001Y-113771313D01*
X163663299Y-113750000D01*
X163644331Y-113580892D01*
X163588368Y-113420189D01*
X163582383Y-113410610D01*
X163552412Y-113362648D01*
X163498192Y-113275879D01*
X163479314Y-113256868D01*
X163440100Y-113217380D01*
X163378286Y-113155132D01*
X163362039Y-113144821D01*
X163298158Y-113104281D01*
X163234608Y-113063951D01*
X163074300Y-113006868D01*
X162905329Y-112986720D01*
X162898326Y-112987456D01*
X162898325Y-112987456D01*
X162743101Y-113003770D01*
X162743097Y-113003771D01*
X162736093Y-113004507D01*
X162729158Y-113006868D01*
X162581673Y-113057075D01*
X162581670Y-113057076D01*
X162575003Y-113059346D01*
X162569005Y-113063036D01*
X162569003Y-113063037D01*
X162436065Y-113144821D01*
X162436063Y-113144823D01*
X162430066Y-113148512D01*
X162394651Y-113183193D01*
X162317008Y-113259228D01*
X162308486Y-113267573D01*
X162304675Y-113273487D01*
X162304673Y-113273489D01*
X162222267Y-113401357D01*
X162216304Y-113410610D01*
X162205992Y-113438943D01*
X162174350Y-113525879D01*
X162158103Y-113570516D01*
X162136775Y-113739343D01*
X153146110Y-113739343D01*
X153119588Y-113724300D01*
X153094140Y-113682995D01*
X153093727Y-113683193D01*
X153091855Y-113679286D01*
X153091121Y-113678094D01*
X153088368Y-113670189D01*
X153084437Y-113663897D01*
X153032568Y-113580892D01*
X152998192Y-113525879D01*
X152878286Y-113405132D01*
X152734608Y-113313951D01*
X152574300Y-113256868D01*
X152574755Y-113255590D01*
X152519588Y-113224300D01*
X152494140Y-113182995D01*
X152493727Y-113183193D01*
X152491855Y-113179286D01*
X152491121Y-113178094D01*
X152488368Y-113170189D01*
X152481593Y-113159346D01*
X152457023Y-113120027D01*
X152437887Y-113051658D01*
X152458752Y-112983797D01*
X152499359Y-112945028D01*
X152555444Y-112911594D01*
X152561490Y-112907990D01*
X152566584Y-112903139D01*
X152566588Y-112903136D01*
X152656411Y-112817598D01*
X152684721Y-112790639D01*
X152778891Y-112648902D01*
X152839319Y-112489825D01*
X152863001Y-112321313D01*
X152863299Y-112300000D01*
X152844331Y-112130892D01*
X152788368Y-111970189D01*
X152782383Y-111960610D01*
X152741704Y-111895512D01*
X152698192Y-111825879D01*
X152578286Y-111705132D01*
X152562039Y-111694821D01*
X152457073Y-111628208D01*
X152434608Y-111613951D01*
X152274300Y-111556868D01*
X152105329Y-111536720D01*
X152098326Y-111537456D01*
X152098325Y-111537456D01*
X151943101Y-111553770D01*
X151943097Y-111553771D01*
X151936093Y-111554507D01*
X151929422Y-111556778D01*
X151781673Y-111607075D01*
X151781670Y-111607076D01*
X151775003Y-111609346D01*
X151769005Y-111613036D01*
X151769003Y-111613037D01*
X151636065Y-111694821D01*
X151636063Y-111694823D01*
X151630066Y-111698512D01*
X151590216Y-111737536D01*
X151522466Y-111803883D01*
X151508486Y-111817573D01*
X151504675Y-111823487D01*
X151504673Y-111823489D01*
X151456072Y-111898902D01*
X151416304Y-111960610D01*
X151358103Y-112120516D01*
X151336775Y-112289343D01*
X151353381Y-112458699D01*
X151407094Y-112620167D01*
X151444183Y-112681408D01*
X151462361Y-112750035D01*
X151440551Y-112817598D01*
X151402429Y-112853994D01*
X151330066Y-112898512D01*
X151208486Y-113017573D01*
X151204673Y-113023489D01*
X151204671Y-113023492D01*
X151195255Y-113038102D01*
X151141539Y-113084526D01*
X151074427Y-113094959D01*
X151051325Y-113092204D01*
X151005329Y-113086720D01*
X150998326Y-113087456D01*
X150998325Y-113087456D01*
X150843101Y-113103770D01*
X150843097Y-113103771D01*
X150836093Y-113104507D01*
X150829422Y-113106778D01*
X150681673Y-113157075D01*
X150681670Y-113157076D01*
X150675003Y-113159346D01*
X150669005Y-113163036D01*
X150669003Y-113163037D01*
X150536065Y-113244821D01*
X150536063Y-113244823D01*
X150530066Y-113248512D01*
X150408486Y-113367573D01*
X150404675Y-113373487D01*
X150404673Y-113373489D01*
X150359278Y-113443928D01*
X150316304Y-113510610D01*
X150288176Y-113587891D01*
X150271978Y-113632396D01*
X150258103Y-113670516D01*
X150236775Y-113839343D01*
X150253381Y-114008699D01*
X150252327Y-114008802D01*
X150247423Y-114073089D01*
X150204607Y-114129723D01*
X150149723Y-114151090D01*
X150149980Y-114152258D01*
X150143101Y-114153770D01*
X150136093Y-114154507D01*
X150129422Y-114156778D01*
X149981673Y-114207075D01*
X149981670Y-114207076D01*
X149975003Y-114209346D01*
X149969005Y-114213036D01*
X149969003Y-114213037D01*
X149836065Y-114294821D01*
X149836063Y-114294823D01*
X149830066Y-114298512D01*
X149708486Y-114417573D01*
X149704675Y-114423487D01*
X149704673Y-114423489D01*
X149655365Y-114500000D01*
X149616304Y-114560610D01*
X149596853Y-114614051D01*
X149561884Y-114710129D01*
X149558103Y-114720516D01*
X149536775Y-114889343D01*
X138537849Y-114889343D01*
X138498192Y-114825879D01*
X138378286Y-114705132D01*
X138362039Y-114694821D01*
X138281078Y-114643442D01*
X138234608Y-114613951D01*
X138074300Y-114556868D01*
X137905329Y-114536720D01*
X137898326Y-114537456D01*
X137898325Y-114537456D01*
X137743101Y-114553770D01*
X137743097Y-114553771D01*
X137736093Y-114554507D01*
X137729422Y-114556778D01*
X137581673Y-114607075D01*
X137581670Y-114607076D01*
X137575003Y-114609346D01*
X137569005Y-114613036D01*
X137569003Y-114613037D01*
X137436065Y-114694821D01*
X137436063Y-114694823D01*
X137430066Y-114698512D01*
X137308486Y-114817573D01*
X137304675Y-114823487D01*
X137304673Y-114823489D01*
X137220121Y-114954687D01*
X137216304Y-114960610D01*
X137158103Y-115120516D01*
X137136775Y-115289343D01*
X104958000Y-115289343D01*
X104958000Y-115272115D01*
X104953525Y-115256876D01*
X104952135Y-115255671D01*
X104944452Y-115254000D01*
X103472115Y-115254000D01*
X103456876Y-115258475D01*
X103455671Y-115259865D01*
X103454000Y-115267548D01*
X103454000Y-116739884D01*
X102946000Y-116739884D01*
X102946000Y-115272115D01*
X102941525Y-115256876D01*
X102940135Y-115255671D01*
X102932452Y-115254000D01*
X101460116Y-115254000D01*
X101444877Y-115258475D01*
X101443672Y-115259865D01*
X101442001Y-115267548D01*
X101442001Y-116294669D01*
X100508000Y-116294669D01*
X100508000Y-114727885D01*
X101442000Y-114727885D01*
X101446475Y-114743124D01*
X101447865Y-114744329D01*
X101455548Y-114746000D01*
X102927885Y-114746000D01*
X102943124Y-114741525D01*
X102944329Y-114740135D01*
X102946000Y-114732452D01*
X102946000Y-114727885D01*
X103454000Y-114727885D01*
X103458475Y-114743124D01*
X103459865Y-114744329D01*
X103467548Y-114746000D01*
X104939884Y-114746000D01*
X104955123Y-114741525D01*
X104956328Y-114740135D01*
X104957999Y-114732452D01*
X104957999Y-113810134D01*
X119729500Y-113810134D01*
X119736255Y-113872316D01*
X119787385Y-114008705D01*
X119874739Y-114125261D01*
X119991295Y-114212615D01*
X120127684Y-114263745D01*
X120189866Y-114270500D01*
X121810134Y-114270500D01*
X121872316Y-114263745D01*
X122008705Y-114212615D01*
X122125261Y-114125261D01*
X122212615Y-114008705D01*
X122263745Y-113872316D01*
X122267306Y-113839538D01*
X122294549Y-113773976D01*
X122352912Y-113733550D01*
X122423866Y-113731096D01*
X122484884Y-113767392D01*
X122495777Y-113780869D01*
X122523023Y-113819781D01*
X122680219Y-113976977D01*
X122684727Y-113980134D01*
X122684730Y-113980136D01*
X122735794Y-114015891D01*
X122862323Y-114104488D01*
X122867305Y-114106811D01*
X122867310Y-114106814D01*
X123003219Y-114170189D01*
X123063804Y-114198440D01*
X123069112Y-114199862D01*
X123069114Y-114199863D01*
X123128469Y-114215767D01*
X123278537Y-114255978D01*
X123500000Y-114275353D01*
X123721463Y-114255978D01*
X123871531Y-114215767D01*
X123930886Y-114199863D01*
X123930888Y-114199862D01*
X123936196Y-114198440D01*
X123996781Y-114170189D01*
X124132690Y-114106814D01*
X124132695Y-114106811D01*
X124137677Y-114104488D01*
X124264206Y-114015891D01*
X124315270Y-113980136D01*
X124315273Y-113980134D01*
X124319781Y-113976977D01*
X124476977Y-113819781D01*
X124481060Y-113813951D01*
X124601331Y-113642185D01*
X124601332Y-113642183D01*
X124604488Y-113637676D01*
X124606811Y-113632694D01*
X124606814Y-113632689D01*
X124631391Y-113579982D01*
X124678308Y-113526697D01*
X124746585Y-113507236D01*
X124814545Y-113527778D01*
X124859781Y-113579982D01*
X124886231Y-113636705D01*
X124886234Y-113636710D01*
X124888557Y-113641692D01*
X124952036Y-113732349D01*
X125013257Y-113819781D01*
X125016871Y-113824943D01*
X125175057Y-113983129D01*
X125179565Y-113986286D01*
X125179568Y-113986288D01*
X125221846Y-114015891D01*
X125358308Y-114111443D01*
X125363290Y-114113766D01*
X125363295Y-114113769D01*
X125445836Y-114152258D01*
X125561057Y-114205986D01*
X125777143Y-114263887D01*
X126000000Y-114283384D01*
X126222857Y-114263887D01*
X126438943Y-114205986D01*
X126554164Y-114152258D01*
X126636705Y-114113769D01*
X126636710Y-114113766D01*
X126641692Y-114111443D01*
X126778154Y-114015891D01*
X126820432Y-113986288D01*
X126820435Y-113986286D01*
X126824943Y-113983129D01*
X126983129Y-113824943D01*
X126986744Y-113819781D01*
X127047964Y-113732349D01*
X127111443Y-113641692D01*
X127113766Y-113636710D01*
X127113769Y-113636705D01*
X127172567Y-113510610D01*
X127205986Y-113438943D01*
X127263887Y-113222857D01*
X127283384Y-113000000D01*
X127263887Y-112777143D01*
X127205986Y-112561057D01*
X127140219Y-112420018D01*
X127113769Y-112363295D01*
X127113766Y-112363290D01*
X127111443Y-112358308D01*
X127022518Y-112231310D01*
X126986288Y-112179568D01*
X126986286Y-112179565D01*
X126983129Y-112175057D01*
X126824943Y-112016871D01*
X126820435Y-112013714D01*
X126820432Y-112013712D01*
X126736135Y-111954687D01*
X126641692Y-111888557D01*
X126636710Y-111886234D01*
X126636705Y-111886231D01*
X126507278Y-111825879D01*
X126438943Y-111794014D01*
X126222857Y-111736113D01*
X126000000Y-111716616D01*
X125777143Y-111736113D01*
X125561057Y-111794014D01*
X125492722Y-111825879D01*
X125363295Y-111886231D01*
X125363290Y-111886234D01*
X125358308Y-111888557D01*
X125263865Y-111954687D01*
X125179568Y-112013712D01*
X125179565Y-112013714D01*
X125175057Y-112016871D01*
X125016871Y-112175057D01*
X125013714Y-112179565D01*
X125013712Y-112179568D01*
X124977482Y-112231310D01*
X124888557Y-112358308D01*
X124886234Y-112363290D01*
X124886231Y-112363295D01*
X124859781Y-112420018D01*
X124812863Y-112473303D01*
X124744586Y-112492764D01*
X124676626Y-112472222D01*
X124631391Y-112420018D01*
X124606814Y-112367311D01*
X124606811Y-112367306D01*
X124604488Y-112362324D01*
X124601331Y-112357815D01*
X124480136Y-112184730D01*
X124480134Y-112184727D01*
X124476977Y-112180219D01*
X124319781Y-112023023D01*
X124315273Y-112019866D01*
X124315270Y-112019864D01*
X124222187Y-111954687D01*
X124137677Y-111895512D01*
X124132695Y-111893189D01*
X124132690Y-111893186D01*
X123941178Y-111803883D01*
X123941177Y-111803882D01*
X123936196Y-111801560D01*
X123930888Y-111800138D01*
X123930886Y-111800137D01*
X123865051Y-111782497D01*
X123721463Y-111744022D01*
X123500000Y-111724647D01*
X123278537Y-111744022D01*
X123134949Y-111782497D01*
X123069114Y-111800137D01*
X123069112Y-111800138D01*
X123063804Y-111801560D01*
X123058823Y-111803882D01*
X123058822Y-111803883D01*
X122867311Y-111893186D01*
X122867306Y-111893189D01*
X122862324Y-111895512D01*
X122857817Y-111898668D01*
X122857815Y-111898669D01*
X122684730Y-112019864D01*
X122684727Y-112019866D01*
X122680219Y-112023023D01*
X122523023Y-112180219D01*
X122495781Y-112219124D01*
X122440326Y-112263452D01*
X122369707Y-112270762D01*
X122306346Y-112238731D01*
X122270361Y-112177530D01*
X122267306Y-112160462D01*
X122264880Y-112138132D01*
X122263745Y-112127684D01*
X122212615Y-111991295D01*
X122125261Y-111874739D01*
X122008705Y-111787385D01*
X121872316Y-111736255D01*
X121810134Y-111729500D01*
X120189866Y-111729500D01*
X120127684Y-111736255D01*
X119991295Y-111787385D01*
X119874739Y-111874739D01*
X119787385Y-111991295D01*
X119736255Y-112127684D01*
X119729500Y-112189866D01*
X119729500Y-113810134D01*
X104957999Y-113810134D01*
X104957999Y-113705331D01*
X104957629Y-113698510D01*
X104952105Y-113647648D01*
X104948479Y-113632396D01*
X104903324Y-113511946D01*
X104894786Y-113496351D01*
X104818285Y-113394276D01*
X104805724Y-113381715D01*
X104703649Y-113305214D01*
X104688054Y-113296676D01*
X104567606Y-113251522D01*
X104552351Y-113247895D01*
X104501486Y-113242369D01*
X104494672Y-113242000D01*
X103472115Y-113242000D01*
X103456876Y-113246475D01*
X103455671Y-113247865D01*
X103454000Y-113255548D01*
X103454000Y-114727885D01*
X102946000Y-114727885D01*
X102946000Y-113260116D01*
X102941525Y-113244877D01*
X102940135Y-113243672D01*
X102932452Y-113242001D01*
X101905331Y-113242001D01*
X101898510Y-113242371D01*
X101847648Y-113247895D01*
X101832396Y-113251521D01*
X101711946Y-113296676D01*
X101696351Y-113305214D01*
X101594276Y-113381715D01*
X101581715Y-113394276D01*
X101505214Y-113496351D01*
X101496676Y-113511946D01*
X101451522Y-113632394D01*
X101447895Y-113647649D01*
X101442369Y-113698514D01*
X101442000Y-113705328D01*
X101442000Y-114727885D01*
X100508000Y-114727885D01*
X100508000Y-109819690D01*
X101437173Y-109819690D01*
X101437397Y-109824356D01*
X101437397Y-109824362D01*
X101439390Y-109865851D01*
X101449713Y-110080759D01*
X101500704Y-110337107D01*
X101589026Y-110583103D01*
X101591242Y-110587227D01*
X101661168Y-110717366D01*
X101712737Y-110813342D01*
X101715532Y-110817085D01*
X101715534Y-110817088D01*
X101866330Y-111019028D01*
X101866335Y-111019034D01*
X101869122Y-111022766D01*
X101872431Y-111026046D01*
X101872436Y-111026052D01*
X102051426Y-111203486D01*
X102054743Y-111206774D01*
X102058505Y-111209532D01*
X102058508Y-111209535D01*
X102261750Y-111358558D01*
X102265524Y-111361325D01*
X102269667Y-111363505D01*
X102269669Y-111363506D01*
X102492684Y-111480840D01*
X102492689Y-111480842D01*
X102496834Y-111483023D01*
X102640540Y-111533208D01*
X102738353Y-111567366D01*
X102743590Y-111569195D01*
X102748183Y-111570067D01*
X102995785Y-111617075D01*
X102995788Y-111617075D01*
X103000374Y-111617946D01*
X103130958Y-111623077D01*
X103256875Y-111628025D01*
X103256881Y-111628025D01*
X103261543Y-111628208D01*
X103340977Y-111619508D01*
X103516707Y-111600263D01*
X103516712Y-111600262D01*
X103521360Y-111599753D01*
X103614532Y-111575223D01*
X103769594Y-111534399D01*
X103769596Y-111534398D01*
X103774117Y-111533208D01*
X104014262Y-111430033D01*
X104093674Y-111380892D01*
X104232547Y-111294955D01*
X104232548Y-111294955D01*
X104236519Y-111292497D01*
X104240082Y-111289480D01*
X104240087Y-111289477D01*
X104432439Y-111126638D01*
X104432440Y-111126637D01*
X104436005Y-111123619D01*
X104566069Y-110975310D01*
X104605257Y-110930625D01*
X104605261Y-110930620D01*
X104608339Y-110927110D01*
X104632322Y-110889825D01*
X104740712Y-110721313D01*
X104749733Y-110707288D01*
X104857083Y-110468980D01*
X104903395Y-110304773D01*
X104926760Y-110221927D01*
X104926761Y-110221924D01*
X104928030Y-110217423D01*
X104944832Y-110085347D01*
X104960616Y-109961272D01*
X104960616Y-109961268D01*
X104961014Y-109958142D01*
X104961110Y-109954507D01*
X104961507Y-109939343D01*
X147036775Y-109939343D01*
X147053381Y-110108699D01*
X147107094Y-110270167D01*
X147110741Y-110276189D01*
X147110742Y-110276191D01*
X147167670Y-110370189D01*
X147195246Y-110415723D01*
X147313455Y-110538132D01*
X147455846Y-110631310D01*
X147462450Y-110633766D01*
X147462452Y-110633767D01*
X147498844Y-110647301D01*
X147615341Y-110690626D01*
X147784015Y-110713132D01*
X147791026Y-110712494D01*
X147791030Y-110712494D01*
X147946462Y-110698348D01*
X147953483Y-110697709D01*
X147960185Y-110695531D01*
X147960187Y-110695531D01*
X147979232Y-110689343D01*
X157236775Y-110689343D01*
X157253381Y-110858699D01*
X157307094Y-111020167D01*
X157310741Y-111026189D01*
X157310742Y-111026191D01*
X157367621Y-111120108D01*
X157395246Y-111165723D01*
X157454272Y-111226846D01*
X157501892Y-111276158D01*
X157534824Y-111339055D01*
X157536261Y-111379477D01*
X157516065Y-111539343D01*
X157532671Y-111708699D01*
X157534895Y-111715384D01*
X157534895Y-111715385D01*
X157539713Y-111729869D01*
X157586384Y-111870167D01*
X157590031Y-111876189D01*
X157590032Y-111876191D01*
X157646960Y-111970189D01*
X157674536Y-112015723D01*
X157792745Y-112138132D01*
X157935136Y-112231310D01*
X157941740Y-112233766D01*
X157941742Y-112233767D01*
X157978134Y-112247301D01*
X158094631Y-112290626D01*
X158263305Y-112313132D01*
X158270316Y-112312494D01*
X158270320Y-112312494D01*
X158425752Y-112298348D01*
X158432773Y-112297709D01*
X158439475Y-112295531D01*
X158439477Y-112295531D01*
X158587913Y-112247301D01*
X158587916Y-112247300D01*
X158594612Y-112245124D01*
X158740780Y-112157990D01*
X158745874Y-112153139D01*
X158745878Y-112153136D01*
X158813123Y-112089099D01*
X158864011Y-112040639D01*
X158877214Y-112020768D01*
X158954280Y-111904773D01*
X158958181Y-111898902D01*
X159018609Y-111739825D01*
X159042291Y-111571313D01*
X159042589Y-111550000D01*
X159023621Y-111380892D01*
X159015844Y-111358558D01*
X158991318Y-111288132D01*
X158967658Y-111220189D01*
X158877482Y-111075879D01*
X158815522Y-111013484D01*
X158777614Y-110975310D01*
X158743808Y-110912879D01*
X158742247Y-110868992D01*
X158750647Y-110809222D01*
X158763001Y-110721313D01*
X158763299Y-110700000D01*
X158744331Y-110530892D01*
X158688368Y-110370189D01*
X158682383Y-110360610D01*
X158643822Y-110298902D01*
X158598192Y-110225879D01*
X158478286Y-110105132D01*
X158462039Y-110094821D01*
X158423406Y-110070304D01*
X158334608Y-110013951D01*
X158174300Y-109956868D01*
X158005329Y-109936720D01*
X157998326Y-109937456D01*
X157998325Y-109937456D01*
X157843101Y-109953770D01*
X157843097Y-109953771D01*
X157836093Y-109954507D01*
X157829422Y-109956778D01*
X157681673Y-110007075D01*
X157681670Y-110007076D01*
X157675003Y-110009346D01*
X157669005Y-110013036D01*
X157669003Y-110013037D01*
X157536065Y-110094821D01*
X157536063Y-110094823D01*
X157530066Y-110098512D01*
X157408486Y-110217573D01*
X157316304Y-110360610D01*
X157258103Y-110520516D01*
X157236775Y-110689343D01*
X147979232Y-110689343D01*
X148108623Y-110647301D01*
X148108626Y-110647300D01*
X148115322Y-110645124D01*
X148261490Y-110557990D01*
X148266584Y-110553139D01*
X148266588Y-110553136D01*
X148354960Y-110468980D01*
X148384721Y-110440639D01*
X148478891Y-110298902D01*
X148539319Y-110139825D01*
X148563001Y-109971313D01*
X148563215Y-109956034D01*
X148563244Y-109953961D01*
X148563244Y-109953955D01*
X148563299Y-109950000D01*
X148544331Y-109780892D01*
X148488368Y-109620189D01*
X148482383Y-109610610D01*
X148450570Y-109559700D01*
X148398192Y-109475879D01*
X148278286Y-109355132D01*
X148267597Y-109348348D01*
X148208479Y-109310831D01*
X148134608Y-109263951D01*
X147974300Y-109206868D01*
X147805329Y-109186720D01*
X147798326Y-109187456D01*
X147798325Y-109187456D01*
X147643101Y-109203770D01*
X147643097Y-109203771D01*
X147636093Y-109204507D01*
X147629422Y-109206778D01*
X147481673Y-109257075D01*
X147481670Y-109257076D01*
X147475003Y-109259346D01*
X147469005Y-109263036D01*
X147469003Y-109263037D01*
X147336065Y-109344821D01*
X147336063Y-109344823D01*
X147330066Y-109348512D01*
X147315788Y-109362494D01*
X147250744Y-109426191D01*
X147208486Y-109467573D01*
X147204675Y-109473487D01*
X147204673Y-109473489D01*
X147126043Y-109595498D01*
X147116304Y-109610610D01*
X147058103Y-109770516D01*
X147036775Y-109939343D01*
X104961507Y-109939343D01*
X104963348Y-109869011D01*
X104963431Y-109865851D01*
X104957331Y-109783767D01*
X104944407Y-109609851D01*
X104944406Y-109609847D01*
X104944061Y-109605199D01*
X104940767Y-109590639D01*
X104889142Y-109362494D01*
X104886377Y-109350274D01*
X104884533Y-109345531D01*
X104793340Y-109111027D01*
X104793339Y-109111024D01*
X104791647Y-109106674D01*
X104787833Y-109100000D01*
X104781742Y-109089343D01*
X140536775Y-109089343D01*
X140553381Y-109258699D01*
X140555605Y-109265384D01*
X140555605Y-109265385D01*
X140560903Y-109281310D01*
X140607094Y-109420167D01*
X140610741Y-109426189D01*
X140610742Y-109426191D01*
X140655583Y-109500231D01*
X140695246Y-109565723D01*
X140813455Y-109688132D01*
X140955846Y-109781310D01*
X140962450Y-109783766D01*
X140962452Y-109783767D01*
X140998844Y-109797301D01*
X141115341Y-109840626D01*
X141284015Y-109863132D01*
X141291026Y-109862494D01*
X141291030Y-109862494D01*
X141446462Y-109848348D01*
X141453483Y-109847709D01*
X141460185Y-109845531D01*
X141460187Y-109845531D01*
X141608623Y-109797301D01*
X141608626Y-109797300D01*
X141615322Y-109795124D01*
X141761490Y-109707990D01*
X141766584Y-109703139D01*
X141766588Y-109703136D01*
X141853690Y-109620189D01*
X141884721Y-109590639D01*
X141911542Y-109550271D01*
X141974990Y-109454773D01*
X141978891Y-109448902D01*
X142039319Y-109289825D01*
X142063001Y-109121313D01*
X142063299Y-109100000D01*
X142044331Y-108930892D01*
X142030832Y-108892128D01*
X142027318Y-108821218D01*
X142062700Y-108759666D01*
X142125742Y-108727014D01*
X142193741Y-108732593D01*
X142215341Y-108740626D01*
X142384015Y-108763132D01*
X142391026Y-108762494D01*
X142391030Y-108762494D01*
X142546462Y-108748348D01*
X142553483Y-108747709D01*
X142560185Y-108745531D01*
X142560187Y-108745531D01*
X142708623Y-108697301D01*
X142708626Y-108697300D01*
X142715322Y-108695124D01*
X142861490Y-108607990D01*
X142866584Y-108603139D01*
X142866588Y-108603136D01*
X142881072Y-108589343D01*
X153536775Y-108589343D01*
X153553381Y-108758699D01*
X153555605Y-108765384D01*
X153555605Y-108765385D01*
X153557203Y-108770189D01*
X153607094Y-108920167D01*
X153610741Y-108926189D01*
X153610742Y-108926191D01*
X153658548Y-109005127D01*
X153695246Y-109065723D01*
X153813455Y-109188132D01*
X153838479Y-109204507D01*
X153935094Y-109267730D01*
X153955846Y-109281310D01*
X153962450Y-109283766D01*
X153962452Y-109283767D01*
X154023058Y-109306306D01*
X154115341Y-109340626D01*
X154284015Y-109363132D01*
X154291026Y-109362494D01*
X154291030Y-109362494D01*
X154446462Y-109348348D01*
X154453483Y-109347709D01*
X154460185Y-109345531D01*
X154460187Y-109345531D01*
X154608623Y-109297301D01*
X154608626Y-109297300D01*
X154615322Y-109295124D01*
X154761490Y-109207990D01*
X154766584Y-109203139D01*
X154766588Y-109203136D01*
X154863311Y-109111027D01*
X154884721Y-109090639D01*
X154978891Y-108948902D01*
X155036192Y-108798056D01*
X166719488Y-108798056D01*
X166736094Y-108967412D01*
X166789807Y-109128880D01*
X166793454Y-109134902D01*
X166793455Y-109134904D01*
X166873898Y-109267730D01*
X166877959Y-109274436D01*
X166996168Y-109396845D01*
X167065652Y-109442314D01*
X167116945Y-109475879D01*
X167138559Y-109490023D01*
X167145163Y-109492479D01*
X167145165Y-109492480D01*
X167181557Y-109506014D01*
X167298054Y-109549339D01*
X167466728Y-109571845D01*
X167473739Y-109571207D01*
X167473743Y-109571207D01*
X167629175Y-109557061D01*
X167636196Y-109556422D01*
X167642898Y-109554244D01*
X167642900Y-109554244D01*
X167791336Y-109506014D01*
X167791339Y-109506013D01*
X167798035Y-109503837D01*
X167944203Y-109416703D01*
X167949297Y-109411852D01*
X167949301Y-109411849D01*
X168026672Y-109338169D01*
X168067434Y-109299352D01*
X168078402Y-109282845D01*
X168138765Y-109191990D01*
X168161604Y-109157615D01*
X168222032Y-108998538D01*
X168245714Y-108830026D01*
X168246012Y-108808713D01*
X168227044Y-108639605D01*
X168217290Y-108611594D01*
X168176829Y-108495408D01*
X168171081Y-108478902D01*
X168165484Y-108469944D01*
X168134597Y-108420516D01*
X168080905Y-108334592D01*
X168066581Y-108320167D01*
X168007438Y-108260610D01*
X167960999Y-108213845D01*
X167946265Y-108204494D01*
X167874103Y-108158699D01*
X167817321Y-108122664D01*
X167657013Y-108065581D01*
X167488042Y-108045433D01*
X167481039Y-108046169D01*
X167481038Y-108046169D01*
X167325814Y-108062483D01*
X167325810Y-108062484D01*
X167318806Y-108063220D01*
X167312135Y-108065491D01*
X167164386Y-108115788D01*
X167164383Y-108115789D01*
X167157716Y-108118059D01*
X167151718Y-108121749D01*
X167151716Y-108121750D01*
X167018778Y-108203534D01*
X167018776Y-108203536D01*
X167012779Y-108207225D01*
X166891199Y-108326286D01*
X166887388Y-108332200D01*
X166887386Y-108332202D01*
X166811090Y-108450589D01*
X166799017Y-108469323D01*
X166740816Y-108629229D01*
X166719488Y-108798056D01*
X155036192Y-108798056D01*
X155039319Y-108789825D01*
X155063001Y-108621313D01*
X155063299Y-108600000D01*
X155044331Y-108430892D01*
X155038432Y-108413951D01*
X155007597Y-108325406D01*
X154988368Y-108270189D01*
X154982383Y-108260610D01*
X154954541Y-108216055D01*
X154898192Y-108125879D01*
X154890427Y-108118059D01*
X154790435Y-108017366D01*
X154778286Y-108005132D01*
X154770200Y-108000000D01*
X154671712Y-107937498D01*
X154634608Y-107913951D01*
X154474300Y-107856868D01*
X154305329Y-107836720D01*
X154298326Y-107837456D01*
X154298325Y-107837456D01*
X154143101Y-107853770D01*
X154143097Y-107853771D01*
X154136093Y-107854507D01*
X154129422Y-107856778D01*
X153981673Y-107907075D01*
X153981670Y-107907076D01*
X153975003Y-107909346D01*
X153969005Y-107913036D01*
X153969003Y-107913037D01*
X153836065Y-107994821D01*
X153836063Y-107994823D01*
X153830066Y-107998512D01*
X153782456Y-108045136D01*
X153717108Y-108109130D01*
X153708486Y-108117573D01*
X153704675Y-108123487D01*
X153704673Y-108123489D01*
X153634168Y-108232891D01*
X153616304Y-108260610D01*
X153594119Y-108321562D01*
X153562169Y-108409346D01*
X153558103Y-108420516D01*
X153536775Y-108589343D01*
X142881072Y-108589343D01*
X142935372Y-108537633D01*
X142984721Y-108490639D01*
X142998884Y-108469323D01*
X143065423Y-108369173D01*
X143078891Y-108348902D01*
X143139319Y-108189825D01*
X143163001Y-108021313D01*
X143163157Y-108010129D01*
X143163244Y-108003961D01*
X143163244Y-108003955D01*
X143163299Y-108000000D01*
X143144331Y-107830892D01*
X143140501Y-107819892D01*
X143090686Y-107676846D01*
X143088368Y-107670189D01*
X143082383Y-107660610D01*
X143054488Y-107615970D01*
X142998192Y-107525879D01*
X142904314Y-107431343D01*
X179322775Y-107431343D01*
X179339381Y-107600699D01*
X179393094Y-107762167D01*
X179396741Y-107768189D01*
X179396742Y-107768191D01*
X179450393Y-107856778D01*
X179481246Y-107907723D01*
X179599455Y-108030132D01*
X179623962Y-108046169D01*
X179733822Y-108118059D01*
X179741846Y-108123310D01*
X179748450Y-108125766D01*
X179748452Y-108125767D01*
X179792809Y-108142263D01*
X179901341Y-108182626D01*
X180070015Y-108205132D01*
X180077026Y-108204494D01*
X180077030Y-108204494D01*
X180232462Y-108190348D01*
X180239483Y-108189709D01*
X180246185Y-108187531D01*
X180246187Y-108187531D01*
X180394623Y-108139301D01*
X180394626Y-108139300D01*
X180401322Y-108137124D01*
X180547490Y-108049990D01*
X180552584Y-108045139D01*
X180552588Y-108045136D01*
X180619833Y-107981099D01*
X180670721Y-107932639D01*
X180683138Y-107913951D01*
X180722632Y-107854507D01*
X180764891Y-107790902D01*
X180825319Y-107631825D01*
X180849001Y-107463313D01*
X180849299Y-107442000D01*
X180830331Y-107272892D01*
X180825575Y-107259233D01*
X180776686Y-107118846D01*
X180774368Y-107112189D01*
X180768383Y-107102610D01*
X180746420Y-107067464D01*
X180684192Y-106967879D01*
X180564286Y-106847132D01*
X180548039Y-106836821D01*
X180479684Y-106793442D01*
X180420608Y-106755951D01*
X180260300Y-106698868D01*
X180091329Y-106678720D01*
X180084326Y-106679456D01*
X180084325Y-106679456D01*
X179929101Y-106695770D01*
X179929097Y-106695771D01*
X179922093Y-106696507D01*
X179915422Y-106698778D01*
X179767673Y-106749075D01*
X179767670Y-106749076D01*
X179761003Y-106751346D01*
X179755005Y-106755036D01*
X179755003Y-106755037D01*
X179622065Y-106836821D01*
X179622063Y-106836823D01*
X179616066Y-106840512D01*
X179494486Y-106959573D01*
X179402304Y-107102610D01*
X179344103Y-107262516D01*
X179322775Y-107431343D01*
X142904314Y-107431343D01*
X142878286Y-107405132D01*
X142870200Y-107400000D01*
X142823406Y-107370304D01*
X142734608Y-107313951D01*
X142574300Y-107256868D01*
X142405329Y-107236720D01*
X142398326Y-107237456D01*
X142398325Y-107237456D01*
X142243101Y-107253770D01*
X142243097Y-107253771D01*
X142236093Y-107254507D01*
X142229422Y-107256778D01*
X142081673Y-107307075D01*
X142081670Y-107307076D01*
X142075003Y-107309346D01*
X142069005Y-107313036D01*
X142069003Y-107313037D01*
X141936065Y-107394821D01*
X141936063Y-107394823D01*
X141930066Y-107398512D01*
X141808486Y-107517573D01*
X141804675Y-107523487D01*
X141804673Y-107523489D01*
X141748498Y-107610655D01*
X141716304Y-107660610D01*
X141658103Y-107820516D01*
X141636775Y-107989343D01*
X141653381Y-108158699D01*
X141669524Y-108207225D01*
X141670680Y-108210701D01*
X141673203Y-108281652D01*
X141636966Y-108342705D01*
X141573475Y-108374474D01*
X141508857Y-108369173D01*
X141480940Y-108359232D01*
X141480937Y-108359231D01*
X141474300Y-108356868D01*
X141305329Y-108336720D01*
X141298326Y-108337456D01*
X141298325Y-108337456D01*
X141143101Y-108353770D01*
X141143097Y-108353771D01*
X141136093Y-108354507D01*
X141129422Y-108356778D01*
X140981673Y-108407075D01*
X140981670Y-108407076D01*
X140975003Y-108409346D01*
X140969005Y-108413036D01*
X140969003Y-108413037D01*
X140836065Y-108494821D01*
X140836063Y-108494823D01*
X140830066Y-108498512D01*
X140708486Y-108617573D01*
X140704675Y-108623487D01*
X140704673Y-108623489D01*
X140620121Y-108754687D01*
X140616304Y-108760610D01*
X140602675Y-108798056D01*
X140571463Y-108883811D01*
X140558103Y-108920516D01*
X140536775Y-109089343D01*
X104781742Y-109089343D01*
X104725853Y-108991558D01*
X104661951Y-108879753D01*
X104500138Y-108674494D01*
X104309763Y-108495408D01*
X104157437Y-108389735D01*
X104098851Y-108349092D01*
X104098848Y-108349090D01*
X104095009Y-108346427D01*
X104086669Y-108342314D01*
X103864781Y-108232891D01*
X103864778Y-108232890D01*
X103860593Y-108230826D01*
X103814449Y-108216055D01*
X103616123Y-108152571D01*
X103611665Y-108151144D01*
X103353693Y-108109130D01*
X103239942Y-108107641D01*
X103097022Y-108105770D01*
X103097019Y-108105770D01*
X103092345Y-108105709D01*
X102833362Y-108140955D01*
X102582433Y-108214094D01*
X102578180Y-108216054D01*
X102578179Y-108216055D01*
X102541659Y-108232891D01*
X102345072Y-108323519D01*
X102306067Y-108349092D01*
X102130404Y-108464261D01*
X102130399Y-108464265D01*
X102126491Y-108466827D01*
X101931494Y-108640869D01*
X101764363Y-108841821D01*
X101761934Y-108845824D01*
X101665267Y-109005127D01*
X101628771Y-109065270D01*
X101527697Y-109306306D01*
X101463359Y-109559634D01*
X101462891Y-109564285D01*
X101462890Y-109564289D01*
X101462129Y-109571845D01*
X101437173Y-109819690D01*
X100508000Y-109819690D01*
X100508000Y-107400000D01*
X133286884Y-107400000D01*
X133305314Y-107610655D01*
X133306738Y-107615968D01*
X133306738Y-107615970D01*
X133347526Y-107768191D01*
X133360044Y-107814910D01*
X133362366Y-107819891D01*
X133362367Y-107819892D01*
X133446986Y-108001357D01*
X133449411Y-108006558D01*
X133570699Y-108179776D01*
X133720224Y-108329301D01*
X133893442Y-108450589D01*
X133898420Y-108452910D01*
X133898423Y-108452912D01*
X134080108Y-108537633D01*
X134085090Y-108539956D01*
X134090398Y-108541378D01*
X134090400Y-108541379D01*
X134284030Y-108593262D01*
X134284032Y-108593262D01*
X134289345Y-108594686D01*
X134500000Y-108613116D01*
X134710655Y-108594686D01*
X134715968Y-108593262D01*
X134715970Y-108593262D01*
X134909600Y-108541379D01*
X134909602Y-108541378D01*
X134914910Y-108539956D01*
X134919892Y-108537633D01*
X135101577Y-108452912D01*
X135101580Y-108452910D01*
X135106558Y-108450589D01*
X135279776Y-108329301D01*
X135429301Y-108179776D01*
X135550589Y-108006558D01*
X135553015Y-108001357D01*
X135637633Y-107819892D01*
X135637634Y-107819891D01*
X135639956Y-107814910D01*
X135652475Y-107768191D01*
X135693262Y-107615970D01*
X135693262Y-107615968D01*
X135694686Y-107610655D01*
X135713116Y-107400000D01*
X135694686Y-107189345D01*
X135672411Y-107106213D01*
X135641379Y-106990400D01*
X135641378Y-106990398D01*
X135639956Y-106985090D01*
X135634717Y-106973854D01*
X135552912Y-106798423D01*
X135552910Y-106798420D01*
X135550589Y-106793442D01*
X135429301Y-106620224D01*
X135279776Y-106470699D01*
X135106558Y-106349411D01*
X135101580Y-106347090D01*
X135101577Y-106347088D01*
X134919892Y-106262367D01*
X134919891Y-106262366D01*
X134914910Y-106260044D01*
X134909602Y-106258622D01*
X134909600Y-106258621D01*
X134715970Y-106206738D01*
X134715968Y-106206738D01*
X134710655Y-106205314D01*
X134500000Y-106186884D01*
X134289345Y-106205314D01*
X134284032Y-106206738D01*
X134284030Y-106206738D01*
X134090400Y-106258621D01*
X134090398Y-106258622D01*
X134085090Y-106260044D01*
X134080109Y-106262366D01*
X134080108Y-106262367D01*
X133898423Y-106347088D01*
X133898420Y-106347090D01*
X133893442Y-106349411D01*
X133720224Y-106470699D01*
X133570699Y-106620224D01*
X133449411Y-106793442D01*
X133447090Y-106798420D01*
X133447088Y-106798423D01*
X133365283Y-106973854D01*
X133360044Y-106985090D01*
X133358622Y-106990398D01*
X133358621Y-106990400D01*
X133327589Y-107106213D01*
X133305314Y-107189345D01*
X133286884Y-107400000D01*
X100508000Y-107400000D01*
X100508000Y-105475543D01*
X118184975Y-105475543D01*
X118201581Y-105644899D01*
X118255294Y-105806367D01*
X118258941Y-105812389D01*
X118258942Y-105812391D01*
X118322518Y-105917366D01*
X118343446Y-105951923D01*
X118461655Y-106074332D01*
X118604046Y-106167510D01*
X118610650Y-106169966D01*
X118610652Y-106169967D01*
X118647044Y-106183501D01*
X118763541Y-106226826D01*
X118932215Y-106249332D01*
X118939226Y-106248694D01*
X118939230Y-106248694D01*
X119094662Y-106234548D01*
X119101683Y-106233909D01*
X119108385Y-106231731D01*
X119108387Y-106231731D01*
X119256823Y-106183501D01*
X119256826Y-106183500D01*
X119263522Y-106181324D01*
X119409690Y-106094190D01*
X119414784Y-106089339D01*
X119414788Y-106089336D01*
X119482033Y-106025299D01*
X119532921Y-105976839D01*
X119569813Y-105921313D01*
X119583973Y-105900000D01*
X119591053Y-105889343D01*
X143736775Y-105889343D01*
X143753381Y-106058699D01*
X143755605Y-106065384D01*
X143755605Y-106065385D01*
X143763735Y-106089825D01*
X143807094Y-106220167D01*
X143810741Y-106226189D01*
X143810742Y-106226191D01*
X143887278Y-106352566D01*
X143895246Y-106365723D01*
X144013455Y-106488132D01*
X144155846Y-106581310D01*
X144162450Y-106583766D01*
X144162452Y-106583767D01*
X144198844Y-106597301D01*
X144315341Y-106640626D01*
X144484015Y-106663132D01*
X144491026Y-106662494D01*
X144491030Y-106662494D01*
X144646462Y-106648348D01*
X144653483Y-106647709D01*
X144660185Y-106645531D01*
X144660187Y-106645531D01*
X144808623Y-106597301D01*
X144808626Y-106597300D01*
X144815322Y-106595124D01*
X144961490Y-106507990D01*
X144966584Y-106503139D01*
X144966588Y-106503136D01*
X145033833Y-106439099D01*
X145084721Y-106390639D01*
X145178891Y-106248902D01*
X145239319Y-106089825D01*
X145263001Y-105921313D01*
X145263299Y-105900000D01*
X145244331Y-105730892D01*
X145222794Y-105669045D01*
X145190686Y-105576846D01*
X145188368Y-105570189D01*
X145182383Y-105560610D01*
X145135885Y-105486200D01*
X145098192Y-105425879D01*
X144978286Y-105305132D01*
X144970353Y-105300097D01*
X144923406Y-105270304D01*
X144834608Y-105213951D01*
X144674300Y-105156868D01*
X144505329Y-105136720D01*
X144498326Y-105137456D01*
X144498325Y-105137456D01*
X144343101Y-105153770D01*
X144343097Y-105153771D01*
X144336093Y-105154507D01*
X144329422Y-105156778D01*
X144181673Y-105207075D01*
X144181670Y-105207076D01*
X144175003Y-105209346D01*
X144169005Y-105213036D01*
X144169003Y-105213037D01*
X144036065Y-105294821D01*
X144036063Y-105294823D01*
X144030066Y-105298512D01*
X143908486Y-105417573D01*
X143904675Y-105423487D01*
X143904673Y-105423489D01*
X143850523Y-105507513D01*
X143816304Y-105560610D01*
X143758103Y-105720516D01*
X143736775Y-105889343D01*
X119591053Y-105889343D01*
X119627091Y-105835102D01*
X119687519Y-105676025D01*
X119711201Y-105507513D01*
X119711499Y-105486200D01*
X119692531Y-105317092D01*
X119687052Y-105301357D01*
X119638886Y-105163046D01*
X119636568Y-105156389D01*
X119630583Y-105146810D01*
X119608620Y-105111664D01*
X119546392Y-105012079D01*
X119426486Y-104891332D01*
X119410239Y-104881021D01*
X119371606Y-104856504D01*
X119282808Y-104800151D01*
X119122500Y-104743068D01*
X118953529Y-104722920D01*
X118946526Y-104723656D01*
X118946525Y-104723656D01*
X118791301Y-104739970D01*
X118791297Y-104739971D01*
X118784293Y-104740707D01*
X118777622Y-104742978D01*
X118629873Y-104793275D01*
X118629870Y-104793276D01*
X118623203Y-104795546D01*
X118617205Y-104799236D01*
X118617203Y-104799237D01*
X118484265Y-104881021D01*
X118484263Y-104881023D01*
X118478266Y-104884712D01*
X118356686Y-105003773D01*
X118352875Y-105009687D01*
X118352873Y-105009689D01*
X118270532Y-105137456D01*
X118264504Y-105146810D01*
X118206303Y-105306716D01*
X118184975Y-105475543D01*
X100508000Y-105475543D01*
X100508000Y-103794669D01*
X101442001Y-103794669D01*
X101442371Y-103801490D01*
X101447895Y-103852352D01*
X101451521Y-103867604D01*
X101496676Y-103988054D01*
X101505214Y-104003649D01*
X101581715Y-104105724D01*
X101594276Y-104118285D01*
X101696351Y-104194786D01*
X101711946Y-104203324D01*
X101832394Y-104248478D01*
X101847649Y-104252105D01*
X101898514Y-104257631D01*
X101905328Y-104258000D01*
X102927885Y-104258000D01*
X102943124Y-104253525D01*
X102944329Y-104252135D01*
X102946000Y-104244452D01*
X102946000Y-104239884D01*
X103454000Y-104239884D01*
X103458475Y-104255123D01*
X103459865Y-104256328D01*
X103467548Y-104257999D01*
X104494669Y-104257999D01*
X104501490Y-104257629D01*
X104552352Y-104252105D01*
X104567604Y-104248479D01*
X104688054Y-104203324D01*
X104703649Y-104194786D01*
X104805724Y-104118285D01*
X104818285Y-104105724D01*
X104894786Y-104003649D01*
X104903324Y-103988054D01*
X104948478Y-103867606D01*
X104952105Y-103852351D01*
X104957631Y-103801486D01*
X104958000Y-103794672D01*
X104958000Y-102889343D01*
X145436775Y-102889343D01*
X145453381Y-103058699D01*
X145507094Y-103220167D01*
X145510741Y-103226189D01*
X145510742Y-103226191D01*
X145524497Y-103248902D01*
X145595246Y-103365723D01*
X145713455Y-103488132D01*
X145855846Y-103581310D01*
X145862450Y-103583766D01*
X145862452Y-103583767D01*
X145898844Y-103597301D01*
X146015341Y-103640626D01*
X146184015Y-103663132D01*
X146191026Y-103662494D01*
X146191030Y-103662494D01*
X146346462Y-103648348D01*
X146353483Y-103647709D01*
X146360185Y-103645531D01*
X146360187Y-103645531D01*
X146508623Y-103597301D01*
X146508626Y-103597300D01*
X146515322Y-103595124D01*
X146661490Y-103507990D01*
X146666584Y-103503139D01*
X146666588Y-103503136D01*
X146733833Y-103439099D01*
X146784721Y-103390639D01*
X146878891Y-103248902D01*
X146939319Y-103089825D01*
X146963001Y-102921313D01*
X146963299Y-102900000D01*
X146962104Y-102889343D01*
X156636775Y-102889343D01*
X156653381Y-103058699D01*
X156707094Y-103220167D01*
X156710741Y-103226189D01*
X156710742Y-103226191D01*
X156724497Y-103248902D01*
X156795246Y-103365723D01*
X156913455Y-103488132D01*
X157055846Y-103581310D01*
X157062450Y-103583766D01*
X157062452Y-103583767D01*
X157098844Y-103597301D01*
X157215341Y-103640626D01*
X157384015Y-103663132D01*
X157391026Y-103662494D01*
X157391030Y-103662494D01*
X157546462Y-103648348D01*
X157553483Y-103647709D01*
X157560185Y-103645531D01*
X157560187Y-103645531D01*
X157708623Y-103597301D01*
X157708626Y-103597300D01*
X157715322Y-103595124D01*
X157861490Y-103507990D01*
X157866584Y-103503139D01*
X157866588Y-103503136D01*
X157933833Y-103439099D01*
X157984721Y-103390639D01*
X158078891Y-103248902D01*
X158139319Y-103089825D01*
X158163001Y-102921313D01*
X158163299Y-102900000D01*
X158144331Y-102730892D01*
X158088368Y-102570189D01*
X158082383Y-102560610D01*
X158036629Y-102487390D01*
X157998192Y-102425879D01*
X157878286Y-102305132D01*
X157862039Y-102294821D01*
X157780577Y-102243124D01*
X157734608Y-102213951D01*
X157574300Y-102156868D01*
X157405329Y-102136720D01*
X157398326Y-102137456D01*
X157398325Y-102137456D01*
X157243101Y-102153770D01*
X157243097Y-102153771D01*
X157236093Y-102154507D01*
X157229422Y-102156778D01*
X157081673Y-102207075D01*
X157081670Y-102207076D01*
X157075003Y-102209346D01*
X157069005Y-102213036D01*
X157069003Y-102213037D01*
X156936065Y-102294821D01*
X156936063Y-102294823D01*
X156930066Y-102298512D01*
X156808486Y-102417573D01*
X156804675Y-102423487D01*
X156804673Y-102423489D01*
X156761169Y-102490994D01*
X156716304Y-102560610D01*
X156658103Y-102720516D01*
X156636775Y-102889343D01*
X146962104Y-102889343D01*
X146944331Y-102730892D01*
X146888368Y-102570189D01*
X146882383Y-102560610D01*
X146836629Y-102487390D01*
X146798192Y-102425879D01*
X146678286Y-102305132D01*
X146662039Y-102294821D01*
X146580577Y-102243124D01*
X146534608Y-102213951D01*
X146374300Y-102156868D01*
X146205329Y-102136720D01*
X146198326Y-102137456D01*
X146198325Y-102137456D01*
X146043101Y-102153770D01*
X146043097Y-102153771D01*
X146036093Y-102154507D01*
X146029422Y-102156778D01*
X145881673Y-102207075D01*
X145881670Y-102207076D01*
X145875003Y-102209346D01*
X145869005Y-102213036D01*
X145869003Y-102213037D01*
X145736065Y-102294821D01*
X145736063Y-102294823D01*
X145730066Y-102298512D01*
X145608486Y-102417573D01*
X145604675Y-102423487D01*
X145604673Y-102423489D01*
X145561169Y-102490994D01*
X145516304Y-102560610D01*
X145458103Y-102720516D01*
X145436775Y-102889343D01*
X104958000Y-102889343D01*
X104958000Y-102772115D01*
X104953525Y-102756876D01*
X104952135Y-102755671D01*
X104944452Y-102754000D01*
X103472115Y-102754000D01*
X103456876Y-102758475D01*
X103455671Y-102759865D01*
X103454000Y-102767548D01*
X103454000Y-104239884D01*
X102946000Y-104239884D01*
X102946000Y-102772115D01*
X102941525Y-102756876D01*
X102940135Y-102755671D01*
X102932452Y-102754000D01*
X101460116Y-102754000D01*
X101444877Y-102758475D01*
X101443672Y-102759865D01*
X101442001Y-102767548D01*
X101442001Y-103794669D01*
X100508000Y-103794669D01*
X100508000Y-102227885D01*
X101442000Y-102227885D01*
X101446475Y-102243124D01*
X101447865Y-102244329D01*
X101455548Y-102246000D01*
X102927885Y-102246000D01*
X102943124Y-102241525D01*
X102944329Y-102240135D01*
X102946000Y-102232452D01*
X102946000Y-102227885D01*
X103454000Y-102227885D01*
X103458475Y-102243124D01*
X103459865Y-102244329D01*
X103467548Y-102246000D01*
X104939884Y-102246000D01*
X104955123Y-102241525D01*
X104956328Y-102240135D01*
X104957999Y-102232452D01*
X104957999Y-101868743D01*
X118184975Y-101868743D01*
X118201581Y-102038099D01*
X118255294Y-102199567D01*
X118258941Y-102205589D01*
X118258942Y-102205591D01*
X118319227Y-102305132D01*
X118343446Y-102345123D01*
X118461655Y-102467532D01*
X118604046Y-102560710D01*
X118610650Y-102563166D01*
X118610652Y-102563167D01*
X118647044Y-102576701D01*
X118763541Y-102620026D01*
X118932215Y-102642532D01*
X118939226Y-102641894D01*
X118939230Y-102641894D01*
X119094662Y-102627748D01*
X119101683Y-102627109D01*
X119108385Y-102624931D01*
X119108387Y-102624931D01*
X119256823Y-102576701D01*
X119256826Y-102576700D01*
X119263522Y-102574524D01*
X119409690Y-102487390D01*
X119414784Y-102482539D01*
X119414788Y-102482536D01*
X119488177Y-102412648D01*
X119532921Y-102370039D01*
X119627091Y-102228302D01*
X119687519Y-102069225D01*
X119711201Y-101900713D01*
X119711499Y-101879400D01*
X119692531Y-101710292D01*
X119636568Y-101549589D01*
X119630583Y-101540010D01*
X119551122Y-101412849D01*
X119546392Y-101405279D01*
X119536352Y-101395168D01*
X119534479Y-101393282D01*
X195755612Y-101393282D01*
X195764325Y-101404802D01*
X195862018Y-101476433D01*
X195869928Y-101481376D01*
X196092890Y-101598682D01*
X196101453Y-101602405D01*
X196339304Y-101685467D01*
X196348313Y-101687881D01*
X196595842Y-101734876D01*
X196605098Y-101735930D01*
X196856857Y-101745822D01*
X196866171Y-101745496D01*
X197116615Y-101718069D01*
X197125792Y-101716368D01*
X197369431Y-101652223D01*
X197378251Y-101649186D01*
X197609736Y-101549732D01*
X197618008Y-101545425D01*
X197832249Y-101412849D01*
X197839188Y-101407807D01*
X197847518Y-101395168D01*
X197841456Y-101384815D01*
X196812812Y-100356171D01*
X196798868Y-100348557D01*
X196797035Y-100348688D01*
X196790420Y-100352939D01*
X195762270Y-101381089D01*
X195755612Y-101393282D01*
X119534479Y-101393282D01*
X119431448Y-101289529D01*
X119426486Y-101284532D01*
X119410239Y-101274221D01*
X119301685Y-101205331D01*
X119282808Y-101193351D01*
X119122500Y-101136268D01*
X118953529Y-101116120D01*
X118946526Y-101116856D01*
X118946525Y-101116856D01*
X118791301Y-101133170D01*
X118791297Y-101133171D01*
X118784293Y-101133907D01*
X118777622Y-101136178D01*
X118629873Y-101186475D01*
X118629870Y-101186476D01*
X118623203Y-101188746D01*
X118617205Y-101192436D01*
X118617203Y-101192437D01*
X118484265Y-101274221D01*
X118484263Y-101274223D01*
X118478266Y-101277912D01*
X118356686Y-101396973D01*
X118352875Y-101402887D01*
X118352873Y-101402889D01*
X118305477Y-101476433D01*
X118264504Y-101540010D01*
X118206303Y-101699916D01*
X118184975Y-101868743D01*
X104957999Y-101868743D01*
X104957999Y-101205331D01*
X104957629Y-101198510D01*
X104952105Y-101147648D01*
X104948479Y-101132396D01*
X104903324Y-101011946D01*
X104894786Y-100996351D01*
X104818285Y-100894276D01*
X104805724Y-100881715D01*
X104703649Y-100805214D01*
X104688054Y-100796676D01*
X104567606Y-100751522D01*
X104552351Y-100747895D01*
X104501486Y-100742369D01*
X104494672Y-100742000D01*
X103472115Y-100742000D01*
X103456876Y-100746475D01*
X103455671Y-100747865D01*
X103454000Y-100755548D01*
X103454000Y-102227885D01*
X102946000Y-102227885D01*
X102946000Y-100760116D01*
X102941525Y-100744877D01*
X102940135Y-100743672D01*
X102932452Y-100742001D01*
X101905331Y-100742001D01*
X101898510Y-100742371D01*
X101847648Y-100747895D01*
X101832396Y-100751521D01*
X101711946Y-100796676D01*
X101696351Y-100805214D01*
X101594276Y-100881715D01*
X101581715Y-100894276D01*
X101505214Y-100996351D01*
X101496676Y-101011946D01*
X101451522Y-101132394D01*
X101447895Y-101147649D01*
X101442369Y-101198514D01*
X101442000Y-101205328D01*
X101442000Y-102227885D01*
X100508000Y-102227885D01*
X100508000Y-99942672D01*
X195037898Y-99942672D01*
X195049987Y-100194324D01*
X195051124Y-100203584D01*
X195100274Y-100450684D01*
X195102768Y-100459677D01*
X195187900Y-100696788D01*
X195191700Y-100705323D01*
X195310946Y-100927250D01*
X195315957Y-100935117D01*
X195379446Y-101020139D01*
X195390704Y-101028588D01*
X195403123Y-101021816D01*
X196427978Y-99996961D01*
X196434356Y-99985281D01*
X197164408Y-99985281D01*
X197164539Y-99987114D01*
X197168790Y-99993729D01*
X198199913Y-101024852D01*
X198212293Y-101031612D01*
X198220634Y-101025368D01*
X198346765Y-100829276D01*
X198351212Y-100821085D01*
X198454691Y-100591371D01*
X198457882Y-100582604D01*
X198526269Y-100340125D01*
X198528129Y-100330983D01*
X198560116Y-100079545D01*
X198560597Y-100073257D01*
X198562847Y-99987309D01*
X198562696Y-99981000D01*
X198543912Y-99728223D01*
X198542536Y-99719017D01*
X198486929Y-99473275D01*
X198484205Y-99464364D01*
X198392888Y-99229541D01*
X198388877Y-99221132D01*
X198263854Y-99002389D01*
X198258643Y-98994663D01*
X198221391Y-98947410D01*
X198209466Y-98938939D01*
X198197934Y-98945425D01*
X197172022Y-99971337D01*
X197164408Y-99985281D01*
X196434356Y-99985281D01*
X196435592Y-99983017D01*
X196435461Y-99981184D01*
X196431210Y-99974569D01*
X195401321Y-98944680D01*
X195388013Y-98937413D01*
X195377974Y-98944535D01*
X195367761Y-98956815D01*
X195362346Y-98964407D01*
X195231646Y-99179795D01*
X195227408Y-99188112D01*
X195129981Y-99420448D01*
X195127020Y-99429298D01*
X195065006Y-99673480D01*
X195063384Y-99682677D01*
X195038143Y-99933347D01*
X195037898Y-99942672D01*
X100508000Y-99942672D01*
X100508000Y-97319690D01*
X101437173Y-97319690D01*
X101437397Y-97324356D01*
X101437397Y-97324362D01*
X101438446Y-97346200D01*
X101449713Y-97580759D01*
X101500704Y-97837107D01*
X101589026Y-98083103D01*
X101591242Y-98087227D01*
X101669864Y-98233550D01*
X101712737Y-98313342D01*
X101715532Y-98317085D01*
X101715534Y-98317088D01*
X101866330Y-98519028D01*
X101866335Y-98519034D01*
X101869122Y-98522766D01*
X101872431Y-98526046D01*
X101872436Y-98526052D01*
X102046336Y-98698440D01*
X102054743Y-98706774D01*
X102058505Y-98709532D01*
X102058508Y-98709535D01*
X102261750Y-98858558D01*
X102265524Y-98861325D01*
X102269667Y-98863505D01*
X102269669Y-98863506D01*
X102492684Y-98980840D01*
X102492689Y-98980842D01*
X102496834Y-98983023D01*
X102743590Y-99069195D01*
X102748183Y-99070067D01*
X102995785Y-99117075D01*
X102995788Y-99117075D01*
X103000374Y-99117946D01*
X103130959Y-99123077D01*
X103256875Y-99128025D01*
X103256881Y-99128025D01*
X103261543Y-99128208D01*
X103340977Y-99119508D01*
X103516707Y-99100263D01*
X103516712Y-99100262D01*
X103521360Y-99099753D01*
X103634116Y-99070067D01*
X103769594Y-99034399D01*
X103769596Y-99034398D01*
X103774117Y-99033208D01*
X103863833Y-98994663D01*
X103934255Y-98964407D01*
X104014262Y-98930033D01*
X104236519Y-98792497D01*
X104240082Y-98789480D01*
X104240087Y-98789477D01*
X104432439Y-98626638D01*
X104432440Y-98626637D01*
X104436005Y-98623619D01*
X104468540Y-98586520D01*
X104605257Y-98430625D01*
X104605261Y-98430620D01*
X104608339Y-98427110D01*
X104638825Y-98379715D01*
X104683581Y-98310134D01*
X119729500Y-98310134D01*
X119736255Y-98372316D01*
X119787385Y-98508705D01*
X119874739Y-98625261D01*
X119991295Y-98712615D01*
X120127684Y-98763745D01*
X120189866Y-98770500D01*
X121810134Y-98770500D01*
X121872316Y-98763745D01*
X122008705Y-98712615D01*
X122125261Y-98625261D01*
X122212615Y-98508705D01*
X122263745Y-98372316D01*
X122267306Y-98339538D01*
X122294549Y-98273976D01*
X122352912Y-98233550D01*
X122423866Y-98231096D01*
X122484884Y-98267392D01*
X122495777Y-98280869D01*
X122523023Y-98319781D01*
X122680219Y-98476977D01*
X122684727Y-98480134D01*
X122684730Y-98480136D01*
X122693516Y-98486288D01*
X122862323Y-98604488D01*
X122867305Y-98606811D01*
X122867310Y-98606814D01*
X123058822Y-98696117D01*
X123063804Y-98698440D01*
X123069112Y-98699862D01*
X123069114Y-98699863D01*
X123116705Y-98712615D01*
X123278537Y-98755978D01*
X123500000Y-98775353D01*
X123721463Y-98755978D01*
X123883295Y-98712615D01*
X123930886Y-98699863D01*
X123930888Y-98699862D01*
X123936196Y-98698440D01*
X123941178Y-98696117D01*
X124132690Y-98606814D01*
X124132695Y-98606811D01*
X124137677Y-98604488D01*
X124306484Y-98486288D01*
X124315270Y-98480136D01*
X124315273Y-98480134D01*
X124319781Y-98476977D01*
X124476977Y-98319781D01*
X124481354Y-98313531D01*
X124601331Y-98142185D01*
X124601332Y-98142183D01*
X124604488Y-98137676D01*
X124606811Y-98132694D01*
X124606814Y-98132689D01*
X124631391Y-98079982D01*
X124678308Y-98026697D01*
X124746585Y-98007236D01*
X124814545Y-98027778D01*
X124859781Y-98079982D01*
X124886231Y-98136705D01*
X124886234Y-98136710D01*
X124888557Y-98141692D01*
X124952877Y-98233550D01*
X125013257Y-98319781D01*
X125016871Y-98324943D01*
X125175057Y-98483129D01*
X125179565Y-98486286D01*
X125179568Y-98486288D01*
X125199575Y-98500297D01*
X125358308Y-98611443D01*
X125363290Y-98613766D01*
X125363295Y-98613769D01*
X125466177Y-98661743D01*
X125561057Y-98705986D01*
X125777143Y-98763887D01*
X126000000Y-98783384D01*
X126222857Y-98763887D01*
X126438943Y-98705986D01*
X126533823Y-98661743D01*
X126636705Y-98613769D01*
X126636710Y-98613766D01*
X126641692Y-98611443D01*
X126696663Y-98572952D01*
X195753216Y-98572952D01*
X195757789Y-98582728D01*
X196787188Y-99612127D01*
X196801132Y-99619741D01*
X196802965Y-99619610D01*
X196809580Y-99615359D01*
X197838419Y-98586520D01*
X197844803Y-98574830D01*
X197835391Y-98562719D01*
X197698593Y-98467819D01*
X197690565Y-98463091D01*
X197464593Y-98351654D01*
X197455960Y-98348166D01*
X197215998Y-98271354D01*
X197206938Y-98269178D01*
X196958260Y-98228678D01*
X196948973Y-98227866D01*
X196697053Y-98224568D01*
X196687742Y-98225138D01*
X196438097Y-98259113D01*
X196428978Y-98261051D01*
X196187098Y-98331553D01*
X196178367Y-98334816D01*
X195949558Y-98440300D01*
X195941406Y-98444819D01*
X195762353Y-98562211D01*
X195753216Y-98572952D01*
X126696663Y-98572952D01*
X126800425Y-98500297D01*
X126820432Y-98486288D01*
X126820435Y-98486286D01*
X126824943Y-98483129D01*
X126983129Y-98324943D01*
X126986744Y-98319781D01*
X127047123Y-98233550D01*
X127111443Y-98141692D01*
X127113766Y-98136710D01*
X127113769Y-98136705D01*
X127165066Y-98026697D01*
X127205986Y-97938943D01*
X127263887Y-97722857D01*
X127282497Y-97510134D01*
X163629500Y-97510134D01*
X163636255Y-97572316D01*
X163687385Y-97708705D01*
X163774739Y-97825261D01*
X163891295Y-97912615D01*
X164027684Y-97963745D01*
X164089866Y-97970500D01*
X165710134Y-97970500D01*
X165772316Y-97963745D01*
X165908705Y-97912615D01*
X166025261Y-97825261D01*
X166112615Y-97708705D01*
X166163745Y-97572316D01*
X166167306Y-97539538D01*
X166194549Y-97473976D01*
X166252912Y-97433550D01*
X166323866Y-97431096D01*
X166384884Y-97467392D01*
X166395777Y-97480869D01*
X166423023Y-97519781D01*
X166580219Y-97676977D01*
X166584727Y-97680134D01*
X166584730Y-97680136D01*
X166593516Y-97686288D01*
X166762323Y-97804488D01*
X166767305Y-97806811D01*
X166767310Y-97806814D01*
X166958822Y-97896117D01*
X166963804Y-97898440D01*
X166969112Y-97899862D01*
X166969114Y-97899863D01*
X166997276Y-97907409D01*
X167178537Y-97955978D01*
X167400000Y-97975353D01*
X167621463Y-97955978D01*
X167802724Y-97907409D01*
X167830886Y-97899863D01*
X167830888Y-97899862D01*
X167836196Y-97898440D01*
X167841178Y-97896117D01*
X168032690Y-97806814D01*
X168032695Y-97806811D01*
X168037677Y-97804488D01*
X168206484Y-97686288D01*
X168215270Y-97680136D01*
X168215273Y-97680134D01*
X168219781Y-97676977D01*
X168376977Y-97519781D01*
X168381354Y-97513531D01*
X168501331Y-97342185D01*
X168501332Y-97342183D01*
X168504488Y-97337676D01*
X168506811Y-97332694D01*
X168506814Y-97332689D01*
X168531391Y-97279982D01*
X168578308Y-97226697D01*
X168646585Y-97207236D01*
X168714545Y-97227778D01*
X168759781Y-97279982D01*
X168786231Y-97336705D01*
X168786234Y-97336710D01*
X168788557Y-97341692D01*
X168852877Y-97433550D01*
X168913257Y-97519781D01*
X168916871Y-97524943D01*
X169075057Y-97683129D01*
X169079565Y-97686286D01*
X169079568Y-97686288D01*
X169099575Y-97700297D01*
X169258308Y-97811443D01*
X169263290Y-97813766D01*
X169263295Y-97813769D01*
X169322770Y-97841502D01*
X169461057Y-97905986D01*
X169677143Y-97963887D01*
X169900000Y-97983384D01*
X170122857Y-97963887D01*
X170338943Y-97905986D01*
X170477230Y-97841502D01*
X170536705Y-97813769D01*
X170536710Y-97813766D01*
X170541692Y-97811443D01*
X170700425Y-97700297D01*
X170720432Y-97686288D01*
X170720435Y-97686286D01*
X170724943Y-97683129D01*
X170883129Y-97524943D01*
X170886744Y-97519781D01*
X170893499Y-97510134D01*
X180629500Y-97510134D01*
X180636255Y-97572316D01*
X180687385Y-97708705D01*
X180774739Y-97825261D01*
X180891295Y-97912615D01*
X181027684Y-97963745D01*
X181089866Y-97970500D01*
X182710134Y-97970500D01*
X182772316Y-97963745D01*
X182908705Y-97912615D01*
X183025261Y-97825261D01*
X183112615Y-97708705D01*
X183163745Y-97572316D01*
X183167306Y-97539538D01*
X183194549Y-97473976D01*
X183252912Y-97433550D01*
X183323866Y-97431096D01*
X183384884Y-97467392D01*
X183395777Y-97480869D01*
X183423023Y-97519781D01*
X183580219Y-97676977D01*
X183584727Y-97680134D01*
X183584730Y-97680136D01*
X183593516Y-97686288D01*
X183762323Y-97804488D01*
X183767305Y-97806811D01*
X183767310Y-97806814D01*
X183958822Y-97896117D01*
X183963804Y-97898440D01*
X183969112Y-97899862D01*
X183969114Y-97899863D01*
X183997276Y-97907409D01*
X184178537Y-97955978D01*
X184400000Y-97975353D01*
X184621463Y-97955978D01*
X184802724Y-97907409D01*
X184830886Y-97899863D01*
X184830888Y-97899862D01*
X184836196Y-97898440D01*
X184841178Y-97896117D01*
X185032690Y-97806814D01*
X185032695Y-97806811D01*
X185037677Y-97804488D01*
X185206484Y-97686288D01*
X185215270Y-97680136D01*
X185215273Y-97680134D01*
X185219781Y-97676977D01*
X185376977Y-97519781D01*
X185381354Y-97513531D01*
X185501331Y-97342185D01*
X185501332Y-97342183D01*
X185504488Y-97337676D01*
X185506811Y-97332694D01*
X185506814Y-97332689D01*
X185531391Y-97279982D01*
X185578308Y-97226697D01*
X185646585Y-97207236D01*
X185714545Y-97227778D01*
X185759781Y-97279982D01*
X185786231Y-97336705D01*
X185786234Y-97336710D01*
X185788557Y-97341692D01*
X185852877Y-97433550D01*
X185913257Y-97519781D01*
X185916871Y-97524943D01*
X186075057Y-97683129D01*
X186079565Y-97686286D01*
X186079568Y-97686288D01*
X186099575Y-97700297D01*
X186258308Y-97811443D01*
X186263290Y-97813766D01*
X186263295Y-97813769D01*
X186322770Y-97841502D01*
X186461057Y-97905986D01*
X186677143Y-97963887D01*
X186900000Y-97983384D01*
X187122857Y-97963887D01*
X187338943Y-97905986D01*
X187477230Y-97841502D01*
X187536705Y-97813769D01*
X187536710Y-97813766D01*
X187541692Y-97811443D01*
X187700425Y-97700297D01*
X187720432Y-97686288D01*
X187720435Y-97686286D01*
X187724943Y-97683129D01*
X187883129Y-97524943D01*
X187886744Y-97519781D01*
X187947123Y-97433550D01*
X188011443Y-97341692D01*
X188013766Y-97336710D01*
X188013769Y-97336705D01*
X188065066Y-97226697D01*
X188105986Y-97138943D01*
X188163887Y-96922857D01*
X188183384Y-96700000D01*
X188163887Y-96477143D01*
X188105986Y-96261057D01*
X188053330Y-96148134D01*
X195041500Y-96148134D01*
X195048255Y-96210316D01*
X195099385Y-96346705D01*
X195186739Y-96463261D01*
X195303295Y-96550615D01*
X195439684Y-96601745D01*
X195501866Y-96608500D01*
X198098134Y-96608500D01*
X198160316Y-96601745D01*
X198296705Y-96550615D01*
X198413261Y-96463261D01*
X198500615Y-96346705D01*
X198551745Y-96210316D01*
X198558500Y-96148134D01*
X198558500Y-93551866D01*
X198551745Y-93489684D01*
X198500615Y-93353295D01*
X198413261Y-93236739D01*
X198296705Y-93149385D01*
X198160316Y-93098255D01*
X198098134Y-93091500D01*
X195501866Y-93091500D01*
X195439684Y-93098255D01*
X195303295Y-93149385D01*
X195186739Y-93236739D01*
X195099385Y-93353295D01*
X195048255Y-93489684D01*
X195041500Y-93551866D01*
X195041500Y-96148134D01*
X188053330Y-96148134D01*
X188040219Y-96120018D01*
X188013769Y-96063295D01*
X188013766Y-96063290D01*
X188011443Y-96058308D01*
X187927714Y-95938731D01*
X187886288Y-95879568D01*
X187886286Y-95879565D01*
X187883129Y-95875057D01*
X187724943Y-95716871D01*
X187720435Y-95713714D01*
X187720432Y-95713712D01*
X187570986Y-95609069D01*
X187541692Y-95588557D01*
X187536710Y-95586234D01*
X187536705Y-95586231D01*
X187433823Y-95538257D01*
X187338943Y-95494014D01*
X187122857Y-95436113D01*
X186900000Y-95416616D01*
X186677143Y-95436113D01*
X186461057Y-95494014D01*
X186366177Y-95538257D01*
X186263295Y-95586231D01*
X186263290Y-95586234D01*
X186258308Y-95588557D01*
X186229014Y-95609069D01*
X186079568Y-95713712D01*
X186079565Y-95713714D01*
X186075057Y-95716871D01*
X185916871Y-95875057D01*
X185913714Y-95879565D01*
X185913712Y-95879568D01*
X185872286Y-95938731D01*
X185788557Y-96058308D01*
X185786234Y-96063290D01*
X185786231Y-96063295D01*
X185759781Y-96120018D01*
X185712863Y-96173303D01*
X185644586Y-96192764D01*
X185576626Y-96172222D01*
X185531391Y-96120018D01*
X185506814Y-96067311D01*
X185506811Y-96067306D01*
X185504488Y-96062324D01*
X185501331Y-96057815D01*
X185380136Y-95884730D01*
X185380134Y-95884727D01*
X185376977Y-95880219D01*
X185219781Y-95723023D01*
X185215273Y-95719866D01*
X185215270Y-95719864D01*
X185057038Y-95609069D01*
X185037677Y-95595512D01*
X185032695Y-95593189D01*
X185032690Y-95593186D01*
X184841178Y-95503883D01*
X184841177Y-95503882D01*
X184836196Y-95501560D01*
X184830888Y-95500138D01*
X184830886Y-95500137D01*
X184765051Y-95482497D01*
X184621463Y-95444022D01*
X184400000Y-95424647D01*
X184178537Y-95444022D01*
X184034949Y-95482497D01*
X183969114Y-95500137D01*
X183969112Y-95500138D01*
X183963804Y-95501560D01*
X183958823Y-95503882D01*
X183958822Y-95503883D01*
X183767311Y-95593186D01*
X183767306Y-95593189D01*
X183762324Y-95595512D01*
X183757817Y-95598668D01*
X183757815Y-95598669D01*
X183584730Y-95719864D01*
X183584727Y-95719866D01*
X183580219Y-95723023D01*
X183423023Y-95880219D01*
X183395781Y-95919124D01*
X183340326Y-95963452D01*
X183269707Y-95970762D01*
X183206346Y-95938731D01*
X183170361Y-95877530D01*
X183167306Y-95860462D01*
X183164598Y-95835540D01*
X183163745Y-95827684D01*
X183112615Y-95691295D01*
X183025261Y-95574739D01*
X182908705Y-95487385D01*
X182772316Y-95436255D01*
X182710134Y-95429500D01*
X181089866Y-95429500D01*
X181027684Y-95436255D01*
X180891295Y-95487385D01*
X180774739Y-95574739D01*
X180687385Y-95691295D01*
X180636255Y-95827684D01*
X180629500Y-95889866D01*
X180629500Y-97510134D01*
X170893499Y-97510134D01*
X170947123Y-97433550D01*
X171011443Y-97341692D01*
X171013766Y-97336710D01*
X171013769Y-97336705D01*
X171065066Y-97226697D01*
X171105986Y-97138943D01*
X171163887Y-96922857D01*
X171183384Y-96700000D01*
X171163887Y-96477143D01*
X171105986Y-96261057D01*
X171040219Y-96120018D01*
X171013769Y-96063295D01*
X171013766Y-96063290D01*
X171011443Y-96058308D01*
X170927714Y-95938731D01*
X170886288Y-95879568D01*
X170886286Y-95879565D01*
X170883129Y-95875057D01*
X170724943Y-95716871D01*
X170720435Y-95713714D01*
X170720432Y-95713712D01*
X170570986Y-95609069D01*
X170541692Y-95588557D01*
X170536710Y-95586234D01*
X170536705Y-95586231D01*
X170433823Y-95538257D01*
X170338943Y-95494014D01*
X170122857Y-95436113D01*
X169900000Y-95416616D01*
X169677143Y-95436113D01*
X169461057Y-95494014D01*
X169366177Y-95538257D01*
X169263295Y-95586231D01*
X169263290Y-95586234D01*
X169258308Y-95588557D01*
X169229014Y-95609069D01*
X169079568Y-95713712D01*
X169079565Y-95713714D01*
X169075057Y-95716871D01*
X168916871Y-95875057D01*
X168913714Y-95879565D01*
X168913712Y-95879568D01*
X168872286Y-95938731D01*
X168788557Y-96058308D01*
X168786234Y-96063290D01*
X168786231Y-96063295D01*
X168759781Y-96120018D01*
X168712863Y-96173303D01*
X168644586Y-96192764D01*
X168576626Y-96172222D01*
X168531391Y-96120018D01*
X168506814Y-96067311D01*
X168506811Y-96067306D01*
X168504488Y-96062324D01*
X168501331Y-96057815D01*
X168380136Y-95884730D01*
X168380134Y-95884727D01*
X168376977Y-95880219D01*
X168219781Y-95723023D01*
X168215273Y-95719866D01*
X168215270Y-95719864D01*
X168057038Y-95609069D01*
X168037677Y-95595512D01*
X168032695Y-95593189D01*
X168032690Y-95593186D01*
X167841178Y-95503883D01*
X167841177Y-95503882D01*
X167836196Y-95501560D01*
X167830888Y-95500138D01*
X167830886Y-95500137D01*
X167765051Y-95482497D01*
X167621463Y-95444022D01*
X167400000Y-95424647D01*
X167178537Y-95444022D01*
X167034949Y-95482497D01*
X166969114Y-95500137D01*
X166969112Y-95500138D01*
X166963804Y-95501560D01*
X166958823Y-95503882D01*
X166958822Y-95503883D01*
X166767311Y-95593186D01*
X166767306Y-95593189D01*
X166762324Y-95595512D01*
X166757817Y-95598668D01*
X166757815Y-95598669D01*
X166584730Y-95719864D01*
X166584727Y-95719866D01*
X166580219Y-95723023D01*
X166423023Y-95880219D01*
X166395781Y-95919124D01*
X166340326Y-95963452D01*
X166269707Y-95970762D01*
X166206346Y-95938731D01*
X166170361Y-95877530D01*
X166167306Y-95860462D01*
X166164598Y-95835540D01*
X166163745Y-95827684D01*
X166112615Y-95691295D01*
X166025261Y-95574739D01*
X165908705Y-95487385D01*
X165772316Y-95436255D01*
X165710134Y-95429500D01*
X164089866Y-95429500D01*
X164027684Y-95436255D01*
X163891295Y-95487385D01*
X163774739Y-95574739D01*
X163687385Y-95691295D01*
X163636255Y-95827684D01*
X163629500Y-95889866D01*
X163629500Y-97510134D01*
X127282497Y-97510134D01*
X127283384Y-97500000D01*
X127263887Y-97277143D01*
X127205986Y-97061057D01*
X127138989Y-96917380D01*
X127113769Y-96863295D01*
X127113766Y-96863290D01*
X127111443Y-96858308D01*
X127027714Y-96738731D01*
X126986288Y-96679568D01*
X126986286Y-96679565D01*
X126983129Y-96675057D01*
X126824943Y-96516871D01*
X126820435Y-96513714D01*
X126820432Y-96513712D01*
X126738126Y-96456081D01*
X126641692Y-96388557D01*
X126636710Y-96386234D01*
X126636705Y-96386231D01*
X126533752Y-96338224D01*
X126438943Y-96294014D01*
X126222857Y-96236113D01*
X126000000Y-96216616D01*
X125777143Y-96236113D01*
X125561057Y-96294014D01*
X125466248Y-96338224D01*
X125363295Y-96386231D01*
X125363290Y-96386234D01*
X125358308Y-96388557D01*
X125261874Y-96456081D01*
X125179568Y-96513712D01*
X125179565Y-96513714D01*
X125175057Y-96516871D01*
X125016871Y-96675057D01*
X125013714Y-96679565D01*
X125013712Y-96679568D01*
X124972286Y-96738731D01*
X124888557Y-96858308D01*
X124886234Y-96863290D01*
X124886231Y-96863295D01*
X124859781Y-96920018D01*
X124812863Y-96973303D01*
X124744586Y-96992764D01*
X124676626Y-96972222D01*
X124631391Y-96920018D01*
X124606814Y-96867311D01*
X124606811Y-96867306D01*
X124604488Y-96862324D01*
X124601331Y-96857815D01*
X124480136Y-96684730D01*
X124480134Y-96684727D01*
X124476977Y-96680219D01*
X124319781Y-96523023D01*
X124315273Y-96519866D01*
X124315270Y-96519864D01*
X124202315Y-96440772D01*
X124137677Y-96395512D01*
X124132695Y-96393189D01*
X124132690Y-96393186D01*
X123941178Y-96303883D01*
X123941177Y-96303882D01*
X123936196Y-96301560D01*
X123930888Y-96300138D01*
X123930886Y-96300137D01*
X123865051Y-96282497D01*
X123721463Y-96244022D01*
X123500000Y-96224647D01*
X123278537Y-96244022D01*
X123134949Y-96282497D01*
X123069114Y-96300137D01*
X123069112Y-96300138D01*
X123063804Y-96301560D01*
X123058823Y-96303882D01*
X123058822Y-96303883D01*
X122867311Y-96393186D01*
X122867306Y-96393189D01*
X122862324Y-96395512D01*
X122857817Y-96398668D01*
X122857815Y-96398669D01*
X122684730Y-96519864D01*
X122684727Y-96519866D01*
X122680219Y-96523023D01*
X122523023Y-96680219D01*
X122495781Y-96719124D01*
X122440326Y-96763452D01*
X122369707Y-96770762D01*
X122306346Y-96738731D01*
X122270361Y-96677530D01*
X122267306Y-96660462D01*
X122264598Y-96635540D01*
X122263745Y-96627684D01*
X122212615Y-96491295D01*
X122125261Y-96374739D01*
X122008705Y-96287385D01*
X121872316Y-96236255D01*
X121810134Y-96229500D01*
X120189866Y-96229500D01*
X120127684Y-96236255D01*
X119991295Y-96287385D01*
X119874739Y-96374739D01*
X119787385Y-96491295D01*
X119736255Y-96627684D01*
X119729500Y-96689866D01*
X119729500Y-98310134D01*
X104683581Y-98310134D01*
X104711073Y-98267392D01*
X104749733Y-98207288D01*
X104857083Y-97968980D01*
X104897616Y-97825261D01*
X104926760Y-97721927D01*
X104926761Y-97721924D01*
X104928030Y-97717423D01*
X104944832Y-97585347D01*
X104960616Y-97461272D01*
X104960616Y-97461268D01*
X104961014Y-97458142D01*
X104963431Y-97365851D01*
X104944061Y-97105199D01*
X104935275Y-97066368D01*
X104887408Y-96854831D01*
X104886377Y-96850274D01*
X104825327Y-96693283D01*
X104793340Y-96611027D01*
X104793339Y-96611024D01*
X104791647Y-96606674D01*
X104789318Y-96602598D01*
X104670958Y-96395512D01*
X104661951Y-96379753D01*
X104500138Y-96174494D01*
X104309763Y-95995408D01*
X104130661Y-95871160D01*
X104098851Y-95849092D01*
X104098848Y-95849090D01*
X104095009Y-95846427D01*
X104090816Y-95844359D01*
X103864781Y-95732891D01*
X103864778Y-95732890D01*
X103860593Y-95730826D01*
X103836217Y-95723023D01*
X103616123Y-95652571D01*
X103611665Y-95651144D01*
X103353693Y-95609130D01*
X103239942Y-95607641D01*
X103097022Y-95605770D01*
X103097019Y-95605770D01*
X103092345Y-95605709D01*
X102833362Y-95640955D01*
X102582433Y-95714094D01*
X102578180Y-95716054D01*
X102578179Y-95716055D01*
X102541659Y-95732891D01*
X102345072Y-95823519D01*
X102306067Y-95849092D01*
X102130404Y-95964261D01*
X102130399Y-95964265D01*
X102126491Y-95966827D01*
X102097458Y-95992740D01*
X101954856Y-96120018D01*
X101931494Y-96140869D01*
X101764363Y-96341821D01*
X101761934Y-96345824D01*
X101637664Y-96550615D01*
X101628771Y-96565270D01*
X101527697Y-96806306D01*
X101463359Y-97059634D01*
X101437173Y-97319690D01*
X100508000Y-97319690D01*
X100508000Y-91298134D01*
X101441500Y-91298134D01*
X101448255Y-91360316D01*
X101499385Y-91496705D01*
X101586739Y-91613261D01*
X101703295Y-91700615D01*
X101839684Y-91751745D01*
X101901866Y-91758500D01*
X104498134Y-91758500D01*
X104560316Y-91751745D01*
X104696705Y-91700615D01*
X104813261Y-91613261D01*
X104900615Y-91496705D01*
X104951745Y-91360316D01*
X104958500Y-91298134D01*
X104958500Y-88701866D01*
X104951745Y-88639684D01*
X104900615Y-88503295D01*
X104813261Y-88386739D01*
X104696705Y-88299385D01*
X104560316Y-88248255D01*
X104498134Y-88241500D01*
X101901866Y-88241500D01*
X101839684Y-88248255D01*
X101703295Y-88299385D01*
X101586739Y-88386739D01*
X101499385Y-88503295D01*
X101448255Y-88639684D01*
X101441500Y-88701866D01*
X101441500Y-91298134D01*
X100508000Y-91298134D01*
X100508000Y-86409133D01*
X102155612Y-86409133D01*
X102164325Y-86420653D01*
X102262018Y-86492284D01*
X102269928Y-86497227D01*
X102492890Y-86614533D01*
X102501453Y-86618256D01*
X102739304Y-86701318D01*
X102748313Y-86703732D01*
X102995842Y-86750727D01*
X103005098Y-86751781D01*
X103256857Y-86761673D01*
X103266171Y-86761347D01*
X103516615Y-86733920D01*
X103525792Y-86732219D01*
X103769431Y-86668074D01*
X103778251Y-86665037D01*
X104009736Y-86565583D01*
X104018008Y-86561276D01*
X104232249Y-86428700D01*
X104239188Y-86423658D01*
X104247518Y-86411019D01*
X104241456Y-86400666D01*
X103212812Y-85372022D01*
X103198868Y-85364408D01*
X103197035Y-85364539D01*
X103190420Y-85368790D01*
X102162270Y-86396940D01*
X102155612Y-86409133D01*
X100508000Y-86409133D01*
X100508000Y-84958523D01*
X101437898Y-84958523D01*
X101449987Y-85210175D01*
X101451124Y-85219435D01*
X101500274Y-85466535D01*
X101502768Y-85475528D01*
X101587900Y-85712639D01*
X101591700Y-85721174D01*
X101710946Y-85943101D01*
X101715957Y-85950968D01*
X101779446Y-86035990D01*
X101790704Y-86044439D01*
X101803123Y-86037667D01*
X102827978Y-85012812D01*
X102834356Y-85001132D01*
X103564408Y-85001132D01*
X103564539Y-85002965D01*
X103568790Y-85009580D01*
X104599913Y-86040703D01*
X104612293Y-86047463D01*
X104620634Y-86041219D01*
X104746765Y-85845127D01*
X104751212Y-85836936D01*
X104854691Y-85607222D01*
X104857882Y-85598455D01*
X104926269Y-85355976D01*
X104928129Y-85346834D01*
X104960116Y-85095396D01*
X104960597Y-85089108D01*
X104962847Y-85003160D01*
X104962696Y-84996851D01*
X104943912Y-84744074D01*
X104942536Y-84734868D01*
X104886929Y-84489126D01*
X104884205Y-84480215D01*
X104792888Y-84245392D01*
X104788877Y-84236983D01*
X104663854Y-84018240D01*
X104658643Y-84010514D01*
X104621391Y-83963261D01*
X104609466Y-83954790D01*
X104597934Y-83961276D01*
X103572022Y-84987188D01*
X103564408Y-85001132D01*
X102834356Y-85001132D01*
X102835592Y-84998868D01*
X102835461Y-84997035D01*
X102831210Y-84990420D01*
X101801321Y-83960531D01*
X101788013Y-83953264D01*
X101777974Y-83960386D01*
X101767761Y-83972666D01*
X101762346Y-83980258D01*
X101631646Y-84195646D01*
X101627408Y-84203963D01*
X101529981Y-84436299D01*
X101527020Y-84445149D01*
X101465006Y-84689331D01*
X101463384Y-84698528D01*
X101438143Y-84949198D01*
X101437898Y-84958523D01*
X100508000Y-84958523D01*
X100508000Y-83588803D01*
X102153216Y-83588803D01*
X102157789Y-83598579D01*
X103187188Y-84627978D01*
X103201132Y-84635592D01*
X103202965Y-84635461D01*
X103209580Y-84631210D01*
X104140790Y-83700000D01*
X165936884Y-83700000D01*
X165955314Y-83910655D01*
X166010044Y-84114910D01*
X166012366Y-84119891D01*
X166012367Y-84119892D01*
X166066968Y-84236983D01*
X166099411Y-84306558D01*
X166220699Y-84479776D01*
X166370224Y-84629301D01*
X166543442Y-84750589D01*
X166548420Y-84752910D01*
X166548423Y-84752912D01*
X166730108Y-84837633D01*
X166735090Y-84839956D01*
X166740398Y-84841378D01*
X166740400Y-84841379D01*
X166934030Y-84893262D01*
X166934032Y-84893262D01*
X166939345Y-84894686D01*
X167150000Y-84913116D01*
X167360655Y-84894686D01*
X167365968Y-84893262D01*
X167365970Y-84893262D01*
X167559600Y-84841379D01*
X167559602Y-84841378D01*
X167564910Y-84839956D01*
X167569892Y-84837633D01*
X167751577Y-84752912D01*
X167751580Y-84752910D01*
X167756558Y-84750589D01*
X167929776Y-84629301D01*
X168079301Y-84479776D01*
X168200589Y-84306558D01*
X168233033Y-84236983D01*
X168287633Y-84119892D01*
X168287634Y-84119891D01*
X168289956Y-84114910D01*
X168344686Y-83910655D01*
X168363116Y-83700000D01*
X168344686Y-83489345D01*
X168343262Y-83484030D01*
X168291379Y-83290400D01*
X168291378Y-83290398D01*
X168289956Y-83285090D01*
X168271042Y-83244529D01*
X168202912Y-83098423D01*
X168202910Y-83098420D01*
X168200589Y-83093442D01*
X168079301Y-82920224D01*
X167929776Y-82770699D01*
X167756558Y-82649411D01*
X167751580Y-82647090D01*
X167751577Y-82647088D01*
X167569892Y-82562367D01*
X167569891Y-82562366D01*
X167564910Y-82560044D01*
X167559602Y-82558622D01*
X167559600Y-82558621D01*
X167365970Y-82506738D01*
X167365968Y-82506738D01*
X167360655Y-82505314D01*
X167150000Y-82486884D01*
X166939345Y-82505314D01*
X166934032Y-82506738D01*
X166934030Y-82506738D01*
X166740400Y-82558621D01*
X166740398Y-82558622D01*
X166735090Y-82560044D01*
X166730109Y-82562366D01*
X166730108Y-82562367D01*
X166548423Y-82647088D01*
X166548420Y-82647090D01*
X166543442Y-82649411D01*
X166370224Y-82770699D01*
X166220699Y-82920224D01*
X166099411Y-83093442D01*
X166097090Y-83098420D01*
X166097088Y-83098423D01*
X166028958Y-83244529D01*
X166010044Y-83285090D01*
X166008622Y-83290398D01*
X166008621Y-83290400D01*
X165956738Y-83484030D01*
X165955314Y-83489345D01*
X165936884Y-83700000D01*
X104140790Y-83700000D01*
X104238419Y-83602371D01*
X104244803Y-83590681D01*
X104235391Y-83578570D01*
X104098593Y-83483670D01*
X104090565Y-83478942D01*
X103864593Y-83367505D01*
X103855960Y-83364017D01*
X103615998Y-83287205D01*
X103606938Y-83285029D01*
X103358260Y-83244529D01*
X103348973Y-83243717D01*
X103097053Y-83240419D01*
X103087742Y-83240989D01*
X102838097Y-83274964D01*
X102828978Y-83276902D01*
X102587098Y-83347404D01*
X102578367Y-83350667D01*
X102349558Y-83456151D01*
X102341406Y-83460670D01*
X102162353Y-83578062D01*
X102153216Y-83588803D01*
X100508000Y-83588803D01*
X100508000Y-79953839D01*
X101437173Y-79953839D01*
X101449713Y-80214908D01*
X101500704Y-80471256D01*
X101589026Y-80717252D01*
X101591242Y-80721376D01*
X101655753Y-80841437D01*
X101712737Y-80947491D01*
X101715532Y-80951234D01*
X101715534Y-80951237D01*
X101866330Y-81153177D01*
X101866335Y-81153183D01*
X101869122Y-81156915D01*
X101872431Y-81160195D01*
X101872436Y-81160201D01*
X102051426Y-81337635D01*
X102054743Y-81340923D01*
X102058505Y-81343681D01*
X102058508Y-81343684D01*
X102261750Y-81492707D01*
X102265524Y-81495474D01*
X102269667Y-81497654D01*
X102269669Y-81497655D01*
X102492684Y-81614989D01*
X102492689Y-81614991D01*
X102496834Y-81617172D01*
X102743590Y-81703344D01*
X102748183Y-81704216D01*
X102995785Y-81751224D01*
X102995788Y-81751224D01*
X103000374Y-81752095D01*
X103130959Y-81757226D01*
X103256875Y-81762174D01*
X103256881Y-81762174D01*
X103261543Y-81762357D01*
X103340977Y-81753657D01*
X103516707Y-81734412D01*
X103516712Y-81734411D01*
X103521360Y-81733902D01*
X103634116Y-81704216D01*
X103769594Y-81668548D01*
X103769596Y-81668547D01*
X103774117Y-81667357D01*
X104014262Y-81564182D01*
X104131687Y-81491518D01*
X104232547Y-81429104D01*
X104232548Y-81429104D01*
X104236519Y-81426646D01*
X104240082Y-81423629D01*
X104240087Y-81423626D01*
X104432439Y-81260787D01*
X104432440Y-81260786D01*
X104436005Y-81257768D01*
X104524451Y-81156915D01*
X104605257Y-81064774D01*
X104605261Y-81064769D01*
X104608339Y-81061259D01*
X104658777Y-80982845D01*
X104747205Y-80845367D01*
X104749733Y-80841437D01*
X104773200Y-80789343D01*
X157736775Y-80789343D01*
X157753381Y-80958699D01*
X157807094Y-81120167D01*
X157810741Y-81126189D01*
X157810742Y-81126191D01*
X157827086Y-81153177D01*
X157895246Y-81265723D01*
X158013455Y-81388132D01*
X158155846Y-81481310D01*
X158162450Y-81483766D01*
X158162452Y-81483767D01*
X158198844Y-81497301D01*
X158315341Y-81540626D01*
X158484015Y-81563132D01*
X158491026Y-81562494D01*
X158491030Y-81562494D01*
X158646462Y-81548348D01*
X158653483Y-81547709D01*
X158660185Y-81545531D01*
X158660187Y-81545531D01*
X158808623Y-81497301D01*
X158808626Y-81497300D01*
X158815322Y-81495124D01*
X158961490Y-81407990D01*
X158966584Y-81403139D01*
X158966588Y-81403136D01*
X159035370Y-81337635D01*
X159084721Y-81290639D01*
X159106561Y-81257768D01*
X159174990Y-81154773D01*
X159178891Y-81148902D01*
X159239319Y-80989825D01*
X159263001Y-80821313D01*
X159263299Y-80800000D01*
X159244331Y-80630892D01*
X159188368Y-80470189D01*
X159182383Y-80460610D01*
X159117061Y-80356076D01*
X159098192Y-80325879D01*
X158978286Y-80205132D01*
X158962039Y-80194821D01*
X158923406Y-80170304D01*
X158834608Y-80113951D01*
X158674300Y-80056868D01*
X158505329Y-80036720D01*
X158498326Y-80037456D01*
X158498325Y-80037456D01*
X158343101Y-80053770D01*
X158343097Y-80053771D01*
X158336093Y-80054507D01*
X158329422Y-80056778D01*
X158181673Y-80107075D01*
X158181670Y-80107076D01*
X158175003Y-80109346D01*
X158169005Y-80113036D01*
X158169003Y-80113037D01*
X158036065Y-80194821D01*
X158036063Y-80194823D01*
X158030066Y-80198512D01*
X157908486Y-80317573D01*
X157816304Y-80460610D01*
X157758103Y-80620516D01*
X157736775Y-80789343D01*
X104773200Y-80789343D01*
X104857083Y-80603129D01*
X104928030Y-80351572D01*
X104944832Y-80219496D01*
X104960616Y-80095421D01*
X104960616Y-80095417D01*
X104961014Y-80092291D01*
X104963431Y-80000000D01*
X104944061Y-79739348D01*
X104932725Y-79689248D01*
X104887408Y-79488980D01*
X104886377Y-79484423D01*
X104791647Y-79240823D01*
X104661951Y-79013902D01*
X104500138Y-78808643D01*
X104309763Y-78629557D01*
X104095009Y-78480576D01*
X104090816Y-78478508D01*
X103864781Y-78367040D01*
X103864778Y-78367039D01*
X103860593Y-78364975D01*
X103814449Y-78350204D01*
X103616123Y-78286720D01*
X103611665Y-78285293D01*
X103353693Y-78243279D01*
X103239942Y-78241790D01*
X103097022Y-78239919D01*
X103097019Y-78239919D01*
X103092345Y-78239858D01*
X102833362Y-78275104D01*
X102582433Y-78348243D01*
X102578180Y-78350203D01*
X102578179Y-78350204D01*
X102541659Y-78367040D01*
X102345072Y-78457668D01*
X102306067Y-78483241D01*
X102130404Y-78598410D01*
X102130399Y-78598414D01*
X102126491Y-78600976D01*
X101931494Y-78775018D01*
X101764363Y-78975970D01*
X101628771Y-79199419D01*
X101527697Y-79440455D01*
X101463359Y-79693783D01*
X101437173Y-79953839D01*
X100508000Y-79953839D01*
X100508000Y-71301681D01*
X102063860Y-71301681D01*
X102063878Y-71301933D01*
X102069793Y-71310677D01*
X102101111Y-71339174D01*
X102106748Y-71343738D01*
X102382544Y-71541918D01*
X102388682Y-71545813D01*
X102685435Y-71710984D01*
X102691955Y-71714136D01*
X103005738Y-71844109D01*
X103012589Y-71846495D01*
X103339212Y-71939536D01*
X103346301Y-71941120D01*
X103681465Y-71996006D01*
X103688671Y-71996763D01*
X104027926Y-72012762D01*
X104035176Y-72012686D01*
X104374010Y-71989587D01*
X104381219Y-71988676D01*
X104715160Y-71926784D01*
X104722190Y-71925057D01*
X105046819Y-71825187D01*
X105053597Y-71822667D01*
X105364603Y-71686145D01*
X105371043Y-71682864D01*
X105664293Y-71511502D01*
X105670326Y-71507493D01*
X105928828Y-71313405D01*
X105937282Y-71302078D01*
X105937065Y-71301681D01*
X194063860Y-71301681D01*
X194063878Y-71301933D01*
X194069793Y-71310677D01*
X194101111Y-71339174D01*
X194106748Y-71343738D01*
X194382544Y-71541918D01*
X194388682Y-71545813D01*
X194685435Y-71710984D01*
X194691955Y-71714136D01*
X195005738Y-71844109D01*
X195012589Y-71846495D01*
X195339212Y-71939536D01*
X195346301Y-71941120D01*
X195681465Y-71996006D01*
X195688671Y-71996763D01*
X196027926Y-72012762D01*
X196035176Y-72012686D01*
X196374010Y-71989587D01*
X196381219Y-71988676D01*
X196715160Y-71926784D01*
X196722190Y-71925057D01*
X197046819Y-71825187D01*
X197053597Y-71822667D01*
X197364603Y-71686145D01*
X197371043Y-71682864D01*
X197664293Y-71511502D01*
X197670326Y-71507493D01*
X197928828Y-71313405D01*
X197937282Y-71302078D01*
X197930537Y-71289748D01*
X196012810Y-69372020D01*
X195998869Y-69364408D01*
X195997034Y-69364539D01*
X195990420Y-69368790D01*
X194071474Y-71287737D01*
X194063860Y-71301681D01*
X105937065Y-71301681D01*
X105930537Y-71289748D01*
X104012810Y-69372020D01*
X103998869Y-69364408D01*
X103997034Y-69364539D01*
X103990420Y-69368790D01*
X102071474Y-71287737D01*
X102063860Y-71301681D01*
X100508000Y-71301681D01*
X100508000Y-68908987D01*
X100988484Y-68908987D01*
X100997374Y-69248505D01*
X100997980Y-69255721D01*
X101045835Y-69591963D01*
X101047269Y-69599074D01*
X101133455Y-69927595D01*
X101135692Y-69934478D01*
X101259064Y-70250914D01*
X101262081Y-70257503D01*
X101421002Y-70557652D01*
X101424761Y-70563860D01*
X101617129Y-70843757D01*
X101621574Y-70849486D01*
X101688743Y-70926484D01*
X101701917Y-70934888D01*
X101711769Y-70929020D01*
X103627980Y-69012810D01*
X103634357Y-69001131D01*
X104364408Y-69001131D01*
X104364539Y-69002966D01*
X104368790Y-69009580D01*
X106286268Y-70927057D01*
X106299622Y-70934349D01*
X106309594Y-70927295D01*
X106416641Y-70799267D01*
X106420957Y-70793456D01*
X106607432Y-70509575D01*
X106611046Y-70503313D01*
X106763658Y-70199882D01*
X106766530Y-70193244D01*
X106883249Y-69874293D01*
X106885345Y-69867351D01*
X106964631Y-69537103D01*
X106965915Y-69529964D01*
X107006816Y-69191973D01*
X107007240Y-69186403D01*
X107013010Y-69002797D01*
X107012937Y-68997204D01*
X107007850Y-68908987D01*
X192988484Y-68908987D01*
X192997374Y-69248505D01*
X192997980Y-69255721D01*
X193045835Y-69591963D01*
X193047269Y-69599074D01*
X193133455Y-69927595D01*
X193135692Y-69934478D01*
X193259064Y-70250914D01*
X193262081Y-70257503D01*
X193421002Y-70557652D01*
X193424761Y-70563860D01*
X193617129Y-70843757D01*
X193621574Y-70849486D01*
X193688743Y-70926484D01*
X193701917Y-70934888D01*
X193711769Y-70929020D01*
X195627980Y-69012810D01*
X195634357Y-69001131D01*
X196364408Y-69001131D01*
X196364539Y-69002966D01*
X196368790Y-69009580D01*
X198286268Y-70927057D01*
X198299622Y-70934349D01*
X198309594Y-70927295D01*
X198416641Y-70799267D01*
X198420957Y-70793456D01*
X198607432Y-70509575D01*
X198611046Y-70503313D01*
X198763658Y-70199882D01*
X198766530Y-70193244D01*
X198883249Y-69874293D01*
X198885345Y-69867351D01*
X198964631Y-69537103D01*
X198965915Y-69529964D01*
X199006816Y-69191973D01*
X199007240Y-69186403D01*
X199013010Y-69002797D01*
X199012937Y-68997204D01*
X198993338Y-68657303D01*
X198992506Y-68650113D01*
X198934113Y-68315529D01*
X198932458Y-68308474D01*
X198835998Y-67982834D01*
X198833540Y-67976006D01*
X198700290Y-67663608D01*
X198697073Y-67657125D01*
X198528788Y-67362089D01*
X198524856Y-67356034D01*
X198323774Y-67082295D01*
X198319166Y-67076726D01*
X198313830Y-67070984D01*
X198300178Y-67062866D01*
X198299570Y-67062887D01*
X198291092Y-67068119D01*
X196372020Y-68987190D01*
X196364408Y-69001131D01*
X195634357Y-69001131D01*
X195635592Y-68998869D01*
X195635461Y-68997034D01*
X195631210Y-68990420D01*
X193712374Y-67071585D01*
X193699581Y-67064599D01*
X193688827Y-67072464D01*
X193528037Y-67277527D01*
X193523902Y-67283476D01*
X193346440Y-67573068D01*
X193343019Y-67579447D01*
X193200016Y-67887522D01*
X193197356Y-67894241D01*
X193090711Y-68216707D01*
X193088834Y-68223711D01*
X193019961Y-68556288D01*
X193018904Y-68563449D01*
X192988712Y-68901735D01*
X192988484Y-68908987D01*
X107007850Y-68908987D01*
X106993338Y-68657303D01*
X106992506Y-68650113D01*
X106934113Y-68315529D01*
X106932458Y-68308474D01*
X106835998Y-67982834D01*
X106833540Y-67976006D01*
X106700290Y-67663608D01*
X106697073Y-67657125D01*
X106528788Y-67362089D01*
X106524856Y-67356034D01*
X106323774Y-67082295D01*
X106319166Y-67076726D01*
X106313830Y-67070984D01*
X106300178Y-67062866D01*
X106299570Y-67062887D01*
X106291092Y-67068119D01*
X104372020Y-68987190D01*
X104364408Y-69001131D01*
X103634357Y-69001131D01*
X103635592Y-68998869D01*
X103635461Y-68997034D01*
X103631210Y-68990420D01*
X101712374Y-67071585D01*
X101699581Y-67064599D01*
X101688827Y-67072464D01*
X101528037Y-67277527D01*
X101523902Y-67283476D01*
X101346440Y-67573068D01*
X101343019Y-67579447D01*
X101200016Y-67887522D01*
X101197356Y-67894241D01*
X101090711Y-68216707D01*
X101088834Y-68223711D01*
X101019961Y-68556288D01*
X101018904Y-68563449D01*
X100988712Y-68901735D01*
X100988484Y-68908987D01*
X100508000Y-68908987D01*
X100508000Y-68049328D01*
X100509500Y-68029943D01*
X100511805Y-68015142D01*
X100511805Y-68015139D01*
X100513186Y-68006270D01*
X100510941Y-67989101D01*
X100510108Y-67965161D01*
X100525710Y-67707230D01*
X100527544Y-67692126D01*
X100579038Y-67411127D01*
X100582679Y-67396353D01*
X100593357Y-67362089D01*
X100667675Y-67123592D01*
X100673070Y-67109370D01*
X100790316Y-66848860D01*
X100797385Y-66835391D01*
X100878598Y-66701048D01*
X102065132Y-66701048D01*
X102071527Y-66712316D01*
X103987190Y-68627980D01*
X104001131Y-68635592D01*
X104002966Y-68635461D01*
X104009580Y-68631210D01*
X105640790Y-67000000D01*
X150786884Y-67000000D01*
X150805314Y-67210655D01*
X150806738Y-67215968D01*
X150806738Y-67215970D01*
X150855072Y-67396353D01*
X150860044Y-67414910D01*
X150949411Y-67606558D01*
X151070699Y-67779776D01*
X151220224Y-67929301D01*
X151393442Y-68050589D01*
X151398420Y-68052910D01*
X151398423Y-68052912D01*
X151580108Y-68137633D01*
X151585090Y-68139956D01*
X151590398Y-68141378D01*
X151590400Y-68141379D01*
X151784030Y-68193262D01*
X151784032Y-68193262D01*
X151789345Y-68194686D01*
X152000000Y-68213116D01*
X152210655Y-68194686D01*
X152215968Y-68193262D01*
X152215970Y-68193262D01*
X152409600Y-68141379D01*
X152409602Y-68141378D01*
X152414910Y-68139956D01*
X152419892Y-68137633D01*
X152601577Y-68052912D01*
X152601580Y-68052910D01*
X152606558Y-68050589D01*
X152779776Y-67929301D01*
X152929301Y-67779776D01*
X153050589Y-67606558D01*
X153139956Y-67414910D01*
X153144929Y-67396353D01*
X153193262Y-67215970D01*
X153193262Y-67215968D01*
X153194686Y-67210655D01*
X153213116Y-67000000D01*
X172036884Y-67000000D01*
X172055314Y-67210655D01*
X172056738Y-67215968D01*
X172056738Y-67215970D01*
X172105072Y-67396353D01*
X172110044Y-67414910D01*
X172199411Y-67606558D01*
X172320699Y-67779776D01*
X172470224Y-67929301D01*
X172643442Y-68050589D01*
X172648420Y-68052910D01*
X172648423Y-68052912D01*
X172830108Y-68137633D01*
X172835090Y-68139956D01*
X172840398Y-68141378D01*
X172840400Y-68141379D01*
X173034030Y-68193262D01*
X173034032Y-68193262D01*
X173039345Y-68194686D01*
X173250000Y-68213116D01*
X173460655Y-68194686D01*
X173465968Y-68193262D01*
X173465970Y-68193262D01*
X173659600Y-68141379D01*
X173659602Y-68141378D01*
X173664910Y-68139956D01*
X173669892Y-68137633D01*
X173851577Y-68052912D01*
X173851580Y-68052910D01*
X173856558Y-68050589D01*
X174029776Y-67929301D01*
X174179301Y-67779776D01*
X174300589Y-67606558D01*
X174389956Y-67414910D01*
X174394929Y-67396353D01*
X174443262Y-67215970D01*
X174443262Y-67215968D01*
X174444686Y-67210655D01*
X174463116Y-67000000D01*
X174444686Y-66789345D01*
X174421027Y-66701048D01*
X194065132Y-66701048D01*
X194071527Y-66712316D01*
X195987190Y-68627980D01*
X196001131Y-68635592D01*
X196002966Y-68635461D01*
X196009580Y-68631210D01*
X197927074Y-66713716D01*
X197934466Y-66700179D01*
X197927679Y-66690479D01*
X197824476Y-66602335D01*
X197818704Y-66597953D01*
X197536796Y-66408519D01*
X197530575Y-66404839D01*
X197228757Y-66249060D01*
X197222146Y-66246116D01*
X196904439Y-66126065D01*
X196897513Y-66123894D01*
X196568112Y-66041155D01*
X196561005Y-66039799D01*
X196224278Y-65995468D01*
X196217036Y-65994937D01*
X195877467Y-65989602D01*
X195870205Y-65989906D01*
X195532256Y-66023638D01*
X195525108Y-66024770D01*
X195193263Y-66097124D01*
X195186285Y-66099072D01*
X194864960Y-66209086D01*
X194858253Y-66211823D01*
X194551707Y-66358039D01*
X194545349Y-66361534D01*
X194257654Y-66542005D01*
X194251731Y-66546214D01*
X194073601Y-66688923D01*
X194065132Y-66701048D01*
X174421027Y-66701048D01*
X174389956Y-66585090D01*
X174387633Y-66580108D01*
X174302912Y-66398423D01*
X174302910Y-66398420D01*
X174300589Y-66393442D01*
X174179301Y-66220224D01*
X174029776Y-66070699D01*
X173856558Y-65949411D01*
X173851580Y-65947090D01*
X173851577Y-65947088D01*
X173669892Y-65862367D01*
X173669891Y-65862366D01*
X173664910Y-65860044D01*
X173659602Y-65858622D01*
X173659600Y-65858621D01*
X173465970Y-65806738D01*
X173465968Y-65806738D01*
X173460655Y-65805314D01*
X173250000Y-65786884D01*
X173039345Y-65805314D01*
X173034032Y-65806738D01*
X173034030Y-65806738D01*
X172840400Y-65858621D01*
X172840398Y-65858622D01*
X172835090Y-65860044D01*
X172830109Y-65862366D01*
X172830108Y-65862367D01*
X172648423Y-65947088D01*
X172648420Y-65947090D01*
X172643442Y-65949411D01*
X172470224Y-66070699D01*
X172320699Y-66220224D01*
X172199411Y-66393442D01*
X172197090Y-66398420D01*
X172197088Y-66398423D01*
X172112367Y-66580108D01*
X172110044Y-66585090D01*
X172055314Y-66789345D01*
X172036884Y-67000000D01*
X153213116Y-67000000D01*
X153194686Y-66789345D01*
X153139956Y-66585090D01*
X153137633Y-66580108D01*
X153052912Y-66398423D01*
X153052910Y-66398420D01*
X153050589Y-66393442D01*
X152929301Y-66220224D01*
X152779776Y-66070699D01*
X152606558Y-65949411D01*
X152601580Y-65947090D01*
X152601577Y-65947088D01*
X152419892Y-65862367D01*
X152419891Y-65862366D01*
X152414910Y-65860044D01*
X152409602Y-65858622D01*
X152409600Y-65858621D01*
X152215970Y-65806738D01*
X152215968Y-65806738D01*
X152210655Y-65805314D01*
X152000000Y-65786884D01*
X151789345Y-65805314D01*
X151784032Y-65806738D01*
X151784030Y-65806738D01*
X151590400Y-65858621D01*
X151590398Y-65858622D01*
X151585090Y-65860044D01*
X151580109Y-65862366D01*
X151580108Y-65862367D01*
X151398423Y-65947088D01*
X151398420Y-65947090D01*
X151393442Y-65949411D01*
X151220224Y-66070699D01*
X151070699Y-66220224D01*
X150949411Y-66393442D01*
X150947090Y-66398420D01*
X150947088Y-66398423D01*
X150862367Y-66580108D01*
X150860044Y-66585090D01*
X150805314Y-66789345D01*
X150786884Y-67000000D01*
X105640790Y-67000000D01*
X105927074Y-66713716D01*
X105934466Y-66700179D01*
X105927679Y-66690479D01*
X105824476Y-66602335D01*
X105818704Y-66597953D01*
X105536796Y-66408519D01*
X105530575Y-66404839D01*
X105228757Y-66249060D01*
X105222146Y-66246116D01*
X104904439Y-66126065D01*
X104897513Y-66123894D01*
X104568112Y-66041155D01*
X104561005Y-66039799D01*
X104224278Y-65995468D01*
X104217036Y-65994937D01*
X103877467Y-65989602D01*
X103870205Y-65989906D01*
X103532256Y-66023638D01*
X103525108Y-66024770D01*
X103193263Y-66097124D01*
X103186285Y-66099072D01*
X102864960Y-66209086D01*
X102858253Y-66211823D01*
X102551707Y-66358039D01*
X102545349Y-66361534D01*
X102257654Y-66542005D01*
X102251731Y-66546214D01*
X102073601Y-66688923D01*
X102065132Y-66701048D01*
X100878598Y-66701048D01*
X100945182Y-66590905D01*
X100953825Y-66578383D01*
X101130016Y-66353493D01*
X101140106Y-66342105D01*
X101342105Y-66140106D01*
X101353493Y-66130016D01*
X101578383Y-65953825D01*
X101590905Y-65945182D01*
X101835391Y-65797385D01*
X101848860Y-65790316D01*
X102109373Y-65673069D01*
X102123592Y-65667675D01*
X102396359Y-65582678D01*
X102411121Y-65579040D01*
X102621352Y-65540514D01*
X102692126Y-65527544D01*
X102707230Y-65525710D01*
X102957929Y-65510545D01*
X102984639Y-65511802D01*
X102984859Y-65511805D01*
X102993730Y-65513186D01*
X103002632Y-65512022D01*
X103002635Y-65512022D01*
X103025251Y-65509064D01*
X103041589Y-65508000D01*
X196950672Y-65508000D01*
X196970057Y-65509500D01*
G37*
%TD.AperFunction*%
%TD*%
M02*
