M48
; DRILL file {KiCad (6.0.2)} date Wed Apr 13 00:33:01 2022
; FORMAT={-:-/ absolute / inch / decimal}
; #@! TF.CreationDate,2022-04-13T00:33:01+08:00
; #@! TF.GenerationSoftware,Kicad,Pcbnew,(6.0.2)
; #@! TF.FileFunction,Plated,1,4,PTH
FMAT,2
INCH
; #@! TA.AperFunction,Plated,PTH,ViaDrill
T1C0.0098
; #@! TA.AperFunction,Plated,PTH,ComponentDrill
T2C0.0276
; #@! TA.AperFunction,Plated,PTH,ComponentDrill
T3C0.0307
; #@! TA.AperFunction,Plated,PTH,ComponentDrill
T4C0.0394
; #@! TA.AperFunction,Plated,PTH,ComponentDrill
T5C0.0472
; #@! TA.AperFunction,Plated,PTH,ComponentDrill
T6C0.1378
%
G90
G05
T1
X3.9843Y-4.6772
X3.9882Y-4.4291
X4.0Y-4.8268
X4.0039Y-2.874
X4.0039Y-4.185
X4.063Y-3.0472
X4.0866Y-2.878
X4.1024Y-4.7953
X4.1654Y-3.0472
X4.1732Y-3.689
X4.185Y-3.4331
X4.185Y-4.0236
X4.189Y-3.2126
X4.1969Y-5.0787
X4.2047Y-4.8307
X4.2323Y-2.6102
X4.2441Y-2.9646
X4.248Y-2.7874
X4.2559Y-5.0197
X4.2638Y-4.9173
X4.2677Y-4.189
X4.2717Y-2.6929
X4.2992Y-3.9724
X4.3228Y-2.6063
X4.3346Y-4.4961
X4.3504Y-4.7008
X4.3543Y-5.0669
X4.378Y-3.1457
X4.3937Y-4.0945
X4.3976Y-3.6417
X4.4252Y-2.6063
X4.4331Y-3.9331
X4.4528Y-4.8386
X4.4843Y-4.2126
X4.4961Y-5.0669
X4.5118Y-4.4449
X4.563Y-2.6102
X4.5709Y-3.6339
X4.5866Y-3.1102
X4.6378Y-4.9055
X4.6457Y-5.0669
X4.6654Y-4.2992
X4.7008Y-2.6142
X4.7402Y-2.8307
X4.7402Y-3.4134
X4.7441Y-3.1102
X4.7598Y-3.622
X4.7953Y-5.0669
X4.8386Y-2.6142
X4.878Y-4.9094
X4.9088Y-4.0537
X4.9331Y-5.0669
X4.9685Y-3.1457
X4.9843Y-2.6142
X4.9961Y-4.2795
X5.0118Y-3.6299
X5.0315Y-3.4094
X5.0354Y-3.252
X5.0433Y-4.563
X5.0787Y-4.0748
X5.0827Y-4.2087
X5.0866Y-5.063
X5.1063Y-3.8701
X5.1181Y-3.7126
X5.1181Y-4.378
X5.1457Y-4.9055
X5.1929Y-4.4882
X5.2441Y-5.063
X5.252Y-3.8228
X5.2874Y-4.3858
X5.2913Y-3.6614
X5.3701Y-3.7835
X5.3819Y-5.063
X5.4291Y-4.5394
X5.4488Y-4.1614
X5.4606Y-4.6299
X5.5236Y-4.3701
X5.5236Y-4.8307
X5.5236Y-5.063
X5.56Y-3.9636
X5.563Y-4.2953
X5.5866Y-2.8189
X5.6063Y-4.252
X5.6102Y-4.1024
X5.6102Y-4.9528
X5.622Y-3.1929
X5.6417Y-3.748
X5.689Y-4.1693
X5.689Y-5.0591
X5.7283Y-2.8189
X5.7559Y-4.0512
X5.7638Y-4.3898
X5.7953Y-4.5236
X5.8031Y-3.0669
X5.8031Y-3.189
X5.8071Y-2.9291
X5.8189Y-4.3287
X5.8465Y-5.0591
X5.8701Y-3.6457
X5.9173Y-4.1102
X5.9173Y-4.5236
X5.9213Y-3.8189
X5.9449Y-4.4823
X5.9606Y-4.2874
X5.9764Y-4.4685
X5.9882Y-4.4213
X6.0Y-4.4882
X6.0197Y-4.3346
X6.0236Y-4.5079
X6.0276Y-3.9567
X6.063Y-3.6693
X6.0748Y-4.2756
X6.0768Y-4.5295
X6.122Y-4.122
X6.1496Y-3.063
X6.1496Y-3.5118
X6.1732Y-3.811
X6.1969Y-4.0512
X6.2205Y-4.3583
X6.2315Y-4.3917
X6.2362Y-3.6535
X6.2362Y-4.6417
X6.2402Y-3.1811
X6.2756Y-2.6181
X6.2756Y-4.6378
X6.3661Y-2.6181
X6.3711Y-4.4321
X6.4134Y-4.4783
X6.4134Y-4.6693
X6.4528Y-2.6181
X6.4685Y-4.7913
X6.5394Y-2.6181
X6.5394Y-4.7717
X6.5984Y-4.2913
X6.6024Y-4.1024
X6.6339Y-2.6181
X6.6772Y-2.9724
X6.7165Y-2.6181
X6.7441Y-3.622
X6.7992Y-3.2953
X6.7992Y-3.4528
X6.8425Y-3.9055
X6.878Y-4.2795
X6.9055Y-4.878
X6.9094Y-4.4409
X6.9114Y-2.7528
X6.9213Y-3.7283
X6.9252Y-3.2795
X6.9567Y-2.6181
X6.9921Y-3.4882
X7.0236Y-4.1811
X7.0315Y-3.9213
X7.0472Y-4.689
X7.0472Y-4.8031
X7.0669Y-4.5472
X7.0984Y-2.6299
X7.1024Y-3.0906
X7.1102Y-3.2323
X7.126Y-3.4173
X7.2165Y-4.0433
X7.2283Y-2.6299
X7.2567Y-4.375
X7.2677Y-3.374
X7.2717Y-3.563
X7.2835Y-4.5669
X7.3071Y-4.0118
X7.3189Y-3.1575
X7.3819Y-2.6299
X7.4016Y-4.4252
X7.4094Y-3.6417
X7.437Y-4.0512
X7.4488Y-3.4843
X7.4843Y-4.5669
X7.4882Y-4.4252
X7.4961Y-2.8976
X7.5157Y-3.252
X7.5197Y-4.3346
X7.5236Y-3.9961
X7.5236Y-4.126
X7.5236Y-4.2402
X7.5276Y-2.6732
X7.5276Y-3.8819
X7.5354Y-3.0709
X7.5394Y-2.7756
X7.5433Y-5.0039
X7.5472Y-4.8937
X7.5669Y-2.6024
X7.5669Y-3.8071
X7.5866Y-5.0709
X7.5945Y-2.8504
X7.6102Y-4.8189
X7.6339Y-4.2402
X7.6378Y-3.7677
X7.6378Y-3.8504
X7.6378Y-3.937
X7.6378Y-4.0354
X7.6378Y-4.1299
X7.6496Y-2.9961
X7.6496Y-3.4134
X7.6496Y-4.4528
X7.6654Y-3.1339
X7.7126Y-2.8858
X7.7165Y-4.7953
X7.7992Y-4.752
X7.8031Y-3.4843
X7.8031Y-3.5945
X7.8031Y-4.0748
X7.8031Y-4.1654
X7.8031Y-4.2717
X7.8031Y-4.374
X7.8031Y-4.4685
X7.8031Y-4.5709
X7.8031Y-4.6693
X7.8071Y-3.2638
X7.8071Y-3.374
X7.811Y-3.0551
X7.811Y-3.1575
X7.815Y-2.9528
X7.815Y-4.8268
X7.8189Y-2.8543
T2
X5.2953Y-4.2283
X5.311Y-4.8346
X5.9843Y-2.6378
X6.5807Y-3.2953
X6.6358Y-4.5374
X6.8189Y-4.5374
X6.8209Y-2.6378
T3
X4.7638Y-3.8386
X4.7638Y-4.4488
X4.8622Y-3.8386
X4.8622Y-4.4488
X4.9606Y-3.8386
X4.9606Y-4.4488
X6.4921Y-3.8071
X6.5906Y-3.8071
X6.689Y-3.8071
X7.1614Y-3.8071
X7.2598Y-3.8071
X7.3583Y-3.8071
T4
X5.9921Y-5.0394
X6.0921Y-5.0394
X6.1921Y-5.0394
X6.2921Y-5.0394
X6.4941Y-5.0394
X6.5941Y-5.0394
X6.6941Y-5.0394
X6.7941Y-5.0394
X6.998Y-5.0394
X7.098Y-5.0394
X7.198Y-5.0394
X7.298Y-5.0394
T5
X4.063Y-3.1496
X4.063Y-3.3465
X4.063Y-3.5433
X4.063Y-3.8333
X4.063Y-4.0354
X4.063Y-4.3254
X4.063Y-4.5276
X7.748Y-3.7343
X7.748Y-3.9364
T6
X4.0945Y-2.7165
X4.0945Y-4.9606
X7.7165Y-2.7165
X7.7165Y-4.9606
T0
M30
