%TF.GenerationSoftware,KiCad,Pcbnew,(6.0.2)*%
%TF.CreationDate,2022-04-13T00:32:55+08:00*%
%TF.ProjectId,wave_generator,77617665-5f67-4656-9e65-7261746f722e,rev?*%
%TF.SameCoordinates,Original*%
%TF.FileFunction,Legend,Top*%
%TF.FilePolarity,Positive*%
%FSLAX46Y46*%
G04 Gerber Fmt 4.6, Leading zero omitted, Abs format (unit mm)*
G04 Created by KiCad (PCBNEW (6.0.2)) date 2022-04-13 00:32:55*
%MOMM*%
%LPD*%
G01*
G04 APERTURE LIST*
%ADD10C,0.254000*%
%ADD11C,0.150000*%
%ADD12C,0.120000*%
G04 APERTURE END LIST*
D10*
X175127714Y-82711788D02*
X175490571Y-84235788D01*
X175780857Y-83147217D01*
X176071142Y-84235788D01*
X176434000Y-82711788D01*
X177667714Y-84235788D02*
X177667714Y-83437502D01*
X177595142Y-83292360D01*
X177450000Y-83219788D01*
X177159714Y-83219788D01*
X177014571Y-83292360D01*
X177667714Y-84163217D02*
X177522571Y-84235788D01*
X177159714Y-84235788D01*
X177014571Y-84163217D01*
X176942000Y-84018074D01*
X176942000Y-83872931D01*
X177014571Y-83727788D01*
X177159714Y-83655217D01*
X177522571Y-83655217D01*
X177667714Y-83582645D01*
X178248285Y-83219788D02*
X178611142Y-84235788D01*
X178974000Y-83219788D01*
X180135142Y-84163217D02*
X179990000Y-84235788D01*
X179699714Y-84235788D01*
X179554571Y-84163217D01*
X179482000Y-84018074D01*
X179482000Y-83437502D01*
X179554571Y-83292360D01*
X179699714Y-83219788D01*
X179990000Y-83219788D01*
X180135142Y-83292360D01*
X180207714Y-83437502D01*
X180207714Y-83582645D01*
X179482000Y-83727788D01*
X182820285Y-82784360D02*
X182675142Y-82711788D01*
X182457428Y-82711788D01*
X182239714Y-82784360D01*
X182094571Y-82929502D01*
X182022000Y-83074645D01*
X181949428Y-83364931D01*
X181949428Y-83582645D01*
X182022000Y-83872931D01*
X182094571Y-84018074D01*
X182239714Y-84163217D01*
X182457428Y-84235788D01*
X182602571Y-84235788D01*
X182820285Y-84163217D01*
X182892857Y-84090645D01*
X182892857Y-83582645D01*
X182602571Y-83582645D01*
X184126571Y-84163217D02*
X183981428Y-84235788D01*
X183691142Y-84235788D01*
X183546000Y-84163217D01*
X183473428Y-84018074D01*
X183473428Y-83437502D01*
X183546000Y-83292360D01*
X183691142Y-83219788D01*
X183981428Y-83219788D01*
X184126571Y-83292360D01*
X184199142Y-83437502D01*
X184199142Y-83582645D01*
X183473428Y-83727788D01*
X184852285Y-83219788D02*
X184852285Y-84235788D01*
X184852285Y-83364931D02*
X184924857Y-83292360D01*
X185070000Y-83219788D01*
X185287714Y-83219788D01*
X185432857Y-83292360D01*
X185505428Y-83437502D01*
X185505428Y-84235788D01*
X186811714Y-84163217D02*
X186666571Y-84235788D01*
X186376285Y-84235788D01*
X186231142Y-84163217D01*
X186158571Y-84018074D01*
X186158571Y-83437502D01*
X186231142Y-83292360D01*
X186376285Y-83219788D01*
X186666571Y-83219788D01*
X186811714Y-83292360D01*
X186884285Y-83437502D01*
X186884285Y-83582645D01*
X186158571Y-83727788D01*
X187537428Y-84235788D02*
X187537428Y-83219788D01*
X187537428Y-83510074D02*
X187610000Y-83364931D01*
X187682571Y-83292360D01*
X187827714Y-83219788D01*
X187972857Y-83219788D01*
X189134000Y-84235788D02*
X189134000Y-83437502D01*
X189061428Y-83292360D01*
X188916285Y-83219788D01*
X188626000Y-83219788D01*
X188480857Y-83292360D01*
X189134000Y-84163217D02*
X188988857Y-84235788D01*
X188626000Y-84235788D01*
X188480857Y-84163217D01*
X188408285Y-84018074D01*
X188408285Y-83872931D01*
X188480857Y-83727788D01*
X188626000Y-83655217D01*
X188988857Y-83655217D01*
X189134000Y-83582645D01*
X189642000Y-83219788D02*
X190222571Y-83219788D01*
X189859714Y-82711788D02*
X189859714Y-84018074D01*
X189932285Y-84163217D01*
X190077428Y-84235788D01*
X190222571Y-84235788D01*
X190948285Y-84235788D02*
X190803142Y-84163217D01*
X190730571Y-84090645D01*
X190658000Y-83945502D01*
X190658000Y-83510074D01*
X190730571Y-83364931D01*
X190803142Y-83292360D01*
X190948285Y-83219788D01*
X191166000Y-83219788D01*
X191311142Y-83292360D01*
X191383714Y-83364931D01*
X191456285Y-83510074D01*
X191456285Y-83945502D01*
X191383714Y-84090645D01*
X191311142Y-84163217D01*
X191166000Y-84235788D01*
X190948285Y-84235788D01*
X192109428Y-84235788D02*
X192109428Y-83219788D01*
X192109428Y-83510074D02*
X192182000Y-83364931D01*
X192254571Y-83292360D01*
X192399714Y-83219788D01*
X192544857Y-83219788D01*
X172732857Y-86689428D02*
X172732857Y-85165428D01*
X173095714Y-85165428D01*
X173313428Y-85238000D01*
X173458571Y-85383142D01*
X173531142Y-85528285D01*
X173603714Y-85818571D01*
X173603714Y-86036285D01*
X173531142Y-86326571D01*
X173458571Y-86471714D01*
X173313428Y-86616857D01*
X173095714Y-86689428D01*
X172732857Y-86689428D01*
X174837428Y-86616857D02*
X174692285Y-86689428D01*
X174402000Y-86689428D01*
X174256857Y-86616857D01*
X174184285Y-86471714D01*
X174184285Y-85891142D01*
X174256857Y-85746000D01*
X174402000Y-85673428D01*
X174692285Y-85673428D01*
X174837428Y-85746000D01*
X174910000Y-85891142D01*
X174910000Y-86036285D01*
X174184285Y-86181428D01*
X175490571Y-86616857D02*
X175635714Y-86689428D01*
X175926000Y-86689428D01*
X176071142Y-86616857D01*
X176143714Y-86471714D01*
X176143714Y-86399142D01*
X176071142Y-86254000D01*
X175926000Y-86181428D01*
X175708285Y-86181428D01*
X175563142Y-86108857D01*
X175490571Y-85963714D01*
X175490571Y-85891142D01*
X175563142Y-85746000D01*
X175708285Y-85673428D01*
X175926000Y-85673428D01*
X176071142Y-85746000D01*
X176796857Y-86689428D02*
X176796857Y-85673428D01*
X176796857Y-85165428D02*
X176724285Y-85238000D01*
X176796857Y-85310571D01*
X176869428Y-85238000D01*
X176796857Y-85165428D01*
X176796857Y-85310571D01*
X178175714Y-85673428D02*
X178175714Y-86907142D01*
X178103142Y-87052285D01*
X178030571Y-87124857D01*
X177885428Y-87197428D01*
X177667714Y-87197428D01*
X177522571Y-87124857D01*
X178175714Y-86616857D02*
X178030571Y-86689428D01*
X177740285Y-86689428D01*
X177595142Y-86616857D01*
X177522571Y-86544285D01*
X177450000Y-86399142D01*
X177450000Y-85963714D01*
X177522571Y-85818571D01*
X177595142Y-85746000D01*
X177740285Y-85673428D01*
X178030571Y-85673428D01*
X178175714Y-85746000D01*
X178901428Y-85673428D02*
X178901428Y-86689428D01*
X178901428Y-85818571D02*
X178974000Y-85746000D01*
X179119142Y-85673428D01*
X179336857Y-85673428D01*
X179482000Y-85746000D01*
X179554571Y-85891142D01*
X179554571Y-86689428D01*
X180860857Y-86616857D02*
X180715714Y-86689428D01*
X180425428Y-86689428D01*
X180280285Y-86616857D01*
X180207714Y-86471714D01*
X180207714Y-85891142D01*
X180280285Y-85746000D01*
X180425428Y-85673428D01*
X180715714Y-85673428D01*
X180860857Y-85746000D01*
X180933428Y-85891142D01*
X180933428Y-86036285D01*
X180207714Y-86181428D01*
X182239714Y-86689428D02*
X182239714Y-85165428D01*
X182239714Y-86616857D02*
X182094571Y-86689428D01*
X181804285Y-86689428D01*
X181659142Y-86616857D01*
X181586571Y-86544285D01*
X181514000Y-86399142D01*
X181514000Y-85963714D01*
X181586571Y-85818571D01*
X181659142Y-85746000D01*
X181804285Y-85673428D01*
X182094571Y-85673428D01*
X182239714Y-85746000D01*
X184634571Y-85891142D02*
X184852285Y-85963714D01*
X184924857Y-86036285D01*
X184997428Y-86181428D01*
X184997428Y-86399142D01*
X184924857Y-86544285D01*
X184852285Y-86616857D01*
X184707142Y-86689428D01*
X184126571Y-86689428D01*
X184126571Y-85165428D01*
X184634571Y-85165428D01*
X184779714Y-85238000D01*
X184852285Y-85310571D01*
X184924857Y-85455714D01*
X184924857Y-85600857D01*
X184852285Y-85746000D01*
X184779714Y-85818571D01*
X184634571Y-85891142D01*
X184126571Y-85891142D01*
X185505428Y-85673428D02*
X185868285Y-86689428D01*
X186231142Y-85673428D02*
X185868285Y-86689428D01*
X185723142Y-87052285D01*
X185650571Y-87124857D01*
X185505428Y-87197428D01*
X188408285Y-85165428D02*
X188408285Y-86254000D01*
X188335714Y-86471714D01*
X188190571Y-86616857D01*
X187972857Y-86689428D01*
X187827714Y-86689428D01*
X189714571Y-86616857D02*
X189569428Y-86689428D01*
X189279142Y-86689428D01*
X189134000Y-86616857D01*
X189061428Y-86471714D01*
X189061428Y-85891142D01*
X189134000Y-85746000D01*
X189279142Y-85673428D01*
X189569428Y-85673428D01*
X189714571Y-85746000D01*
X189787142Y-85891142D01*
X189787142Y-86036285D01*
X189061428Y-86181428D01*
X190222571Y-85673428D02*
X190803142Y-85673428D01*
X190440285Y-86689428D02*
X190440285Y-85383142D01*
X190512857Y-85238000D01*
X190658000Y-85165428D01*
X190803142Y-85165428D01*
X191093428Y-85673428D02*
X191674000Y-85673428D01*
X191311142Y-86689428D02*
X191311142Y-85383142D01*
X191383714Y-85238000D01*
X191528857Y-85165428D01*
X191674000Y-85165428D01*
X192182000Y-86689428D02*
X192182000Y-85673428D01*
X192182000Y-85963714D02*
X192254571Y-85818571D01*
X192327142Y-85746000D01*
X192472285Y-85673428D01*
X192617428Y-85673428D01*
X193706000Y-86616857D02*
X193560857Y-86689428D01*
X193270571Y-86689428D01*
X193125428Y-86616857D01*
X193052857Y-86471714D01*
X193052857Y-85891142D01*
X193125428Y-85746000D01*
X193270571Y-85673428D01*
X193560857Y-85673428D01*
X193706000Y-85746000D01*
X193778571Y-85891142D01*
X193778571Y-86036285D01*
X193052857Y-86181428D01*
X194286571Y-85673428D02*
X194649428Y-86689428D01*
X195012285Y-85673428D02*
X194649428Y-86689428D01*
X194504285Y-87052285D01*
X194431714Y-87124857D01*
X194286571Y-87197428D01*
X177123428Y-87764211D02*
X177196000Y-87691640D01*
X177341142Y-87619068D01*
X177704000Y-87619068D01*
X177849142Y-87691640D01*
X177921714Y-87764211D01*
X177994285Y-87909354D01*
X177994285Y-88054497D01*
X177921714Y-88272211D01*
X177050857Y-89143068D01*
X177994285Y-89143068D01*
X178937714Y-87619068D02*
X179082857Y-87619068D01*
X179228000Y-87691640D01*
X179300571Y-87764211D01*
X179373142Y-87909354D01*
X179445714Y-88199640D01*
X179445714Y-88562497D01*
X179373142Y-88852782D01*
X179300571Y-88997925D01*
X179228000Y-89070497D01*
X179082857Y-89143068D01*
X178937714Y-89143068D01*
X178792571Y-89070497D01*
X178720000Y-88997925D01*
X178647428Y-88852782D01*
X178574857Y-88562497D01*
X178574857Y-88199640D01*
X178647428Y-87909354D01*
X178720000Y-87764211D01*
X178792571Y-87691640D01*
X178937714Y-87619068D01*
X180026285Y-87764211D02*
X180098857Y-87691640D01*
X180244000Y-87619068D01*
X180606857Y-87619068D01*
X180752000Y-87691640D01*
X180824571Y-87764211D01*
X180897142Y-87909354D01*
X180897142Y-88054497D01*
X180824571Y-88272211D01*
X179953714Y-89143068D01*
X180897142Y-89143068D01*
X181477714Y-87764211D02*
X181550285Y-87691640D01*
X181695428Y-87619068D01*
X182058285Y-87619068D01*
X182203428Y-87691640D01*
X182276000Y-87764211D01*
X182348571Y-87909354D01*
X182348571Y-88054497D01*
X182276000Y-88272211D01*
X181405142Y-89143068D01*
X182348571Y-89143068D01*
X183001714Y-88562497D02*
X184162857Y-88562497D01*
X185541714Y-88127068D02*
X185541714Y-89143068D01*
X185178857Y-87546497D02*
X184816000Y-88635068D01*
X185759428Y-88635068D01*
X186340000Y-88562497D02*
X187501142Y-88562497D01*
X189025142Y-89143068D02*
X188154285Y-89143068D01*
X188589714Y-89143068D02*
X188589714Y-87619068D01*
X188444571Y-87836782D01*
X188299428Y-87981925D01*
X188154285Y-88054497D01*
X189968571Y-87619068D02*
X190113714Y-87619068D01*
X190258857Y-87691640D01*
X190331428Y-87764211D01*
X190404000Y-87909354D01*
X190476571Y-88199640D01*
X190476571Y-88562497D01*
X190404000Y-88852782D01*
X190331428Y-88997925D01*
X190258857Y-89070497D01*
X190113714Y-89143068D01*
X189968571Y-89143068D01*
X189823428Y-89070497D01*
X189750857Y-88997925D01*
X189678285Y-88852782D01*
X189605714Y-88562497D01*
X189605714Y-88199640D01*
X189678285Y-87909354D01*
X189750857Y-87764211D01*
X189823428Y-87691640D01*
X189968571Y-87619068D01*
D11*
X178052380Y-125676190D02*
X177052380Y-125676190D01*
X177052380Y-125438095D01*
X177100000Y-125295238D01*
X177195238Y-125200000D01*
X177290476Y-125152380D01*
X177480952Y-125104761D01*
X177623809Y-125104761D01*
X177814285Y-125152380D01*
X177909523Y-125200000D01*
X178004761Y-125295238D01*
X178052380Y-125438095D01*
X178052380Y-125676190D01*
X177766666Y-124723809D02*
X177766666Y-124247619D01*
X178052380Y-124819047D02*
X177052380Y-124485714D01*
X178052380Y-124152380D01*
X177957142Y-123247619D02*
X178004761Y-123295238D01*
X178052380Y-123438095D01*
X178052380Y-123533333D01*
X178004761Y-123676190D01*
X177909523Y-123771428D01*
X177814285Y-123819047D01*
X177623809Y-123866666D01*
X177480952Y-123866666D01*
X177290476Y-123819047D01*
X177195238Y-123771428D01*
X177100000Y-123676190D01*
X177052380Y-123533333D01*
X177052380Y-123438095D01*
X177100000Y-123295238D01*
X177147619Y-123247619D01*
X178147619Y-123057142D02*
X178147619Y-122295238D01*
X177052380Y-121866666D02*
X177052380Y-121676190D01*
X177100000Y-121580952D01*
X177195238Y-121485714D01*
X177385714Y-121438095D01*
X177719047Y-121438095D01*
X177909523Y-121485714D01*
X178004761Y-121580952D01*
X178052380Y-121676190D01*
X178052380Y-121866666D01*
X178004761Y-121961904D01*
X177909523Y-122057142D01*
X177719047Y-122104761D01*
X177385714Y-122104761D01*
X177195238Y-122057142D01*
X177100000Y-121961904D01*
X177052380Y-121866666D01*
X177052380Y-121009523D02*
X177861904Y-121009523D01*
X177957142Y-120961904D01*
X178004761Y-120914285D01*
X178052380Y-120819047D01*
X178052380Y-120628571D01*
X178004761Y-120533333D01*
X177957142Y-120485714D01*
X177861904Y-120438095D01*
X177052380Y-120438095D01*
X177052380Y-120104761D02*
X177052380Y-119533333D01*
X178052380Y-119819047D02*
X177052380Y-119819047D01*
X177147619Y-119247619D02*
X177100000Y-119200000D01*
X177052380Y-119104761D01*
X177052380Y-118866666D01*
X177100000Y-118771428D01*
X177147619Y-118723809D01*
X177242857Y-118676190D01*
X177338095Y-118676190D01*
X177480952Y-118723809D01*
X178052380Y-119295238D01*
X178052380Y-118676190D01*
X186052390Y-125766671D02*
X185052390Y-125766671D01*
X185052390Y-125385719D01*
X185100010Y-125290481D01*
X185147629Y-125242862D01*
X185242867Y-125195243D01*
X185385724Y-125195243D01*
X185480962Y-125242862D01*
X185528581Y-125290481D01*
X185576200Y-125385719D01*
X185576200Y-125766671D01*
X185766676Y-124814290D02*
X185766676Y-124338100D01*
X186052390Y-124909528D02*
X185052390Y-124576195D01*
X186052390Y-124242862D01*
X185480962Y-123766671D02*
X185433343Y-123861909D01*
X185385724Y-123909528D01*
X185290486Y-123957147D01*
X185242867Y-123957147D01*
X185147629Y-123909528D01*
X185100010Y-123861909D01*
X185052390Y-123766671D01*
X185052390Y-123576195D01*
X185100010Y-123480957D01*
X185147629Y-123433338D01*
X185242867Y-123385719D01*
X185290486Y-123385719D01*
X185385724Y-123433338D01*
X185433343Y-123480957D01*
X185480962Y-123576195D01*
X185480962Y-123766671D01*
X185528581Y-123861909D01*
X185576200Y-123909528D01*
X185671438Y-123957147D01*
X185861914Y-123957147D01*
X185957152Y-123909528D01*
X186004771Y-123861909D01*
X186052390Y-123766671D01*
X186052390Y-123576195D01*
X186004771Y-123480957D01*
X185957152Y-123433338D01*
X185861914Y-123385719D01*
X185671438Y-123385719D01*
X185576200Y-123433338D01*
X185528581Y-123480957D01*
X185480962Y-123576195D01*
X182033322Y-125852383D02*
X182033322Y-124852383D01*
X182414274Y-124852383D01*
X182509512Y-124900003D01*
X182557131Y-124947622D01*
X182604750Y-125042860D01*
X182604750Y-125185717D01*
X182557131Y-125280955D01*
X182509512Y-125328574D01*
X182414274Y-125376193D01*
X182033322Y-125376193D01*
X182985703Y-125566669D02*
X183461893Y-125566669D01*
X182890465Y-125852383D02*
X183223798Y-124852383D01*
X183557131Y-125852383D01*
X183795227Y-124852383D02*
X184461893Y-124852383D01*
X184033322Y-125852383D01*
X179033333Y-125852380D02*
X179033333Y-124852380D01*
X179414285Y-124852380D01*
X179509523Y-124900000D01*
X179557142Y-124947619D01*
X179604761Y-125042857D01*
X179604761Y-125185714D01*
X179557142Y-125280952D01*
X179509523Y-125328571D01*
X179414285Y-125376190D01*
X179033333Y-125376190D01*
X179985714Y-125566666D02*
X180461904Y-125566666D01*
X179890476Y-125852380D02*
X180223809Y-124852380D01*
X180557142Y-125852380D01*
X181319047Y-124852380D02*
X181128571Y-124852380D01*
X181033333Y-124900000D01*
X180985714Y-124947619D01*
X180890476Y-125090476D01*
X180842857Y-125280952D01*
X180842857Y-125661904D01*
X180890476Y-125757142D01*
X180938095Y-125804761D01*
X181033333Y-125852380D01*
X181223809Y-125852380D01*
X181319047Y-125804761D01*
X181366666Y-125757142D01*
X181414285Y-125661904D01*
X181414285Y-125423809D01*
X181366666Y-125328571D01*
X181319047Y-125280952D01*
X181223809Y-125233333D01*
X181033333Y-125233333D01*
X180938095Y-125280952D01*
X180890476Y-125328571D01*
X180842857Y-125423809D01*
X169452370Y-125519054D02*
X170261894Y-125519054D01*
X170357132Y-125471435D01*
X170404751Y-125423816D01*
X170452370Y-125328578D01*
X170452370Y-125138102D01*
X170404751Y-125042864D01*
X170357132Y-124995245D01*
X170261894Y-124947626D01*
X169452370Y-124947626D01*
X169547609Y-124519054D02*
X169499990Y-124471435D01*
X169452370Y-124376197D01*
X169452370Y-124138102D01*
X169499990Y-124042864D01*
X169547609Y-123995245D01*
X169642847Y-123947626D01*
X169738085Y-123947626D01*
X169880942Y-123995245D01*
X170452370Y-124566673D01*
X170452370Y-123947626D01*
X170547609Y-123757149D02*
X170547609Y-122995245D01*
X170452370Y-122185721D02*
X169976180Y-122519054D01*
X170452370Y-122757149D02*
X169452370Y-122757149D01*
X169452370Y-122376197D01*
X169499990Y-122280959D01*
X169547609Y-122233340D01*
X169642847Y-122185721D01*
X169785704Y-122185721D01*
X169880942Y-122233340D01*
X169928561Y-122280959D01*
X169976180Y-122376197D01*
X169976180Y-122757149D01*
X169452370Y-121852387D02*
X170452370Y-121185721D01*
X169452370Y-121185721D02*
X170452370Y-121852387D01*
X167052380Y-125600000D02*
X167861904Y-125600000D01*
X167957142Y-125552380D01*
X168004761Y-125504761D01*
X168052380Y-125409523D01*
X168052380Y-125219047D01*
X168004761Y-125123809D01*
X167957142Y-125076190D01*
X167861904Y-125028571D01*
X167052380Y-125028571D01*
X167147619Y-124600000D02*
X167100000Y-124552380D01*
X167052380Y-124457142D01*
X167052380Y-124219047D01*
X167100000Y-124123809D01*
X167147619Y-124076190D01*
X167242857Y-124028571D01*
X167338095Y-124028571D01*
X167480952Y-124076190D01*
X168052380Y-124647619D01*
X168052380Y-124028571D01*
X168147619Y-123838095D02*
X168147619Y-123076190D01*
X167052380Y-122980952D02*
X167052380Y-122409523D01*
X168052380Y-122695238D02*
X167052380Y-122695238D01*
X167052380Y-122171428D02*
X168052380Y-121504761D01*
X167052380Y-121504761D02*
X168052380Y-122171428D01*
X171838095Y-124700000D02*
X171742857Y-124652380D01*
X171600000Y-124652380D01*
X171457142Y-124700000D01*
X171361904Y-124795238D01*
X171314285Y-124890476D01*
X171266666Y-125080952D01*
X171266666Y-125223809D01*
X171314285Y-125414285D01*
X171361904Y-125509523D01*
X171457142Y-125604761D01*
X171600000Y-125652380D01*
X171695238Y-125652380D01*
X171838095Y-125604761D01*
X171885714Y-125557142D01*
X171885714Y-125223809D01*
X171695238Y-125223809D01*
X172314285Y-125652380D02*
X172314285Y-124652380D01*
X172885714Y-125652380D01*
X172885714Y-124652380D01*
X173361904Y-125652380D02*
X173361904Y-124652380D01*
X173600000Y-124652380D01*
X173742857Y-124700000D01*
X173838095Y-124795238D01*
X173885714Y-124890476D01*
X173933333Y-125080952D01*
X173933333Y-125223809D01*
X173885714Y-125414285D01*
X173838095Y-125509523D01*
X173742857Y-125604761D01*
X173600000Y-125652380D01*
X173361904Y-125652380D01*
X163561904Y-124652380D02*
X164180952Y-124652380D01*
X163847619Y-125033333D01*
X163990476Y-125033333D01*
X164085714Y-125080952D01*
X164133333Y-125128571D01*
X164180952Y-125223809D01*
X164180952Y-125461904D01*
X164133333Y-125557142D01*
X164085714Y-125604761D01*
X163990476Y-125652380D01*
X163704761Y-125652380D01*
X163609523Y-125604761D01*
X163561904Y-125557142D01*
X164466666Y-124652380D02*
X164800000Y-125652380D01*
X165133333Y-124652380D01*
X165371428Y-124652380D02*
X165990476Y-124652380D01*
X165657142Y-125033333D01*
X165800000Y-125033333D01*
X165895238Y-125080952D01*
X165942857Y-125128571D01*
X165990476Y-125223809D01*
X165990476Y-125461904D01*
X165942857Y-125557142D01*
X165895238Y-125604761D01*
X165800000Y-125652380D01*
X165514285Y-125652380D01*
X165419047Y-125604761D01*
X165371428Y-125557142D01*
X159238095Y-124900000D02*
X159142857Y-124852380D01*
X159000000Y-124852380D01*
X158857142Y-124900000D01*
X158761904Y-124995238D01*
X158714285Y-125090476D01*
X158666666Y-125280952D01*
X158666666Y-125423809D01*
X158714285Y-125614285D01*
X158761904Y-125709523D01*
X158857142Y-125804761D01*
X159000000Y-125852380D01*
X159095238Y-125852380D01*
X159238095Y-125804761D01*
X159285714Y-125757142D01*
X159285714Y-125423809D01*
X159095238Y-125423809D01*
X159714285Y-125852380D02*
X159714285Y-124852380D01*
X160285714Y-125852380D01*
X160285714Y-124852380D01*
X160761904Y-125852380D02*
X160761904Y-124852380D01*
X161000000Y-124852380D01*
X161142857Y-124900000D01*
X161238095Y-124995238D01*
X161285714Y-125090476D01*
X161333333Y-125280952D01*
X161333333Y-125423809D01*
X161285714Y-125614285D01*
X161238095Y-125709523D01*
X161142857Y-125804761D01*
X161000000Y-125852380D01*
X160761904Y-125852380D01*
X157757142Y-125595238D02*
X157804761Y-125642857D01*
X157852380Y-125785714D01*
X157852380Y-125880952D01*
X157804761Y-126023809D01*
X157709523Y-126119047D01*
X157614285Y-126166666D01*
X157423809Y-126214285D01*
X157280952Y-126214285D01*
X157090476Y-126166666D01*
X156995238Y-126119047D01*
X156900000Y-126023809D01*
X156852380Y-125880952D01*
X156852380Y-125785714D01*
X156900000Y-125642857D01*
X156947619Y-125595238D01*
X157852380Y-124690476D02*
X157852380Y-125166666D01*
X156852380Y-125166666D01*
X157852380Y-124357142D02*
X156852380Y-124357142D01*
X157852380Y-123785714D02*
X157280952Y-124214285D01*
X156852380Y-123785714D02*
X157423809Y-124357142D01*
X154347619Y-123976190D02*
X155347619Y-123976190D01*
X155347619Y-124214285D01*
X155300000Y-124357142D01*
X155204761Y-124452380D01*
X155109523Y-124500000D01*
X154919047Y-124547619D01*
X154776190Y-124547619D01*
X154585714Y-124500000D01*
X154490476Y-124452380D01*
X154395238Y-124357142D01*
X154347619Y-124214285D01*
X154347619Y-123976190D01*
X154347619Y-124976190D02*
X155347619Y-124976190D01*
X155347619Y-125642857D02*
X155347619Y-125833333D01*
X155300000Y-125928571D01*
X155204761Y-126023809D01*
X155014285Y-126071428D01*
X154680952Y-126071428D01*
X154490476Y-126023809D01*
X154395238Y-125928571D01*
X154347619Y-125833333D01*
X154347619Y-125642857D01*
X154395238Y-125547619D01*
X154490476Y-125452380D01*
X154680952Y-125404761D01*
X155014285Y-125404761D01*
X155204761Y-125452380D01*
X155300000Y-125547619D01*
X155347619Y-125642857D01*
X150761904Y-124852380D02*
X151380952Y-124852380D01*
X151047619Y-125233333D01*
X151190476Y-125233333D01*
X151285714Y-125280952D01*
X151333333Y-125328571D01*
X151380952Y-125423809D01*
X151380952Y-125661904D01*
X151333333Y-125757142D01*
X151285714Y-125804761D01*
X151190476Y-125852380D01*
X150904761Y-125852380D01*
X150809523Y-125804761D01*
X150761904Y-125757142D01*
X151666666Y-124852380D02*
X152000000Y-125852380D01*
X152333333Y-124852380D01*
X152571428Y-124852380D02*
X153190476Y-124852380D01*
X152857142Y-125233333D01*
X153000000Y-125233333D01*
X153095238Y-125280952D01*
X153142857Y-125328571D01*
X153190476Y-125423809D01*
X153190476Y-125661904D01*
X153142857Y-125757142D01*
X153095238Y-125804761D01*
X153000000Y-125852380D01*
X152714285Y-125852380D01*
X152619047Y-125804761D01*
X152571428Y-125757142D01*
X192747619Y-92495238D02*
X192747619Y-92685714D01*
X192700000Y-92780952D01*
X192604761Y-92876190D01*
X192414285Y-92923809D01*
X192080952Y-92923809D01*
X191890476Y-92876190D01*
X191795238Y-92780952D01*
X191747619Y-92685714D01*
X191747619Y-92495238D01*
X191795238Y-92400000D01*
X191890476Y-92304761D01*
X192080952Y-92257142D01*
X192414285Y-92257142D01*
X192604761Y-92304761D01*
X192700000Y-92400000D01*
X192747619Y-92495238D01*
X192747619Y-93352380D02*
X191938095Y-93352380D01*
X191842857Y-93400000D01*
X191795238Y-93447619D01*
X191747619Y-93542857D01*
X191747619Y-93733333D01*
X191795238Y-93828571D01*
X191842857Y-93876190D01*
X191938095Y-93923809D01*
X192747619Y-93923809D01*
X192747619Y-94257142D02*
X192747619Y-94828571D01*
X191747619Y-94542857D02*
X192747619Y-94542857D01*
X191747619Y-95161904D02*
X192747619Y-95161904D01*
X192747619Y-95542857D01*
X192700000Y-95638095D01*
X192652380Y-95685714D01*
X192557142Y-95733333D01*
X192414285Y-95733333D01*
X192319047Y-95685714D01*
X192271428Y-95638095D01*
X192223809Y-95542857D01*
X192223809Y-95161904D01*
X192747619Y-96161904D02*
X191938095Y-96161904D01*
X191842857Y-96209523D01*
X191795238Y-96257142D01*
X191747619Y-96352380D01*
X191747619Y-96542857D01*
X191795238Y-96638095D01*
X191842857Y-96685714D01*
X191938095Y-96733333D01*
X192747619Y-96733333D01*
X192747619Y-97066666D02*
X192747619Y-97638095D01*
X191747619Y-97352380D02*
X192747619Y-97352380D01*
X192800000Y-99238095D02*
X192847619Y-99142857D01*
X192847619Y-99000000D01*
X192800000Y-98857142D01*
X192704761Y-98761904D01*
X192609523Y-98714285D01*
X192419047Y-98666666D01*
X192276190Y-98666666D01*
X192085714Y-98714285D01*
X191990476Y-98761904D01*
X191895238Y-98857142D01*
X191847619Y-99000000D01*
X191847619Y-99095238D01*
X191895238Y-99238095D01*
X191942857Y-99285714D01*
X192276190Y-99285714D01*
X192276190Y-99095238D01*
X191847619Y-99714285D02*
X192847619Y-99714285D01*
X191847619Y-100285714D01*
X192847619Y-100285714D01*
X191847619Y-100761904D02*
X192847619Y-100761904D01*
X192847619Y-101000000D01*
X192800000Y-101142857D01*
X192704761Y-101238095D01*
X192609523Y-101285714D01*
X192419047Y-101333333D01*
X192276190Y-101333333D01*
X192085714Y-101285714D01*
X191990476Y-101238095D01*
X191895238Y-101142857D01*
X191847619Y-101000000D01*
X191847619Y-100761904D01*
X107100000Y-115761904D02*
X107052380Y-115857142D01*
X107052380Y-116000000D01*
X107100000Y-116142857D01*
X107195238Y-116238095D01*
X107290476Y-116285714D01*
X107480952Y-116333333D01*
X107623809Y-116333333D01*
X107814285Y-116285714D01*
X107909523Y-116238095D01*
X108004761Y-116142857D01*
X108052380Y-116000000D01*
X108052380Y-115904761D01*
X108004761Y-115761904D01*
X107957142Y-115714285D01*
X107623809Y-115714285D01*
X107623809Y-115904761D01*
X108052380Y-115285714D02*
X107052380Y-115285714D01*
X108052380Y-114714285D01*
X107052380Y-114714285D01*
X108052380Y-114238095D02*
X107052380Y-114238095D01*
X107052380Y-114000000D01*
X107100000Y-113857142D01*
X107195238Y-113761904D01*
X107290476Y-113714285D01*
X107480952Y-113666666D01*
X107623809Y-113666666D01*
X107814285Y-113714285D01*
X107909523Y-113761904D01*
X108004761Y-113857142D01*
X108052380Y-114000000D01*
X108052380Y-114238095D01*
X107200000Y-103361904D02*
X107152380Y-103457142D01*
X107152380Y-103600000D01*
X107200000Y-103742857D01*
X107295238Y-103838095D01*
X107390476Y-103885714D01*
X107580952Y-103933333D01*
X107723809Y-103933333D01*
X107914285Y-103885714D01*
X108009523Y-103838095D01*
X108104761Y-103742857D01*
X108152380Y-103600000D01*
X108152380Y-103504761D01*
X108104761Y-103361904D01*
X108057142Y-103314285D01*
X107723809Y-103314285D01*
X107723809Y-103504761D01*
X108152380Y-102885714D02*
X107152380Y-102885714D01*
X108152380Y-102314285D01*
X107152380Y-102314285D01*
X108152380Y-101838095D02*
X107152380Y-101838095D01*
X107152380Y-101600000D01*
X107200000Y-101457142D01*
X107295238Y-101361904D01*
X107390476Y-101314285D01*
X107580952Y-101266666D01*
X107723809Y-101266666D01*
X107914285Y-101314285D01*
X108009523Y-101361904D01*
X108104761Y-101457142D01*
X108152380Y-101600000D01*
X108152380Y-101838095D01*
X107666666Y-112228571D02*
X107666666Y-111752380D01*
X107952380Y-112323809D02*
X106952380Y-111990476D01*
X107952380Y-111657142D01*
X107952380Y-111323809D02*
X107285714Y-111323809D01*
X107380952Y-111323809D02*
X107333333Y-111276190D01*
X107285714Y-111180952D01*
X107285714Y-111038095D01*
X107333333Y-110942857D01*
X107428571Y-110895238D01*
X107952380Y-110895238D01*
X107428571Y-110895238D02*
X107333333Y-110847619D01*
X107285714Y-110752380D01*
X107285714Y-110609523D01*
X107333333Y-110514285D01*
X107428571Y-110466666D01*
X107952380Y-110466666D01*
X107285714Y-109990476D02*
X108285714Y-109990476D01*
X107333333Y-109990476D02*
X107285714Y-109895238D01*
X107285714Y-109704761D01*
X107333333Y-109609523D01*
X107380952Y-109561904D01*
X107476190Y-109514285D01*
X107761904Y-109514285D01*
X107857142Y-109561904D01*
X107904761Y-109609523D01*
X107952380Y-109704761D01*
X107952380Y-109895238D01*
X107904761Y-109990476D01*
X108047619Y-109323809D02*
X108047619Y-108561904D01*
X107952380Y-108323809D02*
X106952380Y-108323809D01*
X107285714Y-107847619D02*
X107952380Y-107847619D01*
X107380952Y-107847619D02*
X107333333Y-107800000D01*
X107285714Y-107704761D01*
X107285714Y-107561904D01*
X107333333Y-107466666D01*
X107428571Y-107419047D01*
X107952380Y-107419047D01*
X107528571Y-99419047D02*
X107528571Y-99752380D01*
X108052380Y-99752380D02*
X107052380Y-99752380D01*
X107052380Y-99276190D01*
X108052380Y-98895238D02*
X107385714Y-98895238D01*
X107576190Y-98895238D02*
X107480952Y-98847619D01*
X107433333Y-98800000D01*
X107385714Y-98704761D01*
X107385714Y-98609523D01*
X108004761Y-97895238D02*
X108052380Y-97990476D01*
X108052380Y-98180952D01*
X108004761Y-98276190D01*
X107909523Y-98323809D01*
X107528571Y-98323809D01*
X107433333Y-98276190D01*
X107385714Y-98180952D01*
X107385714Y-97990476D01*
X107433333Y-97895238D01*
X107528571Y-97847619D01*
X107623809Y-97847619D01*
X107719047Y-98323809D01*
X107385714Y-96990476D02*
X108385714Y-96990476D01*
X108004761Y-96990476D02*
X108052380Y-97085714D01*
X108052380Y-97276190D01*
X108004761Y-97371428D01*
X107957142Y-97419047D01*
X107861904Y-97466666D01*
X107576190Y-97466666D01*
X107480952Y-97419047D01*
X107433333Y-97371428D01*
X107385714Y-97276190D01*
X107385714Y-97085714D01*
X107433333Y-96990476D01*
X108147619Y-96752380D02*
X108147619Y-95990476D01*
X108052380Y-95752380D02*
X107052380Y-95752380D01*
X107385714Y-95276190D02*
X108052380Y-95276190D01*
X107480952Y-95276190D02*
X107433333Y-95228571D01*
X107385714Y-95133333D01*
X107385714Y-94990476D01*
X107433333Y-94895238D01*
X107528571Y-94847619D01*
X108052380Y-94847619D01*
X107400000Y-85861904D02*
X107352380Y-85957142D01*
X107352380Y-86100000D01*
X107400000Y-86242857D01*
X107495238Y-86338095D01*
X107590476Y-86385714D01*
X107780952Y-86433333D01*
X107923809Y-86433333D01*
X108114285Y-86385714D01*
X108209523Y-86338095D01*
X108304761Y-86242857D01*
X108352380Y-86100000D01*
X108352380Y-86004761D01*
X108304761Y-85861904D01*
X108257142Y-85814285D01*
X107923809Y-85814285D01*
X107923809Y-86004761D01*
X108352380Y-85385714D02*
X107352380Y-85385714D01*
X108352380Y-84814285D01*
X107352380Y-84814285D01*
X108352380Y-84338095D02*
X107352380Y-84338095D01*
X107352380Y-84100000D01*
X107400000Y-83957142D01*
X107495238Y-83861904D01*
X107590476Y-83814285D01*
X107780952Y-83766666D01*
X107923809Y-83766666D01*
X108114285Y-83814285D01*
X108209523Y-83861904D01*
X108304761Y-83957142D01*
X108352380Y-84100000D01*
X108352380Y-84338095D01*
X107771428Y-92061904D02*
X107771428Y-91300000D01*
X108152380Y-90300000D02*
X108152380Y-90871428D01*
X108152380Y-90585714D02*
X107152380Y-90585714D01*
X107295238Y-90680952D01*
X107390476Y-90776190D01*
X107438095Y-90871428D01*
X107152380Y-89395238D02*
X107152380Y-89871428D01*
X107628571Y-89919047D01*
X107580952Y-89871428D01*
X107533333Y-89776190D01*
X107533333Y-89538095D01*
X107580952Y-89442857D01*
X107628571Y-89395238D01*
X107723809Y-89347619D01*
X107961904Y-89347619D01*
X108057142Y-89395238D01*
X108104761Y-89442857D01*
X108152380Y-89538095D01*
X108152380Y-89776190D01*
X108104761Y-89871428D01*
X108057142Y-89919047D01*
X107152380Y-89061904D02*
X108152380Y-88728571D01*
X107152380Y-88395238D01*
X107871428Y-81661904D02*
X107871428Y-80900000D01*
X108252380Y-81280952D02*
X107490476Y-81280952D01*
X108252380Y-79900000D02*
X108252380Y-80471428D01*
X108252380Y-80185714D02*
X107252380Y-80185714D01*
X107395238Y-80280952D01*
X107490476Y-80376190D01*
X107538095Y-80471428D01*
X107252380Y-78995238D02*
X107252380Y-79471428D01*
X107728571Y-79519047D01*
X107680952Y-79471428D01*
X107633333Y-79376190D01*
X107633333Y-79138095D01*
X107680952Y-79042857D01*
X107728571Y-78995238D01*
X107823809Y-78947619D01*
X108061904Y-78947619D01*
X108157142Y-78995238D01*
X108204761Y-79042857D01*
X108252380Y-79138095D01*
X108252380Y-79376190D01*
X108204761Y-79471428D01*
X108157142Y-79519047D01*
X107252380Y-78661904D02*
X108252380Y-78328571D01*
X107252380Y-77995238D01*
%TO.C,power*%
X183885714Y-72928571D02*
X184885714Y-72928571D01*
X183933333Y-72928571D02*
X183885714Y-72833333D01*
X183885714Y-72642857D01*
X183933333Y-72547619D01*
X183980952Y-72500000D01*
X184076190Y-72452380D01*
X184361904Y-72452380D01*
X184457142Y-72500000D01*
X184504761Y-72547619D01*
X184552380Y-72642857D01*
X184552380Y-72833333D01*
X184504761Y-72928571D01*
X184552380Y-71880952D02*
X184504761Y-71976190D01*
X184457142Y-72023809D01*
X184361904Y-72071428D01*
X184076190Y-72071428D01*
X183980952Y-72023809D01*
X183933333Y-71976190D01*
X183885714Y-71880952D01*
X183885714Y-71738095D01*
X183933333Y-71642857D01*
X183980952Y-71595238D01*
X184076190Y-71547619D01*
X184361904Y-71547619D01*
X184457142Y-71595238D01*
X184504761Y-71642857D01*
X184552380Y-71738095D01*
X184552380Y-71880952D01*
X183885714Y-71214285D02*
X184552380Y-71023809D01*
X184076190Y-70833333D01*
X184552380Y-70642857D01*
X183885714Y-70452380D01*
X184504761Y-69690476D02*
X184552380Y-69785714D01*
X184552380Y-69976190D01*
X184504761Y-70071428D01*
X184409523Y-70119047D01*
X184028571Y-70119047D01*
X183933333Y-70071428D01*
X183885714Y-69976190D01*
X183885714Y-69785714D01*
X183933333Y-69690476D01*
X184028571Y-69642857D01*
X184123809Y-69642857D01*
X184219047Y-70119047D01*
X184552380Y-69214285D02*
X183885714Y-69214285D01*
X184076190Y-69214285D02*
X183980952Y-69166666D01*
X183933333Y-69119047D01*
X183885714Y-69023809D01*
X183885714Y-68928571D01*
%TO.C,freq*%
X187819047Y-121785714D02*
X188200000Y-121785714D01*
X187961904Y-122452380D02*
X187961904Y-121595238D01*
X188009523Y-121500000D01*
X188104761Y-121452380D01*
X188200000Y-121452380D01*
X188533333Y-122452380D02*
X188533333Y-121785714D01*
X188533333Y-121976190D02*
X188580952Y-121880952D01*
X188628571Y-121833333D01*
X188723809Y-121785714D01*
X188819047Y-121785714D01*
X189533333Y-122404761D02*
X189438095Y-122452380D01*
X189247619Y-122452380D01*
X189152380Y-122404761D01*
X189104761Y-122309523D01*
X189104761Y-121928571D01*
X189152380Y-121833333D01*
X189247619Y-121785714D01*
X189438095Y-121785714D01*
X189533333Y-121833333D01*
X189580952Y-121928571D01*
X189580952Y-122023809D01*
X189104761Y-122119047D01*
X190438095Y-121785714D02*
X190438095Y-122785714D01*
X190438095Y-122404761D02*
X190342857Y-122452380D01*
X190152380Y-122452380D01*
X190057142Y-122404761D01*
X190009523Y-122357142D01*
X189961904Y-122261904D01*
X189961904Y-121976190D01*
X190009523Y-121880952D01*
X190057142Y-121833333D01*
X190152380Y-121785714D01*
X190342857Y-121785714D01*
X190438095Y-121833333D01*
%TO.C,amp*%
X188295238Y-119452380D02*
X188295238Y-118928571D01*
X188247619Y-118833333D01*
X188152380Y-118785714D01*
X187961904Y-118785714D01*
X187866666Y-118833333D01*
X188295238Y-119404761D02*
X188200000Y-119452380D01*
X187961904Y-119452380D01*
X187866666Y-119404761D01*
X187819047Y-119309523D01*
X187819047Y-119214285D01*
X187866666Y-119119047D01*
X187961904Y-119071428D01*
X188200000Y-119071428D01*
X188295238Y-119023809D01*
X188771428Y-119452380D02*
X188771428Y-118785714D01*
X188771428Y-118880952D02*
X188819047Y-118833333D01*
X188914285Y-118785714D01*
X189057142Y-118785714D01*
X189152380Y-118833333D01*
X189200000Y-118928571D01*
X189200000Y-119452380D01*
X189200000Y-118928571D02*
X189247619Y-118833333D01*
X189342857Y-118785714D01*
X189485714Y-118785714D01*
X189580952Y-118833333D01*
X189628571Y-118928571D01*
X189628571Y-119452380D01*
X190104761Y-118785714D02*
X190104761Y-119785714D01*
X190104761Y-118833333D02*
X190200000Y-118785714D01*
X190390476Y-118785714D01*
X190485714Y-118833333D01*
X190533333Y-118880952D01*
X190580952Y-118976190D01*
X190580952Y-119261904D01*
X190533333Y-119357142D01*
X190485714Y-119404761D01*
X190390476Y-119452380D01*
X190200000Y-119452380D01*
X190104761Y-119404761D01*
%TO.C,W1*%
X107795238Y-68352380D02*
X108033333Y-69352380D01*
X108223809Y-68638095D01*
X108414285Y-69352380D01*
X108652380Y-68352380D01*
X109557142Y-69352380D02*
X108985714Y-69352380D01*
X109271428Y-69352380D02*
X109271428Y-68352380D01*
X109176190Y-68495238D01*
X109080952Y-68590476D01*
X108985714Y-68638095D01*
%TO.C,W2*%
X190295238Y-68452380D02*
X190533333Y-69452380D01*
X190723809Y-68738095D01*
X190914285Y-69452380D01*
X191152380Y-68452380D01*
X191485714Y-68547619D02*
X191533333Y-68500000D01*
X191628571Y-68452380D01*
X191866666Y-68452380D01*
X191961904Y-68500000D01*
X192009523Y-68547619D01*
X192057142Y-68642857D01*
X192057142Y-68738095D01*
X192009523Y-68880952D01*
X191438095Y-69452380D01*
X192057142Y-69452380D01*
%TO.C,W3*%
X107995238Y-125452380D02*
X108233333Y-126452380D01*
X108423809Y-125738095D01*
X108614285Y-126452380D01*
X108852380Y-125452380D01*
X109138095Y-125452380D02*
X109757142Y-125452380D01*
X109423809Y-125833333D01*
X109566666Y-125833333D01*
X109661904Y-125880952D01*
X109709523Y-125928571D01*
X109757142Y-126023809D01*
X109757142Y-126261904D01*
X109709523Y-126357142D01*
X109661904Y-126404761D01*
X109566666Y-126452380D01*
X109280952Y-126452380D01*
X109185714Y-126404761D01*
X109138095Y-126357142D01*
%TO.C,W4*%
X190095238Y-125452380D02*
X190333333Y-126452380D01*
X190523809Y-125738095D01*
X190714285Y-126452380D01*
X190952380Y-125452380D01*
X191761904Y-125785714D02*
X191761904Y-126452380D01*
X191523809Y-125404761D02*
X191285714Y-126119047D01*
X191904761Y-126119047D01*
%TO.C,U8*%
X149088095Y-111652380D02*
X149088095Y-112461904D01*
X149135714Y-112557142D01*
X149183333Y-112604761D01*
X149278571Y-112652380D01*
X149469047Y-112652380D01*
X149564285Y-112604761D01*
X149611904Y-112557142D01*
X149659523Y-112461904D01*
X149659523Y-111652380D01*
X150278571Y-112080952D02*
X150183333Y-112033333D01*
X150135714Y-111985714D01*
X150088095Y-111890476D01*
X150088095Y-111842857D01*
X150135714Y-111747619D01*
X150183333Y-111700000D01*
X150278571Y-111652380D01*
X150469047Y-111652380D01*
X150564285Y-111700000D01*
X150611904Y-111747619D01*
X150659523Y-111842857D01*
X150659523Y-111890476D01*
X150611904Y-111985714D01*
X150564285Y-112033333D01*
X150469047Y-112080952D01*
X150278571Y-112080952D01*
X150183333Y-112128571D01*
X150135714Y-112176190D01*
X150088095Y-112271428D01*
X150088095Y-112461904D01*
X150135714Y-112557142D01*
X150183333Y-112604761D01*
X150278571Y-112652380D01*
X150469047Y-112652380D01*
X150564285Y-112604761D01*
X150611904Y-112557142D01*
X150659523Y-112461904D01*
X150659523Y-112271428D01*
X150611904Y-112176190D01*
X150564285Y-112128571D01*
X150469047Y-112080952D01*
%TO.C,C32*%
X158157142Y-120807142D02*
X158109523Y-120854761D01*
X157966666Y-120902380D01*
X157871428Y-120902380D01*
X157728571Y-120854761D01*
X157633333Y-120759523D01*
X157585714Y-120664285D01*
X157538095Y-120473809D01*
X157538095Y-120330952D01*
X157585714Y-120140476D01*
X157633333Y-120045238D01*
X157728571Y-119950000D01*
X157871428Y-119902380D01*
X157966666Y-119902380D01*
X158109523Y-119950000D01*
X158157142Y-119997619D01*
X158490476Y-119902380D02*
X159109523Y-119902380D01*
X158776190Y-120283333D01*
X158919047Y-120283333D01*
X159014285Y-120330952D01*
X159061904Y-120378571D01*
X159109523Y-120473809D01*
X159109523Y-120711904D01*
X159061904Y-120807142D01*
X159014285Y-120854761D01*
X158919047Y-120902380D01*
X158633333Y-120902380D01*
X158538095Y-120854761D01*
X158490476Y-120807142D01*
X159490476Y-119997619D02*
X159538095Y-119950000D01*
X159633333Y-119902380D01*
X159871428Y-119902380D01*
X159966666Y-119950000D01*
X160014285Y-119997619D01*
X160061904Y-120092857D01*
X160061904Y-120188095D01*
X160014285Y-120330952D01*
X159442857Y-120902380D01*
X160061904Y-120902380D01*
%TO.C,R11*%
X115552380Y-116242857D02*
X115076190Y-116576190D01*
X115552380Y-116814285D02*
X114552380Y-116814285D01*
X114552380Y-116433333D01*
X114600000Y-116338095D01*
X114647619Y-116290476D01*
X114742857Y-116242857D01*
X114885714Y-116242857D01*
X114980952Y-116290476D01*
X115028571Y-116338095D01*
X115076190Y-116433333D01*
X115076190Y-116814285D01*
X115552380Y-115290476D02*
X115552380Y-115861904D01*
X115552380Y-115576190D02*
X114552380Y-115576190D01*
X114695238Y-115671428D01*
X114790476Y-115766666D01*
X114838095Y-115861904D01*
X115552380Y-114338095D02*
X115552380Y-114909523D01*
X115552380Y-114623809D02*
X114552380Y-114623809D01*
X114695238Y-114719047D01*
X114790476Y-114814285D01*
X114838095Y-114909523D01*
%TO.C,C33*%
X154357142Y-101857142D02*
X154309523Y-101904761D01*
X154166666Y-101952380D01*
X154071428Y-101952380D01*
X153928571Y-101904761D01*
X153833333Y-101809523D01*
X153785714Y-101714285D01*
X153738095Y-101523809D01*
X153738095Y-101380952D01*
X153785714Y-101190476D01*
X153833333Y-101095238D01*
X153928571Y-101000000D01*
X154071428Y-100952380D01*
X154166666Y-100952380D01*
X154309523Y-101000000D01*
X154357142Y-101047619D01*
X154690476Y-100952380D02*
X155309523Y-100952380D01*
X154976190Y-101333333D01*
X155119047Y-101333333D01*
X155214285Y-101380952D01*
X155261904Y-101428571D01*
X155309523Y-101523809D01*
X155309523Y-101761904D01*
X155261904Y-101857142D01*
X155214285Y-101904761D01*
X155119047Y-101952380D01*
X154833333Y-101952380D01*
X154738095Y-101904761D01*
X154690476Y-101857142D01*
X155642857Y-100952380D02*
X156261904Y-100952380D01*
X155928571Y-101333333D01*
X156071428Y-101333333D01*
X156166666Y-101380952D01*
X156214285Y-101428571D01*
X156261904Y-101523809D01*
X156261904Y-101761904D01*
X156214285Y-101857142D01*
X156166666Y-101904761D01*
X156071428Y-101952380D01*
X155785714Y-101952380D01*
X155690476Y-101904761D01*
X155642857Y-101857142D01*
%TO.C,C11*%
X179557142Y-72342857D02*
X179604761Y-72390476D01*
X179652380Y-72533333D01*
X179652380Y-72628571D01*
X179604761Y-72771428D01*
X179509523Y-72866666D01*
X179414285Y-72914285D01*
X179223809Y-72961904D01*
X179080952Y-72961904D01*
X178890476Y-72914285D01*
X178795238Y-72866666D01*
X178700000Y-72771428D01*
X178652380Y-72628571D01*
X178652380Y-72533333D01*
X178700000Y-72390476D01*
X178747619Y-72342857D01*
X179652380Y-71390476D02*
X179652380Y-71961904D01*
X179652380Y-71676190D02*
X178652380Y-71676190D01*
X178795238Y-71771428D01*
X178890476Y-71866666D01*
X178938095Y-71961904D01*
X179652380Y-70438095D02*
X179652380Y-71009523D01*
X179652380Y-70723809D02*
X178652380Y-70723809D01*
X178795238Y-70819047D01*
X178890476Y-70914285D01*
X178938095Y-71009523D01*
%TO.C,RST1*%
X143752380Y-98423809D02*
X143276190Y-98757142D01*
X143752380Y-98995238D02*
X142752380Y-98995238D01*
X142752380Y-98614285D01*
X142800000Y-98519047D01*
X142847619Y-98471428D01*
X142942857Y-98423809D01*
X143085714Y-98423809D01*
X143180952Y-98471428D01*
X143228571Y-98519047D01*
X143276190Y-98614285D01*
X143276190Y-98995238D01*
X143704761Y-98042857D02*
X143752380Y-97900000D01*
X143752380Y-97661904D01*
X143704761Y-97566666D01*
X143657142Y-97519047D01*
X143561904Y-97471428D01*
X143466666Y-97471428D01*
X143371428Y-97519047D01*
X143323809Y-97566666D01*
X143276190Y-97661904D01*
X143228571Y-97852380D01*
X143180952Y-97947619D01*
X143133333Y-97995238D01*
X143038095Y-98042857D01*
X142942857Y-98042857D01*
X142847619Y-97995238D01*
X142800000Y-97947619D01*
X142752380Y-97852380D01*
X142752380Y-97614285D01*
X142800000Y-97471428D01*
X142752380Y-97185714D02*
X142752380Y-96614285D01*
X143752380Y-96900000D02*
X142752380Y-96900000D01*
X143752380Y-95757142D02*
X143752380Y-96328571D01*
X143752380Y-96042857D02*
X142752380Y-96042857D01*
X142895238Y-96138095D01*
X142990476Y-96233333D01*
X143038095Y-96328571D01*
%TO.C,C24*%
X161157142Y-109242857D02*
X161204761Y-109290476D01*
X161252380Y-109433333D01*
X161252380Y-109528571D01*
X161204761Y-109671428D01*
X161109523Y-109766666D01*
X161014285Y-109814285D01*
X160823809Y-109861904D01*
X160680952Y-109861904D01*
X160490476Y-109814285D01*
X160395238Y-109766666D01*
X160300000Y-109671428D01*
X160252380Y-109528571D01*
X160252380Y-109433333D01*
X160300000Y-109290476D01*
X160347619Y-109242857D01*
X160347619Y-108861904D02*
X160300000Y-108814285D01*
X160252380Y-108719047D01*
X160252380Y-108480952D01*
X160300000Y-108385714D01*
X160347619Y-108338095D01*
X160442857Y-108290476D01*
X160538095Y-108290476D01*
X160680952Y-108338095D01*
X161252380Y-108909523D01*
X161252380Y-108290476D01*
X160585714Y-107433333D02*
X161252380Y-107433333D01*
X160204761Y-107671428D02*
X160919047Y-107909523D01*
X160919047Y-107290476D01*
%TO.C,U2*%
X143138095Y-85252380D02*
X143138095Y-86061904D01*
X143185714Y-86157142D01*
X143233333Y-86204761D01*
X143328571Y-86252380D01*
X143519047Y-86252380D01*
X143614285Y-86204761D01*
X143661904Y-86157142D01*
X143709523Y-86061904D01*
X143709523Y-85252380D01*
X144138095Y-85347619D02*
X144185714Y-85300000D01*
X144280952Y-85252380D01*
X144519047Y-85252380D01*
X144614285Y-85300000D01*
X144661904Y-85347619D01*
X144709523Y-85442857D01*
X144709523Y-85538095D01*
X144661904Y-85680952D01*
X144090476Y-86252380D01*
X144709523Y-86252380D01*
%TO.C,R4*%
X115352380Y-100866666D02*
X114876190Y-101200000D01*
X115352380Y-101438095D02*
X114352380Y-101438095D01*
X114352380Y-101057142D01*
X114400000Y-100961904D01*
X114447619Y-100914285D01*
X114542857Y-100866666D01*
X114685714Y-100866666D01*
X114780952Y-100914285D01*
X114828571Y-100961904D01*
X114876190Y-101057142D01*
X114876190Y-101438095D01*
X114685714Y-100009523D02*
X115352380Y-100009523D01*
X114304761Y-100247619D02*
X115019047Y-100485714D01*
X115019047Y-99866666D01*
%TO.C,RV3*%
X164054761Y-93652380D02*
X163721428Y-93176190D01*
X163483333Y-93652380D02*
X163483333Y-92652380D01*
X163864285Y-92652380D01*
X163959523Y-92700000D01*
X164007142Y-92747619D01*
X164054761Y-92842857D01*
X164054761Y-92985714D01*
X164007142Y-93080952D01*
X163959523Y-93128571D01*
X163864285Y-93176190D01*
X163483333Y-93176190D01*
X164340476Y-92652380D02*
X164673809Y-93652380D01*
X165007142Y-92652380D01*
X165245238Y-92652380D02*
X165864285Y-92652380D01*
X165530952Y-93033333D01*
X165673809Y-93033333D01*
X165769047Y-93080952D01*
X165816666Y-93128571D01*
X165864285Y-93223809D01*
X165864285Y-93461904D01*
X165816666Y-93557142D01*
X165769047Y-93604761D01*
X165673809Y-93652380D01*
X165388095Y-93652380D01*
X165292857Y-93604761D01*
X165245238Y-93557142D01*
%TO.C,RV2*%
X120154761Y-109952380D02*
X119821428Y-109476190D01*
X119583333Y-109952380D02*
X119583333Y-108952380D01*
X119964285Y-108952380D01*
X120059523Y-109000000D01*
X120107142Y-109047619D01*
X120154761Y-109142857D01*
X120154761Y-109285714D01*
X120107142Y-109380952D01*
X120059523Y-109428571D01*
X119964285Y-109476190D01*
X119583333Y-109476190D01*
X120440476Y-108952380D02*
X120773809Y-109952380D01*
X121107142Y-108952380D01*
X121392857Y-109047619D02*
X121440476Y-109000000D01*
X121535714Y-108952380D01*
X121773809Y-108952380D01*
X121869047Y-109000000D01*
X121916666Y-109047619D01*
X121964285Y-109142857D01*
X121964285Y-109238095D01*
X121916666Y-109380952D01*
X121345238Y-109952380D01*
X121964285Y-109952380D01*
%TO.C,U4*%
X122638095Y-103052380D02*
X122638095Y-103861904D01*
X122685714Y-103957142D01*
X122733333Y-104004761D01*
X122828571Y-104052380D01*
X123019047Y-104052380D01*
X123114285Y-104004761D01*
X123161904Y-103957142D01*
X123209523Y-103861904D01*
X123209523Y-103052380D01*
X124114285Y-103385714D02*
X124114285Y-104052380D01*
X123876190Y-103004761D02*
X123638095Y-103719047D01*
X124257142Y-103719047D01*
%TO.C,C5*%
X115057142Y-86666666D02*
X115104761Y-86714285D01*
X115152380Y-86857142D01*
X115152380Y-86952380D01*
X115104761Y-87095238D01*
X115009523Y-87190476D01*
X114914285Y-87238095D01*
X114723809Y-87285714D01*
X114580952Y-87285714D01*
X114390476Y-87238095D01*
X114295238Y-87190476D01*
X114200000Y-87095238D01*
X114152380Y-86952380D01*
X114152380Y-86857142D01*
X114200000Y-86714285D01*
X114247619Y-86666666D01*
X114152380Y-85761904D02*
X114152380Y-86238095D01*
X114628571Y-86285714D01*
X114580952Y-86238095D01*
X114533333Y-86142857D01*
X114533333Y-85904761D01*
X114580952Y-85809523D01*
X114628571Y-85761904D01*
X114723809Y-85714285D01*
X114961904Y-85714285D01*
X115057142Y-85761904D01*
X115104761Y-85809523D01*
X115152380Y-85904761D01*
X115152380Y-86142857D01*
X115104761Y-86238095D01*
X115057142Y-86285714D01*
%TO.C,U5*%
X122638095Y-118452380D02*
X122638095Y-119261904D01*
X122685714Y-119357142D01*
X122733333Y-119404761D01*
X122828571Y-119452380D01*
X123019047Y-119452380D01*
X123114285Y-119404761D01*
X123161904Y-119357142D01*
X123209523Y-119261904D01*
X123209523Y-118452380D01*
X124161904Y-118452380D02*
X123685714Y-118452380D01*
X123638095Y-118928571D01*
X123685714Y-118880952D01*
X123780952Y-118833333D01*
X124019047Y-118833333D01*
X124114285Y-118880952D01*
X124161904Y-118928571D01*
X124209523Y-119023809D01*
X124209523Y-119261904D01*
X124161904Y-119357142D01*
X124114285Y-119404761D01*
X124019047Y-119452380D01*
X123780952Y-119452380D01*
X123685714Y-119404761D01*
X123638095Y-119357142D01*
%TO.C,C22*%
X144057142Y-121792857D02*
X144104761Y-121840476D01*
X144152380Y-121983333D01*
X144152380Y-122078571D01*
X144104761Y-122221428D01*
X144009523Y-122316666D01*
X143914285Y-122364285D01*
X143723809Y-122411904D01*
X143580952Y-122411904D01*
X143390476Y-122364285D01*
X143295238Y-122316666D01*
X143200000Y-122221428D01*
X143152380Y-122078571D01*
X143152380Y-121983333D01*
X143200000Y-121840476D01*
X143247619Y-121792857D01*
X143247619Y-121411904D02*
X143200000Y-121364285D01*
X143152380Y-121269047D01*
X143152380Y-121030952D01*
X143200000Y-120935714D01*
X143247619Y-120888095D01*
X143342857Y-120840476D01*
X143438095Y-120840476D01*
X143580952Y-120888095D01*
X144152380Y-121459523D01*
X144152380Y-120840476D01*
X143247619Y-120459523D02*
X143200000Y-120411904D01*
X143152380Y-120316666D01*
X143152380Y-120078571D01*
X143200000Y-119983333D01*
X143247619Y-119935714D01*
X143342857Y-119888095D01*
X143438095Y-119888095D01*
X143580952Y-119935714D01*
X144152380Y-120507142D01*
X144152380Y-119888095D01*
%TO.C,R24*%
X187302380Y-72292857D02*
X186826190Y-72626190D01*
X187302380Y-72864285D02*
X186302380Y-72864285D01*
X186302380Y-72483333D01*
X186350000Y-72388095D01*
X186397619Y-72340476D01*
X186492857Y-72292857D01*
X186635714Y-72292857D01*
X186730952Y-72340476D01*
X186778571Y-72388095D01*
X186826190Y-72483333D01*
X186826190Y-72864285D01*
X186397619Y-71911904D02*
X186350000Y-71864285D01*
X186302380Y-71769047D01*
X186302380Y-71530952D01*
X186350000Y-71435714D01*
X186397619Y-71388095D01*
X186492857Y-71340476D01*
X186588095Y-71340476D01*
X186730952Y-71388095D01*
X187302380Y-71959523D01*
X187302380Y-71340476D01*
X186635714Y-70483333D02*
X187302380Y-70483333D01*
X186254761Y-70721428D02*
X186969047Y-70959523D01*
X186969047Y-70340476D01*
%TO.C,J2*%
X102866666Y-93552380D02*
X102866666Y-94266666D01*
X102819047Y-94409523D01*
X102723809Y-94504761D01*
X102580952Y-94552380D01*
X102485714Y-94552380D01*
X103295238Y-93647619D02*
X103342857Y-93600000D01*
X103438095Y-93552380D01*
X103676190Y-93552380D01*
X103771428Y-93600000D01*
X103819047Y-93647619D01*
X103866666Y-93742857D01*
X103866666Y-93838095D01*
X103819047Y-93980952D01*
X103247619Y-94552380D01*
X103866666Y-94552380D01*
%TO.C,U6*%
X167288095Y-105002380D02*
X167288095Y-105811904D01*
X167335714Y-105907142D01*
X167383333Y-105954761D01*
X167478571Y-106002380D01*
X167669047Y-106002380D01*
X167764285Y-105954761D01*
X167811904Y-105907142D01*
X167859523Y-105811904D01*
X167859523Y-105002380D01*
X168764285Y-105002380D02*
X168573809Y-105002380D01*
X168478571Y-105050000D01*
X168430952Y-105097619D01*
X168335714Y-105240476D01*
X168288095Y-105430952D01*
X168288095Y-105811904D01*
X168335714Y-105907142D01*
X168383333Y-105954761D01*
X168478571Y-106002380D01*
X168669047Y-106002380D01*
X168764285Y-105954761D01*
X168811904Y-105907142D01*
X168859523Y-105811904D01*
X168859523Y-105573809D01*
X168811904Y-105478571D01*
X168764285Y-105430952D01*
X168669047Y-105383333D01*
X168478571Y-105383333D01*
X168383333Y-105430952D01*
X168335714Y-105478571D01*
X168288095Y-105573809D01*
%TO.C,C23*%
X153307142Y-121792857D02*
X153354761Y-121840476D01*
X153402380Y-121983333D01*
X153402380Y-122078571D01*
X153354761Y-122221428D01*
X153259523Y-122316666D01*
X153164285Y-122364285D01*
X152973809Y-122411904D01*
X152830952Y-122411904D01*
X152640476Y-122364285D01*
X152545238Y-122316666D01*
X152450000Y-122221428D01*
X152402380Y-122078571D01*
X152402380Y-121983333D01*
X152450000Y-121840476D01*
X152497619Y-121792857D01*
X152497619Y-121411904D02*
X152450000Y-121364285D01*
X152402380Y-121269047D01*
X152402380Y-121030952D01*
X152450000Y-120935714D01*
X152497619Y-120888095D01*
X152592857Y-120840476D01*
X152688095Y-120840476D01*
X152830952Y-120888095D01*
X153402380Y-121459523D01*
X153402380Y-120840476D01*
X152402380Y-120507142D02*
X152402380Y-119888095D01*
X152783333Y-120221428D01*
X152783333Y-120078571D01*
X152830952Y-119983333D01*
X152878571Y-119935714D01*
X152973809Y-119888095D01*
X153211904Y-119888095D01*
X153307142Y-119935714D01*
X153354761Y-119983333D01*
X153402380Y-120078571D01*
X153402380Y-120364285D01*
X153354761Y-120459523D01*
X153307142Y-120507142D01*
%TO.C,R18*%
X163302380Y-102642857D02*
X162826190Y-102976190D01*
X163302380Y-103214285D02*
X162302380Y-103214285D01*
X162302380Y-102833333D01*
X162350000Y-102738095D01*
X162397619Y-102690476D01*
X162492857Y-102642857D01*
X162635714Y-102642857D01*
X162730952Y-102690476D01*
X162778571Y-102738095D01*
X162826190Y-102833333D01*
X162826190Y-103214285D01*
X163302380Y-101690476D02*
X163302380Y-102261904D01*
X163302380Y-101976190D02*
X162302380Y-101976190D01*
X162445238Y-102071428D01*
X162540476Y-102166666D01*
X162588095Y-102261904D01*
X162730952Y-101119047D02*
X162683333Y-101214285D01*
X162635714Y-101261904D01*
X162540476Y-101309523D01*
X162492857Y-101309523D01*
X162397619Y-101261904D01*
X162350000Y-101214285D01*
X162302380Y-101119047D01*
X162302380Y-100928571D01*
X162350000Y-100833333D01*
X162397619Y-100785714D01*
X162492857Y-100738095D01*
X162540476Y-100738095D01*
X162635714Y-100785714D01*
X162683333Y-100833333D01*
X162730952Y-100928571D01*
X162730952Y-101119047D01*
X162778571Y-101214285D01*
X162826190Y-101261904D01*
X162921428Y-101309523D01*
X163111904Y-101309523D01*
X163207142Y-101261904D01*
X163254761Y-101214285D01*
X163302380Y-101119047D01*
X163302380Y-100928571D01*
X163254761Y-100833333D01*
X163207142Y-100785714D01*
X163111904Y-100738095D01*
X162921428Y-100738095D01*
X162826190Y-100785714D01*
X162778571Y-100833333D01*
X162730952Y-100928571D01*
%TO.C,X1*%
X144440476Y-123052380D02*
X145107142Y-124052380D01*
X145107142Y-123052380D02*
X144440476Y-124052380D01*
X146011904Y-124052380D02*
X145440476Y-124052380D01*
X145726190Y-124052380D02*
X145726190Y-123052380D01*
X145630952Y-123195238D01*
X145535714Y-123290476D01*
X145440476Y-123338095D01*
%TO.C,TP5*%
X149102380Y-68261904D02*
X149102380Y-67690476D01*
X150102380Y-67976190D02*
X149102380Y-67976190D01*
X150102380Y-67357142D02*
X149102380Y-67357142D01*
X149102380Y-66976190D01*
X149150000Y-66880952D01*
X149197619Y-66833333D01*
X149292857Y-66785714D01*
X149435714Y-66785714D01*
X149530952Y-66833333D01*
X149578571Y-66880952D01*
X149626190Y-66976190D01*
X149626190Y-67357142D01*
X149102380Y-65880952D02*
X149102380Y-66357142D01*
X149578571Y-66404761D01*
X149530952Y-66357142D01*
X149483333Y-66261904D01*
X149483333Y-66023809D01*
X149530952Y-65928571D01*
X149578571Y-65880952D01*
X149673809Y-65833333D01*
X149911904Y-65833333D01*
X150007142Y-65880952D01*
X150054761Y-65928571D01*
X150102380Y-66023809D01*
X150102380Y-66261904D01*
X150054761Y-66357142D01*
X150007142Y-66404761D01*
%TO.C,C26*%
X165157142Y-113057142D02*
X165109523Y-113104761D01*
X164966666Y-113152380D01*
X164871428Y-113152380D01*
X164728571Y-113104761D01*
X164633333Y-113009523D01*
X164585714Y-112914285D01*
X164538095Y-112723809D01*
X164538095Y-112580952D01*
X164585714Y-112390476D01*
X164633333Y-112295238D01*
X164728571Y-112200000D01*
X164871428Y-112152380D01*
X164966666Y-112152380D01*
X165109523Y-112200000D01*
X165157142Y-112247619D01*
X165538095Y-112247619D02*
X165585714Y-112200000D01*
X165680952Y-112152380D01*
X165919047Y-112152380D01*
X166014285Y-112200000D01*
X166061904Y-112247619D01*
X166109523Y-112342857D01*
X166109523Y-112438095D01*
X166061904Y-112580952D01*
X165490476Y-113152380D01*
X166109523Y-113152380D01*
X166966666Y-112152380D02*
X166776190Y-112152380D01*
X166680952Y-112200000D01*
X166633333Y-112247619D01*
X166538095Y-112390476D01*
X166490476Y-112580952D01*
X166490476Y-112961904D01*
X166538095Y-113057142D01*
X166585714Y-113104761D01*
X166680952Y-113152380D01*
X166871428Y-113152380D01*
X166966666Y-113104761D01*
X167014285Y-113057142D01*
X167061904Y-112961904D01*
X167061904Y-112723809D01*
X167014285Y-112628571D01*
X166966666Y-112580952D01*
X166871428Y-112533333D01*
X166680952Y-112533333D01*
X166585714Y-112580952D01*
X166538095Y-112628571D01*
X166490476Y-112723809D01*
%TO.C,R14*%
X139657142Y-112902380D02*
X139323809Y-112426190D01*
X139085714Y-112902380D02*
X139085714Y-111902380D01*
X139466666Y-111902380D01*
X139561904Y-111950000D01*
X139609523Y-111997619D01*
X139657142Y-112092857D01*
X139657142Y-112235714D01*
X139609523Y-112330952D01*
X139561904Y-112378571D01*
X139466666Y-112426190D01*
X139085714Y-112426190D01*
X140609523Y-112902380D02*
X140038095Y-112902380D01*
X140323809Y-112902380D02*
X140323809Y-111902380D01*
X140228571Y-112045238D01*
X140133333Y-112140476D01*
X140038095Y-112188095D01*
X141466666Y-112235714D02*
X141466666Y-112902380D01*
X141228571Y-111854761D02*
X140990476Y-112569047D01*
X141609523Y-112569047D01*
%TO.C,R15*%
X140302380Y-93392857D02*
X139826190Y-93726190D01*
X140302380Y-93964285D02*
X139302380Y-93964285D01*
X139302380Y-93583333D01*
X139350000Y-93488095D01*
X139397619Y-93440476D01*
X139492857Y-93392857D01*
X139635714Y-93392857D01*
X139730952Y-93440476D01*
X139778571Y-93488095D01*
X139826190Y-93583333D01*
X139826190Y-93964285D01*
X140302380Y-92440476D02*
X140302380Y-93011904D01*
X140302380Y-92726190D02*
X139302380Y-92726190D01*
X139445238Y-92821428D01*
X139540476Y-92916666D01*
X139588095Y-93011904D01*
X139302380Y-91535714D02*
X139302380Y-92011904D01*
X139778571Y-92059523D01*
X139730952Y-92011904D01*
X139683333Y-91916666D01*
X139683333Y-91678571D01*
X139730952Y-91583333D01*
X139778571Y-91535714D01*
X139873809Y-91488095D01*
X140111904Y-91488095D01*
X140207142Y-91535714D01*
X140254761Y-91583333D01*
X140302380Y-91678571D01*
X140302380Y-91916666D01*
X140254761Y-92011904D01*
X140207142Y-92059523D01*
%TO.C,F1*%
X110666666Y-71328571D02*
X110333333Y-71328571D01*
X110333333Y-71852380D02*
X110333333Y-70852380D01*
X110809523Y-70852380D01*
X111714285Y-71852380D02*
X111142857Y-71852380D01*
X111428571Y-71852380D02*
X111428571Y-70852380D01*
X111333333Y-70995238D01*
X111238095Y-71090476D01*
X111142857Y-71138095D01*
%TO.C,R6*%
X134952380Y-100866666D02*
X134476190Y-101200000D01*
X134952380Y-101438095D02*
X133952380Y-101438095D01*
X133952380Y-101057142D01*
X134000000Y-100961904D01*
X134047619Y-100914285D01*
X134142857Y-100866666D01*
X134285714Y-100866666D01*
X134380952Y-100914285D01*
X134428571Y-100961904D01*
X134476190Y-101057142D01*
X134476190Y-101438095D01*
X133952380Y-100009523D02*
X133952380Y-100200000D01*
X134000000Y-100295238D01*
X134047619Y-100342857D01*
X134190476Y-100438095D01*
X134380952Y-100485714D01*
X134761904Y-100485714D01*
X134857142Y-100438095D01*
X134904761Y-100390476D01*
X134952380Y-100295238D01*
X134952380Y-100104761D01*
X134904761Y-100009523D01*
X134857142Y-99961904D01*
X134761904Y-99914285D01*
X134523809Y-99914285D01*
X134428571Y-99961904D01*
X134380952Y-100009523D01*
X134333333Y-100104761D01*
X134333333Y-100295238D01*
X134380952Y-100390476D01*
X134428571Y-100438095D01*
X134523809Y-100485714D01*
%TO.C,C2*%
X114857142Y-72166666D02*
X114904761Y-72214285D01*
X114952380Y-72357142D01*
X114952380Y-72452380D01*
X114904761Y-72595238D01*
X114809523Y-72690476D01*
X114714285Y-72738095D01*
X114523809Y-72785714D01*
X114380952Y-72785714D01*
X114190476Y-72738095D01*
X114095238Y-72690476D01*
X114000000Y-72595238D01*
X113952380Y-72452380D01*
X113952380Y-72357142D01*
X114000000Y-72214285D01*
X114047619Y-72166666D01*
X114047619Y-71785714D02*
X114000000Y-71738095D01*
X113952380Y-71642857D01*
X113952380Y-71404761D01*
X114000000Y-71309523D01*
X114047619Y-71261904D01*
X114142857Y-71214285D01*
X114238095Y-71214285D01*
X114380952Y-71261904D01*
X114952380Y-71833333D01*
X114952380Y-71214285D01*
%TO.C,R19*%
X176102380Y-102842857D02*
X175626190Y-103176190D01*
X176102380Y-103414285D02*
X175102380Y-103414285D01*
X175102380Y-103033333D01*
X175150000Y-102938095D01*
X175197619Y-102890476D01*
X175292857Y-102842857D01*
X175435714Y-102842857D01*
X175530952Y-102890476D01*
X175578571Y-102938095D01*
X175626190Y-103033333D01*
X175626190Y-103414285D01*
X176102380Y-101890476D02*
X176102380Y-102461904D01*
X176102380Y-102176190D02*
X175102380Y-102176190D01*
X175245238Y-102271428D01*
X175340476Y-102366666D01*
X175388095Y-102461904D01*
X176102380Y-101414285D02*
X176102380Y-101223809D01*
X176054761Y-101128571D01*
X176007142Y-101080952D01*
X175864285Y-100985714D01*
X175673809Y-100938095D01*
X175292857Y-100938095D01*
X175197619Y-100985714D01*
X175150000Y-101033333D01*
X175102380Y-101128571D01*
X175102380Y-101319047D01*
X175150000Y-101414285D01*
X175197619Y-101461904D01*
X175292857Y-101509523D01*
X175530952Y-101509523D01*
X175626190Y-101461904D01*
X175673809Y-101414285D01*
X175721428Y-101319047D01*
X175721428Y-101128571D01*
X175673809Y-101033333D01*
X175626190Y-100985714D01*
X175530952Y-100938095D01*
%TO.C,C28*%
X181507142Y-114142857D02*
X181554761Y-114190476D01*
X181602380Y-114333333D01*
X181602380Y-114428571D01*
X181554761Y-114571428D01*
X181459523Y-114666666D01*
X181364285Y-114714285D01*
X181173809Y-114761904D01*
X181030952Y-114761904D01*
X180840476Y-114714285D01*
X180745238Y-114666666D01*
X180650000Y-114571428D01*
X180602380Y-114428571D01*
X180602380Y-114333333D01*
X180650000Y-114190476D01*
X180697619Y-114142857D01*
X180697619Y-113761904D02*
X180650000Y-113714285D01*
X180602380Y-113619047D01*
X180602380Y-113380952D01*
X180650000Y-113285714D01*
X180697619Y-113238095D01*
X180792857Y-113190476D01*
X180888095Y-113190476D01*
X181030952Y-113238095D01*
X181602380Y-113809523D01*
X181602380Y-113190476D01*
X181030952Y-112619047D02*
X180983333Y-112714285D01*
X180935714Y-112761904D01*
X180840476Y-112809523D01*
X180792857Y-112809523D01*
X180697619Y-112761904D01*
X180650000Y-112714285D01*
X180602380Y-112619047D01*
X180602380Y-112428571D01*
X180650000Y-112333333D01*
X180697619Y-112285714D01*
X180792857Y-112238095D01*
X180840476Y-112238095D01*
X180935714Y-112285714D01*
X180983333Y-112333333D01*
X181030952Y-112428571D01*
X181030952Y-112619047D01*
X181078571Y-112714285D01*
X181126190Y-112761904D01*
X181221428Y-112809523D01*
X181411904Y-112809523D01*
X181507142Y-112761904D01*
X181554761Y-112714285D01*
X181602380Y-112619047D01*
X181602380Y-112428571D01*
X181554761Y-112333333D01*
X181507142Y-112285714D01*
X181411904Y-112238095D01*
X181221428Y-112238095D01*
X181126190Y-112285714D01*
X181078571Y-112333333D01*
X181030952Y-112428571D01*
%TO.C,C27*%
X173607142Y-102842857D02*
X173654761Y-102890476D01*
X173702380Y-103033333D01*
X173702380Y-103128571D01*
X173654761Y-103271428D01*
X173559523Y-103366666D01*
X173464285Y-103414285D01*
X173273809Y-103461904D01*
X173130952Y-103461904D01*
X172940476Y-103414285D01*
X172845238Y-103366666D01*
X172750000Y-103271428D01*
X172702380Y-103128571D01*
X172702380Y-103033333D01*
X172750000Y-102890476D01*
X172797619Y-102842857D01*
X172797619Y-102461904D02*
X172750000Y-102414285D01*
X172702380Y-102319047D01*
X172702380Y-102080952D01*
X172750000Y-101985714D01*
X172797619Y-101938095D01*
X172892857Y-101890476D01*
X172988095Y-101890476D01*
X173130952Y-101938095D01*
X173702380Y-102509523D01*
X173702380Y-101890476D01*
X172702380Y-101557142D02*
X172702380Y-100890476D01*
X173702380Y-101319047D01*
%TO.C,J6*%
X149322380Y-128333333D02*
X150036666Y-128333333D01*
X150179523Y-128380952D01*
X150274761Y-128476190D01*
X150322380Y-128619047D01*
X150322380Y-128714285D01*
X149322380Y-127428571D02*
X149322380Y-127619047D01*
X149370000Y-127714285D01*
X149417619Y-127761904D01*
X149560476Y-127857142D01*
X149750952Y-127904761D01*
X150131904Y-127904761D01*
X150227142Y-127857142D01*
X150274761Y-127809523D01*
X150322380Y-127714285D01*
X150322380Y-127523809D01*
X150274761Y-127428571D01*
X150227142Y-127380952D01*
X150131904Y-127333333D01*
X149893809Y-127333333D01*
X149798571Y-127380952D01*
X149750952Y-127428571D01*
X149703333Y-127523809D01*
X149703333Y-127714285D01*
X149750952Y-127809523D01*
X149798571Y-127857142D01*
X149893809Y-127904761D01*
%TO.C,F2*%
X110666666Y-84628571D02*
X110333333Y-84628571D01*
X110333333Y-85152380D02*
X110333333Y-84152380D01*
X110809523Y-84152380D01*
X111142857Y-84247619D02*
X111190476Y-84200000D01*
X111285714Y-84152380D01*
X111523809Y-84152380D01*
X111619047Y-84200000D01*
X111666666Y-84247619D01*
X111714285Y-84342857D01*
X111714285Y-84438095D01*
X111666666Y-84580952D01*
X111095238Y-85152380D01*
X111714285Y-85152380D01*
%TO.C,C25*%
X163257142Y-109242857D02*
X163304761Y-109290476D01*
X163352380Y-109433333D01*
X163352380Y-109528571D01*
X163304761Y-109671428D01*
X163209523Y-109766666D01*
X163114285Y-109814285D01*
X162923809Y-109861904D01*
X162780952Y-109861904D01*
X162590476Y-109814285D01*
X162495238Y-109766666D01*
X162400000Y-109671428D01*
X162352380Y-109528571D01*
X162352380Y-109433333D01*
X162400000Y-109290476D01*
X162447619Y-109242857D01*
X162447619Y-108861904D02*
X162400000Y-108814285D01*
X162352380Y-108719047D01*
X162352380Y-108480952D01*
X162400000Y-108385714D01*
X162447619Y-108338095D01*
X162542857Y-108290476D01*
X162638095Y-108290476D01*
X162780952Y-108338095D01*
X163352380Y-108909523D01*
X163352380Y-108290476D01*
X162352380Y-107385714D02*
X162352380Y-107861904D01*
X162828571Y-107909523D01*
X162780952Y-107861904D01*
X162733333Y-107766666D01*
X162733333Y-107528571D01*
X162780952Y-107433333D01*
X162828571Y-107385714D01*
X162923809Y-107338095D01*
X163161904Y-107338095D01*
X163257142Y-107385714D01*
X163304761Y-107433333D01*
X163352380Y-107528571D01*
X163352380Y-107766666D01*
X163304761Y-107861904D01*
X163257142Y-107909523D01*
%TO.C,R22*%
X187452380Y-114192857D02*
X186976190Y-114526190D01*
X187452380Y-114764285D02*
X186452380Y-114764285D01*
X186452380Y-114383333D01*
X186500000Y-114288095D01*
X186547619Y-114240476D01*
X186642857Y-114192857D01*
X186785714Y-114192857D01*
X186880952Y-114240476D01*
X186928571Y-114288095D01*
X186976190Y-114383333D01*
X186976190Y-114764285D01*
X186547619Y-113811904D02*
X186500000Y-113764285D01*
X186452380Y-113669047D01*
X186452380Y-113430952D01*
X186500000Y-113335714D01*
X186547619Y-113288095D01*
X186642857Y-113240476D01*
X186738095Y-113240476D01*
X186880952Y-113288095D01*
X187452380Y-113859523D01*
X187452380Y-113240476D01*
X186547619Y-112859523D02*
X186500000Y-112811904D01*
X186452380Y-112716666D01*
X186452380Y-112478571D01*
X186500000Y-112383333D01*
X186547619Y-112335714D01*
X186642857Y-112288095D01*
X186738095Y-112288095D01*
X186880952Y-112335714D01*
X187452380Y-112907142D01*
X187452380Y-112288095D01*
%TO.C,TP3*%
X167288095Y-116502380D02*
X167859523Y-116502380D01*
X167573809Y-117502380D02*
X167573809Y-116502380D01*
X168192857Y-117502380D02*
X168192857Y-116502380D01*
X168573809Y-116502380D01*
X168669047Y-116550000D01*
X168716666Y-116597619D01*
X168764285Y-116692857D01*
X168764285Y-116835714D01*
X168716666Y-116930952D01*
X168669047Y-116978571D01*
X168573809Y-117026190D01*
X168192857Y-117026190D01*
X169097619Y-116502380D02*
X169716666Y-116502380D01*
X169383333Y-116883333D01*
X169526190Y-116883333D01*
X169621428Y-116930952D01*
X169669047Y-116978571D01*
X169716666Y-117073809D01*
X169716666Y-117311904D01*
X169669047Y-117407142D01*
X169621428Y-117454761D01*
X169526190Y-117502380D01*
X169240476Y-117502380D01*
X169145238Y-117454761D01*
X169097619Y-117407142D01*
%TO.C,R26*%
X180857142Y-123952380D02*
X180523809Y-123476190D01*
X180285714Y-123952380D02*
X180285714Y-122952380D01*
X180666666Y-122952380D01*
X180761904Y-123000000D01*
X180809523Y-123047619D01*
X180857142Y-123142857D01*
X180857142Y-123285714D01*
X180809523Y-123380952D01*
X180761904Y-123428571D01*
X180666666Y-123476190D01*
X180285714Y-123476190D01*
X181238095Y-123047619D02*
X181285714Y-123000000D01*
X181380952Y-122952380D01*
X181619047Y-122952380D01*
X181714285Y-123000000D01*
X181761904Y-123047619D01*
X181809523Y-123142857D01*
X181809523Y-123238095D01*
X181761904Y-123380952D01*
X181190476Y-123952380D01*
X181809523Y-123952380D01*
X182666666Y-122952380D02*
X182476190Y-122952380D01*
X182380952Y-123000000D01*
X182333333Y-123047619D01*
X182238095Y-123190476D01*
X182190476Y-123380952D01*
X182190476Y-123761904D01*
X182238095Y-123857142D01*
X182285714Y-123904761D01*
X182380952Y-123952380D01*
X182571428Y-123952380D01*
X182666666Y-123904761D01*
X182714285Y-123857142D01*
X182761904Y-123761904D01*
X182761904Y-123523809D01*
X182714285Y-123428571D01*
X182666666Y-123380952D01*
X182571428Y-123333333D01*
X182380952Y-123333333D01*
X182285714Y-123380952D01*
X182238095Y-123428571D01*
X182190476Y-123523809D01*
%TO.C,J3*%
X102866666Y-106052380D02*
X102866666Y-106766666D01*
X102819047Y-106909523D01*
X102723809Y-107004761D01*
X102580952Y-107052380D01*
X102485714Y-107052380D01*
X103247619Y-106052380D02*
X103866666Y-106052380D01*
X103533333Y-106433333D01*
X103676190Y-106433333D01*
X103771428Y-106480952D01*
X103819047Y-106528571D01*
X103866666Y-106623809D01*
X103866666Y-106861904D01*
X103819047Y-106957142D01*
X103771428Y-107004761D01*
X103676190Y-107052380D01*
X103390476Y-107052380D01*
X103295238Y-107004761D01*
X103247619Y-106957142D01*
%TO.C,C21*%
X140157142Y-103592857D02*
X140204761Y-103640476D01*
X140252380Y-103783333D01*
X140252380Y-103878571D01*
X140204761Y-104021428D01*
X140109523Y-104116666D01*
X140014285Y-104164285D01*
X139823809Y-104211904D01*
X139680952Y-104211904D01*
X139490476Y-104164285D01*
X139395238Y-104116666D01*
X139300000Y-104021428D01*
X139252380Y-103878571D01*
X139252380Y-103783333D01*
X139300000Y-103640476D01*
X139347619Y-103592857D01*
X139347619Y-103211904D02*
X139300000Y-103164285D01*
X139252380Y-103069047D01*
X139252380Y-102830952D01*
X139300000Y-102735714D01*
X139347619Y-102688095D01*
X139442857Y-102640476D01*
X139538095Y-102640476D01*
X139680952Y-102688095D01*
X140252380Y-103259523D01*
X140252380Y-102640476D01*
X140252380Y-101688095D02*
X140252380Y-102259523D01*
X140252380Y-101973809D02*
X139252380Y-101973809D01*
X139395238Y-102069047D01*
X139490476Y-102164285D01*
X139538095Y-102259523D01*
%TO.C,C10*%
X168257142Y-73642857D02*
X168304761Y-73690476D01*
X168352380Y-73833333D01*
X168352380Y-73928571D01*
X168304761Y-74071428D01*
X168209523Y-74166666D01*
X168114285Y-74214285D01*
X167923809Y-74261904D01*
X167780952Y-74261904D01*
X167590476Y-74214285D01*
X167495238Y-74166666D01*
X167400000Y-74071428D01*
X167352380Y-73928571D01*
X167352380Y-73833333D01*
X167400000Y-73690476D01*
X167447619Y-73642857D01*
X168352380Y-72690476D02*
X168352380Y-73261904D01*
X168352380Y-72976190D02*
X167352380Y-72976190D01*
X167495238Y-73071428D01*
X167590476Y-73166666D01*
X167638095Y-73261904D01*
X167352380Y-72071428D02*
X167352380Y-71976190D01*
X167400000Y-71880952D01*
X167447619Y-71833333D01*
X167542857Y-71785714D01*
X167733333Y-71738095D01*
X167971428Y-71738095D01*
X168161904Y-71785714D01*
X168257142Y-71833333D01*
X168304761Y-71880952D01*
X168352380Y-71976190D01*
X168352380Y-72071428D01*
X168304761Y-72166666D01*
X168257142Y-72214285D01*
X168161904Y-72261904D01*
X167971428Y-72309523D01*
X167733333Y-72309523D01*
X167542857Y-72261904D01*
X167447619Y-72214285D01*
X167400000Y-72166666D01*
X167352380Y-72071428D01*
%TO.C,RV4*%
X181054761Y-93652380D02*
X180721428Y-93176190D01*
X180483333Y-93652380D02*
X180483333Y-92652380D01*
X180864285Y-92652380D01*
X180959523Y-92700000D01*
X181007142Y-92747619D01*
X181054761Y-92842857D01*
X181054761Y-92985714D01*
X181007142Y-93080952D01*
X180959523Y-93128571D01*
X180864285Y-93176190D01*
X180483333Y-93176190D01*
X181340476Y-92652380D02*
X181673809Y-93652380D01*
X182007142Y-92652380D01*
X182769047Y-92985714D02*
X182769047Y-93652380D01*
X182530952Y-92604761D02*
X182292857Y-93319047D01*
X182911904Y-93319047D01*
%TO.C,C31*%
X161157142Y-119242857D02*
X161204761Y-119290476D01*
X161252380Y-119433333D01*
X161252380Y-119528571D01*
X161204761Y-119671428D01*
X161109523Y-119766666D01*
X161014285Y-119814285D01*
X160823809Y-119861904D01*
X160680952Y-119861904D01*
X160490476Y-119814285D01*
X160395238Y-119766666D01*
X160300000Y-119671428D01*
X160252380Y-119528571D01*
X160252380Y-119433333D01*
X160300000Y-119290476D01*
X160347619Y-119242857D01*
X160252380Y-118909523D02*
X160252380Y-118290476D01*
X160633333Y-118623809D01*
X160633333Y-118480952D01*
X160680952Y-118385714D01*
X160728571Y-118338095D01*
X160823809Y-118290476D01*
X161061904Y-118290476D01*
X161157142Y-118338095D01*
X161204761Y-118385714D01*
X161252380Y-118480952D01*
X161252380Y-118766666D01*
X161204761Y-118861904D01*
X161157142Y-118909523D01*
X161252380Y-117338095D02*
X161252380Y-117909523D01*
X161252380Y-117623809D02*
X160252380Y-117623809D01*
X160395238Y-117719047D01*
X160490476Y-117814285D01*
X160538095Y-117909523D01*
%TO.C,C36*%
X163257142Y-119242857D02*
X163304761Y-119290476D01*
X163352380Y-119433333D01*
X163352380Y-119528571D01*
X163304761Y-119671428D01*
X163209523Y-119766666D01*
X163114285Y-119814285D01*
X162923809Y-119861904D01*
X162780952Y-119861904D01*
X162590476Y-119814285D01*
X162495238Y-119766666D01*
X162400000Y-119671428D01*
X162352380Y-119528571D01*
X162352380Y-119433333D01*
X162400000Y-119290476D01*
X162447619Y-119242857D01*
X162352380Y-118909523D02*
X162352380Y-118290476D01*
X162733333Y-118623809D01*
X162733333Y-118480952D01*
X162780952Y-118385714D01*
X162828571Y-118338095D01*
X162923809Y-118290476D01*
X163161904Y-118290476D01*
X163257142Y-118338095D01*
X163304761Y-118385714D01*
X163352380Y-118480952D01*
X163352380Y-118766666D01*
X163304761Y-118861904D01*
X163257142Y-118909523D01*
X162352380Y-117433333D02*
X162352380Y-117623809D01*
X162400000Y-117719047D01*
X162447619Y-117766666D01*
X162590476Y-117861904D01*
X162780952Y-117909523D01*
X163161904Y-117909523D01*
X163257142Y-117861904D01*
X163304761Y-117814285D01*
X163352380Y-117719047D01*
X163352380Y-117528571D01*
X163304761Y-117433333D01*
X163257142Y-117385714D01*
X163161904Y-117338095D01*
X162923809Y-117338095D01*
X162828571Y-117385714D01*
X162780952Y-117433333D01*
X162733333Y-117528571D01*
X162733333Y-117719047D01*
X162780952Y-117814285D01*
X162828571Y-117861904D01*
X162923809Y-117909523D01*
%TO.C,TP1*%
X133238095Y-108652380D02*
X133809523Y-108652380D01*
X133523809Y-109652380D02*
X133523809Y-108652380D01*
X134142857Y-109652380D02*
X134142857Y-108652380D01*
X134523809Y-108652380D01*
X134619047Y-108700000D01*
X134666666Y-108747619D01*
X134714285Y-108842857D01*
X134714285Y-108985714D01*
X134666666Y-109080952D01*
X134619047Y-109128571D01*
X134523809Y-109176190D01*
X134142857Y-109176190D01*
X135666666Y-109652380D02*
X135095238Y-109652380D01*
X135380952Y-109652380D02*
X135380952Y-108652380D01*
X135285714Y-108795238D01*
X135190476Y-108890476D01*
X135095238Y-108938095D01*
%TO.C,C4*%
X158757142Y-75166666D02*
X158804761Y-75214285D01*
X158852380Y-75357142D01*
X158852380Y-75452380D01*
X158804761Y-75595238D01*
X158709523Y-75690476D01*
X158614285Y-75738095D01*
X158423809Y-75785714D01*
X158280952Y-75785714D01*
X158090476Y-75738095D01*
X157995238Y-75690476D01*
X157900000Y-75595238D01*
X157852380Y-75452380D01*
X157852380Y-75357142D01*
X157900000Y-75214285D01*
X157947619Y-75166666D01*
X158185714Y-74309523D02*
X158852380Y-74309523D01*
X157804761Y-74547619D02*
X158519047Y-74785714D01*
X158519047Y-74166666D01*
%TO.C,C29*%
X139657142Y-117987142D02*
X139609523Y-118034761D01*
X139466666Y-118082380D01*
X139371428Y-118082380D01*
X139228571Y-118034761D01*
X139133333Y-117939523D01*
X139085714Y-117844285D01*
X139038095Y-117653809D01*
X139038095Y-117510952D01*
X139085714Y-117320476D01*
X139133333Y-117225238D01*
X139228571Y-117130000D01*
X139371428Y-117082380D01*
X139466666Y-117082380D01*
X139609523Y-117130000D01*
X139657142Y-117177619D01*
X140038095Y-117177619D02*
X140085714Y-117130000D01*
X140180952Y-117082380D01*
X140419047Y-117082380D01*
X140514285Y-117130000D01*
X140561904Y-117177619D01*
X140609523Y-117272857D01*
X140609523Y-117368095D01*
X140561904Y-117510952D01*
X139990476Y-118082380D01*
X140609523Y-118082380D01*
X141085714Y-118082380D02*
X141276190Y-118082380D01*
X141371428Y-118034761D01*
X141419047Y-117987142D01*
X141514285Y-117844285D01*
X141561904Y-117653809D01*
X141561904Y-117272857D01*
X141514285Y-117177619D01*
X141466666Y-117130000D01*
X141371428Y-117082380D01*
X141180952Y-117082380D01*
X141085714Y-117130000D01*
X141038095Y-117177619D01*
X140990476Y-117272857D01*
X140990476Y-117510952D01*
X141038095Y-117606190D01*
X141085714Y-117653809D01*
X141180952Y-117701428D01*
X141371428Y-117701428D01*
X141466666Y-117653809D01*
X141514285Y-117606190D01*
X141561904Y-117510952D01*
%TO.C,TP2*%
X133638095Y-124052380D02*
X134209523Y-124052380D01*
X133923809Y-125052380D02*
X133923809Y-124052380D01*
X134542857Y-125052380D02*
X134542857Y-124052380D01*
X134923809Y-124052380D01*
X135019047Y-124100000D01*
X135066666Y-124147619D01*
X135114285Y-124242857D01*
X135114285Y-124385714D01*
X135066666Y-124480952D01*
X135019047Y-124528571D01*
X134923809Y-124576190D01*
X134542857Y-124576190D01*
X135495238Y-124147619D02*
X135542857Y-124100000D01*
X135638095Y-124052380D01*
X135876190Y-124052380D01*
X135971428Y-124100000D01*
X136019047Y-124147619D01*
X136066666Y-124242857D01*
X136066666Y-124338095D01*
X136019047Y-124480952D01*
X135447619Y-125052380D01*
X136066666Y-125052380D01*
%TO.C,C34*%
X139657142Y-120937142D02*
X139609523Y-120984761D01*
X139466666Y-121032380D01*
X139371428Y-121032380D01*
X139228571Y-120984761D01*
X139133333Y-120889523D01*
X139085714Y-120794285D01*
X139038095Y-120603809D01*
X139038095Y-120460952D01*
X139085714Y-120270476D01*
X139133333Y-120175238D01*
X139228571Y-120080000D01*
X139371428Y-120032380D01*
X139466666Y-120032380D01*
X139609523Y-120080000D01*
X139657142Y-120127619D01*
X139990476Y-120032380D02*
X140609523Y-120032380D01*
X140276190Y-120413333D01*
X140419047Y-120413333D01*
X140514285Y-120460952D01*
X140561904Y-120508571D01*
X140609523Y-120603809D01*
X140609523Y-120841904D01*
X140561904Y-120937142D01*
X140514285Y-120984761D01*
X140419047Y-121032380D01*
X140133333Y-121032380D01*
X140038095Y-120984761D01*
X139990476Y-120937142D01*
X141466666Y-120365714D02*
X141466666Y-121032380D01*
X141228571Y-119984761D02*
X140990476Y-120699047D01*
X141609523Y-120699047D01*
%TO.C,C14*%
X113157142Y-93942857D02*
X113204761Y-93990476D01*
X113252380Y-94133333D01*
X113252380Y-94228571D01*
X113204761Y-94371428D01*
X113109523Y-94466666D01*
X113014285Y-94514285D01*
X112823809Y-94561904D01*
X112680952Y-94561904D01*
X112490476Y-94514285D01*
X112395238Y-94466666D01*
X112300000Y-94371428D01*
X112252380Y-94228571D01*
X112252380Y-94133333D01*
X112300000Y-93990476D01*
X112347619Y-93942857D01*
X113252380Y-92990476D02*
X113252380Y-93561904D01*
X113252380Y-93276190D02*
X112252380Y-93276190D01*
X112395238Y-93371428D01*
X112490476Y-93466666D01*
X112538095Y-93561904D01*
X112585714Y-92133333D02*
X113252380Y-92133333D01*
X112204761Y-92371428D02*
X112919047Y-92609523D01*
X112919047Y-91990476D01*
%TO.C,U7*%
X183488095Y-105002380D02*
X183488095Y-105811904D01*
X183535714Y-105907142D01*
X183583333Y-105954761D01*
X183678571Y-106002380D01*
X183869047Y-106002380D01*
X183964285Y-105954761D01*
X184011904Y-105907142D01*
X184059523Y-105811904D01*
X184059523Y-105002380D01*
X184440476Y-105002380D02*
X185107142Y-105002380D01*
X184678571Y-106002380D01*
%TO.C,R17*%
X168757142Y-113152380D02*
X168423809Y-112676190D01*
X168185714Y-113152380D02*
X168185714Y-112152380D01*
X168566666Y-112152380D01*
X168661904Y-112200000D01*
X168709523Y-112247619D01*
X168757142Y-112342857D01*
X168757142Y-112485714D01*
X168709523Y-112580952D01*
X168661904Y-112628571D01*
X168566666Y-112676190D01*
X168185714Y-112676190D01*
X169709523Y-113152380D02*
X169138095Y-113152380D01*
X169423809Y-113152380D02*
X169423809Y-112152380D01*
X169328571Y-112295238D01*
X169233333Y-112390476D01*
X169138095Y-112438095D01*
X170042857Y-112152380D02*
X170709523Y-112152380D01*
X170280952Y-113152380D01*
%TO.C,R13*%
X135352380Y-116242857D02*
X134876190Y-116576190D01*
X135352380Y-116814285D02*
X134352380Y-116814285D01*
X134352380Y-116433333D01*
X134400000Y-116338095D01*
X134447619Y-116290476D01*
X134542857Y-116242857D01*
X134685714Y-116242857D01*
X134780952Y-116290476D01*
X134828571Y-116338095D01*
X134876190Y-116433333D01*
X134876190Y-116814285D01*
X135352380Y-115290476D02*
X135352380Y-115861904D01*
X135352380Y-115576190D02*
X134352380Y-115576190D01*
X134495238Y-115671428D01*
X134590476Y-115766666D01*
X134638095Y-115861904D01*
X134352380Y-114957142D02*
X134352380Y-114338095D01*
X134733333Y-114671428D01*
X134733333Y-114528571D01*
X134780952Y-114433333D01*
X134828571Y-114385714D01*
X134923809Y-114338095D01*
X135161904Y-114338095D01*
X135257142Y-114385714D01*
X135304761Y-114433333D01*
X135352380Y-114528571D01*
X135352380Y-114814285D01*
X135304761Y-114909523D01*
X135257142Y-114957142D01*
%TO.C,U3*%
X172488095Y-74852380D02*
X172488095Y-75661904D01*
X172535714Y-75757142D01*
X172583333Y-75804761D01*
X172678571Y-75852380D01*
X172869047Y-75852380D01*
X172964285Y-75804761D01*
X173011904Y-75757142D01*
X173059523Y-75661904D01*
X173059523Y-74852380D01*
X173440476Y-74852380D02*
X174059523Y-74852380D01*
X173726190Y-75233333D01*
X173869047Y-75233333D01*
X173964285Y-75280952D01*
X174011904Y-75328571D01*
X174059523Y-75423809D01*
X174059523Y-75661904D01*
X174011904Y-75757142D01*
X173964285Y-75804761D01*
X173869047Y-75852380D01*
X173583333Y-75852380D01*
X173488095Y-75804761D01*
X173440476Y-75757142D01*
%TO.C,C16*%
X111057142Y-107442857D02*
X111104761Y-107490476D01*
X111152380Y-107633333D01*
X111152380Y-107728571D01*
X111104761Y-107871428D01*
X111009523Y-107966666D01*
X110914285Y-108014285D01*
X110723809Y-108061904D01*
X110580952Y-108061904D01*
X110390476Y-108014285D01*
X110295238Y-107966666D01*
X110200000Y-107871428D01*
X110152380Y-107728571D01*
X110152380Y-107633333D01*
X110200000Y-107490476D01*
X110247619Y-107442857D01*
X111152380Y-106490476D02*
X111152380Y-107061904D01*
X111152380Y-106776190D02*
X110152380Y-106776190D01*
X110295238Y-106871428D01*
X110390476Y-106966666D01*
X110438095Y-107061904D01*
X110152380Y-105633333D02*
X110152380Y-105823809D01*
X110200000Y-105919047D01*
X110247619Y-105966666D01*
X110390476Y-106061904D01*
X110580952Y-106109523D01*
X110961904Y-106109523D01*
X111057142Y-106061904D01*
X111104761Y-106014285D01*
X111152380Y-105919047D01*
X111152380Y-105728571D01*
X111104761Y-105633333D01*
X111057142Y-105585714D01*
X110961904Y-105538095D01*
X110723809Y-105538095D01*
X110628571Y-105585714D01*
X110580952Y-105633333D01*
X110533333Y-105728571D01*
X110533333Y-105919047D01*
X110580952Y-106014285D01*
X110628571Y-106061904D01*
X110723809Y-106109523D01*
%TO.C,C9*%
X168307142Y-77166666D02*
X168354761Y-77214285D01*
X168402380Y-77357142D01*
X168402380Y-77452380D01*
X168354761Y-77595238D01*
X168259523Y-77690476D01*
X168164285Y-77738095D01*
X167973809Y-77785714D01*
X167830952Y-77785714D01*
X167640476Y-77738095D01*
X167545238Y-77690476D01*
X167450000Y-77595238D01*
X167402380Y-77452380D01*
X167402380Y-77357142D01*
X167450000Y-77214285D01*
X167497619Y-77166666D01*
X168402380Y-76690476D02*
X168402380Y-76500000D01*
X168354761Y-76404761D01*
X168307142Y-76357142D01*
X168164285Y-76261904D01*
X167973809Y-76214285D01*
X167592857Y-76214285D01*
X167497619Y-76261904D01*
X167450000Y-76309523D01*
X167402380Y-76404761D01*
X167402380Y-76595238D01*
X167450000Y-76690476D01*
X167497619Y-76738095D01*
X167592857Y-76785714D01*
X167830952Y-76785714D01*
X167926190Y-76738095D01*
X167973809Y-76690476D01*
X168021428Y-76595238D01*
X168021428Y-76404761D01*
X167973809Y-76309523D01*
X167926190Y-76261904D01*
X167830952Y-76214285D01*
%TO.C,R2*%
X117452380Y-93866666D02*
X116976190Y-94200000D01*
X117452380Y-94438095D02*
X116452380Y-94438095D01*
X116452380Y-94057142D01*
X116500000Y-93961904D01*
X116547619Y-93914285D01*
X116642857Y-93866666D01*
X116785714Y-93866666D01*
X116880952Y-93914285D01*
X116928571Y-93961904D01*
X116976190Y-94057142D01*
X116976190Y-94438095D01*
X116547619Y-93485714D02*
X116500000Y-93438095D01*
X116452380Y-93342857D01*
X116452380Y-93104761D01*
X116500000Y-93009523D01*
X116547619Y-92961904D01*
X116642857Y-92914285D01*
X116738095Y-92914285D01*
X116880952Y-92961904D01*
X117452380Y-93533333D01*
X117452380Y-92914285D01*
%TO.C,TP4*%
X171938095Y-116502380D02*
X172509523Y-116502380D01*
X172223809Y-117502380D02*
X172223809Y-116502380D01*
X172842857Y-117502380D02*
X172842857Y-116502380D01*
X173223809Y-116502380D01*
X173319047Y-116550000D01*
X173366666Y-116597619D01*
X173414285Y-116692857D01*
X173414285Y-116835714D01*
X173366666Y-116930952D01*
X173319047Y-116978571D01*
X173223809Y-117026190D01*
X172842857Y-117026190D01*
X174271428Y-116835714D02*
X174271428Y-117502380D01*
X174033333Y-116454761D02*
X173795238Y-117169047D01*
X174414285Y-117169047D01*
%TO.C,C6*%
X123057142Y-86666666D02*
X123104761Y-86714285D01*
X123152380Y-86857142D01*
X123152380Y-86952380D01*
X123104761Y-87095238D01*
X123009523Y-87190476D01*
X122914285Y-87238095D01*
X122723809Y-87285714D01*
X122580952Y-87285714D01*
X122390476Y-87238095D01*
X122295238Y-87190476D01*
X122200000Y-87095238D01*
X122152380Y-86952380D01*
X122152380Y-86857142D01*
X122200000Y-86714285D01*
X122247619Y-86666666D01*
X122152380Y-85809523D02*
X122152380Y-86000000D01*
X122200000Y-86095238D01*
X122247619Y-86142857D01*
X122390476Y-86238095D01*
X122580952Y-86285714D01*
X122961904Y-86285714D01*
X123057142Y-86238095D01*
X123104761Y-86190476D01*
X123152380Y-86095238D01*
X123152380Y-85904761D01*
X123104761Y-85809523D01*
X123057142Y-85761904D01*
X122961904Y-85714285D01*
X122723809Y-85714285D01*
X122628571Y-85761904D01*
X122580952Y-85809523D01*
X122533333Y-85904761D01*
X122533333Y-86095238D01*
X122580952Y-86190476D01*
X122628571Y-86238095D01*
X122723809Y-86285714D01*
%TO.C,C13*%
X111057142Y-93942857D02*
X111104761Y-93990476D01*
X111152380Y-94133333D01*
X111152380Y-94228571D01*
X111104761Y-94371428D01*
X111009523Y-94466666D01*
X110914285Y-94514285D01*
X110723809Y-94561904D01*
X110580952Y-94561904D01*
X110390476Y-94514285D01*
X110295238Y-94466666D01*
X110200000Y-94371428D01*
X110152380Y-94228571D01*
X110152380Y-94133333D01*
X110200000Y-93990476D01*
X110247619Y-93942857D01*
X111152380Y-92990476D02*
X111152380Y-93561904D01*
X111152380Y-93276190D02*
X110152380Y-93276190D01*
X110295238Y-93371428D01*
X110390476Y-93466666D01*
X110438095Y-93561904D01*
X110152380Y-92657142D02*
X110152380Y-92038095D01*
X110533333Y-92371428D01*
X110533333Y-92228571D01*
X110580952Y-92133333D01*
X110628571Y-92085714D01*
X110723809Y-92038095D01*
X110961904Y-92038095D01*
X111057142Y-92085714D01*
X111104761Y-92133333D01*
X111152380Y-92228571D01*
X111152380Y-92514285D01*
X111104761Y-92609523D01*
X111057142Y-92657142D01*
%TO.C,R9*%
X117752380Y-116266666D02*
X117276190Y-116600000D01*
X117752380Y-116838095D02*
X116752380Y-116838095D01*
X116752380Y-116457142D01*
X116800000Y-116361904D01*
X116847619Y-116314285D01*
X116942857Y-116266666D01*
X117085714Y-116266666D01*
X117180952Y-116314285D01*
X117228571Y-116361904D01*
X117276190Y-116457142D01*
X117276190Y-116838095D01*
X117752380Y-115790476D02*
X117752380Y-115600000D01*
X117704761Y-115504761D01*
X117657142Y-115457142D01*
X117514285Y-115361904D01*
X117323809Y-115314285D01*
X116942857Y-115314285D01*
X116847619Y-115361904D01*
X116800000Y-115409523D01*
X116752380Y-115504761D01*
X116752380Y-115695238D01*
X116800000Y-115790476D01*
X116847619Y-115838095D01*
X116942857Y-115885714D01*
X117180952Y-115885714D01*
X117276190Y-115838095D01*
X117323809Y-115790476D01*
X117371428Y-115695238D01*
X117371428Y-115504761D01*
X117323809Y-115409523D01*
X117276190Y-115361904D01*
X117180952Y-115314285D01*
%TO.C,C38*%
X154357142Y-99957142D02*
X154309523Y-100004761D01*
X154166666Y-100052380D01*
X154071428Y-100052380D01*
X153928571Y-100004761D01*
X153833333Y-99909523D01*
X153785714Y-99814285D01*
X153738095Y-99623809D01*
X153738095Y-99480952D01*
X153785714Y-99290476D01*
X153833333Y-99195238D01*
X153928571Y-99100000D01*
X154071428Y-99052380D01*
X154166666Y-99052380D01*
X154309523Y-99100000D01*
X154357142Y-99147619D01*
X154690476Y-99052380D02*
X155309523Y-99052380D01*
X154976190Y-99433333D01*
X155119047Y-99433333D01*
X155214285Y-99480952D01*
X155261904Y-99528571D01*
X155309523Y-99623809D01*
X155309523Y-99861904D01*
X155261904Y-99957142D01*
X155214285Y-100004761D01*
X155119047Y-100052380D01*
X154833333Y-100052380D01*
X154738095Y-100004761D01*
X154690476Y-99957142D01*
X155880952Y-99480952D02*
X155785714Y-99433333D01*
X155738095Y-99385714D01*
X155690476Y-99290476D01*
X155690476Y-99242857D01*
X155738095Y-99147619D01*
X155785714Y-99100000D01*
X155880952Y-99052380D01*
X156071428Y-99052380D01*
X156166666Y-99100000D01*
X156214285Y-99147619D01*
X156261904Y-99242857D01*
X156261904Y-99290476D01*
X156214285Y-99385714D01*
X156166666Y-99433333D01*
X156071428Y-99480952D01*
X155880952Y-99480952D01*
X155785714Y-99528571D01*
X155738095Y-99576190D01*
X155690476Y-99671428D01*
X155690476Y-99861904D01*
X155738095Y-99957142D01*
X155785714Y-100004761D01*
X155880952Y-100052380D01*
X156071428Y-100052380D01*
X156166666Y-100004761D01*
X156214285Y-99957142D01*
X156261904Y-99861904D01*
X156261904Y-99671428D01*
X156214285Y-99576190D01*
X156166666Y-99528571D01*
X156071428Y-99480952D01*
%TO.C,C12*%
X182107142Y-72342857D02*
X182154761Y-72390476D01*
X182202380Y-72533333D01*
X182202380Y-72628571D01*
X182154761Y-72771428D01*
X182059523Y-72866666D01*
X181964285Y-72914285D01*
X181773809Y-72961904D01*
X181630952Y-72961904D01*
X181440476Y-72914285D01*
X181345238Y-72866666D01*
X181250000Y-72771428D01*
X181202380Y-72628571D01*
X181202380Y-72533333D01*
X181250000Y-72390476D01*
X181297619Y-72342857D01*
X182202380Y-71390476D02*
X182202380Y-71961904D01*
X182202380Y-71676190D02*
X181202380Y-71676190D01*
X181345238Y-71771428D01*
X181440476Y-71866666D01*
X181488095Y-71961904D01*
X181297619Y-71009523D02*
X181250000Y-70961904D01*
X181202380Y-70866666D01*
X181202380Y-70628571D01*
X181250000Y-70533333D01*
X181297619Y-70485714D01*
X181392857Y-70438095D01*
X181488095Y-70438095D01*
X181630952Y-70485714D01*
X182202380Y-71057142D01*
X182202380Y-70438095D01*
%TO.C,C18*%
X130957142Y-116242857D02*
X131004761Y-116290476D01*
X131052380Y-116433333D01*
X131052380Y-116528571D01*
X131004761Y-116671428D01*
X130909523Y-116766666D01*
X130814285Y-116814285D01*
X130623809Y-116861904D01*
X130480952Y-116861904D01*
X130290476Y-116814285D01*
X130195238Y-116766666D01*
X130100000Y-116671428D01*
X130052380Y-116528571D01*
X130052380Y-116433333D01*
X130100000Y-116290476D01*
X130147619Y-116242857D01*
X131052380Y-115290476D02*
X131052380Y-115861904D01*
X131052380Y-115576190D02*
X130052380Y-115576190D01*
X130195238Y-115671428D01*
X130290476Y-115766666D01*
X130338095Y-115861904D01*
X130480952Y-114719047D02*
X130433333Y-114814285D01*
X130385714Y-114861904D01*
X130290476Y-114909523D01*
X130242857Y-114909523D01*
X130147619Y-114861904D01*
X130100000Y-114814285D01*
X130052380Y-114719047D01*
X130052380Y-114528571D01*
X130100000Y-114433333D01*
X130147619Y-114385714D01*
X130242857Y-114338095D01*
X130290476Y-114338095D01*
X130385714Y-114385714D01*
X130433333Y-114433333D01*
X130480952Y-114528571D01*
X130480952Y-114719047D01*
X130528571Y-114814285D01*
X130576190Y-114861904D01*
X130671428Y-114909523D01*
X130861904Y-114909523D01*
X130957142Y-114861904D01*
X131004761Y-114814285D01*
X131052380Y-114719047D01*
X131052380Y-114528571D01*
X131004761Y-114433333D01*
X130957142Y-114385714D01*
X130861904Y-114338095D01*
X130671428Y-114338095D01*
X130576190Y-114385714D01*
X130528571Y-114433333D01*
X130480952Y-114528571D01*
%TO.C,R12*%
X133252380Y-116242857D02*
X132776190Y-116576190D01*
X133252380Y-116814285D02*
X132252380Y-116814285D01*
X132252380Y-116433333D01*
X132300000Y-116338095D01*
X132347619Y-116290476D01*
X132442857Y-116242857D01*
X132585714Y-116242857D01*
X132680952Y-116290476D01*
X132728571Y-116338095D01*
X132776190Y-116433333D01*
X132776190Y-116814285D01*
X133252380Y-115290476D02*
X133252380Y-115861904D01*
X133252380Y-115576190D02*
X132252380Y-115576190D01*
X132395238Y-115671428D01*
X132490476Y-115766666D01*
X132538095Y-115861904D01*
X132347619Y-114909523D02*
X132300000Y-114861904D01*
X132252380Y-114766666D01*
X132252380Y-114528571D01*
X132300000Y-114433333D01*
X132347619Y-114385714D01*
X132442857Y-114338095D01*
X132538095Y-114338095D01*
X132680952Y-114385714D01*
X133252380Y-114957142D01*
X133252380Y-114338095D01*
%TO.C,C17*%
X113257142Y-107442857D02*
X113304761Y-107490476D01*
X113352380Y-107633333D01*
X113352380Y-107728571D01*
X113304761Y-107871428D01*
X113209523Y-107966666D01*
X113114285Y-108014285D01*
X112923809Y-108061904D01*
X112780952Y-108061904D01*
X112590476Y-108014285D01*
X112495238Y-107966666D01*
X112400000Y-107871428D01*
X112352380Y-107728571D01*
X112352380Y-107633333D01*
X112400000Y-107490476D01*
X112447619Y-107442857D01*
X113352380Y-106490476D02*
X113352380Y-107061904D01*
X113352380Y-106776190D02*
X112352380Y-106776190D01*
X112495238Y-106871428D01*
X112590476Y-106966666D01*
X112638095Y-107061904D01*
X112352380Y-106157142D02*
X112352380Y-105490476D01*
X113352380Y-105919047D01*
%TO.C,R20*%
X179352380Y-114142857D02*
X178876190Y-114476190D01*
X179352380Y-114714285D02*
X178352380Y-114714285D01*
X178352380Y-114333333D01*
X178400000Y-114238095D01*
X178447619Y-114190476D01*
X178542857Y-114142857D01*
X178685714Y-114142857D01*
X178780952Y-114190476D01*
X178828571Y-114238095D01*
X178876190Y-114333333D01*
X178876190Y-114714285D01*
X178447619Y-113761904D02*
X178400000Y-113714285D01*
X178352380Y-113619047D01*
X178352380Y-113380952D01*
X178400000Y-113285714D01*
X178447619Y-113238095D01*
X178542857Y-113190476D01*
X178638095Y-113190476D01*
X178780952Y-113238095D01*
X179352380Y-113809523D01*
X179352380Y-113190476D01*
X178352380Y-112571428D02*
X178352380Y-112476190D01*
X178400000Y-112380952D01*
X178447619Y-112333333D01*
X178542857Y-112285714D01*
X178733333Y-112238095D01*
X178971428Y-112238095D01*
X179161904Y-112285714D01*
X179257142Y-112333333D01*
X179304761Y-112380952D01*
X179352380Y-112476190D01*
X179352380Y-112571428D01*
X179304761Y-112666666D01*
X179257142Y-112714285D01*
X179161904Y-112761904D01*
X178971428Y-112809523D01*
X178733333Y-112809523D01*
X178542857Y-112761904D01*
X178447619Y-112714285D01*
X178400000Y-112666666D01*
X178352380Y-112571428D01*
%TO.C,C19*%
X136907142Y-100892857D02*
X136954761Y-100940476D01*
X137002380Y-101083333D01*
X137002380Y-101178571D01*
X136954761Y-101321428D01*
X136859523Y-101416666D01*
X136764285Y-101464285D01*
X136573809Y-101511904D01*
X136430952Y-101511904D01*
X136240476Y-101464285D01*
X136145238Y-101416666D01*
X136050000Y-101321428D01*
X136002380Y-101178571D01*
X136002380Y-101083333D01*
X136050000Y-100940476D01*
X136097619Y-100892857D01*
X137002380Y-99940476D02*
X137002380Y-100511904D01*
X137002380Y-100226190D02*
X136002380Y-100226190D01*
X136145238Y-100321428D01*
X136240476Y-100416666D01*
X136288095Y-100511904D01*
X137002380Y-99464285D02*
X137002380Y-99273809D01*
X136954761Y-99178571D01*
X136907142Y-99130952D01*
X136764285Y-99035714D01*
X136573809Y-98988095D01*
X136192857Y-98988095D01*
X136097619Y-99035714D01*
X136050000Y-99083333D01*
X136002380Y-99178571D01*
X136002380Y-99369047D01*
X136050000Y-99464285D01*
X136097619Y-99511904D01*
X136192857Y-99559523D01*
X136430952Y-99559523D01*
X136526190Y-99511904D01*
X136573809Y-99464285D01*
X136621428Y-99369047D01*
X136621428Y-99178571D01*
X136573809Y-99083333D01*
X136526190Y-99035714D01*
X136430952Y-98988095D01*
%TO.C,R16*%
X147607142Y-125632380D02*
X147273809Y-125156190D01*
X147035714Y-125632380D02*
X147035714Y-124632380D01*
X147416666Y-124632380D01*
X147511904Y-124680000D01*
X147559523Y-124727619D01*
X147607142Y-124822857D01*
X147607142Y-124965714D01*
X147559523Y-125060952D01*
X147511904Y-125108571D01*
X147416666Y-125156190D01*
X147035714Y-125156190D01*
X148559523Y-125632380D02*
X147988095Y-125632380D01*
X148273809Y-125632380D02*
X148273809Y-124632380D01*
X148178571Y-124775238D01*
X148083333Y-124870476D01*
X147988095Y-124918095D01*
X149416666Y-124632380D02*
X149226190Y-124632380D01*
X149130952Y-124680000D01*
X149083333Y-124727619D01*
X148988095Y-124870476D01*
X148940476Y-125060952D01*
X148940476Y-125441904D01*
X148988095Y-125537142D01*
X149035714Y-125584761D01*
X149130952Y-125632380D01*
X149321428Y-125632380D01*
X149416666Y-125584761D01*
X149464285Y-125537142D01*
X149511904Y-125441904D01*
X149511904Y-125203809D01*
X149464285Y-125108571D01*
X149416666Y-125060952D01*
X149321428Y-125013333D01*
X149130952Y-125013333D01*
X149035714Y-125060952D01*
X148988095Y-125108571D01*
X148940476Y-125203809D01*
%TO.C,U1*%
X143038095Y-70952380D02*
X143038095Y-71761904D01*
X143085714Y-71857142D01*
X143133333Y-71904761D01*
X143228571Y-71952380D01*
X143419047Y-71952380D01*
X143514285Y-71904761D01*
X143561904Y-71857142D01*
X143609523Y-71761904D01*
X143609523Y-70952380D01*
X144609523Y-71952380D02*
X144038095Y-71952380D01*
X144323809Y-71952380D02*
X144323809Y-70952380D01*
X144228571Y-71095238D01*
X144133333Y-71190476D01*
X144038095Y-71238095D01*
%TO.C,RV1*%
X120154761Y-94452380D02*
X119821428Y-93976190D01*
X119583333Y-94452380D02*
X119583333Y-93452380D01*
X119964285Y-93452380D01*
X120059523Y-93500000D01*
X120107142Y-93547619D01*
X120154761Y-93642857D01*
X120154761Y-93785714D01*
X120107142Y-93880952D01*
X120059523Y-93928571D01*
X119964285Y-93976190D01*
X119583333Y-93976190D01*
X120440476Y-93452380D02*
X120773809Y-94452380D01*
X121107142Y-93452380D01*
X121964285Y-94452380D02*
X121392857Y-94452380D01*
X121678571Y-94452380D02*
X121678571Y-93452380D01*
X121583333Y-93595238D01*
X121488095Y-93690476D01*
X121392857Y-93738095D01*
%TO.C,C30*%
X149757142Y-101907142D02*
X149709523Y-101954761D01*
X149566666Y-102002380D01*
X149471428Y-102002380D01*
X149328571Y-101954761D01*
X149233333Y-101859523D01*
X149185714Y-101764285D01*
X149138095Y-101573809D01*
X149138095Y-101430952D01*
X149185714Y-101240476D01*
X149233333Y-101145238D01*
X149328571Y-101050000D01*
X149471428Y-101002380D01*
X149566666Y-101002380D01*
X149709523Y-101050000D01*
X149757142Y-101097619D01*
X150090476Y-101002380D02*
X150709523Y-101002380D01*
X150376190Y-101383333D01*
X150519047Y-101383333D01*
X150614285Y-101430952D01*
X150661904Y-101478571D01*
X150709523Y-101573809D01*
X150709523Y-101811904D01*
X150661904Y-101907142D01*
X150614285Y-101954761D01*
X150519047Y-102002380D01*
X150233333Y-102002380D01*
X150138095Y-101954761D01*
X150090476Y-101907142D01*
X151328571Y-101002380D02*
X151423809Y-101002380D01*
X151519047Y-101050000D01*
X151566666Y-101097619D01*
X151614285Y-101192857D01*
X151661904Y-101383333D01*
X151661904Y-101621428D01*
X151614285Y-101811904D01*
X151566666Y-101907142D01*
X151519047Y-101954761D01*
X151423809Y-102002380D01*
X151328571Y-102002380D01*
X151233333Y-101954761D01*
X151185714Y-101907142D01*
X151138095Y-101811904D01*
X151090476Y-101621428D01*
X151090476Y-101383333D01*
X151138095Y-101192857D01*
X151185714Y-101097619D01*
X151233333Y-101050000D01*
X151328571Y-101002380D01*
%TO.C,TP7*%
X165888095Y-85302380D02*
X166459523Y-85302380D01*
X166173809Y-86302380D02*
X166173809Y-85302380D01*
X166792857Y-86302380D02*
X166792857Y-85302380D01*
X167173809Y-85302380D01*
X167269047Y-85350000D01*
X167316666Y-85397619D01*
X167364285Y-85492857D01*
X167364285Y-85635714D01*
X167316666Y-85730952D01*
X167269047Y-85778571D01*
X167173809Y-85826190D01*
X166792857Y-85826190D01*
X167697619Y-85302380D02*
X168364285Y-85302380D01*
X167935714Y-86302380D01*
%TO.C,C7*%
X158857142Y-86766666D02*
X158904761Y-86814285D01*
X158952380Y-86957142D01*
X158952380Y-87052380D01*
X158904761Y-87195238D01*
X158809523Y-87290476D01*
X158714285Y-87338095D01*
X158523809Y-87385714D01*
X158380952Y-87385714D01*
X158190476Y-87338095D01*
X158095238Y-87290476D01*
X158000000Y-87195238D01*
X157952380Y-87052380D01*
X157952380Y-86957142D01*
X158000000Y-86814285D01*
X158047619Y-86766666D01*
X157952380Y-86433333D02*
X157952380Y-85766666D01*
X158952380Y-86195238D01*
%TO.C,R1*%
X115352380Y-93866666D02*
X114876190Y-94200000D01*
X115352380Y-94438095D02*
X114352380Y-94438095D01*
X114352380Y-94057142D01*
X114400000Y-93961904D01*
X114447619Y-93914285D01*
X114542857Y-93866666D01*
X114685714Y-93866666D01*
X114780952Y-93914285D01*
X114828571Y-93961904D01*
X114876190Y-94057142D01*
X114876190Y-94438095D01*
X115352380Y-92914285D02*
X115352380Y-93485714D01*
X115352380Y-93200000D02*
X114352380Y-93200000D01*
X114495238Y-93295238D01*
X114590476Y-93390476D01*
X114638095Y-93485714D01*
%TO.C,J4*%
X196366666Y-96902380D02*
X196366666Y-97616666D01*
X196319047Y-97759523D01*
X196223809Y-97854761D01*
X196080952Y-97902380D01*
X195985714Y-97902380D01*
X197271428Y-97235714D02*
X197271428Y-97902380D01*
X197033333Y-96854761D02*
X196795238Y-97569047D01*
X197414285Y-97569047D01*
%TO.C,R7*%
X115552380Y-107466666D02*
X115076190Y-107800000D01*
X115552380Y-108038095D02*
X114552380Y-108038095D01*
X114552380Y-107657142D01*
X114600000Y-107561904D01*
X114647619Y-107514285D01*
X114742857Y-107466666D01*
X114885714Y-107466666D01*
X114980952Y-107514285D01*
X115028571Y-107561904D01*
X115076190Y-107657142D01*
X115076190Y-108038095D01*
X114552380Y-107133333D02*
X114552380Y-106466666D01*
X115552380Y-106895238D01*
%TO.C,C20*%
X137407142Y-116242857D02*
X137454761Y-116290476D01*
X137502380Y-116433333D01*
X137502380Y-116528571D01*
X137454761Y-116671428D01*
X137359523Y-116766666D01*
X137264285Y-116814285D01*
X137073809Y-116861904D01*
X136930952Y-116861904D01*
X136740476Y-116814285D01*
X136645238Y-116766666D01*
X136550000Y-116671428D01*
X136502380Y-116528571D01*
X136502380Y-116433333D01*
X136550000Y-116290476D01*
X136597619Y-116242857D01*
X136597619Y-115861904D02*
X136550000Y-115814285D01*
X136502380Y-115719047D01*
X136502380Y-115480952D01*
X136550000Y-115385714D01*
X136597619Y-115338095D01*
X136692857Y-115290476D01*
X136788095Y-115290476D01*
X136930952Y-115338095D01*
X137502380Y-115909523D01*
X137502380Y-115290476D01*
X136502380Y-114671428D02*
X136502380Y-114576190D01*
X136550000Y-114480952D01*
X136597619Y-114433333D01*
X136692857Y-114385714D01*
X136883333Y-114338095D01*
X137121428Y-114338095D01*
X137311904Y-114385714D01*
X137407142Y-114433333D01*
X137454761Y-114480952D01*
X137502380Y-114576190D01*
X137502380Y-114671428D01*
X137454761Y-114766666D01*
X137407142Y-114814285D01*
X137311904Y-114861904D01*
X137121428Y-114909523D01*
X136883333Y-114909523D01*
X136692857Y-114861904D01*
X136597619Y-114814285D01*
X136550000Y-114766666D01*
X136502380Y-114671428D01*
%TO.C,C8*%
X150257142Y-86566666D02*
X150304761Y-86614285D01*
X150352380Y-86757142D01*
X150352380Y-86852380D01*
X150304761Y-86995238D01*
X150209523Y-87090476D01*
X150114285Y-87138095D01*
X149923809Y-87185714D01*
X149780952Y-87185714D01*
X149590476Y-87138095D01*
X149495238Y-87090476D01*
X149400000Y-86995238D01*
X149352380Y-86852380D01*
X149352380Y-86757142D01*
X149400000Y-86614285D01*
X149447619Y-86566666D01*
X149780952Y-85995238D02*
X149733333Y-86090476D01*
X149685714Y-86138095D01*
X149590476Y-86185714D01*
X149542857Y-86185714D01*
X149447619Y-86138095D01*
X149400000Y-86090476D01*
X149352380Y-85995238D01*
X149352380Y-85804761D01*
X149400000Y-85709523D01*
X149447619Y-85661904D01*
X149542857Y-85614285D01*
X149590476Y-85614285D01*
X149685714Y-85661904D01*
X149733333Y-85709523D01*
X149780952Y-85804761D01*
X149780952Y-85995238D01*
X149828571Y-86090476D01*
X149876190Y-86138095D01*
X149971428Y-86185714D01*
X150161904Y-86185714D01*
X150257142Y-86138095D01*
X150304761Y-86090476D01*
X150352380Y-85995238D01*
X150352380Y-85804761D01*
X150304761Y-85709523D01*
X150257142Y-85661904D01*
X150161904Y-85614285D01*
X149971428Y-85614285D01*
X149876190Y-85661904D01*
X149828571Y-85709523D01*
X149780952Y-85804761D01*
%TO.C,C37*%
X158157142Y-122657142D02*
X158109523Y-122704761D01*
X157966666Y-122752380D01*
X157871428Y-122752380D01*
X157728571Y-122704761D01*
X157633333Y-122609523D01*
X157585714Y-122514285D01*
X157538095Y-122323809D01*
X157538095Y-122180952D01*
X157585714Y-121990476D01*
X157633333Y-121895238D01*
X157728571Y-121800000D01*
X157871428Y-121752380D01*
X157966666Y-121752380D01*
X158109523Y-121800000D01*
X158157142Y-121847619D01*
X158490476Y-121752380D02*
X159109523Y-121752380D01*
X158776190Y-122133333D01*
X158919047Y-122133333D01*
X159014285Y-122180952D01*
X159061904Y-122228571D01*
X159109523Y-122323809D01*
X159109523Y-122561904D01*
X159061904Y-122657142D01*
X159014285Y-122704761D01*
X158919047Y-122752380D01*
X158633333Y-122752380D01*
X158538095Y-122704761D01*
X158490476Y-122657142D01*
X159442857Y-121752380D02*
X160109523Y-121752380D01*
X159680952Y-122752380D01*
%TO.C,R3*%
X117452380Y-100966666D02*
X116976190Y-101300000D01*
X117452380Y-101538095D02*
X116452380Y-101538095D01*
X116452380Y-101157142D01*
X116500000Y-101061904D01*
X116547619Y-101014285D01*
X116642857Y-100966666D01*
X116785714Y-100966666D01*
X116880952Y-101014285D01*
X116928571Y-101061904D01*
X116976190Y-101157142D01*
X116976190Y-101538095D01*
X116452380Y-100633333D02*
X116452380Y-100014285D01*
X116833333Y-100347619D01*
X116833333Y-100204761D01*
X116880952Y-100109523D01*
X116928571Y-100061904D01*
X117023809Y-100014285D01*
X117261904Y-100014285D01*
X117357142Y-100061904D01*
X117404761Y-100109523D01*
X117452380Y-100204761D01*
X117452380Y-100490476D01*
X117404761Y-100585714D01*
X117357142Y-100633333D01*
%TO.C,R25*%
X180857142Y-120952380D02*
X180523809Y-120476190D01*
X180285714Y-120952380D02*
X180285714Y-119952380D01*
X180666666Y-119952380D01*
X180761904Y-120000000D01*
X180809523Y-120047619D01*
X180857142Y-120142857D01*
X180857142Y-120285714D01*
X180809523Y-120380952D01*
X180761904Y-120428571D01*
X180666666Y-120476190D01*
X180285714Y-120476190D01*
X181238095Y-120047619D02*
X181285714Y-120000000D01*
X181380952Y-119952380D01*
X181619047Y-119952380D01*
X181714285Y-120000000D01*
X181761904Y-120047619D01*
X181809523Y-120142857D01*
X181809523Y-120238095D01*
X181761904Y-120380952D01*
X181190476Y-120952380D01*
X181809523Y-120952380D01*
X182714285Y-119952380D02*
X182238095Y-119952380D01*
X182190476Y-120428571D01*
X182238095Y-120380952D01*
X182333333Y-120333333D01*
X182571428Y-120333333D01*
X182666666Y-120380952D01*
X182714285Y-120428571D01*
X182761904Y-120523809D01*
X182761904Y-120761904D01*
X182714285Y-120857142D01*
X182666666Y-120904761D01*
X182571428Y-120952380D01*
X182333333Y-120952380D01*
X182238095Y-120904761D01*
X182190476Y-120857142D01*
%TO.C,C15*%
X130857142Y-100842857D02*
X130904761Y-100890476D01*
X130952380Y-101033333D01*
X130952380Y-101128571D01*
X130904761Y-101271428D01*
X130809523Y-101366666D01*
X130714285Y-101414285D01*
X130523809Y-101461904D01*
X130380952Y-101461904D01*
X130190476Y-101414285D01*
X130095238Y-101366666D01*
X130000000Y-101271428D01*
X129952380Y-101128571D01*
X129952380Y-101033333D01*
X130000000Y-100890476D01*
X130047619Y-100842857D01*
X130952380Y-99890476D02*
X130952380Y-100461904D01*
X130952380Y-100176190D02*
X129952380Y-100176190D01*
X130095238Y-100271428D01*
X130190476Y-100366666D01*
X130238095Y-100461904D01*
X129952380Y-98985714D02*
X129952380Y-99461904D01*
X130428571Y-99509523D01*
X130380952Y-99461904D01*
X130333333Y-99366666D01*
X130333333Y-99128571D01*
X130380952Y-99033333D01*
X130428571Y-98985714D01*
X130523809Y-98938095D01*
X130761904Y-98938095D01*
X130857142Y-98985714D01*
X130904761Y-99033333D01*
X130952380Y-99128571D01*
X130952380Y-99366666D01*
X130904761Y-99461904D01*
X130857142Y-99509523D01*
%TO.C,J5*%
X162072380Y-128333333D02*
X162786666Y-128333333D01*
X162929523Y-128380952D01*
X163024761Y-128476190D01*
X163072380Y-128619047D01*
X163072380Y-128714285D01*
X162072380Y-127380952D02*
X162072380Y-127857142D01*
X162548571Y-127904761D01*
X162500952Y-127857142D01*
X162453333Y-127761904D01*
X162453333Y-127523809D01*
X162500952Y-127428571D01*
X162548571Y-127380952D01*
X162643809Y-127333333D01*
X162881904Y-127333333D01*
X162977142Y-127380952D01*
X163024761Y-127428571D01*
X163072380Y-127523809D01*
X163072380Y-127761904D01*
X163024761Y-127857142D01*
X162977142Y-127904761D01*
%TO.C,J7*%
X174872380Y-128333333D02*
X175586666Y-128333333D01*
X175729523Y-128380952D01*
X175824761Y-128476190D01*
X175872380Y-128619047D01*
X175872380Y-128714285D01*
X174872380Y-127952380D02*
X174872380Y-127285714D01*
X175872380Y-127714285D01*
%TO.C,TP6*%
X170452380Y-68261904D02*
X170452380Y-67690476D01*
X171452380Y-67976190D02*
X170452380Y-67976190D01*
X171452380Y-67357142D02*
X170452380Y-67357142D01*
X170452380Y-66976190D01*
X170500000Y-66880952D01*
X170547619Y-66833333D01*
X170642857Y-66785714D01*
X170785714Y-66785714D01*
X170880952Y-66833333D01*
X170928571Y-66880952D01*
X170976190Y-66976190D01*
X170976190Y-67357142D01*
X170452380Y-65928571D02*
X170452380Y-66119047D01*
X170500000Y-66214285D01*
X170547619Y-66261904D01*
X170690476Y-66357142D01*
X170880952Y-66404761D01*
X171261904Y-66404761D01*
X171357142Y-66357142D01*
X171404761Y-66309523D01*
X171452380Y-66214285D01*
X171452380Y-66023809D01*
X171404761Y-65928571D01*
X171357142Y-65880952D01*
X171261904Y-65833333D01*
X171023809Y-65833333D01*
X170928571Y-65880952D01*
X170880952Y-65928571D01*
X170833333Y-66023809D01*
X170833333Y-66214285D01*
X170880952Y-66309523D01*
X170928571Y-66357142D01*
X171023809Y-66404761D01*
%TO.C,R21*%
X177102380Y-114092857D02*
X176626190Y-114426190D01*
X177102380Y-114664285D02*
X176102380Y-114664285D01*
X176102380Y-114283333D01*
X176150000Y-114188095D01*
X176197619Y-114140476D01*
X176292857Y-114092857D01*
X176435714Y-114092857D01*
X176530952Y-114140476D01*
X176578571Y-114188095D01*
X176626190Y-114283333D01*
X176626190Y-114664285D01*
X176197619Y-113711904D02*
X176150000Y-113664285D01*
X176102380Y-113569047D01*
X176102380Y-113330952D01*
X176150000Y-113235714D01*
X176197619Y-113188095D01*
X176292857Y-113140476D01*
X176388095Y-113140476D01*
X176530952Y-113188095D01*
X177102380Y-113759523D01*
X177102380Y-113140476D01*
X177102380Y-112188095D02*
X177102380Y-112759523D01*
X177102380Y-112473809D02*
X176102380Y-112473809D01*
X176245238Y-112569047D01*
X176340476Y-112664285D01*
X176388095Y-112759523D01*
%TO.C,J1*%
X102966666Y-76152380D02*
X102966666Y-76866666D01*
X102919047Y-77009523D01*
X102823809Y-77104761D01*
X102680952Y-77152380D01*
X102585714Y-77152380D01*
X103966666Y-77152380D02*
X103395238Y-77152380D01*
X103680952Y-77152380D02*
X103680952Y-76152380D01*
X103585714Y-76295238D01*
X103490476Y-76390476D01*
X103395238Y-76438095D01*
%TO.C,R23*%
X189652380Y-114142857D02*
X189176190Y-114476190D01*
X189652380Y-114714285D02*
X188652380Y-114714285D01*
X188652380Y-114333333D01*
X188700000Y-114238095D01*
X188747619Y-114190476D01*
X188842857Y-114142857D01*
X188985714Y-114142857D01*
X189080952Y-114190476D01*
X189128571Y-114238095D01*
X189176190Y-114333333D01*
X189176190Y-114714285D01*
X188747619Y-113761904D02*
X188700000Y-113714285D01*
X188652380Y-113619047D01*
X188652380Y-113380952D01*
X188700000Y-113285714D01*
X188747619Y-113238095D01*
X188842857Y-113190476D01*
X188938095Y-113190476D01*
X189080952Y-113238095D01*
X189652380Y-113809523D01*
X189652380Y-113190476D01*
X188652380Y-112857142D02*
X188652380Y-112238095D01*
X189033333Y-112571428D01*
X189033333Y-112428571D01*
X189080952Y-112333333D01*
X189128571Y-112285714D01*
X189223809Y-112238095D01*
X189461904Y-112238095D01*
X189557142Y-112285714D01*
X189604761Y-112333333D01*
X189652380Y-112428571D01*
X189652380Y-112714285D01*
X189604761Y-112809523D01*
X189557142Y-112857142D01*
%TO.C,C35*%
X149757142Y-100007142D02*
X149709523Y-100054761D01*
X149566666Y-100102380D01*
X149471428Y-100102380D01*
X149328571Y-100054761D01*
X149233333Y-99959523D01*
X149185714Y-99864285D01*
X149138095Y-99673809D01*
X149138095Y-99530952D01*
X149185714Y-99340476D01*
X149233333Y-99245238D01*
X149328571Y-99150000D01*
X149471428Y-99102380D01*
X149566666Y-99102380D01*
X149709523Y-99150000D01*
X149757142Y-99197619D01*
X150090476Y-99102380D02*
X150709523Y-99102380D01*
X150376190Y-99483333D01*
X150519047Y-99483333D01*
X150614285Y-99530952D01*
X150661904Y-99578571D01*
X150709523Y-99673809D01*
X150709523Y-99911904D01*
X150661904Y-100007142D01*
X150614285Y-100054761D01*
X150519047Y-100102380D01*
X150233333Y-100102380D01*
X150138095Y-100054761D01*
X150090476Y-100007142D01*
X151614285Y-99102380D02*
X151138095Y-99102380D01*
X151090476Y-99578571D01*
X151138095Y-99530952D01*
X151233333Y-99483333D01*
X151471428Y-99483333D01*
X151566666Y-99530952D01*
X151614285Y-99578571D01*
X151661904Y-99673809D01*
X151661904Y-99911904D01*
X151614285Y-100007142D01*
X151566666Y-100054761D01*
X151471428Y-100102380D01*
X151233333Y-100102380D01*
X151138095Y-100054761D01*
X151090476Y-100007142D01*
%TO.C,C1*%
X122857142Y-72166666D02*
X122904761Y-72214285D01*
X122952380Y-72357142D01*
X122952380Y-72452380D01*
X122904761Y-72595238D01*
X122809523Y-72690476D01*
X122714285Y-72738095D01*
X122523809Y-72785714D01*
X122380952Y-72785714D01*
X122190476Y-72738095D01*
X122095238Y-72690476D01*
X122000000Y-72595238D01*
X121952380Y-72452380D01*
X121952380Y-72357142D01*
X122000000Y-72214285D01*
X122047619Y-72166666D01*
X122952380Y-71214285D02*
X122952380Y-71785714D01*
X122952380Y-71500000D02*
X121952380Y-71500000D01*
X122095238Y-71595238D01*
X122190476Y-71690476D01*
X122238095Y-71785714D01*
%TO.C,C3*%
X150257142Y-75166666D02*
X150304761Y-75214285D01*
X150352380Y-75357142D01*
X150352380Y-75452380D01*
X150304761Y-75595238D01*
X150209523Y-75690476D01*
X150114285Y-75738095D01*
X149923809Y-75785714D01*
X149780952Y-75785714D01*
X149590476Y-75738095D01*
X149495238Y-75690476D01*
X149400000Y-75595238D01*
X149352380Y-75452380D01*
X149352380Y-75357142D01*
X149400000Y-75214285D01*
X149447619Y-75166666D01*
X149352380Y-74833333D02*
X149352380Y-74214285D01*
X149733333Y-74547619D01*
X149733333Y-74404761D01*
X149780952Y-74309523D01*
X149828571Y-74261904D01*
X149923809Y-74214285D01*
X150161904Y-74214285D01*
X150257142Y-74261904D01*
X150304761Y-74309523D01*
X150352380Y-74404761D01*
X150352380Y-74690476D01*
X150304761Y-74785714D01*
X150257142Y-74833333D01*
%TO.C,R5*%
X132952380Y-100866666D02*
X132476190Y-101200000D01*
X132952380Y-101438095D02*
X131952380Y-101438095D01*
X131952380Y-101057142D01*
X132000000Y-100961904D01*
X132047619Y-100914285D01*
X132142857Y-100866666D01*
X132285714Y-100866666D01*
X132380952Y-100914285D01*
X132428571Y-100961904D01*
X132476190Y-101057142D01*
X132476190Y-101438095D01*
X131952380Y-99961904D02*
X131952380Y-100438095D01*
X132428571Y-100485714D01*
X132380952Y-100438095D01*
X132333333Y-100342857D01*
X132333333Y-100104761D01*
X132380952Y-100009523D01*
X132428571Y-99961904D01*
X132523809Y-99914285D01*
X132761904Y-99914285D01*
X132857142Y-99961904D01*
X132904761Y-100009523D01*
X132952380Y-100104761D01*
X132952380Y-100342857D01*
X132904761Y-100438095D01*
X132857142Y-100485714D01*
%TO.C,R8*%
X117752380Y-107466666D02*
X117276190Y-107800000D01*
X117752380Y-108038095D02*
X116752380Y-108038095D01*
X116752380Y-107657142D01*
X116800000Y-107561904D01*
X116847619Y-107514285D01*
X116942857Y-107466666D01*
X117085714Y-107466666D01*
X117180952Y-107514285D01*
X117228571Y-107561904D01*
X117276190Y-107657142D01*
X117276190Y-108038095D01*
X117180952Y-106895238D02*
X117133333Y-106990476D01*
X117085714Y-107038095D01*
X116990476Y-107085714D01*
X116942857Y-107085714D01*
X116847619Y-107038095D01*
X116800000Y-106990476D01*
X116752380Y-106895238D01*
X116752380Y-106704761D01*
X116800000Y-106609523D01*
X116847619Y-106561904D01*
X116942857Y-106514285D01*
X116990476Y-106514285D01*
X117085714Y-106561904D01*
X117133333Y-106609523D01*
X117180952Y-106704761D01*
X117180952Y-106895238D01*
X117228571Y-106990476D01*
X117276190Y-107038095D01*
X117371428Y-107085714D01*
X117561904Y-107085714D01*
X117657142Y-107038095D01*
X117704761Y-106990476D01*
X117752380Y-106895238D01*
X117752380Y-106704761D01*
X117704761Y-106609523D01*
X117657142Y-106561904D01*
X117561904Y-106514285D01*
X117371428Y-106514285D01*
X117276190Y-106561904D01*
X117228571Y-106609523D01*
X117180952Y-106704761D01*
D12*
%TO.C,power*%
X185035000Y-75600000D02*
X185035000Y-73315000D01*
X185035000Y-73315000D02*
X183565000Y-73315000D01*
X183565000Y-73315000D02*
X183565000Y-75600000D01*
%TO.C,freq*%
X187485000Y-122735000D02*
X187485000Y-121265000D01*
X187485000Y-121265000D02*
X185200000Y-121265000D01*
X185200000Y-122735000D02*
X187485000Y-122735000D01*
%TO.C,amp*%
X187485000Y-118265000D02*
X185200000Y-118265000D01*
X185200000Y-119735000D02*
X187485000Y-119735000D01*
X187485000Y-119735000D02*
X187485000Y-118265000D01*
%TO.C,U8*%
X145790000Y-117410000D02*
X145790000Y-118750000D01*
X144840000Y-117410000D02*
X145790000Y-117410000D01*
X144840000Y-108140000D02*
X144840000Y-107190000D01*
X155060000Y-107190000D02*
X154110000Y-107190000D01*
X155060000Y-116460000D02*
X155060000Y-117410000D01*
X155060000Y-117410000D02*
X154110000Y-117410000D01*
X144840000Y-116460000D02*
X144840000Y-117410000D01*
X155060000Y-108140000D02*
X155060000Y-107190000D01*
X144840000Y-107190000D02*
X145790000Y-107190000D01*
%TO.C,C32*%
X155915580Y-119890000D02*
X155634420Y-119890000D01*
X155915580Y-120910000D02*
X155634420Y-120910000D01*
%TO.C,R11*%
X115622500Y-119037258D02*
X115622500Y-118562742D01*
X114577500Y-119037258D02*
X114577500Y-118562742D01*
%TO.C,C33*%
X158059420Y-100990000D02*
X158340580Y-100990000D01*
X158059420Y-102010000D02*
X158340580Y-102010000D01*
%TO.C,C11*%
X179710000Y-74940580D02*
X179710000Y-74659420D01*
X178690000Y-74940580D02*
X178690000Y-74659420D01*
%TO.C,RST1*%
X141450000Y-100460000D02*
X141450000Y-94340000D01*
X141450000Y-94340000D02*
X145150000Y-94340000D01*
X145150000Y-100460000D02*
X141450000Y-100460000D01*
X145150000Y-94340000D02*
X145150000Y-100460000D01*
%TO.C,C24*%
X160290000Y-111659420D02*
X160290000Y-111940580D01*
X161310000Y-111659420D02*
X161310000Y-111940580D01*
%TO.C,U2*%
X140950000Y-80300000D02*
X140950000Y-82110000D01*
X140950000Y-90700000D02*
X140950000Y-88890000D01*
X140950000Y-82110000D02*
X142050000Y-82110000D01*
X140950000Y-88890000D02*
X146075000Y-88890000D01*
X139450000Y-90700000D02*
X140950000Y-90700000D01*
X139450000Y-80300000D02*
X140950000Y-80300000D01*
%TO.C,R4*%
X115422500Y-103737258D02*
X115422500Y-103262742D01*
X114377500Y-103737258D02*
X114377500Y-103262742D01*
%TO.C,RV3*%
X171650000Y-98700000D02*
X171650000Y-99200000D01*
X162650000Y-99200000D02*
X163150000Y-99200000D01*
X163150000Y-99200000D02*
X163150000Y-98700000D01*
X163400000Y-94390984D02*
X163400000Y-95509016D01*
X171400000Y-98700000D02*
X171650000Y-98700000D01*
X162650000Y-94200000D02*
X172150000Y-94200000D01*
X172150000Y-94200000D02*
X172150000Y-98700000D01*
X163400000Y-98700000D02*
X171400000Y-98700000D01*
X171650000Y-99200000D02*
X172150000Y-99200000D01*
X172150000Y-99200000D02*
X172150000Y-98700000D01*
X163150000Y-98700000D02*
X163400000Y-98700000D01*
X162650000Y-94200000D02*
X162650000Y-98700000D01*
X162650000Y-98700000D02*
X162650000Y-99200000D01*
X163959017Y-94950000D02*
G75*
G03*
X163959017Y-94950000I-559017J0D01*
G01*
%TO.C,RV2*%
X118750000Y-110500000D02*
X118750000Y-115000000D01*
X118750000Y-110500000D02*
X128250000Y-110500000D01*
X127500000Y-115000000D02*
X127750000Y-115000000D01*
X119500000Y-110690984D02*
X119500000Y-111809016D01*
X128250000Y-115500000D02*
X128250000Y-115000000D01*
X119250000Y-115000000D02*
X119500000Y-115000000D01*
X118750000Y-115500000D02*
X119250000Y-115500000D01*
X119250000Y-115500000D02*
X119250000Y-115000000D01*
X127750000Y-115000000D02*
X127750000Y-115500000D01*
X127750000Y-115500000D02*
X128250000Y-115500000D01*
X128250000Y-110500000D02*
X128250000Y-115000000D01*
X119500000Y-115000000D02*
X127500000Y-115000000D01*
X118750000Y-115000000D02*
X118750000Y-115500000D01*
X120059017Y-111250000D02*
G75*
G03*
X120059017Y-111250000I-559017J0D01*
G01*
%TO.C,U4*%
X123500000Y-106160000D02*
X121550000Y-106160000D01*
X123500000Y-101040000D02*
X120050000Y-101040000D01*
X123500000Y-106160000D02*
X125450000Y-106160000D01*
X123500000Y-101040000D02*
X125450000Y-101040000D01*
%TO.C,C5*%
X119910000Y-89910000D02*
X117560000Y-89910000D01*
X114154437Y-83090000D02*
X115440000Y-83090000D01*
X118845563Y-83090000D02*
X119910000Y-84154437D01*
X119910000Y-84154437D02*
X119910000Y-89910000D01*
X118741250Y-82456250D02*
X117953750Y-82456250D01*
X113090000Y-89910000D02*
X115440000Y-89910000D01*
X114154437Y-83090000D02*
X113090000Y-84154437D01*
X118845563Y-83090000D02*
X117560000Y-83090000D01*
X113090000Y-84154437D02*
X113090000Y-89910000D01*
X118347500Y-82062500D02*
X118347500Y-82850000D01*
%TO.C,U5*%
X123500000Y-121560000D02*
X121550000Y-121560000D01*
X123500000Y-121560000D02*
X125450000Y-121560000D01*
X123500000Y-116440000D02*
X125450000Y-116440000D01*
X123500000Y-116440000D02*
X120050000Y-116440000D01*
%TO.C,C22*%
X144640000Y-121290580D02*
X144640000Y-121009420D01*
X145660000Y-121290580D02*
X145660000Y-121009420D01*
%TO.C,R24*%
X186277500Y-74512742D02*
X186277500Y-74987258D01*
X187322500Y-74512742D02*
X187322500Y-74987258D01*
%TO.C,J2*%
X105450000Y-105000000D02*
X105450000Y-95000000D01*
D11*
X106450000Y-95000000D02*
X106450000Y-105000000D01*
D12*
X105450000Y-100000000D02*
X106450000Y-100000000D01*
D11*
X99950000Y-105000000D02*
X99950000Y-95000000D01*
X106450000Y-105000000D02*
X99950000Y-105000000D01*
X99950000Y-95000000D02*
X106450000Y-95000000D01*
D12*
%TO.C,U6*%
X168050000Y-102990000D02*
X170000000Y-102990000D01*
X168050000Y-108110000D02*
X170000000Y-108110000D01*
X168050000Y-102990000D02*
X164600000Y-102990000D01*
X168050000Y-108110000D02*
X166100000Y-108110000D01*
%TO.C,C23*%
X151910000Y-121009420D02*
X151910000Y-121290580D01*
X150890000Y-121009420D02*
X150890000Y-121290580D01*
%TO.C,R18*%
X163372500Y-105487258D02*
X163372500Y-105012742D01*
X162327500Y-105487258D02*
X162327500Y-105012742D01*
%TO.C,X1*%
X146415000Y-122450000D02*
X146415000Y-119850000D01*
X150085000Y-119665000D02*
X150085000Y-122450000D01*
X149885000Y-119665000D02*
X150085000Y-119665000D01*
%TO.C,TP5*%
X152900000Y-66050000D02*
X151050000Y-66050000D01*
X152900000Y-66100000D02*
X152900000Y-66050000D01*
X152900000Y-67950000D02*
X152900000Y-66100000D01*
X151050000Y-67950000D02*
X152900000Y-67950000D01*
X151050000Y-66050000D02*
X151050000Y-67950000D01*
%TO.C,C26*%
X165659420Y-111510000D02*
X165940580Y-111510000D01*
X165659420Y-110490000D02*
X165940580Y-110490000D01*
%TO.C,R14*%
X140537258Y-113527500D02*
X140062742Y-113527500D01*
X140537258Y-114572500D02*
X140062742Y-114572500D01*
%TO.C,R15*%
X140372500Y-95612742D02*
X140372500Y-96087258D01*
X139327500Y-95612742D02*
X139327500Y-96087258D01*
%TO.C,F1*%
X111910000Y-75102064D02*
X111910000Y-73897936D01*
X110090000Y-75102064D02*
X110090000Y-73897936D01*
%TO.C,R6*%
X133977500Y-103262742D02*
X133977500Y-103737258D01*
X135022500Y-103262742D02*
X135022500Y-103737258D01*
%TO.C,C2*%
X114652500Y-76437500D02*
X114652500Y-75650000D01*
X119910000Y-74345563D02*
X119910000Y-68590000D01*
X113090000Y-74345563D02*
X113090000Y-68590000D01*
X118845563Y-75410000D02*
X117560000Y-75410000D01*
X113090000Y-68590000D02*
X115440000Y-68590000D01*
X114258750Y-76043750D02*
X115046250Y-76043750D01*
X119910000Y-68590000D02*
X117560000Y-68590000D01*
X118845563Y-75410000D02*
X119910000Y-74345563D01*
X114154437Y-75410000D02*
X113090000Y-74345563D01*
X114154437Y-75410000D02*
X115440000Y-75410000D01*
%TO.C,R19*%
X176172500Y-105637258D02*
X176172500Y-105162742D01*
X175127500Y-105637258D02*
X175127500Y-105162742D01*
%TO.C,C28*%
X181610000Y-110209420D02*
X181610000Y-110490580D01*
X180590000Y-110209420D02*
X180590000Y-110490580D01*
%TO.C,C27*%
X172740000Y-105540580D02*
X172740000Y-105259420D01*
X173760000Y-105540580D02*
X173760000Y-105259420D01*
%TO.C,J6*%
X161150000Y-129330000D02*
X161150000Y-126670000D01*
X153470000Y-129330000D02*
X153470000Y-126670000D01*
X153470000Y-129330000D02*
X161150000Y-129330000D01*
X153470000Y-126670000D02*
X161150000Y-126670000D01*
X152200000Y-129330000D02*
X150870000Y-129330000D01*
X150870000Y-129330000D02*
X150870000Y-128000000D01*
%TO.C,F2*%
X110090000Y-88402064D02*
X110090000Y-87197936D01*
X111910000Y-88402064D02*
X111910000Y-87197936D01*
%TO.C,C25*%
X163410000Y-111659420D02*
X163410000Y-111940580D01*
X162390000Y-111659420D02*
X162390000Y-111940580D01*
%TO.C,R22*%
X186477500Y-110637258D02*
X186477500Y-110162742D01*
X187522500Y-110637258D02*
X187522500Y-110162742D01*
%TO.C,TP3*%
X169450000Y-114350000D02*
X169450000Y-114300000D01*
X169450000Y-116200000D02*
X169450000Y-114350000D01*
X167600000Y-114300000D02*
X167600000Y-116200000D01*
X169450000Y-114300000D02*
X167600000Y-114300000D01*
X167600000Y-116200000D02*
X169450000Y-116200000D01*
%TO.C,R26*%
X181262742Y-121477500D02*
X181737258Y-121477500D01*
X181262742Y-122522500D02*
X181737258Y-122522500D01*
D11*
%TO.C,J3*%
X99950000Y-117500000D02*
X99950000Y-107500000D01*
D12*
X105450000Y-112500000D02*
X106450000Y-112500000D01*
D11*
X106450000Y-117500000D02*
X99950000Y-117500000D01*
D12*
X105450000Y-117500000D02*
X105450000Y-107500000D01*
D11*
X106450000Y-107500000D02*
X106450000Y-117500000D01*
X99950000Y-107500000D02*
X106450000Y-107500000D01*
D12*
%TO.C,C21*%
X139340000Y-99759420D02*
X139340000Y-100040580D01*
X140360000Y-99759420D02*
X140360000Y-100040580D01*
%TO.C,C10*%
X165690000Y-72849420D02*
X165690000Y-73130580D01*
X166710000Y-72849420D02*
X166710000Y-73130580D01*
%TO.C,RV4*%
X179650000Y-98700000D02*
X179650000Y-99200000D01*
X179650000Y-99200000D02*
X180150000Y-99200000D01*
X180150000Y-99200000D02*
X180150000Y-98700000D01*
X179650000Y-94200000D02*
X179650000Y-98700000D01*
X189150000Y-94200000D02*
X189150000Y-98700000D01*
X188650000Y-99200000D02*
X189150000Y-99200000D01*
X188650000Y-98700000D02*
X188650000Y-99200000D01*
X179650000Y-94200000D02*
X189150000Y-94200000D01*
X189150000Y-99200000D02*
X189150000Y-98700000D01*
X180400000Y-94390984D02*
X180400000Y-95509016D01*
X180400000Y-98700000D02*
X188400000Y-98700000D01*
X188400000Y-98700000D02*
X188650000Y-98700000D01*
X180150000Y-98700000D02*
X180400000Y-98700000D01*
X180959017Y-94950000D02*
G75*
G03*
X180959017Y-94950000I-559017J0D01*
G01*
%TO.C,C31*%
X161310000Y-115534420D02*
X161310000Y-115815580D01*
X160290000Y-115534420D02*
X160290000Y-115815580D01*
%TO.C,C36*%
X163410000Y-115509420D02*
X163410000Y-115790580D01*
X162390000Y-115509420D02*
X162390000Y-115790580D01*
%TO.C,TP1*%
X133550000Y-106450000D02*
X133550000Y-108350000D01*
X135400000Y-106450000D02*
X133550000Y-106450000D01*
X135400000Y-106500000D02*
X135400000Y-106450000D01*
X133550000Y-108350000D02*
X135400000Y-108350000D01*
X135400000Y-108350000D02*
X135400000Y-106500000D01*
%TO.C,C4*%
X163810000Y-78410000D02*
X161460000Y-78410000D01*
X162745563Y-71590000D02*
X161460000Y-71590000D01*
X158054437Y-71590000D02*
X159340000Y-71590000D01*
X162745563Y-71590000D02*
X163810000Y-72654437D01*
X162247500Y-70562500D02*
X162247500Y-71350000D01*
X156990000Y-78410000D02*
X159340000Y-78410000D01*
X163810000Y-72654437D02*
X163810000Y-78410000D01*
X158054437Y-71590000D02*
X156990000Y-72654437D01*
X156990000Y-72654437D02*
X156990000Y-78410000D01*
X162641250Y-70956250D02*
X161853750Y-70956250D01*
%TO.C,C29*%
X140440580Y-116710000D02*
X140159420Y-116710000D01*
X140440580Y-115690000D02*
X140159420Y-115690000D01*
%TO.C,TP2*%
X135800000Y-121850000D02*
X133950000Y-121850000D01*
X135800000Y-123750000D02*
X135800000Y-121900000D01*
X135800000Y-121900000D02*
X135800000Y-121850000D01*
X133950000Y-123750000D02*
X135800000Y-123750000D01*
X133950000Y-121850000D02*
X133950000Y-123750000D01*
%TO.C,C34*%
X140440580Y-118640000D02*
X140159420Y-118640000D01*
X140440580Y-119660000D02*
X140159420Y-119660000D01*
%TO.C,C14*%
X113310000Y-96359420D02*
X113310000Y-96640580D01*
X112290000Y-96359420D02*
X112290000Y-96640580D01*
%TO.C,U7*%
X184300000Y-108110000D02*
X186250000Y-108110000D01*
X184300000Y-108110000D02*
X182350000Y-108110000D01*
X184300000Y-102990000D02*
X180850000Y-102990000D01*
X184300000Y-102990000D02*
X186250000Y-102990000D01*
%TO.C,R17*%
X169637258Y-111522500D02*
X169162742Y-111522500D01*
X169637258Y-110477500D02*
X169162742Y-110477500D01*
%TO.C,R13*%
X135422500Y-118662742D02*
X135422500Y-119137258D01*
X134377500Y-118662742D02*
X134377500Y-119137258D01*
%TO.C,U3*%
X176660000Y-71300000D02*
X176660000Y-77310000D01*
X176660000Y-77310000D02*
X175400000Y-77310000D01*
X169840000Y-73550000D02*
X169840000Y-77310000D01*
X169840000Y-77310000D02*
X171100000Y-77310000D01*
%TO.C,C16*%
X110190000Y-109859420D02*
X110190000Y-110140580D01*
X111210000Y-109859420D02*
X111210000Y-110140580D01*
%TO.C,C9*%
X165690000Y-76859420D02*
X165690000Y-77140580D01*
X166710000Y-76859420D02*
X166710000Y-77140580D01*
%TO.C,R2*%
X116477500Y-96737258D02*
X116477500Y-96262742D01*
X117522500Y-96737258D02*
X117522500Y-96262742D01*
%TO.C,TP4*%
X174100000Y-116200000D02*
X174100000Y-114350000D01*
X172250000Y-116200000D02*
X174100000Y-116200000D01*
X174100000Y-114300000D02*
X172250000Y-114300000D01*
X174100000Y-114350000D02*
X174100000Y-114300000D01*
X172250000Y-114300000D02*
X172250000Y-116200000D01*
%TO.C,C6*%
X126845563Y-83090000D02*
X125560000Y-83090000D01*
X126741250Y-82456250D02*
X125953750Y-82456250D01*
X127910000Y-89910000D02*
X125560000Y-89910000D01*
X126845563Y-83090000D02*
X127910000Y-84154437D01*
X122154437Y-83090000D02*
X121090000Y-84154437D01*
X121090000Y-84154437D02*
X121090000Y-89910000D01*
X122154437Y-83090000D02*
X123440000Y-83090000D01*
X126347500Y-82062500D02*
X126347500Y-82850000D01*
X127910000Y-84154437D02*
X127910000Y-89910000D01*
X121090000Y-89910000D02*
X123440000Y-89910000D01*
%TO.C,C13*%
X111210000Y-96359420D02*
X111210000Y-96640580D01*
X110190000Y-96359420D02*
X110190000Y-96640580D01*
%TO.C,R9*%
X117822500Y-119037258D02*
X117822500Y-118562742D01*
X116777500Y-119037258D02*
X116777500Y-118562742D01*
%TO.C,C38*%
X158084420Y-99040000D02*
X158365580Y-99040000D01*
X158084420Y-100060000D02*
X158365580Y-100060000D01*
%TO.C,C12*%
X182260000Y-74940580D02*
X182260000Y-74659420D01*
X181240000Y-74940580D02*
X181240000Y-74659420D01*
%TO.C,C18*%
X131110000Y-119040580D02*
X131110000Y-118759420D01*
X130090000Y-119040580D02*
X130090000Y-118759420D01*
%TO.C,R12*%
X132277500Y-118662742D02*
X132277500Y-119137258D01*
X133322500Y-118662742D02*
X133322500Y-119137258D01*
%TO.C,C17*%
X112390000Y-109859420D02*
X112390000Y-110140580D01*
X113410000Y-109859420D02*
X113410000Y-110140580D01*
%TO.C,R20*%
X179372500Y-110062742D02*
X179372500Y-110537258D01*
X178327500Y-110062742D02*
X178327500Y-110537258D01*
%TO.C,C19*%
X136040000Y-103640580D02*
X136040000Y-103359420D01*
X137060000Y-103640580D02*
X137060000Y-103359420D01*
%TO.C,R16*%
X148487258Y-123227500D02*
X148012742Y-123227500D01*
X148487258Y-124272500D02*
X148012742Y-124272500D01*
%TO.C,U1*%
X140950000Y-68110000D02*
X142050000Y-68110000D01*
X139450000Y-76700000D02*
X140950000Y-76700000D01*
X140950000Y-76700000D02*
X140950000Y-74890000D01*
X139450000Y-66300000D02*
X140950000Y-66300000D01*
X140950000Y-74890000D02*
X146075000Y-74890000D01*
X140950000Y-66300000D02*
X140950000Y-68110000D01*
%TO.C,RV1*%
X119250000Y-99500000D02*
X119500000Y-99500000D01*
X127500000Y-99500000D02*
X127750000Y-99500000D01*
X119250000Y-100000000D02*
X119250000Y-99500000D01*
X118750000Y-95000000D02*
X118750000Y-99500000D01*
X127750000Y-100000000D02*
X128250000Y-100000000D01*
X128250000Y-95000000D02*
X128250000Y-99500000D01*
X118750000Y-99500000D02*
X118750000Y-100000000D01*
X118750000Y-100000000D02*
X119250000Y-100000000D01*
X119500000Y-95190984D02*
X119500000Y-96309016D01*
X127750000Y-99500000D02*
X127750000Y-100000000D01*
X128250000Y-100000000D02*
X128250000Y-99500000D01*
X119500000Y-99500000D02*
X127500000Y-99500000D01*
X118750000Y-95000000D02*
X128250000Y-95000000D01*
X120059017Y-95750000D02*
G75*
G03*
X120059017Y-95750000I-559017J0D01*
G01*
%TO.C,C30*%
X147159420Y-102060000D02*
X147440580Y-102060000D01*
X147159420Y-101040000D02*
X147440580Y-101040000D01*
%TO.C,TP7*%
X166200000Y-84650000D02*
X168050000Y-84650000D01*
X166200000Y-82750000D02*
X166200000Y-84650000D01*
X168050000Y-82800000D02*
X168050000Y-82750000D01*
X168050000Y-84650000D02*
X168050000Y-82800000D01*
X168050000Y-82750000D02*
X166200000Y-82750000D01*
%TO.C,C7*%
X158652500Y-90937500D02*
X158652500Y-90150000D01*
X157090000Y-88845563D02*
X157090000Y-83090000D01*
X163910000Y-83090000D02*
X161560000Y-83090000D01*
X158154437Y-89910000D02*
X159440000Y-89910000D01*
X162845563Y-89910000D02*
X161560000Y-89910000D01*
X162845563Y-89910000D02*
X163910000Y-88845563D01*
X163910000Y-88845563D02*
X163910000Y-83090000D01*
X157090000Y-83090000D02*
X159440000Y-83090000D01*
X158154437Y-89910000D02*
X157090000Y-88845563D01*
X158258750Y-90543750D02*
X159046250Y-90543750D01*
%TO.C,R1*%
X115422500Y-96737258D02*
X115422500Y-96262742D01*
X114377500Y-96737258D02*
X114377500Y-96262742D01*
%TO.C,J4*%
X194550000Y-92350000D02*
X194550000Y-102350000D01*
D11*
X200050000Y-92350000D02*
X200050000Y-102350000D01*
X200050000Y-102350000D02*
X193550000Y-102350000D01*
D12*
X194550000Y-97350000D02*
X193550000Y-97350000D01*
D11*
X193550000Y-102350000D02*
X193550000Y-92350000D01*
X193550000Y-92350000D02*
X200050000Y-92350000D01*
D12*
%TO.C,R7*%
X114577500Y-110237258D02*
X114577500Y-109762742D01*
X115622500Y-110237258D02*
X115622500Y-109762742D01*
%TO.C,C20*%
X137560000Y-119040580D02*
X137560000Y-118759420D01*
X136540000Y-119040580D02*
X136540000Y-118759420D01*
%TO.C,C8*%
X155410000Y-83090000D02*
X153060000Y-83090000D01*
X149758750Y-90543750D02*
X150546250Y-90543750D01*
X154345563Y-89910000D02*
X155410000Y-88845563D01*
X154345563Y-89910000D02*
X153060000Y-89910000D01*
X149654437Y-89910000D02*
X150940000Y-89910000D01*
X150152500Y-90937500D02*
X150152500Y-90150000D01*
X148590000Y-88845563D02*
X148590000Y-83090000D01*
X148590000Y-83090000D02*
X150940000Y-83090000D01*
X155410000Y-88845563D02*
X155410000Y-83090000D01*
X149654437Y-89910000D02*
X148590000Y-88845563D01*
%TO.C,C37*%
X155890580Y-121740000D02*
X155609420Y-121740000D01*
X155890580Y-122760000D02*
X155609420Y-122760000D01*
%TO.C,R3*%
X117522500Y-103737258D02*
X117522500Y-103262742D01*
X116477500Y-103737258D02*
X116477500Y-103262742D01*
%TO.C,R25*%
X181262742Y-118477500D02*
X181737258Y-118477500D01*
X181262742Y-119522500D02*
X181737258Y-119522500D01*
%TO.C,C15*%
X131010000Y-103640580D02*
X131010000Y-103359420D01*
X129990000Y-103640580D02*
X129990000Y-103359420D01*
%TO.C,J5*%
X164950000Y-129330000D02*
X163620000Y-129330000D01*
X166220000Y-129330000D02*
X173900000Y-129330000D01*
X166220000Y-126670000D02*
X173900000Y-126670000D01*
X166220000Y-129330000D02*
X166220000Y-126670000D01*
X163620000Y-129330000D02*
X163620000Y-128000000D01*
X173900000Y-129330000D02*
X173900000Y-126670000D01*
%TO.C,J7*%
X186700000Y-129330000D02*
X186700000Y-126670000D01*
X179020000Y-129330000D02*
X186700000Y-129330000D01*
X179020000Y-129330000D02*
X179020000Y-126670000D01*
X179020000Y-126670000D02*
X186700000Y-126670000D01*
X176420000Y-129330000D02*
X176420000Y-128000000D01*
X177750000Y-129330000D02*
X176420000Y-129330000D01*
%TO.C,TP6*%
X174150000Y-66050000D02*
X172300000Y-66050000D01*
X174150000Y-66100000D02*
X174150000Y-66050000D01*
X172300000Y-66050000D02*
X172300000Y-67950000D01*
X174150000Y-67950000D02*
X174150000Y-66100000D01*
X172300000Y-67950000D02*
X174150000Y-67950000D01*
%TO.C,R21*%
X176127500Y-110062742D02*
X176127500Y-110537258D01*
X177172500Y-110062742D02*
X177172500Y-110537258D01*
%TO.C,J1*%
X105450000Y-82500000D02*
X106450000Y-82500000D01*
X106450000Y-92500000D02*
X99950000Y-92500000D01*
X105450000Y-87500000D02*
X106450000Y-87500000D01*
X106450000Y-77500000D02*
X106450000Y-92500000D01*
X99950000Y-77500000D02*
X106450000Y-77500000D01*
X99950000Y-92500000D02*
X99950000Y-77500000D01*
X105450000Y-92500000D02*
X105450000Y-77500000D01*
%TO.C,R23*%
X189722500Y-110637258D02*
X189722500Y-110162742D01*
X188677500Y-110637258D02*
X188677500Y-110162742D01*
%TO.C,C35*%
X147159420Y-100160000D02*
X147440580Y-100160000D01*
X147159420Y-99140000D02*
X147440580Y-99140000D01*
%TO.C,C1*%
X122258750Y-76043750D02*
X123046250Y-76043750D01*
X127910000Y-74345563D02*
X127910000Y-68590000D01*
X126845563Y-75410000D02*
X127910000Y-74345563D01*
X121090000Y-68590000D02*
X123440000Y-68590000D01*
X127910000Y-68590000D02*
X125560000Y-68590000D01*
X122652500Y-76437500D02*
X122652500Y-75650000D01*
X121090000Y-74345563D02*
X121090000Y-68590000D01*
X126845563Y-75410000D02*
X125560000Y-75410000D01*
X122154437Y-75410000D02*
X121090000Y-74345563D01*
X122154437Y-75410000D02*
X123440000Y-75410000D01*
%TO.C,C3*%
X153747500Y-70562500D02*
X153747500Y-71350000D01*
X154245563Y-71590000D02*
X152960000Y-71590000D01*
X154245563Y-71590000D02*
X155310000Y-72654437D01*
X155310000Y-78410000D02*
X152960000Y-78410000D01*
X148490000Y-72654437D02*
X148490000Y-78410000D01*
X155310000Y-72654437D02*
X155310000Y-78410000D01*
X149554437Y-71590000D02*
X148490000Y-72654437D01*
X154141250Y-70956250D02*
X153353750Y-70956250D01*
X148490000Y-78410000D02*
X150840000Y-78410000D01*
X149554437Y-71590000D02*
X150840000Y-71590000D01*
%TO.C,R5*%
X133022500Y-103262742D02*
X133022500Y-103737258D01*
X131977500Y-103262742D02*
X131977500Y-103737258D01*
%TO.C,R8*%
X116777500Y-109762742D02*
X116777500Y-110237258D01*
X117822500Y-109762742D02*
X117822500Y-110237258D01*
%TD*%
M02*
