%TF.GenerationSoftware,KiCad,Pcbnew,(6.0.2)*%
%TF.CreationDate,2022-04-24T18:21:00+08:00*%
%TF.ProjectId,wave_generator,77617665-5f67-4656-9e65-7261746f722e,rev?*%
%TF.SameCoordinates,Original*%
%TF.FileFunction,Soldermask,Bot*%
%TF.FilePolarity,Negative*%
%FSLAX46Y46*%
G04 Gerber Fmt 4.6, Leading zero omitted, Abs format (unit mm)*
G04 Created by KiCad (PCBNEW (6.0.2)) date 2022-04-24 18:21:00*
%MOMM*%
%LPD*%
G01*
G04 APERTURE LIST*
G04 Aperture macros list*
%AMRoundRect*
0 Rectangle with rounded corners*
0 $1 Rounding radius*
0 $2 $3 $4 $5 $6 $7 $8 $9 X,Y pos of 4 corners*
0 Add a 4 corners polygon primitive as box body*
4,1,4,$2,$3,$4,$5,$6,$7,$8,$9,$2,$3,0*
0 Add four circle primitives for the rounded corners*
1,1,$1+$1,$2,$3*
1,1,$1+$1,$4,$5*
1,1,$1+$1,$6,$7*
1,1,$1+$1,$8,$9*
0 Add four rect primitives between the rounded corners*
20,1,$1+$1,$2,$3,$4,$5,0*
20,1,$1+$1,$4,$5,$6,$7,0*
20,1,$1+$1,$6,$7,$8,$9,0*
20,1,$1+$1,$8,$9,$2,$3,0*%
G04 Aperture macros list end*
%ADD10RoundRect,0.200000X-0.762000X-0.762000X0.762000X-0.762000X0.762000X0.762000X-0.762000X0.762000X0*%
%ADD11C,1.924000*%
%ADD12C,1.940000*%
%ADD13RoundRect,0.200000X1.250000X-1.250000X1.250000X1.250000X-1.250000X1.250000X-1.250000X-1.250000X0*%
%ADD14C,2.900000*%
%ADD15C,5.304000*%
%ADD16C,1.400000*%
%ADD17R,1.700000X1.700000*%
%ADD18O,1.700000X1.700000*%
%ADD19RoundRect,0.200000X-1.250000X1.250000X-1.250000X-1.250000X1.250000X-1.250000X1.250000X1.250000X0*%
G04 APERTURE END LIST*
D10*
%TO.C,RV3*%
X164900000Y-96700000D03*
D11*
X167400000Y-96700000D03*
D12*
X169900000Y-96700000D03*
%TD*%
D10*
%TO.C,RV2*%
X121000000Y-113000000D03*
D11*
X123500000Y-113000000D03*
D12*
X126000000Y-113000000D03*
%TD*%
D13*
%TO.C,J2*%
X103200000Y-102500000D03*
D14*
X103200000Y-97365851D03*
%TD*%
D15*
%TO.C,W3*%
X104000000Y-126000000D03*
%TD*%
D16*
%TO.C,TP5*%
X152000000Y-67000000D03*
%TD*%
D17*
%TO.C,J6*%
X152200000Y-128000000D03*
D18*
X154740000Y-128000000D03*
X157280000Y-128000000D03*
X159820000Y-128000000D03*
%TD*%
D16*
%TO.C,TP3*%
X168550000Y-115250000D03*
%TD*%
D13*
%TO.C,J3*%
X103200000Y-115000000D03*
D14*
X103200000Y-109865851D03*
%TD*%
D15*
%TO.C,W2*%
X196000000Y-69000000D03*
%TD*%
D10*
%TO.C,RV4*%
X181900000Y-96700000D03*
D11*
X184400000Y-96700000D03*
D12*
X186900000Y-96700000D03*
%TD*%
D16*
%TO.C,TP1*%
X134500000Y-107400000D03*
%TD*%
%TO.C,TP2*%
X134900000Y-122800000D03*
%TD*%
%TO.C,TP4*%
X173200000Y-115250000D03*
%TD*%
D10*
%TO.C,RV1*%
X121000000Y-97500000D03*
D11*
X123500000Y-97500000D03*
D12*
X126000000Y-97500000D03*
%TD*%
D16*
%TO.C,TP7*%
X167150000Y-83700000D03*
%TD*%
D15*
%TO.C,W1*%
X104000000Y-69000000D03*
%TD*%
D19*
%TO.C,J4*%
X196800000Y-94850000D03*
D14*
X196800000Y-99984149D03*
%TD*%
D15*
%TO.C,W4*%
X196000000Y-126000000D03*
%TD*%
D17*
%TO.C,J5*%
X164950000Y-128000000D03*
D18*
X167490000Y-128000000D03*
X170030000Y-128000000D03*
X172570000Y-128000000D03*
%TD*%
D17*
%TO.C,J7*%
X177750000Y-128000000D03*
D18*
X180290000Y-128000000D03*
X182830000Y-128000000D03*
X185370000Y-128000000D03*
%TD*%
D16*
%TO.C,TP6*%
X173250000Y-67000000D03*
%TD*%
D13*
%TO.C,J1*%
X103200000Y-90000000D03*
D14*
X103200000Y-85000000D03*
X103200000Y-80000000D03*
%TD*%
M02*
